<svg width="52" height="63" viewBox="0 0 52 63" fill="none" xmlns="http://www.w3.org/2000/svg">
<path d="M44.042 30.3935C42.8124 34.9244 38.6043 38.3309 34.292 38.0742C32.8918 37.9904 31.459 37.5249 30.4464 36.4622C29.1591 35.1139 28.7476 33.0407 28.7175 31.091C28.6899 29.295 28.9383 27.4772 29.5958 25.8295C30.5041 23.5393 32.1315 21.6995 33.7261 19.9145C34.5906 18.9534 35.4827 17.9539 36.6194 17.4115C39.4587 16.0522 41.8162 19.0866 43.0558 21.5539C44.3921 24.2176 44.8387 27.4552 44.042 30.3935ZM17.7768 2.42221C16.3063 3.21033 15.1872 4.66985 14.3189 6.23784C11.2776 11.7299 10.1785 18.5841 11.3077 24.9563C11.6565 26.9348 12.92 29.0603 13.9199 30.723C14.9199 32.3857 16.5046 33.6915 18.2686 33.8068C17.8947 32.9665 17.5217 32.1262 17.1495 31.2859C18.0207 32.1509 19.0493 32.8045 20.1676 33.2039C21.2859 33.6034 22.4688 33.7396 23.6386 33.6036C22.2484 30.9385 21.1807 28.0264 20.7529 24.9645C20.325 21.9027 20.5446 18.6857 21.6311 15.8449C22.3024 14.0929 23.2973 12.4755 23.6386 10.6027C24.0539 8.31248 24.1555 4.61768 23.1367 2.58972C22.2585 0.836367 19.2234 1.65057 17.7768 2.42221Z" fill="#844F4F"/>
<path d="M34.9802 45.2933V37.9008L34.9201 37.8641C34.3535 37.5092 33.8586 37.1725 33.4643 36.8936C33.174 36.6878 32.9314 36.4129 32.755 36.09C32.5787 35.7672 32.4734 35.405 32.4471 35.0314C32.4471 34.9694 32.4406 34.9074 32.4406 34.844V29.3376H19.6761V34.844C19.6761 34.9046 19.6761 34.9637 19.6696 35.0243C19.6442 35.3992 19.5393 35.7627 19.3629 36.0868C19.1866 36.411 18.9435 36.687 18.6524 36.8936C18.2542 37.1753 17.7528 37.5162 17.177 37.8796C16.6978 38.1783 16.1664 38.4924 15.5984 38.7995V45.2933H34.9802Z" fill="#FBA56C"/>
<path d="M52 48.5078C47.3061 55.628 40.2562 60.5542 32.2917 62.2792L34.0275 37.6523C35.704 38.748 38.2813 40.1999 40.7916 40.6888L41.7491 40.869C45.4175 41.5665 50.5833 42.7286 52 48.5078ZM19.6553 62.2684C11.712 60.5331 4.68324 55.6127 0 48.5091C1.36872 42.9141 6.25448 41.6491 9.89011 40.938C10.348 40.85 10.7895 40.7701 11.2008 40.6888C13.7755 40.1877 16.4196 38.6762 18.0911 37.5737L19.6553 62.2684Z" fill="#2D5763"/>
<path d="M32.1444 29.3376H19.8535V30.8817H32.1444V29.3376Z" fill="#FBA56C"/>
<path d="M34.9806 40.1455L32.3529 62.1528C28.1024 63.0151 23.7287 63.0052 19.4819 62.1235L19.4522 62.1168L17.4897 40.7715C18.5845 42.0865 19.952 43.1306 21.4911 43.8267C23.0302 44.5228 24.7015 44.8531 26.3811 44.7929C28.0607 44.7328 29.7057 44.2839 31.1943 43.4794C32.6829 42.675 33.9769 41.5355 34.9806 40.1455Z" fill="#F1F2F2"/>
<path d="M32.1444 28.8228V31.916C31.599 32.6589 31.0163 33.3682 30.399 34.0405C29.2333 35.3325 27.9066 35.6063 25.9977 35.4894C24.0876 35.6063 22.7609 35.3325 21.5964 34.0405C21.2531 33.6593 20.4332 32.8021 19.8535 31.9201V28.8228H32.1444Z" fill="#F39965"/>
<path d="M35.9247 10.2816C33.3149 4.91066 28.8334 4.05771 25.9995 4.12134H25.7844C20.4747 4.09291 16.0873 8.47682 15.7369 14.0454C15.5632 16.6594 15.5529 19.2826 15.706 21.898C15.9111 24.9717 17.1429 27.8704 19.184 30.0823C20.4309 31.4362 21.7152 32.8266 22.0939 33.2301C23.1244 34.3295 24.3043 34.5637 25.9982 34.4649C27.6921 34.5637 28.8682 34.3295 29.9026 33.2301C30.2813 32.8239 31.5656 31.4348 32.8125 30.0823C34.854 27.8702 36.0859 24.9709 36.2905 21.8966C36.6705 16.1263 35.9247 10.2816 35.9247 10.2816Z" fill="#FBA56C"/>
<path d="M15.8844 17.7956C15.9046 17.818 15.9249 17.8403 15.9439 17.8641C16.4118 18.3005 16.7133 18.9155 16.788 19.5863C16.9299 20.8584 16.9793 22.1794 16.6384 23.3606C16.5244 23.7548 16.5662 24.1993 16.1074 24.191C15.8185 24.191 15.6233 23.8904 15.4661 23.6486C15.0648 23.0303 14.8155 22.3079 14.7425 21.5517C14.6474 20.5257 14.2026 19.6478 14.1836 18.6609C14.1646 17.674 15.2393 17.1246 15.8844 17.7956ZM36.1187 17.7956C36.0984 17.818 36.0781 17.8403 36.0591 17.8641C35.5908 18.3001 35.2893 18.9153 35.2151 19.5863C35.0731 20.8584 35.0224 22.1794 35.3634 23.3606C35.4774 23.7548 35.4369 24.1993 35.8944 24.191C36.1846 24.191 36.3798 23.8904 36.5369 23.6486C36.9377 23.0299 37.1869 22.3077 37.2606 21.5517C37.3556 20.5257 37.8004 19.6478 37.8195 18.6609C37.8385 17.674 36.76 17.1246 36.1187 17.7956Z" fill="#FBA56C"/>
<path d="M22.2416 4.08742C22.1122 2.91077 22.5067 1.63449 23.3811 0.873844C24.2141 0.149544 25.3743 0.00279853 26.4621 0.00010596C29.9771 -0.0128793 33.4001 1.16796 36.2118 3.36342C39.0236 5.55887 41.0704 8.6491 42.0418 12.1651C42.5592 14.0418 42.7506 16.0599 42.263 17.9447C41.7754 19.8295 40.5362 21.5622 38.7952 22.2986C37.0542 23.035 34.8321 22.5961 33.6861 21.0479C32.7069 19.7245 32.641 17.934 32.4288 16.2794C32.1197 13.8763 31.3747 11.4489 29.7941 9.66508C28.5394 8.24744 27.3947 7.27408 25.5347 7.27408C23.6747 7.27408 22.4136 5.69219 22.2416 4.08742Z" fill="#844F4F"/>
<path d="M38.7589 50.5796C38.2757 53.212 35.7347 58.0979 33.6845 61.7382C33.2059 61.8704 32.7231 61.989 32.2361 62.094L32.1437 62.1131C31.8682 62.1728 31.591 62.2281 31.3121 62.2788C31.9052 55.1191 33.0852 40.7957 33.2375 38.128C33.2799 37.3822 33.1826 37.0345 33.0115 36.8389C32.6906 36.4858 32.3899 36.1116 32.1112 35.7183L32.1175 35.0065C33.1164 35.6069 33.8943 36.6365 34.4824 37.7381C34.6285 38.0098 34.7621 38.2896 34.8844 38.568C36.8298 42.9948 38.3206 45.1287 38.7027 46.3376C38.7299 46.4239 38.7287 46.5178 38.6994 46.6033C38.67 46.6888 38.6142 46.7605 38.5416 46.8062L36.7861 47.9187C36.7353 47.9514 36.6926 47.997 36.6616 48.0517C36.6307 48.1064 36.6125 48.1685 36.6085 48.2325C36.6046 48.2966 36.6151 48.3608 36.639 48.4194C36.663 48.4781 36.6998 48.5296 36.7461 48.5693L38.6278 50.1993C38.6795 50.2436 38.719 50.3025 38.7421 50.3696C38.7652 50.4366 38.771 50.5092 38.7589 50.5796ZM20.6926 62.2788C20.3696 62.219 20.0483 62.1538 19.7286 62.0832L19.6999 62.0764C19.2354 61.9731 18.7747 61.8604 18.3177 61.7341C16.2674 58.0952 13.7277 53.2107 13.2445 50.5796C13.2318 50.5082 13.2372 50.4344 13.2603 50.3661C13.2835 50.2979 13.3233 50.2378 13.3756 50.1925L15.2598 48.5693C15.3063 48.5295 15.3431 48.478 15.3671 48.4191C15.391 48.3603 15.4014 48.2959 15.3972 48.2317C15.393 48.1675 15.3744 48.1054 15.3431 48.0509C15.3117 47.9963 15.2685 47.9509 15.2173 47.9187L13.4618 46.8035C13.3894 46.7576 13.3338 46.6858 13.3044 46.6004C13.275 46.515 13.2737 46.4212 13.3007 46.3349C13.6828 45.126 15.1736 42.9921 17.119 38.5653C17.2439 38.2937 17.3687 38.0152 17.5148 37.7503C18.1054 36.6324 18.8883 35.6015 19.8984 34.9998V35.7183C19.6187 36.111 19.3176 36.4852 18.9969 36.8389C18.8271 37.0345 18.7297 37.3822 18.7709 38.128C18.9195 40.7957 20.0982 55.1191 20.6926 62.2788Z" fill="#366D81"/>
<path d="M17.2677 19.0071C17.1533 22.6899 15.0772 22.2049 13.6827 22.6473C12.6909 21.6227 13.6644 19.7306 13.6827 18.2956C13.7253 15.4535 13.8299 12.5501 14.8339 9.90117C15.8378 7.25228 17.909 4.84455 20.6446 4.20765C21.713 3.95981 24.2272 4.13569 23.5116 5.91717C22.9348 7.36154 17.6303 7.35487 17.2677 19.0071Z" fill="#844F4F"/>
<path d="M34.8503 16.2097C34.8173 16.2097 34.7857 16.1952 34.7623 16.1695C34.739 16.1438 34.7259 16.109 34.7259 16.0726C34.7584 13.438 33.8578 10.8932 32.2153 8.97903C30.5728 7.06489 28.318 5.9323 25.93 5.82194C25.897 5.82048 25.8659 5.80465 25.8435 5.77792C25.8212 5.75118 25.8093 5.71575 25.8107 5.67939C25.812 5.64304 25.8263 5.60876 25.8506 5.58408C25.8748 5.55941 25.907 5.54636 25.9399 5.54782C28.3928 5.66103 30.7089 6.82432 32.396 8.79045C34.083 10.7566 35.0081 13.3705 34.9746 16.0767C34.9736 16.1124 34.9601 16.1462 34.9369 16.171C34.9137 16.1958 34.8826 16.2097 34.8503 16.2097ZM34.0707 7.09796C34.052 7.09824 34.0334 7.09382 34.0164 7.08503C33.9993 7.07625 33.9844 7.06333 33.9725 7.04725C33.1346 5.88772 31.8516 4.95846 30.2627 4.36911C28.8255 3.8332 27.2963 3.60294 25.8156 3.37954C25.7993 3.37711 25.7836 3.37116 25.7693 3.36202C25.7551 3.35289 25.7426 3.34075 25.7326 3.32631C25.7125 3.29713 25.7036 3.26032 25.7081 3.22397C25.7125 3.18762 25.7299 3.15471 25.7564 3.13248C25.7828 3.11024 25.8162 3.10051 25.8492 3.10542C27.3411 3.3302 28.8827 3.5632 30.3423 4.10732C31.9771 4.71998 33.3012 5.67665 34.1714 6.87729C34.1859 6.89745 34.1949 6.92169 34.1975 6.94722C34.2 6.97276 34.196 6.99858 34.1859 7.02173C34.1758 7.04488 34.16 7.06443 34.1403 7.07815C34.1206 7.09188 34.0978 7.09921 34.0745 7.09933L34.0707 7.09796ZM16.2986 14.0592H16.2887C16.2723 14.0578 16.2564 14.0529 16.2418 14.0447C16.2272 14.0365 16.2142 14.0252 16.2036 14.0114C16.1929 13.9977 16.1849 13.9817 16.1798 13.9645C16.1748 13.9473 16.1729 13.9292 16.1743 13.9112C16.4229 10.4737 18.4992 7.20487 21.3449 5.77534C21.3599 5.76778 21.376 5.76356 21.3924 5.76292C21.4088 5.76227 21.4252 5.76522 21.4406 5.7716C21.4559 5.77797 21.47 5.78763 21.482 5.80004C21.494 5.81244 21.5036 5.82734 21.5103 5.84387C21.5237 5.87695 21.5248 5.91457 21.5131 5.94848C21.5015 5.98239 21.4781 6.00983 21.4481 6.02478C18.6819 7.41457 16.6616 10.5916 16.4229 13.9331C16.4204 13.9675 16.4062 13.9996 16.3832 14.023C16.3601 14.0464 16.3299 14.0593 16.2986 14.0592ZM16.3608 7.12126C16.3324 7.12067 16.305 7.11011 16.2825 7.09111C16.2696 7.0799 16.2589 7.06599 16.2509 7.05019C16.2429 7.03439 16.2379 7.01701 16.236 6.99904C16.2342 6.98108 16.2356 6.96289 16.2401 6.94553C16.2447 6.92816 16.2523 6.91196 16.2626 6.89785C16.9662 5.92473 17.6935 4.91734 18.6247 4.15666C19.6889 3.29867 20.8563 2.93957 21.9119 3.14516C21.9448 3.15153 21.9742 3.17207 21.9934 3.20227C22.0126 3.23247 22.0202 3.26986 22.0144 3.30621C22.0086 3.34256 21.99 3.37489 21.9626 3.3961C21.9352 3.41731 21.9013 3.42564 21.8683 3.41928C20.8949 3.23014 19.766 3.58101 18.7714 4.3787C17.8614 5.1106 17.1453 6.10291 16.4528 7.0637C16.4422 7.08016 16.4285 7.09385 16.4126 7.1038C16.3967 7.11375 16.379 7.11971 16.3608 7.12126ZM39.3371 18.4725C39.3041 18.4725 39.2725 18.4581 39.2492 18.4324C39.2259 18.4067 39.2128 18.3718 39.2128 18.3355C39.2362 15.3743 38.5316 12.4614 37.1739 9.90631C37.1576 9.875 37.1531 9.83787 37.1615 9.80297C37.1699 9.76806 37.1904 9.73822 37.2186 9.71991C37.247 9.70138 37.2809 9.69602 37.3128 9.70501C37.3447 9.71401 37.3721 9.73662 37.389 9.76788C38.7689 12.366 39.4851 15.3276 39.4614 18.3382C39.4608 18.3741 39.4474 18.4082 39.4241 18.4334C39.4009 18.4585 39.3697 18.4725 39.3371 18.4725ZM12.9456 22.217C12.9143 22.2171 12.8841 22.2042 12.861 22.1808C12.838 22.1574 12.8238 22.1253 12.8213 22.0909C12.5848 18.8057 13.0977 15.5075 14.3132 12.4967C14.3188 12.4787 14.3277 12.4622 14.3394 12.4482C14.3511 12.4342 14.3653 12.4231 14.3811 12.4155C14.3969 12.4079 14.414 12.404 14.4313 12.4041C14.4485 12.4041 14.4656 12.4082 14.4813 12.4159C14.4971 12.4236 14.5112 12.4349 14.5228 12.449C14.5344 12.4631 14.5432 12.4797 14.5487 12.4977C14.5542 12.5158 14.5562 12.5349 14.5546 12.5538C14.553 12.5728 14.5478 12.5911 14.5394 12.6078C13.3438 15.5763 12.8399 18.8271 13.0737 22.0649C13.0761 22.1008 13.0656 22.1363 13.0444 22.1638C13.0232 22.1912 12.9931 22.2084 12.9605 22.2115L12.9456 22.217ZM36.0288 34.9992C35.9959 35.003 35.9629 34.9922 35.9371 34.9692C35.9113 34.9462 35.8949 34.9128 35.8915 34.8765C35.888 34.8401 35.8978 34.8038 35.9186 34.7754C35.9395 34.747 35.9698 34.7289 36.0027 34.725C37.0709 34.472 38.0747 33.9604 38.9415 33.2272C39.8083 32.494 40.5164 31.5575 41.0146 30.4856C41.5128 29.4136 41.7886 28.233 41.8221 27.0291C41.8556 25.8252 41.6459 24.6281 41.2082 23.5245C41.195 23.4911 41.1944 23.4533 41.2065 23.4193C41.2186 23.3854 41.2425 23.3582 41.2728 23.3436C41.3032 23.3291 41.3375 23.3284 41.3683 23.3418C41.3991 23.3552 41.4237 23.3815 41.4369 23.4149C41.889 24.5558 42.1054 25.7931 42.0706 27.0375C42.0357 28.2819 41.7505 29.5022 41.2354 30.6101C40.7204 31.7181 39.9884 32.686 39.0925 33.4439C38.1965 34.2017 37.159 34.7306 36.055 34.9923C36.0466 34.9959 36.0378 34.9982 36.0288 34.9992Z" fill="#995D5D"/>
<path d="M35.2854 30.881C35.1055 30.8809 34.9258 30.8657 34.7478 30.8355C34.7141 30.8296 34.6837 30.808 34.6633 30.7754C34.6429 30.7428 34.6342 30.7019 34.6391 30.6617C34.644 30.6214 34.6621 30.5851 34.6894 30.5608C34.7166 30.5364 34.7509 30.526 34.7846 30.5319C35.3058 30.6195 35.8367 30.5727 36.3415 30.3947C36.8464 30.2167 37.3134 29.9117 37.7113 29.5001C38.1091 29.0885 38.4285 28.5799 38.648 28.0085C38.8675 27.4371 38.982 26.8162 38.9838 26.1876C38.9838 26.1473 38.9972 26.1087 39.021 26.0802C39.0448 26.0518 39.0772 26.0358 39.1109 26.0358C39.1446 26.0358 39.1769 26.0518 39.2007 26.0802C39.2246 26.1087 39.238 26.1473 39.238 26.1876C39.2366 26.8058 39.1333 27.4176 38.9339 27.9881C38.7345 28.5586 38.443 29.0766 38.0759 29.5124C37.7088 29.9483 37.2735 30.2935 36.7946 30.5283C36.3158 30.7631 35.803 30.883 35.2854 30.881ZM16.5506 29.0974C16.5287 29.0969 16.5072 29.0896 16.4883 29.0762C15.7684 28.578 15.1475 27.8994 14.6683 27.0871C14.1891 26.2747 13.8631 25.3479 13.7126 24.3706C13.7067 24.3303 13.7145 24.2889 13.7341 24.2555C13.7538 24.222 13.7838 24.1993 13.8175 24.1922C13.8512 24.1852 13.8859 24.1944 13.9139 24.2179C13.9419 24.2414 13.9609 24.2772 13.9668 24.3175C14.1105 25.2508 14.4216 26.1359 14.8788 26.912C15.336 27.6881 15.9285 28.3368 16.6154 28.8136C16.6445 28.8336 16.6658 28.8665 16.6746 28.9052C16.6834 28.9439 16.679 28.9852 16.6624 29.02C16.6513 29.0437 16.6351 29.0634 16.6154 29.077C16.5957 29.0906 16.5733 29.0977 16.5506 29.0974Z" fill="#995D5D"/>
</svg>
