<svg width="348" height="97" viewBox="0 0 348 97" fill="none" xmlns="http://www.w3.org/2000/svg">
<g clip-path="url(#clip0_1485_2847)">
<rect y="0.5" width="348" height="96.5" rx="27" fill="#044C8C"/>
<circle cx="81" cy="36" r="11" fill="#407BFF"/>
<circle cx="61.2049" cy="68.1187" r="4.15994" fill="#407BFF"/>
<circle cx="9.99204" cy="31.7733" r="2.77329" fill="#407BFF"/>
<path d="M76.8706 98.1375C107.931 125.956 110.559 173.688 82.7401 204.748C54.9211 235.809 7.18992 238.437 -23.8706 210.618C-54.9311 182.799 -57.559 135.067 -29.7401 104.007C-16.3975 89.1097 1.52554 80.7529 19.993 79.159C24.2912 78.788 27.8346 75.3469 27.8264 71.0327L27.8232 69.3413C27.8192 67.2733 26.4959 65.488 24.936 64.1304C20.4553 60.2307 19.9843 53.4371 23.8839 48.9563C27.7836 44.4756 34.5772 44.0046 39.0579 47.9042C43.5387 51.8039 44.0097 58.5975 40.11 63.0783C39.7779 63.4599 39.4248 63.8124 39.054 64.1356C36.4051 66.444 33.5739 69.2635 33.5806 72.7771C33.5875 76.4232 36.3736 79.4307 39.9619 80.0773C53.255 82.4728 66.0706 88.4646 76.8706 98.1375Z" fill="#407BFF"/>
<path d="M159.259 41.5206C158.886 41.5206 158.586 41.4073 158.359 41.1806C158.119 40.9406 157.999 40.6006 157.999 40.1606C157.999 39.7206 158.119 39.3873 158.359 39.1606C158.586 38.9206 158.886 38.8006 159.259 38.8006C159.646 38.8006 159.953 38.9206 160.179 39.1606C160.406 39.4006 160.519 39.734 160.519 40.1606C160.519 40.6006 160.406 40.9406 160.179 41.1806C159.953 41.4073 159.646 41.5206 159.259 41.5206ZM162.679 41.5206C162.293 41.5206 161.986 41.4006 161.759 41.1606C161.533 40.9206 161.419 40.5873 161.419 40.1606C161.419 39.734 161.533 39.4006 161.759 39.1606C161.986 38.9206 162.293 38.8006 162.679 38.8006C163.079 38.8006 163.386 38.9273 163.599 39.1806C163.826 39.4206 163.939 39.7473 163.939 40.1606C163.939 40.574 163.826 40.9073 163.599 41.1606C163.373 41.4006 163.066 41.5206 162.679 41.5206ZM161.88 55.1406C160.707 55.1406 159.7 54.954 158.86 54.5806C158.033 54.194 157.4 53.6406 156.96 52.9206C156.52 52.2006 156.3 51.3406 156.3 50.3406C156.3 49.2606 156.54 48.354 157.02 47.6206C157.513 46.874 158.187 46.3006 159.04 45.9006C159.907 45.5006 160.9 45.3006 162.02 45.3006H162.84V44.2406H165.4V53.0206H167.82C167.887 53.0206 167.92 53.0473 167.92 53.1006V55.0406C167.92 55.1073 167.887 55.1406 167.82 55.1406H161.88ZM162.84 53.0206V47.4206H162.08C161.08 47.4206 160.307 47.674 159.76 48.1806C159.213 48.6873 158.94 49.4073 158.94 50.3406C158.94 51.194 159.193 51.854 159.7 52.3206C160.207 52.7873 160.933 53.0206 161.88 53.0206H162.84ZM177.355 55.1406C176.755 55.1406 176.115 55.0406 175.435 54.8406C174.768 54.6406 174.175 54.3806 173.655 54.0606C173.055 54.4206 172.442 54.694 171.815 54.8806C171.202 55.054 170.575 55.1406 169.935 55.1406H167.615C167.548 55.1406 167.515 55.1073 167.515 55.0406V53.1006C167.515 53.0473 167.548 53.0206 167.615 53.0206H169.715C170.075 53.0206 170.442 52.9873 170.815 52.9206C171.188 52.8406 171.502 52.7473 171.755 52.6406C171.542 52.4806 171.322 52.274 171.095 52.0206C170.868 51.754 170.635 51.454 170.395 51.1206C169.928 50.4406 169.522 49.7073 169.175 48.9206C168.828 48.134 168.595 47.3806 168.475 46.6606C168.995 46.2206 169.562 45.8406 170.175 45.5206C170.788 45.2006 171.422 44.9606 172.075 44.8006C172.728 44.6273 173.362 44.5406 173.975 44.5406C174.895 44.5406 175.775 44.654 176.615 44.8806C177.455 45.094 178.222 45.4073 178.915 45.8206C178.915 46.7673 178.775 47.674 178.495 48.5406C178.228 49.4073 177.842 50.1873 177.335 50.8806C176.842 51.574 176.248 52.154 175.555 52.6206C175.848 52.754 176.155 52.854 176.475 52.9206C176.795 52.9873 177.135 53.0206 177.495 53.0206H179.835C179.902 53.0206 179.935 53.0473 179.935 53.1006V55.0406C179.935 55.1073 179.902 55.1406 179.835 55.1406H177.355ZM173.695 51.5006C174.562 50.9673 175.215 50.3406 175.655 49.6206C176.108 48.9006 176.362 48.074 176.415 47.1406C176.068 46.9806 175.688 46.8606 175.275 46.7806C174.862 46.7006 174.422 46.6606 173.955 46.6606C173.635 46.6606 173.302 46.7006 172.955 46.7806C172.622 46.8473 172.295 46.9473 171.975 47.0806C171.655 47.2006 171.368 47.354 171.115 47.5406C171.248 48.074 171.435 48.594 171.675 49.1006C171.928 49.594 172.222 50.0473 172.555 50.4606C172.902 50.8606 173.282 51.2073 173.695 51.5006ZM182.249 59.8006C181.863 59.8006 181.556 59.6806 181.329 59.4406C181.103 59.2006 180.989 58.8673 180.989 58.4406C180.989 58.0273 181.103 57.694 181.329 57.4406C181.543 57.2006 181.849 57.0806 182.249 57.0806C182.649 57.0806 182.956 57.2006 183.169 57.4406C183.396 57.694 183.509 58.0273 183.509 58.4406C183.509 58.854 183.396 59.1806 183.169 59.4206C182.943 59.674 182.636 59.8006 182.249 59.8006ZM179.627 55.1406C179.56 55.1406 179.527 55.1073 179.527 55.0406V53.1006C179.527 53.0473 179.56 53.0206 179.627 53.0206H182.167V45.3006H184.747V55.1406H179.627ZM188.445 39.9406H191.025V55.1406H188.445V39.9406ZM199.327 55.1406V55.5206C199.327 56.414 199.167 57.194 198.847 57.8606C198.527 58.5273 198.074 59.0406 197.487 59.4006C196.901 59.7606 196.194 59.9406 195.367 59.9406C194.807 59.9406 194.274 59.8673 193.767 59.7206C193.274 59.5873 192.761 59.3473 192.227 59.0006L193.207 57.2606C193.541 57.4606 193.834 57.594 194.087 57.6606C194.341 57.7273 194.634 57.7606 194.967 57.7606C195.514 57.7606 195.954 57.5406 196.287 57.1006C196.621 56.674 196.787 56.1273 196.787 55.4606V45.3006H199.327V53.0206H201.887C201.954 53.0206 201.987 53.0473 201.987 53.1006V55.0406C201.987 55.1073 201.954 55.1406 201.887 55.1406H199.327ZM201.697 55.1406C201.63 55.1406 201.597 55.1073 201.597 55.0406V53.1006C201.597 53.0473 201.63 53.0206 201.697 53.0206H204.237V39.9406H206.817V55.1406H201.697ZM210.809 39.9406H213.389V55.1406H210.809V39.9406ZM226.447 41.5206C226.074 41.5206 225.774 41.4073 225.547 41.1806C225.307 40.9406 225.187 40.6006 225.187 40.1606C225.187 39.7206 225.307 39.3873 225.547 39.1606C225.774 38.9206 226.074 38.8006 226.447 38.8006C226.834 38.8006 227.14 38.9206 227.367 39.1606C227.594 39.4006 227.707 39.734 227.707 40.1606C227.707 40.6006 227.594 40.9406 227.367 41.1806C227.14 41.4073 226.834 41.5206 226.447 41.5206ZM229.867 41.5206C229.48 41.5206 229.174 41.4006 228.947 41.1606C228.72 40.9206 228.607 40.5873 228.607 40.1606C228.607 39.734 228.72 39.4006 228.947 39.1606C229.174 38.9206 229.48 38.8006 229.867 38.8006C230.267 38.8006 230.574 38.9273 230.787 39.1806C231.014 39.4206 231.127 39.7473 231.127 40.1606C231.127 40.574 231.014 40.9073 230.787 41.1606C230.56 41.4006 230.254 41.5206 229.867 41.5206ZM229.068 55.1406C227.894 55.1406 226.888 54.954 226.048 54.5806C225.221 54.194 224.588 53.6406 224.148 52.9206C223.708 52.2006 223.488 51.3406 223.488 50.3406C223.488 49.2606 223.728 48.354 224.208 47.6206C224.701 46.874 225.374 46.3006 226.228 45.9006C227.094 45.5006 228.088 45.3006 229.208 45.3006H230.028V44.2406H232.588V53.0206H235.008C235.074 53.0206 235.108 53.0473 235.108 53.1006V55.0406C235.108 55.1073 235.074 55.1406 235.008 55.1406H229.068ZM230.028 53.0206V47.4206H229.268C228.268 47.4206 227.494 47.674 226.948 48.1806C226.401 48.6873 226.128 49.4073 226.128 50.3406C226.128 51.194 226.381 51.854 226.888 52.3206C227.394 52.7873 228.121 53.0206 229.068 53.0206H230.028ZM239.279 42.5206C238.906 42.5206 238.606 42.4073 238.379 42.1806C238.139 41.9406 238.019 41.6006 238.019 41.1606C238.019 40.7206 238.139 40.3873 238.379 40.1606C238.606 39.9206 238.906 39.8006 239.279 39.8006C239.666 39.8006 239.972 39.9206 240.199 40.1606C240.426 40.4006 240.539 40.734 240.539 41.1606C240.539 41.6006 240.426 41.9406 240.199 42.1806C239.972 42.4073 239.666 42.5206 239.279 42.5206ZM242.699 42.5206C242.312 42.5206 242.006 42.4006 241.779 42.1606C241.552 41.9206 241.439 41.5873 241.439 41.1606C241.439 40.734 241.552 40.4006 241.779 40.1606C242.006 39.9206 242.312 39.8006 242.699 39.8006C243.099 39.8006 243.406 39.9273 243.619 40.1806C243.846 40.4206 243.959 40.7473 243.959 41.1606C243.959 41.574 243.846 41.9073 243.619 42.1606C243.392 42.4006 243.086 42.5206 242.699 42.5206ZM234.802 55.1406C234.736 55.1406 234.702 55.1073 234.702 55.0406V53.1006C234.702 53.0473 234.736 53.0206 234.802 53.0206H237.722C237.509 52.7673 237.329 52.494 237.182 52.2006C237.036 51.894 236.922 51.5806 236.842 51.2606C236.776 50.9273 236.742 50.594 236.742 50.2606C236.742 49.2473 236.969 48.374 237.422 47.6406C237.876 46.894 238.529 46.3206 239.382 45.9206C240.236 45.5073 241.262 45.3006 242.462 45.3006H245.702V55.1406H234.802ZM242.142 53.0206H243.142V47.4206H242.522C241.856 47.4206 241.282 47.534 240.802 47.7606C240.336 47.9873 239.976 48.3206 239.722 48.7606C239.482 49.1873 239.362 49.7206 239.362 50.3606C239.362 50.9206 239.469 51.4006 239.682 51.8006C239.896 52.2006 240.209 52.5073 240.622 52.7206C241.036 52.9206 241.542 53.0206 242.142 53.0206ZM253.702 55.1406V55.5206C253.702 56.414 253.542 57.194 253.222 57.8606C252.902 58.5273 252.449 59.0406 251.862 59.4006C251.276 59.7606 250.569 59.9406 249.742 59.9406C249.182 59.9406 248.649 59.8673 248.142 59.7206C247.649 59.5873 247.136 59.3473 246.602 59.0006L247.582 57.2606C247.916 57.4606 248.209 57.594 248.462 57.6606C248.716 57.7273 249.009 57.7606 249.342 57.7606C249.889 57.7606 250.329 57.5406 250.662 57.1006C250.996 56.674 251.162 56.1273 251.162 55.4606V45.3006H253.702V53.0206H256.262C256.329 53.0206 256.362 53.0473 256.362 53.1006V55.0406C256.362 55.1073 256.329 55.1406 256.262 55.1406H253.702ZM262.227 42.5206C261.827 42.5206 261.514 42.4006 261.287 42.1606C261.06 41.9206 260.947 41.5873 260.947 41.1606C260.947 40.734 261.06 40.4006 261.287 40.1606C261.514 39.9206 261.827 39.8006 262.227 39.8006C262.614 39.8006 262.914 39.9273 263.127 40.1806C263.354 40.4206 263.467 40.7473 263.467 41.1606C263.467 41.574 263.354 41.9073 263.127 42.1606C262.914 42.4006 262.614 42.5206 262.227 42.5206ZM269.352 53.0206C269.419 53.0206 269.452 53.0473 269.452 53.1006V55.0406C269.452 55.1073 269.419 55.1406 269.352 55.1406H256.072C256.005 55.1406 255.972 55.1073 255.972 55.0406V53.1006C255.972 53.0473 256.005 53.0206 256.072 53.0206H258.992C258.779 52.7673 258.599 52.494 258.452 52.2006C258.305 51.894 258.192 51.5806 258.112 51.2606C258.045 50.9273 258.012 50.594 258.012 50.2606C258.012 49.234 258.239 48.354 258.692 47.6206C259.145 46.874 259.799 46.3006 260.652 45.9006C261.505 45.5006 262.532 45.3006 263.732 45.3006H266.972V53.0206H269.352ZM264.412 53.0206V47.4206H263.792C263.125 47.4206 262.552 47.534 262.072 47.7606C261.605 47.9873 261.245 48.3206 260.992 48.7606C260.752 49.2006 260.632 49.734 260.632 50.3606C260.632 50.934 260.739 51.4206 260.952 51.8206C261.165 52.2206 261.479 52.5206 261.892 52.7206C262.305 52.9206 262.812 53.0206 263.412 53.0206H264.412ZM269.158 55.1406C269.091 55.1406 269.058 55.1073 269.058 55.0406V53.1006C269.058 53.0473 269.091 53.0206 269.158 53.0206H271.698V39.9406H274.278V55.1406H269.158ZM278.27 39.9406H280.85V55.1406H278.27V39.9406Z" fill="white"/>
</g>
<defs>
<clipPath id="clip0_1485_2847">
<rect y="0.5" width="348" height="96.5" rx="27" fill="white"/>
</clipPath>
</defs>
</svg>
