<svg width="348" height="97" viewBox="0 0 348 97" fill="none" xmlns="http://www.w3.org/2000/svg">
<g clip-path="url(#clip0_1485_2825)">
<rect y="0.5" width="348" height="96.5" rx="27" fill="#044C8C"/>
<circle cx="81" cy="36" r="11" fill="#407BFF"/>
<circle cx="61.2049" cy="68.1187" r="4.15994" fill="#407BFF"/>
<circle cx="9.99204" cy="31.7733" r="2.77329" fill="#407BFF"/>
<path d="M76.8706 98.1375C107.931 125.956 110.559 173.688 82.7401 204.748C54.9211 235.809 7.18992 238.437 -23.8706 210.618C-54.9311 182.799 -57.559 135.067 -29.7401 104.007C-16.3975 89.1097 1.52554 80.7529 19.993 79.159C24.2912 78.788 27.8346 75.3469 27.8264 71.0327L27.8232 69.3413C27.8192 67.2733 26.4959 65.488 24.936 64.1304C20.4553 60.2307 19.9843 53.4371 23.8839 48.9563C27.7836 44.4756 34.5772 44.0046 39.0579 47.9042C43.5387 51.8039 44.0097 58.5975 40.11 63.0783C39.7779 63.4599 39.4248 63.8124 39.054 64.1356C36.4051 66.444 33.5739 69.2635 33.5806 72.7771C33.5875 76.4232 36.3736 79.4307 39.9619 80.0773C53.255 82.4728 66.0706 88.4646 76.8706 98.1375Z" fill="#407BFF"/>
<path d="M159.259 41.5206C158.886 41.5206 158.586 41.4073 158.359 41.1806C158.119 40.9406 157.999 40.6006 157.999 40.1606C157.999 39.7206 158.119 39.3873 158.359 39.1606C158.586 38.9206 158.886 38.8006 159.259 38.8006C159.646 38.8006 159.953 38.9206 160.179 39.1606C160.406 39.4006 160.519 39.734 160.519 40.1606C160.519 40.6006 160.406 40.9406 160.179 41.1806C159.953 41.4073 159.646 41.5206 159.259 41.5206ZM162.679 41.5206C162.293 41.5206 161.986 41.4006 161.759 41.1606C161.533 40.9206 161.419 40.5873 161.419 40.1606C161.419 39.734 161.533 39.4006 161.759 39.1606C161.986 38.9206 162.293 38.8006 162.679 38.8006C163.079 38.8006 163.386 38.9273 163.599 39.1806C163.826 39.4206 163.939 39.7473 163.939 40.1606C163.939 40.574 163.826 40.9073 163.599 41.1606C163.373 41.4006 163.066 41.5206 162.679 41.5206ZM161.88 55.1406C160.707 55.1406 159.7 54.954 158.86 54.5806C158.033 54.194 157.4 53.6406 156.96 52.9206C156.52 52.2006 156.3 51.3406 156.3 50.3406C156.3 49.2606 156.54 48.354 157.02 47.6206C157.513 46.874 158.187 46.3006 159.04 45.9006C159.907 45.5006 160.9 45.3006 162.02 45.3006H162.84V44.2406H165.4V53.0206H167.82C167.887 53.0206 167.92 53.0473 167.92 53.1006V55.0406C167.92 55.1073 167.887 55.1406 167.82 55.1406H161.88ZM162.84 53.0206V47.4206H162.08C161.08 47.4206 160.307 47.674 159.76 48.1806C159.213 48.6873 158.94 49.4073 158.94 50.3406C158.94 51.194 159.193 51.854 159.7 52.3206C160.207 52.7873 160.933 53.0206 161.88 53.0206H162.84ZM169.942 58.8006C169.569 58.8006 169.269 58.6806 169.042 58.4406C168.802 58.214 168.682 57.8806 168.682 57.4406C168.682 57.014 168.802 56.6806 169.042 56.4406C169.269 56.2006 169.569 56.0806 169.942 56.0806C170.342 56.0806 170.656 56.2006 170.882 56.4406C171.096 56.6806 171.202 57.014 171.202 57.4406C171.202 57.8806 171.089 58.214 170.862 58.4406C170.636 58.6806 170.329 58.8006 169.942 58.8006ZM173.363 58.8006C172.976 58.8006 172.669 58.6806 172.443 58.4406C172.216 58.2006 172.103 57.8673 172.103 57.4406C172.103 57.0273 172.216 56.694 172.443 56.4406C172.669 56.2006 172.976 56.0806 173.363 56.0806C173.763 56.0806 174.069 56.2006 174.283 56.4406C174.509 56.694 174.623 57.0273 174.623 57.4406C174.623 57.854 174.509 58.1806 174.283 58.4206C174.056 58.674 173.749 58.8006 173.363 58.8006ZM167.615 55.1406C167.548 55.1406 167.515 55.1073 167.515 55.0406V53.1006C167.515 53.0473 167.548 53.0206 167.615 53.0206H170.755V45.3006H173.335V53.0206H176.335C176.402 53.0206 176.435 53.0473 176.435 53.1006V55.0406C176.435 55.1073 176.402 55.1406 176.335 55.1406H167.615ZM179.219 42.5206C178.819 42.5206 178.506 42.4006 178.279 42.1606C178.053 41.9206 177.939 41.5873 177.939 41.1606C177.939 40.734 178.053 40.4006 178.279 40.1606C178.506 39.9206 178.819 39.8006 179.219 39.8006C179.606 39.8006 179.906 39.9273 180.119 40.1806C180.346 40.4206 180.459 40.7473 180.459 41.1606C180.459 41.574 180.346 41.9073 180.119 42.1606C179.906 42.4006 179.606 42.5206 179.219 42.5206ZM176.13 55.1406C176.064 55.1406 176.03 55.1073 176.03 55.0406V53.1006C176.03 53.0473 176.064 53.0206 176.13 53.0206H178.67V45.3006H181.25V55.1406H176.13ZM190.089 53.0206C190.143 53.0206 190.169 53.0473 190.169 53.1006V55.0406C190.169 55.1073 190.136 55.1406 190.069 55.1406H184.949V39.9406H187.529V53.0206H190.089ZM193.597 39.4806C193.277 39.4806 193.01 39.3873 192.797 39.2006C192.584 39.0006 192.477 38.7006 192.477 38.3006C192.477 37.8873 192.584 37.5873 192.797 37.4006C193.01 37.214 193.277 37.1206 193.597 37.1206C193.917 37.1206 194.177 37.2206 194.377 37.4206C194.59 37.6206 194.697 37.914 194.697 38.3006C194.697 38.674 194.59 38.9673 194.377 39.1806C194.177 39.3806 193.917 39.4806 193.597 39.4806ZM191.877 42.5206C191.504 42.5206 191.204 42.4073 190.977 42.1806C190.737 41.9406 190.617 41.6006 190.617 41.1606C190.617 40.7206 190.737 40.3873 190.977 40.1606C191.204 39.9206 191.504 39.8006 191.877 39.8006C192.277 39.8006 192.59 39.9273 192.817 40.1806C193.03 40.4206 193.137 40.7473 193.137 41.1606C193.137 41.574 193.024 41.9073 192.797 42.1606C192.57 42.4006 192.264 42.5206 191.877 42.5206ZM195.297 42.5206C194.91 42.5206 194.604 42.4006 194.377 42.1606C194.15 41.9206 194.037 41.5873 194.037 41.1606C194.037 40.734 194.144 40.4006 194.357 40.1606C194.584 39.9206 194.897 39.8006 195.297 39.8006C195.684 39.8006 195.99 39.9273 196.217 40.1806C196.444 40.4206 196.557 40.7473 196.557 41.1606C196.557 41.574 196.444 41.9073 196.217 42.1606C195.99 42.4006 195.684 42.5206 195.297 42.5206ZM189.861 55.1406C189.794 55.1406 189.761 55.1073 189.761 55.0406V53.1006C189.761 53.0473 189.794 53.0206 189.861 53.0206H193.001V45.3006H195.581V53.0206H198.581C198.648 53.0206 198.681 53.0473 198.681 53.1006V55.0406C198.681 55.1073 198.648 55.1406 198.581 55.1406H189.861ZM198.377 55.1406C198.31 55.1406 198.277 55.1073 198.277 55.0406V53.1006C198.277 53.0473 198.31 53.0206 198.377 53.0206H200.917V39.9406H203.497V55.1406H198.377ZM207.488 39.9406H210.068V55.1406H207.488V39.9406ZM223.127 41.5206C222.753 41.5206 222.453 41.4073 222.227 41.1806C221.987 40.9406 221.867 40.6006 221.867 40.1606C221.867 39.7206 221.987 39.3873 222.227 39.1606C222.453 38.9206 222.753 38.8006 223.127 38.8006C223.513 38.8006 223.82 38.9206 224.047 39.1606C224.273 39.4006 224.387 39.734 224.387 40.1606C224.387 40.6006 224.273 40.9406 224.047 41.1806C223.82 41.4073 223.513 41.5206 223.127 41.5206ZM226.547 41.5206C226.16 41.5206 225.853 41.4006 225.627 41.1606C225.4 40.9206 225.287 40.5873 225.287 40.1606C225.287 39.734 225.4 39.4006 225.627 39.1606C225.853 38.9206 226.16 38.8006 226.547 38.8006C226.947 38.8006 227.253 38.9273 227.467 39.1806C227.693 39.4206 227.807 39.7473 227.807 40.1606C227.807 40.574 227.693 40.9073 227.467 41.1606C227.24 41.4006 226.933 41.5206 226.547 41.5206ZM225.747 55.1406C224.574 55.1406 223.567 54.954 222.727 54.5806C221.901 54.194 221.267 53.6406 220.827 52.9206C220.387 52.2006 220.167 51.3406 220.167 50.3406C220.167 49.2606 220.407 48.354 220.887 47.6206C221.381 46.874 222.054 46.3006 222.907 45.9006C223.774 45.5006 224.767 45.3006 225.887 45.3006H226.707V44.2406H229.267V53.0206H231.687C231.754 53.0206 231.787 53.0473 231.787 53.1006V55.0406C231.787 55.1073 231.754 55.1406 231.687 55.1406H225.747ZM226.707 53.0206V47.4206H225.947C224.947 47.4206 224.174 47.674 223.627 48.1806C223.081 48.6873 222.807 49.4073 222.807 50.3406C222.807 51.194 223.061 51.854 223.567 52.3206C224.074 52.7873 224.801 53.0206 225.747 53.0206H226.707ZM235.959 42.5206C235.585 42.5206 235.285 42.4073 235.059 42.1806C234.819 41.9406 234.699 41.6006 234.699 41.1606C234.699 40.7206 234.819 40.3873 235.059 40.1606C235.285 39.9206 235.585 39.8006 235.959 39.8006C236.345 39.8006 236.652 39.9206 236.879 40.1606C237.105 40.4006 237.219 40.734 237.219 41.1606C237.219 41.6006 237.105 41.9406 236.879 42.1806C236.652 42.4073 236.345 42.5206 235.959 42.5206ZM239.379 42.5206C238.992 42.5206 238.685 42.4006 238.459 42.1606C238.232 41.9206 238.119 41.5873 238.119 41.1606C238.119 40.734 238.232 40.4006 238.459 40.1606C238.685 39.9206 238.992 39.8006 239.379 39.8006C239.779 39.8006 240.085 39.9273 240.299 40.1806C240.525 40.4206 240.639 40.7473 240.639 41.1606C240.639 41.574 240.525 41.9073 240.299 42.1606C240.072 42.4006 239.765 42.5206 239.379 42.5206ZM231.482 55.1406C231.415 55.1406 231.382 55.1073 231.382 55.0406V53.1006C231.382 53.0473 231.415 53.0206 231.482 53.0206H234.402C234.189 52.7673 234.009 52.494 233.862 52.2006C233.715 51.894 233.602 51.5806 233.522 51.2606C233.455 50.9273 233.422 50.594 233.422 50.2606C233.422 49.2473 233.649 48.374 234.102 47.6406C234.555 46.894 235.209 46.3206 236.062 45.9206C236.915 45.5073 237.942 45.3006 239.142 45.3006H242.382V55.1406H231.482ZM238.822 53.0206H239.822V47.4206H239.202C238.535 47.4206 237.962 47.534 237.482 47.7606C237.015 47.9873 236.655 48.3206 236.402 48.7606C236.162 49.1873 236.042 49.7206 236.042 50.3606C236.042 50.9206 236.149 51.4006 236.362 51.8006C236.575 52.2006 236.889 52.5073 237.302 52.7206C237.715 52.9206 238.222 53.0206 238.822 53.0206ZM250.382 55.1406V55.5206C250.382 56.414 250.222 57.194 249.902 57.8606C249.582 58.5273 249.129 59.0406 248.542 59.4006C247.955 59.7606 247.249 59.9406 246.422 59.9406C245.862 59.9406 245.329 59.8673 244.822 59.7206C244.329 59.5873 243.815 59.3473 243.282 59.0006L244.262 57.2606C244.595 57.4606 244.889 57.594 245.142 57.6606C245.395 57.7273 245.689 57.7606 246.022 57.7606C246.569 57.7606 247.009 57.5406 247.342 57.1006C247.675 56.674 247.842 56.1273 247.842 55.4606V45.3006H250.382V53.0206H252.942C253.009 53.0206 253.042 53.0473 253.042 53.1006V55.0406C253.042 55.1073 253.009 55.1406 252.942 55.1406H250.382ZM258.907 42.5206C258.507 42.5206 258.193 42.4006 257.967 42.1606C257.74 41.9206 257.627 41.5873 257.627 41.1606C257.627 40.734 257.74 40.4006 257.967 40.1606C258.193 39.9206 258.507 39.8006 258.907 39.8006C259.293 39.8006 259.593 39.9273 259.807 40.1806C260.033 40.4206 260.147 40.7473 260.147 41.1606C260.147 41.574 260.033 41.9073 259.807 42.1606C259.593 42.4006 259.293 42.5206 258.907 42.5206ZM266.032 53.0206C266.098 53.0206 266.132 53.0473 266.132 53.1006V55.0406C266.132 55.1073 266.098 55.1406 266.032 55.1406H252.752C252.685 55.1406 252.652 55.1073 252.652 55.0406V53.1006C252.652 53.0473 252.685 53.0206 252.752 53.0206H255.672C255.458 52.7673 255.278 52.494 255.132 52.2006C254.985 51.894 254.872 51.5806 254.792 51.2606C254.725 50.9273 254.692 50.594 254.692 50.2606C254.692 49.234 254.918 48.354 255.372 47.6206C255.825 46.874 256.478 46.3006 257.332 45.9006C258.185 45.5006 259.212 45.3006 260.412 45.3006H263.652V53.0206H266.032ZM261.092 53.0206V47.4206H260.472C259.805 47.4206 259.232 47.534 258.752 47.7606C258.285 47.9873 257.925 48.3206 257.672 48.7606C257.432 49.2006 257.312 49.734 257.312 50.3606C257.312 50.934 257.418 51.4206 257.632 51.8206C257.845 52.2206 258.158 52.5206 258.572 52.7206C258.985 52.9206 259.492 53.0206 260.092 53.0206H261.092ZM265.837 55.1406C265.771 55.1406 265.737 55.1073 265.737 55.0406V53.1006C265.737 53.0473 265.771 53.0206 265.837 53.0206H268.378V39.9406H270.958V55.1406H265.837ZM274.949 39.9406H277.529V55.1406H274.949V39.9406Z" fill="white"/>
</g>
<defs>
<clipPath id="clip0_1485_2825">
<rect y="0.5" width="348" height="96.5" rx="27" fill="white"/>
</clipPath>
</defs>
</svg>
