<svg width="348" height="97" viewBox="0 0 348 97" fill="none" xmlns="http://www.w3.org/2000/svg">
<g clip-path="url(#clip0_1485_2837)">
<rect width="348" height="96.5" rx="27" fill="#EF8D32"/>
<circle cx="81" cy="35.5" r="11" fill="#CC561E"/>
<circle cx="61.2049" cy="67.6187" r="4.15994" fill="#CC561E"/>
<circle cx="9.99204" cy="31.2733" r="2.77329" fill="#CC561E"/>
<path d="M76.8706 97.6375C107.931 125.456 110.559 173.188 82.7401 204.248C54.9211 235.309 7.18992 237.937 -23.8706 210.118C-54.9311 182.299 -57.559 134.567 -29.7401 103.507C-16.3975 88.6097 1.52554 80.2529 19.993 78.659C24.2912 78.288 27.8346 74.8469 27.8264 70.5327L27.8232 68.8413C27.8192 66.7733 26.4959 64.988 24.936 63.6304C20.4553 59.7307 19.9843 52.9371 23.8839 48.4563C27.7836 43.9756 34.5772 43.5046 39.0579 47.4042C43.5387 51.3039 44.0097 58.0975 40.11 62.5783C39.7779 62.9599 39.4248 63.3124 39.054 63.6356C36.4051 65.944 33.5739 68.7635 33.5806 72.2771C33.5875 75.9232 36.3736 78.9307 39.9619 79.5773C53.255 81.9728 66.0706 87.9646 76.8706 97.6375Z" fill="#CC561E"/>
<path d="M159.259 41.0206C158.886 41.0206 158.586 40.9073 158.359 40.6806C158.119 40.4406 157.999 40.1006 157.999 39.6606C157.999 39.2206 158.119 38.8873 158.359 38.6606C158.586 38.4206 158.886 38.3006 159.259 38.3006C159.646 38.3006 159.953 38.4206 160.179 38.6606C160.406 38.9006 160.519 39.234 160.519 39.6606C160.519 40.1006 160.406 40.4406 160.179 40.6806C159.953 40.9073 159.646 41.0206 159.259 41.0206ZM162.679 41.0206C162.293 41.0206 161.986 40.9006 161.759 40.6606C161.533 40.4206 161.419 40.0873 161.419 39.6606C161.419 39.234 161.533 38.9006 161.759 38.6606C161.986 38.4206 162.293 38.3006 162.679 38.3006C163.079 38.3006 163.386 38.4273 163.599 38.6806C163.826 38.9206 163.939 39.2473 163.939 39.6606C163.939 40.074 163.826 40.4073 163.599 40.6606C163.373 40.9006 163.066 41.0206 162.679 41.0206ZM161.88 54.6406C160.707 54.6406 159.7 54.454 158.86 54.0806C158.033 53.694 157.4 53.1406 156.96 52.4206C156.52 51.7006 156.3 50.8406 156.3 49.8406C156.3 48.7606 156.54 47.854 157.02 47.1206C157.513 46.374 158.187 45.8006 159.04 45.4006C159.907 45.0006 160.9 44.8006 162.02 44.8006H162.84V43.7406H165.4V52.5206H167.82C167.887 52.5206 167.92 52.5473 167.92 52.6006V54.5406C167.92 54.6073 167.887 54.6406 167.82 54.6406H161.88ZM162.84 52.5206V46.9206H162.08C161.08 46.9206 160.307 47.174 159.76 47.6806C159.213 48.1873 158.94 48.9073 158.94 49.8406C158.94 50.694 159.193 51.354 159.7 51.8206C160.207 52.2873 160.933 52.5206 161.88 52.5206H162.84ZM171.351 38.9806C171.031 38.9806 170.764 38.8873 170.551 38.7006C170.338 38.5006 170.231 38.2006 170.231 37.8006C170.231 37.3873 170.338 37.0873 170.551 36.9006C170.764 36.714 171.031 36.6206 171.351 36.6206C171.671 36.6206 171.931 36.7206 172.131 36.9206C172.344 37.1206 172.451 37.414 172.451 37.8006C172.451 38.174 172.344 38.4673 172.131 38.6806C171.931 38.8806 171.671 38.9806 171.351 38.9806ZM169.631 42.0206C169.258 42.0206 168.958 41.9073 168.731 41.6806C168.491 41.4406 168.371 41.1006 168.371 40.6606C168.371 40.2206 168.491 39.8873 168.731 39.6606C168.958 39.4206 169.258 39.3006 169.631 39.3006C170.031 39.3006 170.344 39.4273 170.571 39.6806C170.784 39.9206 170.891 40.2473 170.891 40.6606C170.891 41.074 170.778 41.4073 170.551 41.6606C170.324 41.9006 170.018 42.0206 169.631 42.0206ZM173.051 42.0206C172.664 42.0206 172.358 41.9006 172.131 41.6606C171.904 41.4206 171.791 41.0873 171.791 40.6606C171.791 40.234 171.898 39.9006 172.111 39.6606C172.338 39.4206 172.651 39.3006 173.051 39.3006C173.438 39.3006 173.744 39.4273 173.971 39.6806C174.198 39.9206 174.311 40.2473 174.311 40.6606C174.311 41.074 174.198 41.4073 173.971 41.6606C173.744 41.9006 173.438 42.0206 173.051 42.0206ZM167.615 54.6406C167.548 54.6406 167.515 54.6073 167.515 54.5406V52.6006C167.515 52.5473 167.548 52.5206 167.615 52.5206H170.755V44.8006H173.335V52.5206H176.335C176.402 52.5206 176.435 52.5473 176.435 52.6006V54.5406C176.435 54.6073 176.402 54.6406 176.335 54.6406H167.615ZM176.13 54.6406C176.064 54.6406 176.03 54.6073 176.03 54.5406V52.6006C176.03 52.5473 176.064 52.5206 176.13 52.5206H178.67V39.4406H181.25V54.6406H176.13ZM190.382 52.5206C190.436 52.5206 190.462 52.5473 190.462 52.6006V54.5406C190.462 54.6073 190.429 54.6406 190.362 54.6406H185.242V39.4406H187.822V52.5206H190.382ZM193.89 38.9806C193.57 38.9806 193.303 38.8873 193.09 38.7006C192.877 38.5006 192.77 38.2006 192.77 37.8006C192.77 37.3873 192.877 37.0873 193.09 36.9006C193.303 36.714 193.57 36.6206 193.89 36.6206C194.21 36.6206 194.47 36.7206 194.67 36.9206C194.883 37.1206 194.99 37.414 194.99 37.8006C194.99 38.174 194.883 38.4673 194.67 38.6806C194.47 38.8806 194.21 38.9806 193.89 38.9806ZM192.17 42.0206C191.797 42.0206 191.497 41.9073 191.27 41.6806C191.03 41.4406 190.91 41.1006 190.91 40.6606C190.91 40.2206 191.03 39.8873 191.27 39.6606C191.497 39.4206 191.797 39.3006 192.17 39.3006C192.57 39.3006 192.883 39.4273 193.11 39.6806C193.323 39.9206 193.43 40.2473 193.43 40.6606C193.43 41.074 193.317 41.4073 193.09 41.6606C192.863 41.9006 192.557 42.0206 192.17 42.0206ZM195.59 42.0206C195.203 42.0206 194.897 41.9006 194.67 41.6606C194.443 41.4206 194.33 41.0873 194.33 40.6606C194.33 40.234 194.437 39.9006 194.65 39.6606C194.877 39.4206 195.19 39.3006 195.59 39.3006C195.977 39.3006 196.283 39.4273 196.51 39.6806C196.737 39.9206 196.85 40.2473 196.85 40.6606C196.85 41.074 196.737 41.4073 196.51 41.6606C196.283 41.9006 195.977 42.0206 195.59 42.0206ZM190.154 54.6406C190.087 54.6406 190.054 54.6073 190.054 54.5406V52.6006C190.054 52.5473 190.087 52.5206 190.154 52.5206H193.294V44.8006H195.874V52.5206H198.874C198.941 52.5206 198.974 52.5473 198.974 52.6006V54.5406C198.974 54.6073 198.941 54.6406 198.874 54.6406H190.154ZM198.67 54.6406C198.603 54.6406 198.57 54.6073 198.57 54.5406V52.6006C198.57 52.5473 198.603 52.5206 198.67 52.5206H201.21V39.4406H203.79V54.6406H198.67ZM207.781 39.4406H210.361V54.6406H207.781V39.4406ZM223.42 41.0206C223.046 41.0206 222.746 40.9073 222.52 40.6806C222.28 40.4406 222.16 40.1006 222.16 39.6606C222.16 39.2206 222.28 38.8873 222.52 38.6606C222.746 38.4206 223.046 38.3006 223.42 38.3006C223.806 38.3006 224.113 38.4206 224.34 38.6606C224.566 38.9006 224.68 39.234 224.68 39.6606C224.68 40.1006 224.566 40.4406 224.34 40.6806C224.113 40.9073 223.806 41.0206 223.42 41.0206ZM226.84 41.0206C226.453 41.0206 226.146 40.9006 225.92 40.6606C225.693 40.4206 225.58 40.0873 225.58 39.6606C225.58 39.234 225.693 38.9006 225.92 38.6606C226.146 38.4206 226.453 38.3006 226.84 38.3006C227.24 38.3006 227.546 38.4273 227.76 38.6806C227.986 38.9206 228.1 39.2473 228.1 39.6606C228.1 40.074 227.986 40.4073 227.76 40.6606C227.533 40.9006 227.226 41.0206 226.84 41.0206ZM226.04 54.6406C224.867 54.6406 223.86 54.454 223.02 54.0806C222.193 53.694 221.56 53.1406 221.12 52.4206C220.68 51.7006 220.46 50.8406 220.46 49.8406C220.46 48.7606 220.7 47.854 221.18 47.1206C221.673 46.374 222.347 45.8006 223.2 45.4006C224.067 45.0006 225.06 44.8006 226.18 44.8006H227V43.7406H229.56V52.5206H231.98C232.047 52.5206 232.08 52.5473 232.08 52.6006V54.5406C232.08 54.6073 232.047 54.6406 231.98 54.6406H226.04ZM227 52.5206V46.9206H226.24C225.24 46.9206 224.467 47.174 223.92 47.6806C223.373 48.1873 223.1 48.9073 223.1 49.8406C223.1 50.694 223.353 51.354 223.86 51.8206C224.367 52.2873 225.093 52.5206 226.04 52.5206H227ZM236.252 42.0206C235.878 42.0206 235.578 41.9073 235.352 41.6806C235.112 41.4406 234.992 41.1006 234.992 40.6606C234.992 40.2206 235.112 39.8873 235.352 39.6606C235.578 39.4206 235.878 39.3006 236.252 39.3006C236.638 39.3006 236.945 39.4206 237.172 39.6606C237.398 39.9006 237.512 40.234 237.512 40.6606C237.512 41.1006 237.398 41.4406 237.172 41.6806C236.945 41.9073 236.638 42.0206 236.252 42.0206ZM239.672 42.0206C239.285 42.0206 238.978 41.9006 238.752 41.6606C238.525 41.4206 238.412 41.0873 238.412 40.6606C238.412 40.234 238.525 39.9006 238.752 39.6606C238.978 39.4206 239.285 39.3006 239.672 39.3006C240.072 39.3006 240.378 39.4273 240.592 39.6806C240.818 39.9206 240.932 40.2473 240.932 40.6606C240.932 41.074 240.818 41.4073 240.592 41.6606C240.365 41.9006 240.058 42.0206 239.672 42.0206ZM231.775 54.6406C231.708 54.6406 231.675 54.6073 231.675 54.5406V52.6006C231.675 52.5473 231.708 52.5206 231.775 52.5206H234.695C234.482 52.2673 234.302 51.994 234.155 51.7006C234.008 51.394 233.895 51.0806 233.815 50.7606C233.748 50.4273 233.715 50.094 233.715 49.7606C233.715 48.7473 233.942 47.874 234.395 47.1406C234.848 46.394 235.502 45.8206 236.355 45.4206C237.208 45.0073 238.235 44.8006 239.435 44.8006H242.675V54.6406H231.775ZM239.115 52.5206H240.115V46.9206H239.495C238.828 46.9206 238.255 47.034 237.775 47.2606C237.308 47.4873 236.948 47.8206 236.695 48.2606C236.455 48.6873 236.335 49.2206 236.335 49.8606C236.335 50.4206 236.442 50.9006 236.655 51.3006C236.868 51.7006 237.182 52.0073 237.595 52.2206C238.008 52.4206 238.515 52.5206 239.115 52.5206ZM250.675 54.6406V55.0206C250.675 55.914 250.515 56.694 250.195 57.3606C249.875 58.0273 249.422 58.5406 248.835 58.9006C248.248 59.2606 247.542 59.4406 246.715 59.4406C246.155 59.4406 245.622 59.3673 245.115 59.2206C244.622 59.0873 244.108 58.8473 243.575 58.5006L244.555 56.7606C244.888 56.9606 245.182 57.094 245.435 57.1606C245.688 57.2273 245.982 57.2606 246.315 57.2606C246.862 57.2606 247.302 57.0406 247.635 56.6006C247.968 56.174 248.135 55.6273 248.135 54.9606V44.8006H250.675V52.5206H253.235C253.302 52.5206 253.335 52.5473 253.335 52.6006V54.5406C253.335 54.6073 253.302 54.6406 253.235 54.6406H250.675ZM259.2 42.0206C258.8 42.0206 258.486 41.9006 258.26 41.6606C258.033 41.4206 257.92 41.0873 257.92 40.6606C257.92 40.234 258.033 39.9006 258.26 39.6606C258.486 39.4206 258.8 39.3006 259.2 39.3006C259.586 39.3006 259.886 39.4273 260.1 39.6806C260.326 39.9206 260.44 40.2473 260.44 40.6606C260.44 41.074 260.326 41.4073 260.1 41.6606C259.886 41.9006 259.586 42.0206 259.2 42.0206ZM266.325 52.5206C266.391 52.5206 266.425 52.5473 266.425 52.6006V54.5406C266.425 54.6073 266.391 54.6406 266.325 54.6406H253.045C252.978 54.6406 252.945 54.6073 252.945 54.5406V52.6006C252.945 52.5473 252.978 52.5206 253.045 52.5206H255.965C255.751 52.2673 255.571 51.994 255.425 51.7006C255.278 51.394 255.165 51.0806 255.085 50.7606C255.018 50.4273 254.985 50.094 254.985 49.7606C254.985 48.734 255.211 47.854 255.665 47.1206C256.118 46.374 256.771 45.8006 257.625 45.4006C258.478 45.0006 259.505 44.8006 260.705 44.8006H263.945V52.5206H266.325ZM261.385 52.5206V46.9206H260.765C260.098 46.9206 259.525 47.034 259.045 47.2606C258.578 47.4873 258.218 47.8206 257.965 48.2606C257.725 48.7006 257.605 49.234 257.605 49.8606C257.605 50.434 257.711 50.9206 257.925 51.3206C258.138 51.7206 258.451 52.0206 258.865 52.2206C259.278 52.4206 259.785 52.5206 260.385 52.5206H261.385ZM266.13 54.6406C266.064 54.6406 266.03 54.6073 266.03 54.5406V52.6006C266.03 52.5473 266.064 52.5206 266.13 52.5206H268.67V39.4406H271.25V54.6406H266.13ZM275.242 39.4406H277.822V54.6406H275.242V39.4406Z" fill="white"/>
</g>
<defs>
<clipPath id="clip0_1485_2837">
<rect width="348" height="96.5" rx="27" fill="white"/>
</clipPath>
</defs>
</svg>
