<svg width="73" height="50" viewBox="0 0 73 50" fill="none" xmlns="http://www.w3.org/2000/svg">
<path d="M44.333 42.7336L31.1981 42.7028C30.9369 42.7016 30.6868 42.5956 30.5026 42.4079C30.3183 42.2203 30.2148 41.9663 30.2148 41.7015C30.216 41.4367 30.3206 41.1831 30.5056 40.9963C30.6907 40.8095 30.9413 40.7046 31.2025 40.7046L44.3199 40.7355C44.5811 40.7366 44.8312 40.8426 45.0155 41.0303C45.1997 41.2179 45.3032 41.472 45.3032 41.7368C45.3021 41.9985 45.1999 42.2494 45.0186 42.4358C44.8372 42.6221 44.5911 42.729 44.333 42.7336Z" fill="#263238"/>
<path d="M44.3338 43.6024L31.199 43.5715C30.9489 43.5884 30.7145 43.701 30.5433 43.8865C30.3721 44.072 30.2769 44.3166 30.2769 44.5706C30.2769 44.8247 30.3721 45.0692 30.5433 45.2547C30.7145 45.4403 30.9489 45.5528 31.199 45.5697H32.639L34.5447 49.2617C34.6524 49.4681 34.8132 49.641 35.0101 49.7622C35.2069 49.8834 35.4325 49.9482 35.6628 49.9498H40.3486C40.581 49.9503 40.8091 49.886 41.0078 49.7639C41.2066 49.6417 41.3684 49.4664 41.4754 49.2573L43.3419 45.5829H44.3208C44.4557 45.592 44.591 45.5729 44.7184 45.5268C44.8457 45.4807 44.9623 45.4086 45.0611 45.315C45.1598 45.2213 45.2385 45.1081 45.2923 44.9823C45.3461 44.8566 45.3739 44.7209 45.3739 44.5838C45.3739 44.4468 45.3461 44.3111 45.2923 44.1854C45.2385 44.0596 45.1598 43.9464 45.0611 43.8527C44.9623 43.7591 44.8457 43.687 44.7184 43.6409C44.591 43.5948 44.4557 43.5757 44.3208 43.5848L44.3338 43.6024Z" fill="#263238"/>
<path d="M41.2413 49.583C41.2413 49.6139 40.8932 49.4595 40.3407 49.3007C39.6172 49.0889 38.8659 48.9907 38.1131 49.0096C37.3617 49.0332 36.618 49.1715 35.9073 49.4198C35.3634 49.6095 35.0371 49.7815 35.0371 49.7506C35.2821 49.5402 35.564 49.3786 35.8681 49.2743C37.3127 48.6758 38.923 48.6319 40.3972 49.1508C40.7016 49.2431 40.9874 49.3894 41.2413 49.583Z" fill="#455A64"/>
<path d="M43.3816 45.6445C43.3816 45.7018 41.0105 45.7459 38.0868 45.7371C35.1631 45.7283 32.7876 45.6798 32.7876 45.618C32.7876 45.5563 35.1587 45.5166 38.0868 45.521C41.0148 45.5254 43.3816 45.5827 43.3816 45.6445Z" fill="#455A64"/>
<path d="M42.5552 47.2191C42.1248 47.3012 41.688 47.344 41.25 47.347C40.4495 47.3999 39.3444 47.4396 38.1175 47.4573C36.8906 47.4749 35.7898 47.4573 34.9893 47.422C34.5522 47.4308 34.1152 47.3983 33.6841 47.3249C34.1171 47.2721 34.5535 47.2544 34.9893 47.272L38.1175 47.2411L41.2413 47.197C41.6791 47.1672 42.1186 47.1746 42.5552 47.2191Z" fill="#455A64"/>
<path d="M37.4643 37.1357C47.3015 37.1357 55.2762 28.9954 55.2762 18.9538C55.2762 8.91219 47.3015 0.771851 37.4643 0.771851C27.627 0.771851 19.6523 8.91219 19.6523 18.9538C19.6523 28.9954 27.627 37.1357 37.4643 37.1357Z" fill="#F5F5F5"/>
<path d="M30.868 27.061C30.9594 26.2671 31.5685 25.4643 31.2204 24.7497C30.8289 23.9513 29.6846 24.0837 28.8841 23.7264C27.7616 23.2235 27.4135 21.812 26.6826 20.8151C26.0256 19.9329 24.5072 18.9449 23.3238 19.214C23.0015 19.2595 22.7043 19.4157 22.4818 19.6565C22.2594 19.8973 22.125 20.2082 22.1013 20.5372H21.9925C21.6836 20.5064 21.3138 20.4887 21.1224 20.2241C20.9309 19.9594 21.1224 19.4654 20.9135 19.1654C20.7876 19.0291 20.6407 18.9144 20.4785 18.8258C20.3262 18.7199 20.1957 18.5126 20.287 18.3494C20.3784 18.1862 20.5611 18.1774 20.6612 18.0495C20.7003 17.9984 20.7216 17.9355 20.7216 17.8708C20.7216 17.8061 20.7003 17.7433 20.6612 17.6922C20.3436 17.3084 19.9825 18.0936 19.791 18.2788C19.7477 18.329 19.6996 18.3748 19.6475 18.4156C19.6475 18.4509 19.6475 18.4817 19.6475 18.5126C19.6475 18.6229 19.6475 18.7332 19.6475 18.839C19.6475 18.9449 19.6475 19.0596 19.6475 19.1654C19.6475 19.2713 19.6475 19.3419 19.6475 19.4301C19.6475 19.5183 19.6475 19.6065 19.6475 19.6948C19.8388 19.7671 20.0224 19.8587 20.1957 19.9682C20.5394 20.1711 20.9266 20.4402 20.9483 20.8504C20.9432 20.9161 20.9568 20.982 20.9875 21.0401C21.0297 21.0895 21.0887 21.121 21.1528 21.1283C21.4499 21.1996 21.7528 21.2424 22.0578 21.2562C22.0578 21.6179 22.0882 21.9973 22.0839 22.359C22.0112 22.8749 21.9705 23.3949 21.9621 23.916C22.0447 24.6483 22.5451 25.2393 22.9801 25.8348C24.6465 28.0888 25.5427 30.6869 26.5129 33.3334C26.6957 33.479 26.948 33.6731 27.1351 33.8098L27.5702 34.1097C27.7181 34.2156 27.853 34.2994 28.0052 34.3965L28.2445 34.5508C28.2445 34.52 28.2445 34.5729 28.2445 34.5508C27.8529 33.6687 27.8529 32.4733 28.6796 32.041C28.8505 31.9798 29.0118 31.8936 29.1582 31.7852C29.5323 31.4279 29.2278 30.6824 29.5932 30.3252C29.8021 30.1222 30.1327 30.1355 30.3938 30.0164C30.6136 29.8756 30.7869 29.6715 30.8915 29.4303C30.9962 29.189 31.0274 28.9216 30.9811 28.6622C30.892 28.1335 30.8541 27.5972 30.868 27.061Z" fill="#E0E0E0"/>
<path d="M20.7564 13.7487C20.9157 13.5979 21.1275 13.5173 21.3453 13.5248C21.5631 13.5322 21.7691 13.627 21.918 13.7884C22.0659 14.0717 22.1002 14.4019 22.0138 14.7103C21.9485 15.1514 21.8832 15.5572 21.8136 15.9806C21.7788 16.1046 21.7788 16.236 21.8136 16.36C21.9398 16.629 22.3705 16.5761 22.5402 16.36C22.6873 16.091 22.7247 15.7744 22.6446 15.4778C22.5631 15.1895 22.5631 14.8838 22.6446 14.5956C22.9231 13.9163 23.9237 14.0177 24.5067 13.5722C24.8296 13.2526 25.0804 12.8658 25.242 12.4386C25.3248 12.2251 25.464 12.0389 25.6444 11.9004C25.8248 11.7619 26.0393 11.6765 26.2644 11.6535C26.4167 11.6535 26.5646 11.7152 26.6995 11.7064C26.8059 11.6921 26.9066 11.6494 26.9914 11.5826C27.0761 11.5158 27.1418 11.4273 27.1816 11.3263C27.2215 11.2253 27.2341 11.1153 27.2182 11.0077C27.2023 10.9001 27.1584 10.7987 27.0911 10.7139C27.0158 10.6538 26.9486 10.5842 26.8909 10.5066C26.8625 10.4274 26.8612 10.3408 26.8872 10.2608C26.9133 10.1808 26.9652 10.112 27.0345 10.0655C27.1778 9.97571 27.3406 9.92271 27.5087 9.91114L28.6486 9.72588C29.0837 9.65972 29.6058 9.44358 29.5492 9.01572C29.4927 8.58785 29.001 8.48199 28.9314 8.13353C28.9243 8.04245 28.9083 7.95231 28.8836 7.86446C28.7661 7.63068 28.418 7.72331 28.1961 7.86446C28.1678 7.78332 28.1214 7.7099 28.0605 7.6499C27.9996 7.58989 27.9259 7.54492 27.8451 7.51847C27.7643 7.49202 27.6786 7.4848 27.5946 7.49737C27.5106 7.50995 27.4306 7.54198 27.3608 7.59098C27.1346 7.78065 27.1085 8.11147 27.0258 8.39377C26.7776 9.0628 26.3495 9.64801 25.7902 10.0832C25.6345 10.2638 25.4227 10.3851 25.1898 10.4272C24.9549 10.4272 24.7112 10.1846 24.82 9.98613C24.9287 9.78763 25.0941 9.75676 25.0723 9.59796C25.0506 9.43917 24.7025 9.4127 24.6372 9.22303C24.7765 8.65402 25.416 8.42024 25.9033 8.12029C26.5101 7.7521 26.9715 7.18133 27.2085 6.50589C27.2309 6.4537 27.2425 6.39739 27.2425 6.34048C27.2425 6.28356 27.2309 6.22725 27.2085 6.17506C27.1346 6.03391 26.9431 6.00745 26.7735 6.00745C26.3993 6.00745 25.9251 6.05597 25.7902 6.41325C25.7527 6.61411 25.7309 6.81764 25.7249 7.02197C25.5901 7.61745 24.7895 7.6792 24.2979 8.03648C24.1258 8.19839 23.941 8.34591 23.7453 8.47758C23.5057 8.56558 23.2519 8.60747 22.997 8.60109H22.7925C22.6359 8.82164 22.5141 9.04218 22.3575 9.24509C22.2008 9.44799 22.066 9.72588 21.9224 9.95966C21.2948 11.0684 20.7872 12.2427 20.4083 13.462C20.2691 13.9031 20.1516 14.3441 20.0429 14.7852C19.9341 15.2263 19.8645 15.6674 19.7905 16.1085C19.9395 15.7426 20.0475 15.3609 20.1125 14.9705C20.1829 14.5005 20.4102 14.0693 20.7564 13.7487Z" fill="#E0E0E0"/>
<path d="M35.723 5.5801C35.8926 5.35955 35.8448 5.03755 35.9536 4.77731C36.1363 4.33621 36.6975 4.19506 36.8933 3.77161C36.9673 3.60841 36.9847 3.4055 37.1196 3.28641C37.2544 3.16731 37.3893 3.16731 37.5068 3.07468C37.5613 3.01404 37.6018 2.94183 37.6254 2.8633C37.6489 2.78477 37.6548 2.7019 37.6427 2.62075C37.6306 2.5396 37.6008 2.46221 37.5555 2.39422C37.5101 2.32624 37.4504 2.26937 37.3806 2.22778C36.6845 1.78668 35.3967 2.29835 34.7963 2.73945C34.0175 3.30846 33.2604 3.99216 32.225 3.92599C31.9467 3.86635 31.6592 3.86635 31.3809 3.92599C31.1112 4.02745 30.9459 4.43325 31.1764 4.60528C31.307 4.70232 31.4853 4.67586 31.6115 4.74202C31.7329 4.82557 31.8178 4.95336 31.8486 5.09878C31.8794 5.2442 31.8537 5.39606 31.7768 5.52276C31.6463 5.79183 31.4114 5.99032 31.2591 6.24616C31.1096 6.49314 31.0425 6.78235 31.0677 7.071C31.0756 7.27378 31.1615 7.46537 31.307 7.60473C31.6289 7.86056 32.1206 7.64001 32.3903 7.32684C32.6143 6.97726 32.8885 6.66357 33.2039 6.39613C33.3855 6.29919 33.5806 6.23077 33.7825 6.19322L35.1269 5.87122C35.3533 5.84872 35.5645 5.74557 35.723 5.5801Z" fill="#E0E0E0"/>
<path d="M55.2754 18.8167C55.2754 18.5564 55.2754 18.2962 55.2493 18.0403C55.2232 17.7845 55.2276 17.5243 55.2015 17.2728C55.1754 17.0214 55.1623 16.8582 55.1362 16.6553C55.1101 16.4524 55.0797 16.2142 55.0449 15.9848C54.9478 15.3721 54.8171 14.7654 54.6533 14.1675C54.588 13.9337 54.4749 13.6823 54.401 13.4485C54.327 13.2147 54.2443 13.0074 54.1617 12.7604C54.0703 12.5884 53.9746 12.4208 53.8702 12.2532C52.8825 10.6652 51.4424 9.42133 50.3548 7.89955C50.0024 7.40552 49.7239 7.01736 49.0974 6.89827C48.1663 6.7527 47.6965 7.29084 47.0352 6.39542C46.8568 6.15723 46.5479 5.95432 46.2868 6.07783C46.3521 6.2675 46.4261 6.46158 46.4913 6.65566C46.502 6.69611 46.502 6.73872 46.4913 6.77917C46.4913 6.91591 46.2825 6.9512 46.1694 6.87621C46.0681 6.78499 45.9841 6.67588 45.9214 6.55421C45.844 6.45269 45.7466 6.36865 45.6353 6.30749C45.5241 6.24632 45.4015 6.20936 45.2754 6.19899C45.1493 6.18861 45.0224 6.20503 44.9029 6.24721C44.7834 6.28939 44.6738 6.35639 44.5813 6.44393C44.5763 6.35007 44.5461 6.25937 44.494 6.18163C44.4418 6.10389 44.3698 6.04207 44.2855 6.00284C44.2721 6.08891 44.2409 6.17114 44.1939 6.24411C44.1469 6.31708 44.0852 6.37914 44.0129 6.42622C43.9406 6.4733 43.8593 6.50432 43.7743 6.51726C43.6893 6.5302 43.6025 6.52475 43.5198 6.50128C43.4676 6.32925 43.7721 6.29837 43.8809 6.1484C43.9896 5.99843 43.8809 5.81317 43.7329 5.70731C43.3917 5.40647 42.9581 5.23499 42.506 5.2221C42.2222 5.26266 41.9328 5.22769 41.6663 5.12065C41.5228 5.03684 41.4227 4.89569 41.2748 4.81188C41.1051 4.75122 40.9231 4.73437 40.7454 4.76287C40.5676 4.79136 40.3997 4.8643 40.2567 4.97509C39.7992 5.17399 39.4315 5.53895 39.2256 5.99843C39.0733 6.47481 39.4127 7.11881 39.9043 7.05706C40.0247 7.01642 40.1521 7.0014 40.2785 7.01295C40.3628 7.04884 40.4339 7.11079 40.4815 7.18998C40.5292 7.26916 40.551 7.36157 40.5439 7.45404C40.5349 7.63582 40.5631 7.81752 40.6265 7.98777C40.7135 8.15097 40.9702 8.23037 41.0616 8.0804C41.1572 7.95078 41.2202 7.7995 41.2452 7.63965C41.2703 7.4798 41.2565 7.31618 41.2052 7.16292C41.1546 7.01041 41.1343 6.84924 41.1455 6.68874C41.1567 6.52823 41.1991 6.37156 41.2704 6.2278C41.4619 5.97196 41.997 6.05136 41.9578 6.37336C41.9578 6.56303 41.7273 6.69977 41.7316 6.88944C41.736 7.07911 41.9753 7.18498 42.1667 7.18057C42.3556 7.14186 42.5491 7.13146 42.741 7.14969C42.9281 7.1938 43.076 7.44522 42.9411 7.59079C42.7105 7.85985 42.1014 7.40111 41.9796 7.73634C41.9448 7.82015 41.9796 7.91719 41.9796 8.00982C41.9796 8.29213 41.6098 8.39358 41.3357 8.42886C41.0611 8.48421 40.7769 8.46286 40.5134 8.36711C40.4499 8.3406 40.3923 8.30156 40.3439 8.25226C40.2954 8.20296 40.2571 8.14438 40.2312 8.07994C40.2053 8.01549 40.1923 7.94647 40.1929 7.87689C40.1936 7.8073 40.2079 7.73853 40.235 7.67459C40.1965 7.65404 40.1542 7.64185 40.1108 7.63878C40.0674 7.63572 40.0238 7.64185 39.9829 7.65679C39.942 7.67173 39.9046 7.69515 39.8731 7.72555C39.8415 7.75596 39.8166 7.79268 39.7999 7.83339C39.7382 7.99981 39.7276 8.18123 39.7694 8.35388C39.4736 8.28771 39.2125 8.53914 39.0472 8.79497C38.8819 9.05081 38.7166 9.33752 38.4338 9.42574C38.151 9.51396 37.7507 9.39486 37.6028 9.65952C37.407 10.0036 37.9682 10.4359 37.7724 10.7755C37.6593 10.9696 37.3896 10.9608 37.1764 11.0225C37.0428 11.0767 36.9236 11.1618 36.8283 11.271C36.7329 11.3803 36.6641 11.5106 36.6273 11.6516C36.5905 11.7927 36.5868 11.9404 36.6164 12.0832C36.646 12.2259 36.7082 12.3597 36.7979 12.4737C36.9006 12.5783 37.0226 12.6612 37.157 12.7179C37.2914 12.7745 37.4355 12.8036 37.581 12.8036C37.7265 12.8036 37.8706 12.7745 38.005 12.7179C38.1394 12.6612 38.2615 12.5783 38.3641 12.4737C38.6082 12.146 38.8113 11.789 38.9689 11.4107C39.1777 11.0578 39.5649 10.7358 39.9522 10.8505C40.1029 10.9089 40.2404 10.9974 40.3568 11.1107L40.9441 11.5871C41.0659 11.6886 41.2008 11.8209 41.1878 11.9797C41.1516 12.1018 41.1004 12.2189 41.0355 12.3281C40.918 12.6722 41.4097 13.003 41.7186 12.8134C41.7903 12.7586 41.8507 12.6901 41.8963 12.6118C41.942 12.5334 41.9719 12.4466 41.9844 12.3565C41.9969 12.2664 41.9918 12.1746 41.9693 12.0865C41.9469 11.9984 41.9075 11.9156 41.8534 11.8429C41.5576 11.4327 40.8963 11.2298 40.9137 10.7181C41.253 10.4403 41.7838 10.7181 41.9839 11.1284C42.1841 11.5386 42.1841 12.0106 42.3538 12.4031C42.5234 12.7957 42.9846 13.1751 43.3718 12.9766L43.0716 11.9179C43.3196 11.7327 43.6024 12.2796 43.8983 12.187C44.081 12.1297 44.1028 11.8694 44.0244 11.6886C43.9177 11.5194 43.8329 11.3371 43.7721 11.146C43.769 11.059 43.785 10.9723 43.819 10.8924C43.853 10.8124 43.9042 10.7411 43.9687 10.6837C44.0333 10.6262 44.1097 10.5841 44.1923 10.5603C44.2749 10.5365 44.3618 10.5317 44.4465 10.5461C44.6207 10.5853 44.7789 10.6778 44.8995 10.8111C45.0201 10.9445 45.0974 11.1122 45.1208 11.2916C45.1332 11.4304 45.1639 11.5669 45.2122 11.6974C45.3427 11.9709 45.6777 12.0547 45.9518 12.1694C46.2259 12.284 46.5218 12.5663 46.3869 12.8486C46.3347 12.9721 46.2085 13.0868 46.252 13.2148C46.2955 13.3427 46.4565 13.3735 46.4565 13.4926C46.4565 13.6117 46.3738 13.6294 46.2999 13.6603C46.1128 13.7352 45.9127 13.7617 45.7299 13.8499C45.6369 13.8869 45.5562 13.9502 45.4976 14.0323C45.439 14.1144 45.4049 14.2119 45.3993 14.3131C45.4254 14.5998 45.7604 14.7542 45.917 14.9747C46.0223 15.2251 46.0983 15.4871 46.1433 15.7555C46.2571 15.9848 46.4037 16.1959 46.5783 16.3818C47.0439 17.0258 47.1526 17.8595 47.3832 18.6226C47.4833 18.971 47.6704 19.3548 48.0184 19.421C48.2133 19.4368 48.4088 19.3987 48.584 19.3107C49.103 19.1488 49.576 18.8629 49.9632 18.477C50.1528 18.2792 50.2676 18.0201 50.2875 17.745C50.3074 17.4699 50.2311 17.1966 50.072 16.9729C50.0287 16.924 49.9705 16.8913 49.9066 16.8803C49.8113 16.8848 49.7192 16.917 49.6412 16.9729C49.5073 17.0223 49.3624 17.0323 49.2231 17.0019C49.0838 16.9714 48.9557 16.9018 48.8538 16.8009C48.6553 16.5965 48.4972 16.3554 48.3882 16.0907L47.9532 15.235C48.0462 15.1759 48.1558 15.1496 48.2651 15.16C48.3744 15.1703 48.4773 15.2168 48.5579 15.2923C48.7093 15.4515 48.8462 15.6242 48.9669 15.8084C49.4312 16.3112 50.0681 16.6143 50.7463 16.6553C50.9178 16.6615 51.087 16.6973 51.2467 16.7612C51.747 16.9905 51.8906 17.736 52.417 17.8948C52.564 17.9212 52.7093 17.9566 52.8521 18.0006C52.9505 18.0624 53.0347 18.1447 53.0992 18.242C53.1638 18.3394 53.2071 18.4496 53.2263 18.5652C53.3072 18.9931 53.4177 19.4146 53.5569 19.8268C53.6287 20.0329 53.756 20.2145 53.9244 20.3509C54.0928 20.4874 54.2956 20.5732 54.5097 20.5987C54.7762 20.5927 55.0296 20.4802 55.2145 20.2855C55.2145 19.8885 55.2624 19.4827 55.2624 19.0813C55.2798 18.9799 55.2798 18.9005 55.2754 18.8167Z" fill="#E0E0E0"/>
<path d="M48.066 26.3107C47.8006 26.3637 47.7484 26.5225 47.6004 26.721C47.4525 26.9194 47.1654 27.2414 46.9739 27.4973C46.6868 27.9384 46.9478 28.6044 46.565 28.9705C46.4785 29.0348 46.3957 29.104 46.317 29.1779C46.2808 29.2249 46.2545 29.2788 46.2395 29.3364C46.2245 29.394 46.2212 29.4541 46.2297 29.513C46.2383 29.572 46.2585 29.6286 46.2892 29.6794C46.3199 29.7302 46.3604 29.7741 46.4083 29.8086C46.5075 29.8736 46.6231 29.9081 46.7412 29.9081C46.8592 29.9081 46.9748 29.8736 47.074 29.8086C47.2718 29.6783 47.4157 29.479 47.4786 29.2484C47.5092 29.0855 47.5811 28.9334 47.6874 28.8073C47.905 28.6133 48.2443 28.7588 48.5315 28.7191C49.7497 28.5294 49.2276 26.077 48.066 26.3107Z" fill="#E0E0E0"/>
<path d="M48.4798 22.9011C49.1803 22.2836 49.4674 20.8897 48.5929 20.5677C48.2623 20.4486 47.8794 20.5677 47.5531 20.4177C47.3548 20.3005 47.1828 20.1427 47.0479 19.9544C46.9131 19.766 46.8184 19.5513 46.77 19.3238L45.5561 15.8745C45.3081 15.1819 44.9383 14.3791 44.2204 14.2777C43.81 14.2847 43.4032 14.3577 43.0153 14.4938C41.623 14.7497 39.2823 11.3356 38.2295 13.6116C38.0815 12.9853 37.0809 13.2191 36.7633 13.7748C36.4457 14.3306 36.3761 15.0673 35.867 15.451C35.4798 15.7421 34.9142 15.7598 34.5966 16.1347C34.402 16.4192 34.3015 16.759 34.3095 17.1051C34.2529 17.7624 34.2007 18.4284 34.1485 19.0768C34.0547 19.6023 34.1168 20.1442 34.3269 20.6339C34.5836 21.075 35.2623 21.3529 35.6321 20.9956C35.7829 20.8059 35.9154 20.6021 36.028 20.3869C36.1487 20.2316 36.3109 20.1149 36.4953 20.0507C36.6798 19.9866 36.8785 19.9777 37.0678 20.0252C37.3791 20.1337 37.6537 20.3294 37.8597 20.5898C39.6739 22.5659 40.3222 25.3801 40.4005 28.0884C40.384 28.5828 40.4502 29.0764 40.5963 29.5484C40.8051 30.0866 41.2489 30.5232 41.3794 31.0878C41.4795 31.5289 41.3794 31.9965 41.5665 32.4111C41.9058 33.1566 43.0327 33.1875 43.6461 32.6537C44.2596 32.12 44.4728 31.2643 44.5946 30.4483C44.7164 29.6322 44.7991 28.7853 45.2472 28.106C45.574 27.7238 45.8652 27.3118 46.1173 26.8754C46.3871 26.2181 46.187 25.4462 46.4393 24.7802C46.7917 23.9068 47.775 23.5186 48.4798 22.9011Z" fill="#E0E0E0"/>
<path d="M30.4844 35.0047V39.8302L45.5684 40.042V33.2271L30.4844 35.0047Z" fill="#F5F5F5"/>
<path d="M39.9916 39.7779C39.9916 39.7779 39.9916 39.7073 39.9916 39.5617C39.9916 39.4162 40.0351 39.1956 40.0655 38.9266C40.1351 38.3664 40.2352 37.5371 40.3918 36.4785C40.5484 35.4199 40.7573 34.123 41.0923 32.6365C41.463 30.9497 41.9963 29.3038 42.6847 27.7227C43.0868 26.7992 43.5687 25.9136 44.1248 25.0762C44.4276 24.6197 44.8391 24.248 45.3212 23.9955C45.5811 23.8697 45.867 23.8093 46.1548 23.8192C46.4425 23.8292 46.7237 23.9093 46.9745 24.0528C47.2424 24.208 47.4412 24.4618 47.5295 24.7616C47.6178 25.0614 47.5889 25.3841 47.4487 25.6628C47.1566 26.2086 46.6765 26.6263 46.1 26.8361C44.9168 27.2288 43.6293 27.1387 42.5106 26.5847C41.9257 26.2859 41.4067 25.87 40.985 25.362C40.5632 24.854 40.2474 24.2646 40.0568 23.6294C39.8365 22.9729 39.8018 22.267 39.9567 21.5915C40.0394 21.2318 40.2433 20.9125 40.5331 20.6887C40.823 20.4649 41.1807 20.3505 41.5448 20.3653C41.7298 20.3879 41.9063 20.457 42.0583 20.5664C42.2103 20.6758 42.3329 20.822 42.4149 20.9916C42.587 21.3267 42.6348 21.7133 42.5498 22.0811C42.339 22.7879 41.9086 23.4067 41.3229 23.8455C40.7655 24.3227 40.115 24.675 39.414 24.8795C38.7129 25.084 37.9772 25.136 37.2549 25.0321C36.5321 24.9149 35.8481 24.6212 35.2622 24.1763C34.6763 23.7313 34.206 23.1485 33.8918 22.4781C33.7263 22.1486 33.6307 21.7876 33.6112 21.4184C33.5918 21.0492 33.6488 20.6799 33.7787 20.3344C33.8441 20.157 33.9463 19.9958 34.0784 19.8619C34.2105 19.728 34.3694 19.6244 34.5444 19.5581C34.7194 19.4952 34.9058 19.4718 35.0906 19.4893C35.2754 19.5068 35.4543 19.5649 35.6147 19.6595C35.9347 19.8329 36.1921 20.1047 36.35 20.4358C36.5013 20.7554 36.5914 21.1012 36.6154 21.4548C36.6602 22.1397 36.5684 22.8268 36.3456 23.475C35.9219 24.7422 35.0405 25.7997 33.8788 26.4347C32.772 27.0267 31.4941 27.2017 30.272 26.9288C29.6717 26.8276 29.1211 26.5284 28.7057 26.0775C28.5019 25.8466 28.3814 25.5525 28.364 25.2431C28.3466 24.9338 28.4334 24.6276 28.61 24.3748C28.7099 24.2615 28.8309 24.1693 28.9661 24.1034C29.1012 24.0376 29.2478 23.9994 29.3975 23.9911C29.6838 23.9714 29.9702 24.0277 30.2285 24.1543C30.7043 24.4313 31.0772 24.859 31.2901 25.3717C31.7252 26.3333 32.0776 27.264 32.43 28.155C33.8179 31.7191 34.8011 34.6568 35.4755 36.6946C35.8018 37.7091 36.0454 38.5075 36.2108 39.0457C36.2847 39.3103 36.3456 39.5132 36.3891 39.6588C36.4327 39.8043 36.4457 39.8705 36.4457 39.8705C36.4457 39.8705 36.4152 39.8043 36.3674 39.6676L36.1673 39.0589L35.3972 36.7211C34.7141 34.692 33.7091 31.7632 32.3082 28.2124C31.9514 27.3302 31.5903 26.3862 31.1596 25.4467C30.9611 24.9684 30.6124 24.5698 30.1676 24.3131C29.9505 24.1532 29.6811 24.0841 29.4151 24.1203C29.1492 24.1564 28.9072 24.2949 28.7393 24.5071C28.5714 24.7193 28.4906 24.9889 28.5135 25.2599C28.5364 25.5309 28.6613 25.7826 28.8624 25.9628C29.2538 26.3777 29.769 26.6505 30.3286 26.7391C31.5087 27.0028 32.743 26.8308 33.8092 26.2539C34.9249 25.6447 35.7697 24.6273 36.1716 23.4088C36.3858 22.7877 36.4731 22.1289 36.4283 21.4724C36.4305 21.1487 36.3518 20.8297 36.1997 20.5452C36.0475 20.2606 35.8268 20.0196 35.5582 19.8448C35.4221 19.7658 35.2711 19.7172 35.115 19.702C34.959 19.6867 34.8016 19.7054 34.6532 19.7566C34.5063 19.8152 34.3731 19.9043 34.2622 20.0183C34.1513 20.1322 34.0651 20.2685 34.0093 20.4182C33.8941 20.7372 33.8447 21.0768 33.8642 21.4159C33.8837 21.7551 33.9715 22.0866 34.1224 22.3899C34.4259 23.0257 34.8755 23.5783 35.4335 24.0013C35.9915 24.4242 36.6415 24.7051 37.3289 24.8203C38.0238 24.9202 38.7317 24.8705 39.4064 24.6744C40.081 24.4783 40.7074 24.1403 41.2446 23.6823C41.7891 23.2724 42.1937 22.7003 42.4019 22.0458C42.4727 21.7269 42.4312 21.393 42.2844 21.1019C42.2163 20.9618 42.1144 20.8414 41.9881 20.752C41.8619 20.6625 41.7153 20.6069 41.5622 20.5902C41.247 20.5668 40.9352 20.668 40.692 20.8725C40.4467 21.0751 40.2714 21.3517 40.1917 21.6621C40.0479 22.2983 40.0811 22.9626 40.2874 23.5809C40.4637 24.1745 40.7552 24.7265 41.1447 25.2045C41.5342 25.6825 42.0139 26.0769 42.5556 26.3644C43.0974 26.652 43.6904 26.8271 44.2997 26.8793C44.9091 26.9315 45.5226 26.8598 46.1043 26.6685C46.6362 26.4787 47.0806 26.0972 47.353 25.5967C47.472 25.3588 47.4969 25.0838 47.4225 24.8279C47.3481 24.5721 47.18 24.3548 46.9527 24.2204C46.7265 24.0908 46.4727 24.0183 46.213 24.0091C45.9532 23.9999 45.6951 24.0542 45.4604 24.1675C45.0034 24.4052 44.614 24.7575 44.3292 25.1909C43.7749 26.0147 43.2944 26.8871 42.8935 27.7977C42.1994 29.3665 41.6588 31.0005 41.2794 32.6762C40.9313 34.1539 40.7138 35.4463 40.5441 36.5005C40.3744 37.5548 40.2613 38.3708 40.1786 38.9398C40.1351 39.2133 40.1047 39.4206 40.0829 39.575C40.0612 39.7294 39.9916 39.7779 39.9916 39.7779Z" fill="#263238"/>
<path d="M28.3016 5.19629C28.3016 5.22275 27.8666 5.42566 27.1878 5.90645C26.2066 6.59161 25.3275 7.41605 24.5774 8.35453C23.4688 9.7509 22.6384 11.3523 22.1323 13.0698C21.5399 15.1808 21.3917 17.3944 21.6972 19.5672C21.9951 21.742 22.6557 23.8496 23.6507 25.7998C24.466 27.3923 25.4492 28.8905 26.5831 30.2681C27.3474 31.1971 28.1638 32.0808 29.0282 32.9147L29.7374 33.594C29.8237 33.6695 29.9037 33.7522 29.9767 33.841C29.8806 33.7789 29.7903 33.708 29.7069 33.6293C29.5329 33.4881 29.2718 33.2676 28.9673 32.9809C28.0766 32.1669 27.2395 31.2946 26.4613 30.3696C25.301 28.9958 24.2969 27.4939 23.468 25.8925C22.4497 23.9238 21.7755 21.7912 21.4753 19.5892C21.1685 17.3846 21.3317 15.1389 21.9539 13.0037C22.4775 11.265 23.3334 9.64781 24.473 8.24426C25.2393 7.31687 26.1383 6.51103 27.14 5.85352C27.4194 5.67166 27.7101 5.50812 28.0101 5.3639C28.1039 5.30223 28.2013 5.24626 28.3016 5.19629Z" fill="white"/>
<path d="M55.2757 18.9538C55.2757 18.9538 55.2757 19.0729 55.2757 19.3067C55.2757 19.5405 55.2758 19.8845 55.2496 20.3389C55.15 21.6623 54.9168 22.9718 54.5535 24.247C53.8642 26.5901 52.717 28.7688 51.1803 30.6534C49.6436 32.5379 47.7487 34.0899 45.6084 35.217L45.6519 35.142C45.6519 36.6859 45.6519 38.3311 45.6519 40.0426V40.1352H45.5562L30.4722 39.9367H30.3678V39.8176C30.3678 38.5208 30.3678 37.1093 30.3678 35.6757L30.4331 35.7772C29.2091 35.2323 28.0429 34.5629 26.9525 33.779C25.8372 32.9554 24.8158 32.0086 23.9069 30.956C22.022 28.7607 20.6798 26.1419 19.9913 23.3163C19.5011 21.2769 19.354 19.1682 19.5562 17.0792C19.7733 15.0535 20.3125 13.0768 21.1529 11.2258C21.5645 10.3271 22.043 9.46154 22.5843 8.63661C22.8715 8.23962 23.1586 7.85146 23.4545 7.45888C23.7503 7.06631 24.0897 6.73549 24.3986 6.37379C25.6701 5.00697 27.1367 3.84127 28.7493 2.9156C30.3057 2.0659 31.9704 1.43803 33.6961 1.04977C34.1312 0.96596 34.5401 0.913029 34.9578 0.846865C35.1667 0.815988 35.3929 0.776288 35.58 0.754233L36.2065 0.718947C36.6416 0.718947 37.0331 0.670427 37.4421 0.666016L38.6603 0.736591C39.0596 0.756754 39.4567 0.80837 39.848 0.890973C40.2353 0.96596 40.6312 1.00566 41.0053 1.11152C41.745 1.29606 42.4718 1.53036 43.1807 1.81286C43.5288 1.95842 43.8768 2.08193 44.2075 2.25396L45.2647 2.76563L45.7389 3.01264L46.174 3.29935L47.0442 3.86395C49.0767 5.28562 50.8284 7.08101 52.2085 9.1571C53.2574 10.7155 54.0644 12.4277 54.6014 14.2341C54.7015 14.609 54.7972 14.9619 54.8842 15.2927C54.9712 15.6236 54.9973 15.9456 55.0539 16.2367C55.1104 16.5278 55.1452 16.8013 55.1844 17.0527C55.2118 17.2782 55.2278 17.5049 55.2322 17.732C55.2496 18.1319 55.2627 18.4407 55.2714 18.6583C55.2714 18.8656 55.2714 18.9715 55.2714 18.9715C55.2714 18.9715 55.2714 18.8656 55.2453 18.6583C55.2192 18.451 55.2105 18.1334 55.18 17.7364C55.1745 17.509 55.1556 17.2822 55.1235 17.0571C55.08 16.8101 55.0321 16.541 54.9843 16.2499C54.9364 15.9588 54.8972 15.6368 54.8059 15.3104C54.7145 14.984 54.6144 14.6311 54.51 14.2606C53.9695 12.4679 53.1626 10.7693 52.1171 9.22326C50.7357 7.17372 48.9886 5.40396 46.9658 4.00511L46.0957 3.44492L45.6606 3.16261L45.1864 2.92001L44.2292 2.42598C43.8986 2.2716 43.5505 2.15251 43.2112 2.01136C42.5029 1.73049 41.776 1.50055 41.0358 1.32325C40.666 1.21738 40.2788 1.1821 39.8916 1.10711C39.5059 1.02597 39.1146 0.975828 38.7212 0.957138L37.5161 0.890973C37.1114 0.890973 36.7068 0.930673 36.2935 0.948316L35.6757 0.979193C35.4669 1.00566 35.2624 1.04095 35.0579 1.07182C34.6228 1.1424 34.2269 1.19533 33.8092 1.27473C32.1047 1.66506 30.4609 2.28985 28.9233 3.13174C27.3257 4.04816 25.8724 5.20191 24.6118 6.55464C24.3029 6.91192 23.9679 7.24716 23.6764 7.63091L22.828 8.79099C22.2948 9.60629 21.8235 10.4615 21.4183 11.3493C19.7049 15.0761 19.3027 19.2856 20.2784 23.2766C20.9562 26.063 22.2741 28.6475 24.1245 30.8193C25.0171 31.858 26.0194 32.7944 27.1134 33.6114C28.1834 34.3849 29.3277 35.0469 30.5288 35.5875L30.594 35.614V35.689C30.594 37.1225 30.594 38.534 30.594 39.8309L30.4896 39.725L45.5736 39.95L45.4822 40.0426C45.4822 38.3311 45.4822 36.6859 45.4822 35.142V35.0935L45.5258 35.067C47.6526 33.9541 49.5385 32.4212 51.0724 30.5585C52.6064 28.6958 53.7574 26.5408 54.4578 24.2205C54.833 22.9538 55.0808 21.6518 55.1974 20.3345C55.2192 19.8934 55.2366 19.5449 55.2496 19.3067C55.2627 19.0685 55.2757 18.9538 55.2757 18.9538Z" fill="#263238"/>
<path d="M53.8228 16.5491C53.788 16.5491 53.6575 15.9051 53.3356 14.8906C52.9135 13.5679 52.3473 12.2971 51.6475 11.1016C50.943 9.90997 50.1114 8.80055 49.1675 7.79338C48.441 7.02147 47.9363 6.59802 47.9624 6.56714C48.1002 6.63871 48.2276 6.72926 48.3409 6.83621C48.6702 7.09808 48.984 7.3794 49.2807 7.6787C51.2732 9.65378 52.7207 12.1235 53.4791 14.8421C53.5975 15.2507 53.6919 15.6661 53.7619 16.086C53.8028 16.2369 53.8232 16.3927 53.8228 16.5491Z" fill="white"/>
<path d="M6.19789 6.15742C6.19789 6.35545 6.13997 6.54904 6.03145 6.7137C5.92293 6.87836 5.76868 7.0067 5.58822 7.08248C5.40775 7.15827 5.20918 7.1781 5.0176 7.13946C4.82602 7.10083 4.65004 7.00547 4.51192 6.86543C4.3738 6.7254 4.27974 6.54699 4.24163 6.35276C4.20353 6.15853 4.22308 5.9572 4.29783 5.77424C4.37259 5.59128 4.49917 5.4349 4.66158 5.32488C4.82399 5.21485 5.01494 5.15613 5.21027 5.15613C5.47221 5.15613 5.72341 5.26162 5.90862 5.4494C6.09384 5.63718 6.19789 5.89186 6.19789 6.15742Z" fill="#FAA926"/>
<path d="M34.7047 6.15742C34.7047 6.35545 34.6468 6.54904 34.5383 6.7137C34.4298 6.87836 34.2755 7.0067 34.0951 7.08248C33.9146 7.15827 33.716 7.1781 33.5244 7.13946C33.3329 7.10083 33.1569 7.00547 33.0188 6.86543C32.8806 6.7254 32.7866 6.54699 32.7485 6.35276C32.7104 6.15853 32.7299 5.9572 32.8047 5.77424C32.8794 5.59128 33.006 5.4349 33.1684 5.32488C33.3308 5.21485 33.5218 5.15613 33.7171 5.15613C33.979 5.15613 34.2302 5.26162 34.4155 5.4494C34.6007 5.63718 34.7047 5.89186 34.7047 6.15742Z" fill="#FAA926"/>
<path d="M72.4664 1.00129C72.4664 1.19932 72.4085 1.39291 72.3 1.55757C72.1915 1.72223 72.0372 1.85057 71.8568 1.92635C71.6763 2.00214 71.4777 2.02197 71.2862 1.98333C71.0946 1.9447 70.9186 1.84934 70.7805 1.7093C70.6424 1.56927 70.5483 1.39086 70.5102 1.19663C70.4721 1.0024 70.4916 0.801072 70.5664 0.618111C70.6411 0.43515 70.7677 0.27877 70.9301 0.168747C71.0926 0.0587247 71.2835 0 71.4788 0C71.6085 0 71.7369 0.0258994 71.8568 0.0762188C71.9766 0.126538 72.0855 0.200292 72.1772 0.29327C72.2689 0.386248 72.3416 0.49663 72.3913 0.618111C72.4409 0.739593 72.4664 0.869796 72.4664 1.00129Z" fill="#FAA926"/>
<path d="M40.2257 13.5374C40.2257 13.7355 40.1678 13.929 40.0593 14.0937C39.9508 14.2584 39.7965 14.3867 39.6161 14.4625C39.4356 14.5383 39.237 14.5581 39.0454 14.5195C38.8538 14.4808 38.6779 14.3855 38.5398 14.2454C38.4016 14.1054 38.3076 13.927 38.2695 13.7328C38.2314 13.5385 38.2509 13.3372 38.3257 13.1542C38.4004 12.9713 38.527 12.8149 38.6894 12.7049C38.8518 12.5949 39.0428 12.5361 39.2381 12.5361C39.3678 12.5361 39.4962 12.562 39.6161 12.6123C39.7359 12.6627 39.8447 12.7364 39.9365 12.8294C40.0282 12.9224 40.1009 13.0328 40.1505 13.1542C40.2002 13.2757 40.2257 13.4059 40.2257 13.5374Z" fill="#FAA926"/>
<path d="M52.0344 24.3265C52.3684 24.3265 52.6392 24.052 52.6392 23.7133C52.6392 23.3747 52.3684 23.1002 52.0344 23.1002C51.7004 23.1002 51.4297 23.3747 51.4297 23.7133C51.4297 24.052 51.7004 24.3265 52.0344 24.3265Z" fill="#FAA926"/>
<path d="M25.7561 14.1504C26.0901 14.1504 26.3609 13.8759 26.3609 13.5373C26.3609 13.1987 26.0901 12.9242 25.7561 12.9242C25.4221 12.9242 25.1514 13.1987 25.1514 13.5373C25.1514 13.8759 25.4221 14.1504 25.7561 14.1504Z" fill="#FAA926"/>
<path d="M31.9873 23.1399C32.3645 23.1399 32.6703 22.8299 32.6703 22.4474C32.6703 22.0649 32.3645 21.7549 31.9873 21.7549C31.61 21.7549 31.3042 22.0649 31.3042 22.4474C31.3042 22.8299 31.61 23.1399 31.9873 23.1399Z" fill="#FAA926"/>
<path d="M60.5398 9.47869C60.8738 9.47869 61.1446 9.20418 61.1446 8.86556C61.1446 8.52695 60.8738 8.25244 60.5398 8.25244C60.2058 8.25244 59.9351 8.52695 59.9351 8.86556C59.9351 9.20418 60.2058 9.47869 60.5398 9.47869Z" fill="#FAA926"/>
<path d="M67.2399 18.6494C67.8214 18.6494 68.2928 18.1715 68.2928 17.582C68.2928 16.9924 67.8214 16.5145 67.2399 16.5145C66.6584 16.5145 66.187 16.9924 66.187 17.582C66.187 18.1715 66.6584 18.6494 67.2399 18.6494Z" fill="#FAA926"/>
<path d="M13.7698 20.0252C14.1038 20.0252 14.3745 19.7507 14.3745 19.4121C14.3745 19.0735 14.1038 18.799 13.7698 18.799C13.4358 18.799 13.165 19.0735 13.165 19.4121C13.165 19.7507 13.4358 20.0252 13.7698 20.0252Z" fill="#FAA926"/>
<path d="M19.2073 3.12248C19.5413 3.12248 19.812 2.84798 19.812 2.50936C19.812 2.17074 19.5413 1.89624 19.2073 1.89624C18.8733 1.89624 18.6025 2.17074 18.6025 2.50936C18.6025 2.84798 18.8733 3.12248 19.2073 3.12248Z" fill="#FAA926"/>
<path d="M7.36149 23.6248C7.64743 23.6248 7.87923 23.3897 7.87923 23.0999C7.87923 22.81 7.64743 22.575 7.36149 22.575C7.07555 22.575 6.84375 22.81 6.84375 23.0999C6.84375 23.3897 7.07555 23.6248 7.36149 23.6248Z" fill="#FAA926"/>
<path d="M14.592 10.1849C14.8779 10.1849 15.1097 9.94993 15.1097 9.66003C15.1097 9.37014 14.8779 9.13513 14.592 9.13513C14.306 9.13513 14.0742 9.37014 14.0742 9.66003C14.0742 9.94993 14.306 10.1849 14.592 10.1849Z" fill="#FAA926"/>
<path d="M38.7694 26.8315C38.7694 26.9354 38.739 27.0368 38.6821 27.1232C38.6252 27.2095 38.5444 27.2768 38.4498 27.3165C38.3551 27.3562 38.2511 27.3666 38.1506 27.3464C38.0502 27.3261 37.9579 27.2761 37.8855 27.2027C37.8131 27.1293 37.7638 27.0358 37.7438 26.9339C37.7239 26.8321 37.7341 26.7266 37.7733 26.6307C37.8125 26.5348 37.8788 26.4528 37.964 26.3951C38.0491 26.3374 38.1492 26.3066 38.2516 26.3066C38.3889 26.3066 38.5206 26.3619 38.6177 26.4604C38.7148 26.5588 38.7694 26.6923 38.7694 26.8315Z" fill="#FAA926"/>
<path d="M59.071 20.736C59.3569 20.736 59.5887 20.501 59.5887 20.2111C59.5887 19.9212 59.3569 19.6862 59.071 19.6862C58.785 19.6862 58.5532 19.9212 58.5532 20.2111C58.5532 20.501 58.785 20.736 59.071 20.736Z" fill="#FAA926"/>
<path d="M69.3244 10.3435C69.6103 10.3435 69.8421 10.1085 69.8421 9.8186C69.8421 9.52871 69.6103 9.2937 69.3244 9.2937C69.0384 9.2937 68.8066 9.52871 68.8066 9.8186C68.8066 10.1085 69.0384 10.3435 69.3244 10.3435Z" fill="#FAA926"/>
<path d="M0.517737 16.2938C0.803675 16.2938 1.03547 16.0588 1.03547 15.7689C1.03547 15.479 0.803675 15.244 0.517737 15.244C0.231798 15.244 0 15.479 0 15.7689C0 16.0588 0.231798 16.2938 0.517737 16.2938Z" fill="#FAA926"/>
<path d="M24.5334 28.212C24.8193 28.212 25.0511 27.977 25.0511 27.6871C25.0511 27.3972 24.8193 27.1622 24.5334 27.1622C24.2474 27.1622 24.0156 27.3972 24.0156 27.6871C24.0156 27.977 24.2474 28.212 24.5334 28.212Z" fill="#FAA926"/>
<path d="M53.1559 14.6617C53.4419 14.6617 53.6737 14.4267 53.6737 14.1368C53.6737 13.8469 53.4419 13.6119 53.1559 13.6119C52.87 13.6119 52.6382 13.8469 52.6382 14.1368C52.6382 14.4267 52.87 14.6617 53.1559 14.6617Z" fill="#FAA926"/>
<path d="M55.4548 3.12248C55.7888 3.12248 56.0596 2.84798 56.0596 2.50936C56.0596 2.17074 55.7888 1.89624 55.4548 1.89624C55.1209 1.89624 54.8501 2.17074 54.8501 2.50936C54.8501 2.84798 55.1209 3.12248 55.4548 3.12248Z" fill="#FAA926"/>
<path d="M25.7559 13.5369C25.7961 13.4801 25.8428 13.4282 25.8951 13.3826L26.3302 12.9679L27.9486 11.4329L33.6611 6.08243L33.7438 6.00745L33.8134 6.09567L38.3295 11.8299C38.7646 12.4077 39.2301 12.9812 39.6347 13.5193C42.9369 16.607 46.0477 19.1036 48.3362 20.8371C49.4804 21.7193 50.4071 22.3809 51.051 22.8485L51.7863 23.3866C51.8765 23.4426 51.9597 23.5092 52.0343 23.5851C51.9411 23.5365 51.851 23.482 51.7646 23.4219L51.0032 22.919C50.3462 22.4779 49.4021 21.8119 48.2492 20.9562C45.1894 18.6968 42.2567 16.2655 39.465 13.6737L38.1598 11.9755L33.6611 6.24123H33.8091L28.0443 11.5344L26.3867 13.0297L25.9516 13.4178C25.8921 13.4664 25.8262 13.5065 25.7559 13.5369Z" fill="#FAA926"/>
<path d="M19.1128 2.68604C19.234 2.79969 19.342 2.92696 19.4347 3.06538C19.6305 3.32121 19.9046 3.69173 20.2353 4.1637C20.8922 5.09883 21.7624 6.42211 22.6499 7.93066C23.5375 9.4392 24.2641 10.8463 24.76 11.9005C25.008 12.4166 25.1951 12.84 25.3256 13.1356C25.4043 13.2827 25.4629 13.44 25.4997 13.6031C25.3987 13.4667 25.314 13.3187 25.2473 13.162C25.0733 12.8356 24.8645 12.4342 24.6165 11.9623C24.0857 10.9477 23.3113 9.5583 22.4411 8.05416C21.571 6.55003 20.7008 5.21792 20.0917 4.25633L19.3651 3.11831C19.2644 2.98486 19.1797 2.83975 19.1128 2.68604Z" fill="#FAA926"/>
<path d="M5.21137 6.15771C5.26793 6.18859 4.26291 8.42053 2.96639 11.1509C1.66987 13.8813 0.573483 16.0691 0.516923 16.0382C0.460364 16.0074 1.46538 13.7931 2.7619 11.0495C4.05842 8.30584 5.15481 6.13124 5.21137 6.15771Z" fill="#FAA926"/>
<path d="M24.5851 27.8727C24.5747 27.7833 24.5747 27.693 24.5851 27.6036C24.5851 27.4051 24.5851 27.1625 24.6199 26.8361C24.6591 26.1392 24.72 25.1864 24.7896 24.0175C24.9549 21.6135 25.1812 18.3406 25.4292 14.7236C25.464 14.2516 25.4988 13.7841 25.5292 13.343L25.6075 13.4621L17.7762 10.8155L15.4486 9.99949L14.8221 9.77012C14.748 9.747 14.6765 9.71595 14.6089 9.67749C14.6866 9.68257 14.763 9.70045 14.8351 9.73042L15.4747 9.92009L17.8241 10.67L25.6902 13.2592L25.7772 13.2901V13.3783C25.7468 13.8194 25.712 14.2605 25.6772 14.7589C25.4031 18.3715 25.1551 21.64 24.968 24.0219C24.8723 25.1908 24.7896 26.1436 24.7287 26.8361C24.6982 27.1493 24.6721 27.4007 24.6504 27.6036C24.6399 27.6957 24.618 27.7861 24.5851 27.8727Z" fill="#FAA926"/>
<path d="M5.21191 6.1575C5.21191 6.1575 5.26847 6.23248 5.37289 6.38687C5.47731 6.54125 5.62958 6.77062 5.80796 7.06615L7.54826 9.68626L13.8438 19.3904L13.7394 19.3595L25.7169 13.4664L25.7952 13.4267L25.8474 13.4973L31.9863 22.5177H31.808L38.2122 14.653L39.1563 13.4929L55.3802 2.46553L55.4585 2.4126L55.5151 2.48758L60.5968 8.84818L60.6577 8.92758L60.5794 8.98492C57.7992 10.9566 55.3237 12.7166 53.1831 14.2428L53.0308 14.3486L53.07 14.1678C53.8053 10.5155 54.3752 7.6087 54.8103 5.61054C55.0148 4.62689 55.1714 3.84616 55.2802 3.33449C55.3324 3.08306 55.3759 2.89339 55.4063 2.75224C55.4187 2.68523 55.4346 2.61896 55.4542 2.55375C55.4542 2.55375 55.4542 2.61991 55.4237 2.75665L55.3193 3.34331C55.2207 3.87262 55.0757 4.63425 54.8843 5.62818C54.497 7.63075 53.9358 10.5376 53.2266 14.1943L53.1135 14.1193C55.2497 12.5887 57.7209 10.8199 60.488 8.82612V8.96286L55.3759 2.5758H55.5108L39.2999 13.6032H39.326L38.3819 14.7633C36.2065 17.4584 34.0312 20.0873 31.9733 22.6236L31.8819 22.7383L31.7993 22.6192L25.6734 13.5944L25.8039 13.6296L13.7959 19.4874L13.7307 19.5183L13.6915 19.4609L7.46124 9.75683C6.73467 8.60999 6.15602 7.71897 5.77751 7.11026L5.34244 6.41774C5.25542 6.2413 5.21191 6.1575 5.21191 6.1575Z" fill="#FAA926"/>
<path d="M67.2408 17.4678C67.193 17.5075 65.6528 15.5844 63.8037 13.1716C61.9547 10.7588 60.4928 8.76062 60.5407 8.73416C60.5886 8.70769 62.1331 10.622 63.9821 13.0304C65.8312 15.4388 67.3104 17.4281 67.2408 17.4678Z" fill="#FAA926"/>
<path d="M71.3647 0.970459C71.2336 1.1072 71.0876 1.22853 70.9297 1.33216L69.7332 2.24964C68.7195 3.01273 67.3055 4.05372 65.7392 5.19615C64.173 6.33859 62.7459 7.36193 61.7061 8.08974L60.4879 8.94105C60.3411 9.05576 60.182 9.15341 60.0137 9.23218C60.1459 9.09659 60.2917 8.97536 60.4487 8.87047L61.6408 7.95741C62.6589 7.1899 64.0686 6.14892 65.6392 5.00648C67.2098 3.86404 68.6325 2.8407 69.6723 2.1129L70.9079 1.25717C71.0505 1.14664 71.2036 1.05061 71.3647 0.970459Z" fill="#FAA926"/>
<path d="M39.2396 13.5369C39.0665 13.5736 38.89 13.5913 38.7132 13.5898C38.3738 13.5898 37.8778 13.6295 37.2731 13.6472C36.0549 13.6869 34.3755 13.7177 32.5177 13.731C30.66 13.7442 28.9762 13.731 27.758 13.6957C27.1489 13.6957 26.6573 13.6604 26.3179 13.6383C26.141 13.6425 25.9642 13.6247 25.7915 13.5854C25.9665 13.5531 26.1446 13.5413 26.3223 13.5501H27.7624L32.5047 13.5016H37.26H38.7001C38.8807 13.4921 39.0618 13.5039 39.2396 13.5369Z" fill="#FAA926"/>
</svg>
