<svg width="348" height="97" viewBox="0 0 348 97" fill="none" xmlns="http://www.w3.org/2000/svg">
<g clip-path="url(#clip0_1485_2815)">
<rect width="348" height="96.5" rx="27" fill="#EF8D32"/>
<circle cx="81" cy="35.5" r="11" fill="#CC561E"/>
<circle cx="61.2049" cy="67.6187" r="4.15994" fill="#CC561E"/>
<circle cx="9.99204" cy="31.2733" r="2.77329" fill="#CC561E"/>
<path d="M76.8706 97.6375C107.931 125.456 110.559 173.188 82.7401 204.248C54.9211 235.309 7.18992 237.937 -23.8706 210.118C-54.9311 182.299 -57.559 134.567 -29.7401 103.507C-16.3975 88.6097 1.52554 80.2529 19.993 78.659C24.2912 78.288 27.8346 74.8469 27.8264 70.5327L27.8232 68.8413C27.8192 66.7733 26.4959 64.988 24.936 63.6304C20.4553 59.7307 19.9843 52.9371 23.8839 48.4563C27.7836 43.9756 34.5772 43.5046 39.0579 47.4042C43.5387 51.3039 44.0097 58.0975 40.11 62.5783C39.7779 62.9599 39.4248 63.3124 39.054 63.6356C36.4051 65.944 33.5739 68.7635 33.5806 72.2771C33.5875 75.9232 36.3736 78.9307 39.9619 79.5773C53.255 81.9728 66.0706 87.9646 76.8706 97.6375Z" fill="#CC561E"/>
<path d="M161.134 63.3006C160.761 63.3006 160.461 63.1806 160.234 62.9406C159.994 62.714 159.874 62.3806 159.874 61.9406C159.874 61.514 159.994 61.1806 160.234 60.9406C160.461 60.7006 160.761 60.5806 161.134 60.5806C161.534 60.5806 161.847 60.7006 162.074 60.9406C162.287 61.1806 162.394 61.514 162.394 61.9406C162.394 62.3806 162.281 62.714 162.054 62.9406C161.827 63.1806 161.521 63.3006 161.134 63.3006ZM164.554 63.3006C164.167 63.3006 163.861 63.1806 163.634 62.9406C163.407 62.7006 163.294 62.3673 163.294 61.9406C163.294 61.5273 163.407 61.194 163.634 60.9406C163.861 60.7006 164.167 60.5806 164.554 60.5806C164.954 60.5806 165.261 60.7006 165.474 60.9406C165.701 61.194 165.814 61.5273 165.814 61.9406C165.814 62.354 165.701 62.6806 165.474 62.9206C165.247 63.174 164.941 63.3006 164.554 63.3006ZM160.32 59.4406C159.507 59.4406 158.793 59.2406 158.18 58.8406C157.58 58.4406 157.113 57.8873 156.78 57.1806C156.46 56.4873 156.3 55.694 156.3 54.8006C156.3 54.134 156.353 53.494 156.46 52.8806C156.567 52.2673 156.733 51.6473 156.96 51.0206H159.28C159.093 51.5673 158.967 52.1006 158.9 52.6206C158.847 53.1273 158.82 53.7406 158.82 54.4606C158.82 55.0073 158.927 55.494 159.14 55.9206C159.353 56.3606 159.647 56.7006 160.02 56.9406C160.393 57.194 160.813 57.3206 161.28 57.3206H164.82C165.393 57.3206 165.9 57.274 166.34 57.1806C166.78 57.1006 167.127 56.9673 167.38 56.7806C167.647 56.594 167.78 56.3406 167.78 56.0206C167.78 55.7673 167.667 55.554 167.44 55.3806C167.213 55.2073 166.86 55.054 166.38 54.9206C165.66 54.734 165.073 54.5206 164.62 54.2806C164.167 54.0273 163.833 53.7206 163.62 53.3606C163.407 52.9873 163.3 52.534 163.3 52.0006C163.3 51.6406 163.36 51.274 163.48 50.9006C163.613 50.5273 163.8 50.154 164.04 49.7806C164.373 49.2873 164.773 48.8406 165.24 48.4406C165.707 48.0406 166.193 47.7273 166.7 47.5006C167.22 47.274 167.72 47.1606 168.2 47.1606C168.427 47.1606 168.64 47.1806 168.84 47.2206C169.04 47.2606 169.227 47.3206 169.4 47.4006C169.813 47.6006 170.2 47.9073 170.56 48.3206C170.933 48.7206 171.387 49.314 171.92 50.1006C172.267 50.634 172.573 51.0606 172.84 51.3806C173.12 51.7006 173.367 51.9406 173.58 52.1006C173.767 52.234 173.96 52.3406 174.16 52.4206C174.373 52.4873 174.593 52.5206 174.82 52.5206H174.92C174.987 52.5206 175.02 52.5473 175.02 52.6006V54.5406C175.02 54.6073 174.987 54.6406 174.92 54.6406H174.82C174.38 54.6406 173.973 54.594 173.6 54.5006C173.227 54.4073 172.873 54.2473 172.54 54.0206C172.207 53.794 171.853 53.494 171.48 53.1206C171.413 53.054 171.293 52.9073 171.12 52.6806C170.947 52.4406 170.727 52.134 170.46 51.7606C170.153 51.3206 169.873 50.954 169.62 50.6606C169.38 50.354 169.167 50.1273 168.98 49.9806C168.807 49.8206 168.627 49.7073 168.44 49.6406C168.267 49.5606 168.1 49.5206 167.94 49.5206C167.727 49.5206 167.493 49.594 167.24 49.7406C166.987 49.874 166.747 50.054 166.52 50.2806C166.293 50.5073 166.107 50.7406 165.96 50.9806C165.813 51.2206 165.74 51.4406 165.74 51.6406C165.74 51.814 165.793 51.974 165.9 52.1206C166.02 52.2673 166.187 52.4006 166.4 52.5206C166.627 52.6406 166.893 52.7473 167.2 52.8406C167.653 52.974 168.04 53.1073 168.36 53.2406C168.68 53.374 168.947 53.5006 169.16 53.6206C169.56 53.8606 169.86 54.154 170.06 54.5006C170.273 54.8473 170.38 55.2473 170.38 55.7006C170.38 56.9273 169.913 57.854 168.98 58.4806C168.06 59.1206 166.68 59.4406 164.84 59.4406H160.32ZM174.724 54.6406C174.658 54.6406 174.624 54.6073 174.624 54.5406V52.6006C174.624 52.5473 174.658 52.5206 174.724 52.5206H177.264V39.4406H179.844V54.6406H174.724ZM187.176 59.4406C186.349 59.4406 185.616 59.3606 184.976 59.2006C184.336 59.054 183.723 58.8073 183.136 58.4606L184.176 56.5606C184.683 56.8273 185.169 57.0206 185.636 57.1406C186.116 57.274 186.623 57.3406 187.156 57.3406C187.956 57.3406 188.576 57.1206 189.016 56.6806C189.469 56.2406 189.696 55.6473 189.696 54.9006V54.6406H187.716C186.289 54.6406 185.189 54.2406 184.416 53.4406C183.656 52.6406 183.276 51.5006 183.276 50.0206C183.276 48.914 183.529 47.974 184.036 47.2006C184.556 46.414 185.276 45.8206 186.196 45.4206C187.116 45.0073 188.163 44.8006 189.336 44.8006H192.236V54.8406C192.236 56.3073 191.796 57.4406 190.916 58.2406C190.036 59.0406 188.789 59.4406 187.176 59.4406ZM189.676 52.5206V46.9206H188.976C188.003 46.9206 187.243 47.1873 186.696 47.7206C186.163 48.254 185.896 49.0006 185.896 49.9606C185.896 50.8406 186.083 51.4873 186.456 51.9006C186.829 52.314 187.389 52.5206 188.136 52.5206H189.676ZM198.825 52.8406L196.165 42.1406H198.865L201.405 52.8406H198.825ZM201.608 52.5206C202.288 52.5206 202.788 52.334 203.108 51.9606C203.428 51.5873 203.588 51.0006 203.588 50.2006V39.4406H206.168V50.4406C206.168 51.7206 205.801 52.7406 205.068 53.5006C204.348 54.2606 203.361 54.6406 202.108 54.6406H194.848V52.5206H201.608ZM209.969 39.4406H212.549V54.6406H209.969V39.4406ZM225.607 41.0206C225.234 41.0206 224.934 40.9073 224.707 40.6806C224.467 40.4406 224.347 40.1006 224.347 39.6606C224.347 39.2206 224.467 38.8873 224.707 38.6606C224.934 38.4206 225.234 38.3006 225.607 38.3006C225.994 38.3006 226.3 38.4206 226.527 38.6606C226.754 38.9006 226.867 39.234 226.867 39.6606C226.867 40.1006 226.754 40.4406 226.527 40.6806C226.3 40.9073 225.994 41.0206 225.607 41.0206ZM229.027 41.0206C228.64 41.0206 228.334 40.9006 228.107 40.6606C227.88 40.4206 227.767 40.0873 227.767 39.6606C227.767 39.234 227.88 38.9006 228.107 38.6606C228.334 38.4206 228.64 38.3006 229.027 38.3006C229.427 38.3006 229.734 38.4273 229.947 38.6806C230.174 38.9206 230.287 39.2473 230.287 39.6606C230.287 40.074 230.174 40.4073 229.947 40.6606C229.72 40.9006 229.414 41.0206 229.027 41.0206ZM228.228 54.6406C227.054 54.6406 226.048 54.454 225.208 54.0806C224.381 53.694 223.748 53.1406 223.308 52.4206C222.868 51.7006 222.648 50.8406 222.648 49.8406C222.648 48.7606 222.888 47.854 223.368 47.1206C223.861 46.374 224.534 45.8006 225.388 45.4006C226.254 45.0006 227.248 44.8006 228.368 44.8006H229.188V43.7406H231.748V52.5206H234.168C234.234 52.5206 234.268 52.5473 234.268 52.6006V54.5406C234.268 54.6073 234.234 54.6406 234.168 54.6406H228.228ZM229.188 52.5206V46.9206H228.428C227.428 46.9206 226.654 47.174 226.108 47.6806C225.561 48.1873 225.288 48.9073 225.288 49.8406C225.288 50.694 225.541 51.354 226.048 51.8206C226.554 52.2873 227.281 52.5206 228.228 52.5206H229.188ZM238.439 42.0206C238.066 42.0206 237.766 41.9073 237.539 41.6806C237.299 41.4406 237.179 41.1006 237.179 40.6606C237.179 40.2206 237.299 39.8873 237.539 39.6606C237.766 39.4206 238.066 39.3006 238.439 39.3006C238.826 39.3006 239.132 39.4206 239.359 39.6606C239.586 39.9006 239.699 40.234 239.699 40.6606C239.699 41.1006 239.586 41.4406 239.359 41.6806C239.132 41.9073 238.826 42.0206 238.439 42.0206ZM241.859 42.0206C241.472 42.0206 241.166 41.9006 240.939 41.6606C240.712 41.4206 240.599 41.0873 240.599 40.6606C240.599 40.234 240.712 39.9006 240.939 39.6606C241.166 39.4206 241.472 39.3006 241.859 39.3006C242.259 39.3006 242.566 39.4273 242.779 39.6806C243.006 39.9206 243.119 40.2473 243.119 40.6606C243.119 41.074 243.006 41.4073 242.779 41.6606C242.552 41.9006 242.246 42.0206 241.859 42.0206ZM233.962 54.6406C233.896 54.6406 233.862 54.6073 233.862 54.5406V52.6006C233.862 52.5473 233.896 52.5206 233.962 52.5206H236.883C236.669 52.2673 236.489 51.994 236.343 51.7006C236.196 51.394 236.083 51.0806 236.003 50.7606C235.936 50.4273 235.903 50.094 235.903 49.7606C235.903 48.7473 236.129 47.874 236.583 47.1406C237.036 46.394 237.689 45.8206 238.543 45.4206C239.396 45.0073 240.423 44.8006 241.623 44.8006H244.863V54.6406H233.962ZM241.303 52.5206H242.303V46.9206H241.683C241.016 46.9206 240.443 47.034 239.963 47.2606C239.496 47.4873 239.136 47.8206 238.883 48.2606C238.643 48.6873 238.523 49.2206 238.523 49.8606C238.523 50.4206 238.629 50.9006 238.843 51.3006C239.056 51.7006 239.369 52.0073 239.783 52.2206C240.196 52.4206 240.703 52.5206 241.303 52.5206ZM252.863 54.6406V55.0206C252.863 55.914 252.703 56.694 252.383 57.3606C252.063 58.0273 251.609 58.5406 251.023 58.9006C250.436 59.2606 249.729 59.4406 248.903 59.4406C248.343 59.4406 247.809 59.3673 247.303 59.2206C246.809 59.0873 246.296 58.8473 245.762 58.5006L246.743 56.7606C247.076 56.9606 247.369 57.094 247.623 57.1606C247.876 57.2273 248.169 57.2606 248.503 57.2606C249.049 57.2606 249.489 57.0406 249.823 56.6006C250.156 56.174 250.323 55.6273 250.323 54.9606V44.8006H252.863V52.5206H255.423C255.489 52.5206 255.523 52.5473 255.523 52.6006V54.5406C255.523 54.6073 255.489 54.6406 255.423 54.6406H252.863ZM261.387 42.0206C260.987 42.0206 260.674 41.9006 260.447 41.6606C260.221 41.4206 260.107 41.0873 260.107 40.6606C260.107 40.234 260.221 39.9006 260.447 39.6606C260.674 39.4206 260.987 39.3006 261.387 39.3006C261.774 39.3006 262.074 39.4273 262.287 39.6806C262.514 39.9206 262.627 40.2473 262.627 40.6606C262.627 41.074 262.514 41.4073 262.287 41.6606C262.074 41.9006 261.774 42.0206 261.387 42.0206ZM268.512 52.5206C268.579 52.5206 268.612 52.5473 268.612 52.6006V54.5406C268.612 54.6073 268.579 54.6406 268.512 54.6406H255.232C255.165 54.6406 255.132 54.6073 255.132 54.5406V52.6006C255.132 52.5473 255.165 52.5206 255.232 52.5206H258.152C257.939 52.2673 257.759 51.994 257.612 51.7006C257.465 51.394 257.352 51.0806 257.272 50.7606C257.205 50.4273 257.172 50.094 257.172 49.7606C257.172 48.734 257.399 47.854 257.852 47.1206C258.305 46.374 258.959 45.8006 259.812 45.4006C260.665 45.0006 261.692 44.8006 262.892 44.8006H266.132V52.5206H268.512ZM263.572 52.5206V46.9206H262.952C262.285 46.9206 261.712 47.034 261.232 47.2606C260.765 47.4873 260.405 47.8206 260.152 48.2606C259.912 48.7006 259.792 49.234 259.792 49.8606C259.792 50.434 259.899 50.9206 260.112 51.3206C260.325 51.7206 260.639 52.0206 261.052 52.2206C261.465 52.4206 261.972 52.5206 262.572 52.5206H263.572ZM268.318 54.6406C268.251 54.6406 268.218 54.6073 268.218 54.5406V52.6006C268.218 52.5473 268.251 52.5206 268.318 52.5206H270.858V39.4406H273.438V54.6406H268.318ZM277.43 39.4406H280.01V54.6406H277.43V39.4406Z" fill="white"/>
</g>
<defs>
<clipPath id="clip0_1485_2815">
<rect width="348" height="96.5" rx="27" fill="white"/>
</clipPath>
</defs>
</svg>
