<svg width="194" height="203" viewBox="0 0 194 203" fill="none" xmlns="http://www.w3.org/2000/svg">
<path d="M191.559 2.54119C194.464 5.44571 194.464 10.1549 191.559 13.0594L13.059 191.559C10.1545 194.464 5.44534 194.464 2.54082 191.559C-0.363704 188.655 -0.363704 183.946 2.54082 181.041L22.48 161.102C22.4607 158.946 22.7652 156.749 23.4347 154.575C28.7005 137.473 34.15 115.546 34.15 98.0417V85.1534C34.15 51.6294 57.254 23.4993 88.4078 15.8214C88.5975 14.8629 88.8816 13.923 89.2573 13.016C90.0048 11.2112 91.1005 9.57144 92.4818 8.19017C93.863 6.8089 95.5029 5.71322 97.3076 4.96568C99.1123 4.21814 101.047 3.83338 103 3.83338C104.953 3.83338 106.888 4.21814 108.692 4.96567C110.497 5.71321 112.137 6.8089 113.518 8.19017C114.899 9.57144 115.995 11.2112 116.743 13.016C116.973 13.5718 117.169 14.14 117.33 14.7173C130.597 16.92 142.629 22.7811 152.353 31.2292L181.041 2.54119C183.945 -0.363338 188.655 -0.363338 191.559 2.54119Z" fill="#CDCDCD"/>
<path d="M121.324 189.923C122.32 187.517 122.833 184.938 122.833 182.333H165.569C178.862 182.333 188.515 169.481 185.478 156.54C181.384 139.098 176.95 116.052 176.95 98.0417V85.1534C176.95 74.8467 174.766 65.0498 170.836 56.2004L44.7031 182.333H83.1667C83.1667 184.938 83.6797 187.517 84.6764 189.923C85.6731 192.33 87.134 194.516 88.9757 196.358C90.8174 198.199 93.0038 199.66 95.4101 200.657C97.8164 201.654 100.395 202.167 103 202.167C105.605 202.167 108.184 201.654 110.59 200.657C112.996 199.66 115.183 198.199 117.024 196.358C118.866 194.516 120.327 192.33 121.324 189.923Z" fill="#CDCDCD"/>
</svg>
