<svg width="125" height="125" viewBox="0 0 125 125" fill="none" xmlns="http://www.w3.org/2000/svg">
<path d="M24.5579 29.5723C18.3301 37.571 14.4964 47.1708 13.5011 57.2591L5.83887 56.1412C7.0367 44.6395 11.464 33.7114 18.6093 24.6191L24.5579 29.5723Z" stroke="#A0B3C5" stroke-linecap="round" stroke-linejoin="round"/>
<path d="M91.5963 119.149C80.8369 123.802 68.9736 125.292 57.3976 123.443C45.8216 121.594 35.0129 116.482 26.2388 108.708L31.3755 102.914C39.0493 109.708 48.4999 114.174 58.6205 115.789C68.7411 117.405 79.1125 116.104 88.52 112.037L91.5963 119.149Z" stroke="#A0B3C5" stroke-linecap="round" stroke-linejoin="round"/>
<path d="M67.096 62.6081V1.00005C50.9376 0.979849 35.4223 7.32875 23.9133 18.6705L29.1806 24.3621L31.4042 26.7571L35.2924 30.9432L63.0854 60.8537L64.7174 62.6203L64.9336 62.8529L65.6721 63.6444L65.925 63.9177L66.333 64.3257L66.9491 64.9908L65.9046 65.2968L48.9563 103.669C44.7141 101.795 40.7897 99.2724 37.3242 96.1905L64.293 65.766L61.7634 66.5045L24.6885 77.3328L19.1968 78.9362L16.0593 79.8501L8.61328 82.0248C12.0385 92.315 18.1183 101.519 26.2389 108.708L31.3715 102.914C39.0453 109.708 48.496 114.174 58.6165 115.789C68.7371 117.405 79.1085 116.104 88.516 112.037L87.2308 109.038L84.9623 103.796C80.8195 105.596 76.4266 106.754 71.9349 107.231L67.096 62.6081ZM67.096 62.6081L62.2734 17.9851C54.4369 18.8182 46.9614 21.7141 40.6086 26.3776L67.096 62.6081Z" stroke="#A0B3C5" stroke-linecap="round" stroke-linejoin="round"/>
<path d="M27.0547 31.6694C21.2128 39.199 17.6302 48.2333 16.7242 57.7202L13.501 57.2592C14.4978 47.1737 18.3314 37.5769 24.5578 29.5804L27.0547 31.6694Z" stroke="#A0B3C5" stroke-linecap="round" stroke-linejoin="round"/>
<path d="M64.2969 65.766L65.2068 64.7378L65.8229 64.0442L65.9453 63.9055L67.0958 62.608H64.7376H64.1011H50.4943H22.2158" stroke="#A0B3C5" stroke-linecap="round" stroke-linejoin="round"/>
<path d="M16.504 62.608H13.24H1" stroke="#A0B3C5" stroke-linecap="round" stroke-linejoin="round"/>
<path d="M26.2347 108.708L19.3599 116.464" stroke="#A0B3C5" stroke-linecap="round" stroke-linejoin="round"/>
<path d="M31.3716 102.914L33.5381 100.47L37.3284 96.1906" stroke="#A0B3C5" stroke-linecap="round" stroke-linejoin="round"/>
<path d="M120.952 62.6081C120.955 73.1127 117.886 83.3889 112.123 92.1714C106.36 100.954 98.1539 107.859 88.5159 112.037L87.2144 109.038C95.2314 105.565 102.212 100.075 107.477 93.1023C112.742 86.1296 116.111 77.9124 117.257 69.2508C118.403 60.5892 117.286 51.7784 114.015 43.6767C110.745 35.5749 105.432 28.4583 98.5935 23.0198L100.633 20.4617C106.977 25.5021 112.099 31.9109 115.617 39.209C119.136 46.5072 120.959 54.5061 120.952 62.6081Z" stroke="#A0B3C5" stroke-linecap="round" stroke-linejoin="round"/>
<path d="M98.5934 23.0198L95.0357 27.5078C92.0407 25.1148 88.7495 23.1182 85.2437 21.5674L87.5529 16.3368C91.5035 18.0835 95.2139 20.3295 98.5934 23.0198Z" stroke="#A0B3C5" stroke-linecap="round" stroke-linejoin="round"/>
<path d="M100.629 20.4616L111.568 6.71204H123.808" stroke="#A0B3C5" stroke-linecap="round" stroke-linejoin="round"/>
<path d="M95.036 27.4874L67.0962 62.6081" stroke="#A0B3C5" stroke-linecap="round" stroke-linejoin="round"/>
<path d="M63.179 26.3695L62.2732 17.9851C54.4367 18.8183 46.9611 21.7142 40.6084 26.3777L45.586 33.1872C50.7458 29.4018 56.8157 27.0495 63.179 26.3695Z" stroke="#A0B3C5" stroke-linecap="round" stroke-linejoin="round"/>
<path d="M71.1558 100.177L71.935 107.231C76.4268 106.754 80.8197 105.596 84.9625 103.796L82.1065 97.186C78.6346 98.748 74.9397 99.7571 71.1558 100.177Z" stroke="#A0B3C5" stroke-linecap="round" stroke-linejoin="round"/>
<path d="M71.9348 107.231C64.1023 108.071 56.1863 106.843 48.9766 103.669L65.925 65.2967L64.3134 65.7659L37.3446 96.1905C32.5929 91.9817 28.7899 86.8112 26.1873 81.0217C23.5848 75.2321 22.2422 68.9556 22.2486 62.608C22.2486 61.2371 22.3098 59.8785 22.4362 58.528C23.1914 50.0908 26.3299 42.0422 31.4857 35.321C32.6725 33.7714 33.9591 32.3009 35.3372 30.9186C36.9828 29.2639 38.7563 27.7414 40.6412 26.3654L67.1286 62.5958L71.9348 107.231Z" stroke="#A0B3C5" stroke-linecap="round" stroke-linejoin="round"/>
<path d="M88.7201 13.6481L87.541 16.3164" stroke="#A0B3C5" stroke-linecap="round" stroke-linejoin="round"/>
<path d="M85.2318 21.5469L67.0962 62.608" stroke="#A0B3C5" stroke-linecap="round" stroke-linejoin="round"/>
<path d="M61.3433 9.39673L61.6574 12.3058L62.2735 17.9851" stroke="#A0B3C5" stroke-linecap="round" stroke-linejoin="round"/>
<path d="M67.0962 62.608L18.1362 40.984" stroke="#A0B3C5" stroke-linecap="round" stroke-linejoin="round"/>
<path d="M22.4729 67.4306L16.7936 68.0467C16.6002 66.2403 16.5035 64.4248 16.5039 62.608H22.2159C22.2149 64.219 22.3007 65.8289 22.4729 67.4306Z" stroke="#A0B3C5" stroke-linecap="round" stroke-linejoin="round"/>
<path d="M16.7938 68.0466L13.8848 68.3608" stroke="#A0B3C5" stroke-linecap="round" stroke-linejoin="round"/>
<path d="M67.0959 62.608L23.8887 94.1954" stroke="#A0B3C5" stroke-linecap="round" stroke-linejoin="round"/>
<path d="M45.4722 111.568L46.6513 108.9L48.9606 103.669" stroke="#A0B3C5" stroke-linecap="round" stroke-linejoin="round"/>
<path d="M65.9087 65.2968L66.0964 64.8683L66.2881 64.4359L66.3371 64.3257L67.096 62.608" stroke="#A0B3C5" stroke-linecap="round" stroke-linejoin="round"/>
<path d="M73.2649 123.041L72.5345 112.91L71.9185 107.231" stroke="#A0B3C5" stroke-linecap="round" stroke-linejoin="round"/>
<path d="M98.6835 105.815L96.9536 103.453L93.5835 98.8385" stroke="#A0B3C5" stroke-linecap="round" stroke-linejoin="round"/>
<path d="M67.0962 62.608L116.056 84.232" stroke="#A0B3C5" stroke-linecap="round" stroke-linejoin="round"/>
<path d="M67.0962 62.608L120.308 56.8552" stroke="#A0B3C5" stroke-linecap="round" stroke-linejoin="round"/>
<path d="M110.303 31.0206L107.941 32.7505" stroke="#A0B3C5" stroke-linecap="round" stroke-linejoin="round"/>
<path d="M103.327 36.1207L67.0962 62.6081" stroke="#A0B3C5" stroke-linecap="round" stroke-linejoin="round"/>
<path d="M67.096 28.7358C62.0857 33.4034 49.2623 38.1198 34.3091 48.1199C34.3091 48.1199 35.2434 81.9227 67.096 100.401V28.7358Z" fill="#044C8C" stroke="#263238" stroke-linecap="round" stroke-linejoin="round"/>
<path d="M67.0962 28.7358C72.1064 33.4034 84.9299 38.1198 99.8831 48.1199C99.8831 48.1199 98.9488 81.9227 67.0962 100.401V28.7358Z" fill="#263238" stroke="#263238" stroke-linecap="round" stroke-linejoin="round"/>
<path d="M67.0962 31.6123C61.0496 35.8106 50.5681 39.809 36.7124 49.0788C36.7124 49.0788 37.5814 80.4009 67.0962 97.5206C96.6109 80.4009 97.4758 49.0992 97.4758 49.0992C83.6242 39.809 73.1917 35.8106 67.0962 31.6123Z" fill="#263238" stroke="#263238" stroke-linecap="round" stroke-linejoin="round"/>
<path d="M97.4759 49.0992C83.6039 39.8294 73.1917 35.831 67.0962 31.6327V97.5206C96.6109 80.4009 97.4759 49.0992 97.4759 49.0992Z" fill="#044C8C" stroke="#263238" stroke-linecap="round" stroke-linejoin="round"/>
<path d="M78.6054 63.1915H55.9614C55.7171 63.1942 55.4747 63.1488 55.2479 63.0577C55.0211 62.9667 54.8145 62.8319 54.6399 62.6611C54.4652 62.4902 54.3259 62.2866 54.23 62.0619C54.134 61.8372 54.0832 61.5958 54.0806 61.3514V50.9107C54.0806 43.783 60.0006 37.9812 67.2834 37.9812C74.5662 37.9812 80.5026 43.7952 80.5026 50.9107V61.3392C80.5011 61.5858 80.4506 61.8296 80.3541 62.0566C80.2577 62.2835 80.1171 62.4891 79.9407 62.6614C79.7642 62.8337 79.5554 62.9692 79.3262 63.0602C79.097 63.1512 78.852 63.1958 78.6054 63.1915ZM57.8423 59.5195H76.7246V50.9107C76.6524 48.4548 75.626 46.1237 73.8633 44.4121C72.1007 42.7005 69.7404 41.7431 67.2834 41.7431C64.8265 41.7431 62.4662 42.7005 60.7036 44.4121C58.9409 46.1237 57.9145 48.4548 57.8423 50.9107V59.5195Z" fill="white" stroke="#263238" stroke-linecap="round" stroke-linejoin="round"/>
<path d="M81.5104 58.1609H52.6812V82.0085H81.5104V58.1609Z" fill="white" stroke="#263238" stroke-linecap="round" stroke-linejoin="round"/>
<path d="M70.095 68.0631C70.0657 67.25 69.7221 66.48 69.1365 65.9152C68.551 65.3503 67.7691 65.0347 66.9555 65.0347C66.1419 65.0347 65.36 65.3503 64.7744 65.9152C64.1888 66.48 63.8452 67.25 63.8159 68.0631C63.8166 68.6197 63.9689 69.1656 64.2564 69.6421C64.5439 70.1187 64.9559 70.508 65.4479 70.7681L64.9216 76.1863H68.9567L68.4304 70.7681C68.9286 70.5124 69.3471 70.125 69.6406 69.6481C69.9341 69.1712 70.0912 68.623 70.095 68.0631Z" fill="#263238" stroke="#263238" stroke-linecap="round" stroke-linejoin="round"/>
</svg>
