<svg width="121" height="138" viewBox="0 0 121 138" fill="none" xmlns="http://www.w3.org/2000/svg">
<path d="M110.53 26.53V53.39H102.93V26.53C102.93 16.31 95.17 8 85.63 8C76.09 8 68.32 16.31 68.32 26.53V53.39H60.73V26.53C60.73 11.9 71.9 0 85.63 0C99.36 0 110.53 11.9 110.53 26.53Z" fill="#DBDBDB"/>
<path d="M60.73 33.5107L68.32 33.8207V53.3907H60.73V33.5107Z" fill="#C7C7C7"/>
<path d="M110.52 35.5405V53.3905H102.93V35.2305L110.52 35.5405Z" fill="#C7C7C7"/>
<path d="M120.26 43.4502H51V100.93H120.26V43.4502Z" fill="#044C8C"/>
<path opacity="0.1" d="M85.63 43.4502H51V100.93H85.63V43.4502Z" fill="#FAA926"/>
<path d="M88.8801 71.8107L91.7801 85.5707H79.4601L82.3601 71.8107C81.2236 71.1034 80.3485 70.0451 79.8672 68.7961C79.3858 67.5471 79.3244 66.1753 79.6922 64.8882C80.06 63.6012 80.837 62.469 81.9057 61.6629C82.9744 60.8569 84.2765 60.4209 85.6151 60.4209C86.9536 60.4209 88.2558 60.8569 89.3245 61.6629C90.3931 62.469 91.1701 63.6012 91.538 64.8882C91.9058 66.1753 91.8443 67.5471 91.363 68.7961C90.8816 70.0451 90.0065 71.1034 88.8701 71.8107H88.8801Z" fill="#263238"/>
<path d="M4.45814e-06 100.462C-0.00332926 107.188 1.86307 113.784 5.39084 119.511C8.91861 125.239 13.9689 129.873 19.9778 132.897C25.9868 135.92 32.7179 137.214 39.4197 136.634C46.1214 136.054 52.53 133.623 57.93 129.612L75.71 134.152L68.31 117.592C70.9121 112.726 72.3707 107.331 72.5751 101.817C72.7794 96.3034 71.7241 90.8155 69.4894 85.7706C67.2546 80.7257 63.8992 76.2567 59.6781 72.7032C55.4571 69.1497 50.4815 66.6052 45.1295 65.2631C39.7775 63.921 34.19 63.8166 28.7917 64.9579C23.3933 66.0991 18.3262 68.456 13.9753 71.8494C9.62451 75.2428 6.10451 79.5834 3.68288 84.5413C1.26125 89.4992 0.00172254 94.9439 4.45814e-06 100.462Z" fill="white"/>
<path d="M1.20244e-05 100.461C0.0431807 107.177 1.93575 113.751 5.47 119.462C6.34766 120.877 7.31287 122.236 8.36 123.531C9.44533 124.798 10.6075 125.997 11.84 127.121C12.48 127.661 13.04 128.281 13.73 128.761L15.73 130.242C16.4 130.742 17.15 131.121 17.85 131.561L18.92 132.201C19.29 132.411 19.67 132.571 20.05 132.751C20.8 133.101 21.55 133.471 22.31 133.811L24.65 134.661C25.4333 134.946 26.2352 135.177 27.05 135.351C27.86 135.541 28.65 135.801 29.47 135.911C31.1049 136.21 32.7591 136.391 34.42 136.451C36.0856 136.569 37.7583 136.546 39.42 136.381C42.7281 136.079 45.9788 135.322 49.08 134.131C52.167 132.921 55.0766 131.3 57.73 129.311L57.86 129.212H58.03L75.83 133.672L75.32 134.281L67.88 117.731L67.78 117.522L67.9 117.311C70.4649 112.508 71.9047 107.185 72.1109 101.743C72.317 96.3022 71.2841 90.8851 69.09 85.9015C66.8608 80.9157 63.567 76.4785 59.44 72.9015C55.279 69.3596 50.3641 66.8149 45.07 65.4615C39.7619 64.0946 34.2131 63.9476 28.84 65.0315C20.7085 66.7186 13.4049 71.1517 8.15529 77.5867C2.90567 84.0217 0.0296493 92.0668 0.0100065 100.371L1.20244e-05 100.461ZM1.20244e-05 100.461C0.0114719 94.9376 1.27761 89.4884 3.70285 84.5253C6.12809 79.5622 9.64907 75.2149 14 71.8115C18.3373 68.3777 23.4044 65.9845 28.8116 64.816C34.2187 63.6476 39.8219 63.735 45.19 65.0715C50.5969 66.3831 55.632 68.9143 59.91 72.4715C64.1992 76.0487 67.6139 80.5592 69.893 85.6582C72.1721 90.7572 73.2554 96.3097 73.06 101.891C72.8779 107.489 71.3955 112.966 68.73 117.891V117.462L76.09 134.041L76.46 134.871L75.58 134.642L57.82 130.022L58.12 129.962C52.6659 133.994 46.1914 136.419 39.43 136.962C37.7658 137.089 36.0942 137.089 34.43 136.962C32.7513 136.873 31.0807 136.67 29.43 136.351C28.6 136.231 27.8 135.951 26.98 135.761C26.1656 135.568 25.364 135.325 24.58 135.031L22.22 134.151C21.46 133.801 20.71 133.412 19.96 133.052C19.59 132.862 19.2 132.692 18.84 132.492L17.77 131.832C17.06 131.372 16.32 130.981 15.65 130.481L13.65 128.962C12.9903 128.45 12.3593 127.903 11.76 127.321C10.5271 126.187 9.36496 124.978 8.28001 123.701C7.23895 122.39 6.27722 121.018 5.40001 119.591C1.86393 113.838 -0.00547044 107.215 1.20244e-05 100.461Z" fill="#2C9FCB"/>
<path d="M19.5502 83.9414C17.8815 85.6098 16.7451 87.7355 16.2846 90.0497C15.8241 92.364 16.0602 94.7628 16.9631 96.9429C17.866 99.123 19.3951 100.986 21.357 102.297C23.3189 103.608 25.6255 104.308 27.9852 104.308C30.3448 104.308 32.6514 103.608 34.6134 102.297C36.5753 100.986 38.1044 99.123 39.0073 96.9429C39.9102 94.7628 40.1463 92.364 39.6858 90.0497C39.2253 87.7355 38.0888 85.6098 36.4202 83.9414C35.3131 82.8327 33.9982 81.9531 32.5509 81.3529C31.1035 80.7528 29.552 80.4438 27.9852 80.4438C26.4183 80.4438 24.8668 80.7528 23.4195 81.3529C21.9721 81.9531 20.6573 82.8327 19.5502 83.9414ZM21.9702 86.3714C22.2824 86.0605 22.6798 85.8489 23.1121 85.7636C23.5444 85.6783 23.9924 85.723 24.3993 85.892C24.8063 86.0611 25.154 86.3469 25.3987 86.7134C25.6433 87.08 25.7739 87.5108 25.7739 87.9514C25.7739 88.3921 25.6433 88.8229 25.3987 89.1894C25.154 89.556 24.8063 89.8418 24.3993 90.0108C23.9924 90.1799 23.5444 90.2245 23.1121 90.1392C22.6798 90.0539 22.2824 89.8424 21.9702 89.5314C21.7622 89.3242 21.5971 89.078 21.4845 88.8069C21.3718 88.5357 21.3139 88.245 21.3139 87.9514C21.3139 87.6578 21.3718 87.3671 21.4845 87.096C21.5971 86.8248 21.7622 86.5786 21.9702 86.3714Z" fill="#044C8C"/>
<path d="M30.3018 102.456L32.8545 105.009L40.5973 97.2661L38.0447 94.7134L30.3018 102.456Z" fill="#044C8C"/>
<path d="M39.3701 98.4915L34.1201 103.741L35.4101 105.031L37.5801 104.361L36.9101 106.531L39.0401 108.661L41.9301 108.071L41.3301 110.951L41.8101 111.431L43.9801 110.761L43.3101 112.931L45.4901 112.261L44.8101 114.441L46.5101 116.131L49.3901 115.531L48.7901 118.411L50.2701 119.891L56.1201 120.481L55.5201 114.641L39.3701 98.4915Z" fill="#EBEBEB"/>
<path d="M37.4489 101.868L52.4961 116.915L52.8567 116.555L37.8095 101.507L37.4489 101.868Z" fill="#DBDBDB"/>
<path opacity="0.1" d="M17.6099 92.3815C17.6273 95.1261 18.727 97.753 20.6699 99.6915C22.6095 101.597 25.226 102.654 27.9447 102.632C30.6634 102.609 33.2621 101.509 35.1699 99.5715C37.0492 97.6521 38.1017 95.0728 38.1017 92.3866C38.1017 89.7003 37.0492 87.121 35.1699 85.2016C33.2621 83.2655 30.6647 82.1647 27.9467 82.1403C25.2288 82.116 22.612 83.17 20.6699 85.0715C18.727 87.0101 17.6273 89.637 17.6099 92.3815ZM17.6099 92.3815C17.6071 89.6193 18.695 86.9677 20.6369 85.0033C22.5788 83.0388 25.2178 81.9205 27.9799 81.8916C30.0596 81.8678 32.0994 82.4627 33.8402 83.6008C35.5809 84.7389 36.9441 86.3688 37.7565 88.2834C38.5689 90.1979 38.7939 92.3108 38.4027 94.3535C38.0116 96.3962 37.0221 98.2765 35.56 99.7556C34.0978 101.235 32.229 102.246 30.1909 102.66C28.1528 103.075 26.0375 102.874 24.1137 102.084C22.1899 101.294 20.5445 99.9493 19.3864 98.2218C18.2284 96.4942 17.61 94.4614 17.6099 92.3815Z" fill="#2C9FCB"/>
</svg>
