<svg width="66" height="46" viewBox="0 0 66 46" fill="none" xmlns="http://www.w3.org/2000/svg">
<path d="M29.5182 10.1669L33.0518 15.219L33.9658 23.2944L36.9129 21.4296L39.5569 25.8101L65.9755 3.11339L29.5182 10.1669Z" fill="#FAA926"/>
<path opacity="0.3" d="M36.8701 21.4761L35.5409 22.2931L34.8467 17.7623L36.8701 21.4761Z" fill="#383838"/>
<path opacity="0.3" d="M33.0519 15.2191L65.9756 3.11343L35.064 17.3163L33.9659 23.2944L33.0519 15.2191Z" fill="#AA7217"/>
<path d="M65.9762 3.10514C65.8566 3.19529 65.7269 3.27117 65.5898 3.33124L64.452 3.90447L60.2155 5.93517L46.1369 12.4913L34.8762 17.658L34.961 17.4254C36.2231 20.0086 37.379 22.0888 38.2071 23.5246C38.6063 24.2132 38.9222 24.7672 39.1785 25.204C39.3065 25.3919 39.4117 25.5942 39.492 25.8069C39.3381 25.6379 39.2021 25.4536 39.0862 25.2567C38.8344 24.8935 38.4774 24.3457 38.0384 23.6388C37.1521 22.2246 35.9461 20.1665 34.6429 17.5895L34.5608 17.4305L34.728 17.3488L45.9589 12.1236L60.0482 5.6822L64.3439 3.7768L65.5193 3.27069C65.6616 3.19104 65.8159 3.13512 65.9762 3.10514Z" fill="#FAA926"/>
<path d="M65.976 3.10515C66.0197 3.21338 58.6364 6.01362 49.4847 9.42996C40.333 12.8463 32.8688 15.4631 32.8739 15.3572C32.879 15.2514 40.2135 12.4487 49.3652 9.03241C58.5169 5.61607 65.94 3.00547 65.976 3.10515Z" fill="#FAA926"/>
<path d="M33.9661 23.2938C33.9012 22.3097 33.9766 21.3213 34.1902 20.3584C34.2699 19.3775 34.4871 18.4127 34.8353 17.4923C34.9003 18.4738 34.825 19.4595 34.6116 20.4196C34.5369 21.4039 34.3195 22.3721 33.9661 23.2938Z" fill="#FAA926"/>
<path d="M2.03819 41.6267C2.03266 41.7407 1.60987 41.8752 1.03595 41.929C0.462029 41.9828 0.0100148 41.8792 0.00542842 41.8055C0.000842075 41.7319 0.45042 41.5496 0.999517 41.5028C1.54861 41.456 2.02008 41.4952 2.03819 41.6267Z" fill="#383838"/>
<path d="M9.45064 38.7218C9.51143 38.8146 8.81335 39.4091 7.82488 39.9325C7.24957 40.3105 6.58664 40.5341 5.89988 40.5818C5.85656 40.4654 6.65958 40.0636 7.62283 39.5554C8.18388 39.1821 8.8009 38.9007 9.45064 38.7218Z" fill="#383838"/>
<path d="M14.9925 33.0002C14.822 33.6656 14.4832 34.2759 14.0087 34.7725C13.3208 35.6614 12.6076 36.2307 12.5216 36.1531C12.8229 35.5511 13.2129 34.9978 13.6786 34.5116C14.3486 33.6545 14.8894 32.9381 14.9925 33.0002Z" fill="#383838"/>
<path d="M17.2786 25.4232C17.507 26.076 17.5353 26.7822 17.3598 27.4512C17.3191 28.142 17.0831 28.807 16.6791 29.3688C16.6766 28.7006 16.7638 28.035 16.9383 27.39C16.9748 26.7234 17.089 26.0633 17.2786 25.4232Z" fill="#383838"/>
<path d="M12.7006 19.6838C13.4001 19.576 14.1141 19.7422 14.694 20.1478C15.7269 20.7285 16.1569 21.6226 16.0735 21.6594C15.9901 21.6961 15.4102 21.0314 14.4967 20.5137C13.5833 19.996 12.678 19.8133 12.7006 19.6838Z" fill="#383838"/>
<path d="M6.16121 23.2587C6.22835 22.5574 6.5504 21.9051 7.06633 21.4254C7.48345 20.8548 8.10443 20.467 8.80017 20.3425C8.86017 20.4515 8.09512 20.9122 7.38714 21.7103C6.67916 22.5085 6.27323 23.3049 6.16121 23.2587Z" fill="#383838"/>
<path d="M7.10641 30.8623C6.53788 30.4455 6.12449 29.8511 5.93152 29.173C5.61193 28.5532 5.50844 27.8444 5.63748 27.1591C5.9304 27.7592 6.17314 28.3825 6.36321 29.0226C6.72173 30.0438 7.21661 30.7779 7.10641 30.8623Z" fill="#383838"/>
<path d="M13.9054 34.7181C13.2245 34.8334 12.5248 34.7455 11.8936 34.4654C11.2165 34.3163 10.5995 33.968 10.1221 33.4653C10.7777 33.5923 11.4169 33.793 12.0273 34.0638C12.6776 34.2048 13.3082 34.4245 13.9054 34.7181Z" fill="#383838"/>
<path d="M21.7276 33.4656C21.2086 33.9069 20.5838 34.2056 19.9145 34.3325C19.2797 34.6002 18.5843 34.6905 17.9022 34.594C18.4962 34.2843 19.1307 34.0596 19.7873 33.9265C20.408 33.6786 21.0618 33.5234 21.7276 33.4656Z" fill="#383838"/>
<path d="M28.4505 29.1477C28.5279 29.2331 27.8616 29.8455 26.9645 30.5039C26.4649 30.9622 25.8754 31.3116 25.2335 31.5299C25.1649 31.4286 25.8313 30.8162 26.7198 30.1656C27.2212 29.7118 27.8102 29.3654 28.4505 29.1477Z" fill="#383838"/>
<path d="M32.6435 24.8136C32.747 24.8676 32.6186 25.3265 32.2293 25.781C31.8399 26.2355 31.4923 26.5043 31.3818 26.4255C31.2714 26.3467 31.5354 25.9514 31.8747 25.519C32.214 25.0865 32.54 24.7596 32.6435 24.8136Z" fill="#383838"/>
</svg>
