<svg width="348" height="108" viewBox="0 0 348 108" fill="none" xmlns="http://www.w3.org/2000/svg">
<g clip-path="url(#clip0_720_2138)">
<rect y="0.359375" width="348" height="107" rx="32" fill="#044C8C"/>
<circle cx="83" cy="56.9062" r="11" fill="#407BFF"/>
<circle cx="63.2048" cy="89.0249" r="4.15994" fill="#407BFF"/>
<circle cx="11.992" cy="52.6795" r="2.77329" fill="#407BFF"/>
<path d="M78.8706 119.044C109.931 146.863 112.559 194.594 84.7401 225.654C56.9211 256.715 9.18992 259.343 -21.8706 231.524C-52.9311 203.705 -55.559 155.974 -27.7401 124.913C-14.3975 110.016 3.52554 101.659 21.993 100.065C26.2912 99.6942 29.8346 96.2532 29.8264 91.939L29.8232 90.2475C29.8192 88.1796 28.4959 86.3942 26.936 85.0366C22.4553 81.1369 21.9843 74.3433 25.8839 69.8626C29.7836 65.3819 36.5772 64.9108 41.0579 68.8105C45.5387 72.7101 46.0097 79.5038 42.11 83.9845C41.7779 84.3661 41.4248 84.7186 41.054 85.0418C38.4051 87.3502 35.5739 90.1698 35.5806 93.6833C35.5875 97.3294 38.3736 100.337 41.9619 100.984C55.255 103.379 68.0706 109.371 78.8706 119.044Z" fill="#407BFF"/>
<path d="M164.32 65.8C163.493 65.8 162.773 65.6 162.16 65.2C161.56 64.8133 161.1 64.26 160.78 63.54C160.46 62.82 160.3 61.9667 160.3 60.98C160.3 60.2867 160.353 59.66 160.46 59.1C160.58 58.54 160.76 57.9667 161 57.38H162.66C162.447 57.94 162.3 58.4867 162.22 59.02C162.14 59.54 162.1 60.1533 162.1 60.86C162.1 61.58 162.2 62.1867 162.4 62.68C162.6 63.1867 162.893 63.5733 163.28 63.84C163.667 64.1067 164.14 64.24 164.7 64.24H168.62C169.313 64.24 169.907 64.1533 170.4 63.98C170.893 63.8067 171.273 63.5667 171.54 63.26C171.807 62.9533 171.94 62.6 171.94 62.2C171.94 61.8933 171.82 61.6 171.58 61.32C171.34 61.04 171.033 60.78 170.66 60.54C170.3 60.2867 169.927 60.0467 169.54 59.82C169.14 59.58 168.8 59.3667 168.52 59.18C168.24 58.98 168.02 58.8133 167.86 58.68C167.647 58.4933 167.467 58.3067 167.32 58.12C167.173 57.9333 167.06 57.7333 166.98 57.52C166.913 57.3067 166.88 57.0867 166.88 56.86C166.88 56.46 166.953 56.0533 167.1 55.64C167.247 55.2133 167.467 54.78 167.76 54.34C168.16 53.7533 168.62 53.2333 169.14 52.78C169.673 52.3133 170.227 51.9533 170.8 51.7C171.387 51.4333 171.953 51.3 172.5 51.3C172.807 51.3 173.127 51.3467 173.46 51.44C173.793 51.52 174.107 51.62 174.4 51.74C174.693 51.86 174.92 51.98 175.08 52.1L174.36 53.44C174.253 53.3867 174.093 53.3333 173.88 53.28C173.667 53.2267 173.453 53.1867 173.24 53.16C173.027 53.12 172.84 53.1 172.68 53.1C172.4 53.1 172.113 53.1533 171.82 53.26C171.527 53.3533 171.253 53.48 171 53.64C170.6 53.8933 170.24 54.1867 169.92 54.52C169.6 54.84 169.34 55.1733 169.14 55.52C168.953 55.8667 168.86 56.2 168.86 56.52C168.86 56.6667 168.913 56.8267 169.02 57C169.14 57.1733 169.307 57.3533 169.52 57.54C169.747 57.7133 170.027 57.9 170.36 58.1C170.853 58.3933 171.273 58.6667 171.62 58.92C171.967 59.1733 172.247 59.3933 172.46 59.58C172.887 59.9667 173.207 60.3867 173.42 60.84C173.647 61.2933 173.76 61.76 173.76 62.24C173.76 63.36 173.313 64.2333 172.42 64.86C171.527 65.4867 170.26 65.8 168.62 65.8H164.32ZM186.937 59.44C187.004 59.44 187.037 59.4667 187.037 59.52V60.9C187.037 60.9667 187.004 61 186.937 61H183.317C183.251 61 183.217 60.9667 183.217 60.9V59.52C183.217 59.4667 183.251 59.44 183.317 59.44H186.937ZM180.677 65.8C179.997 65.8 179.357 65.7133 178.757 65.54C178.157 65.3667 177.597 65.1133 177.077 64.78L177.877 63.44C178.304 63.6667 178.744 63.8533 179.197 64C179.664 64.16 180.171 64.24 180.717 64.24C181.624 64.24 182.331 63.9933 182.837 63.5C183.357 63.02 183.617 62.38 183.617 61.58V61H181.657C180.231 61 179.131 60.6133 178.357 59.84C177.584 59.0533 177.197 57.92 177.197 56.44C177.197 55.3867 177.417 54.48 177.857 53.72C178.311 52.9467 178.951 52.3533 179.777 51.94C180.604 51.5133 181.571 51.3 182.677 51.3H185.297V61.48C185.297 62.84 184.891 63.9 184.077 64.66C183.277 65.42 182.144 65.8 180.677 65.8ZM183.597 59.44V52.86H182.737C181.551 52.86 180.624 53.1733 179.957 53.8C179.304 54.4267 178.977 55.3 178.977 56.42C178.977 57.46 179.204 58.2267 179.657 58.72C180.111 59.2 180.797 59.44 181.717 59.44H183.597ZM186.732 61C186.665 61 186.632 60.9667 186.632 60.9V59.52C186.632 59.4667 186.665 59.44 186.732 59.44H195.152V55.76C195.152 54.76 194.852 54.0267 194.252 53.56C193.652 53.0933 192.725 52.86 191.472 52.86H188.072V51.22C188.285 50.7667 188.539 50.32 188.832 49.88C189.139 49.44 189.479 49 189.852 48.56C190.612 47.6933 191.459 46.92 192.392 46.24C193.325 45.56 194.232 45.0533 195.112 44.72L195.752 46.24C195.139 46.48 194.519 46.7933 193.892 47.18C193.279 47.5533 192.699 47.9733 192.152 48.44C191.605 48.8933 191.119 49.3667 190.692 49.86C190.279 50.3533 189.959 50.8333 189.732 51.3H191.472C193.219 51.3 194.552 51.66 195.472 52.38C196.392 53.1 196.852 54.1267 196.852 55.46V59.44H199.452C199.519 59.44 199.552 59.4667 199.552 59.52V60.9C199.552 60.9667 199.519 61 199.452 61H186.732ZM208.785 47.7C208.492 47.7 208.245 47.6133 208.045 47.44C207.845 47.2667 207.745 46.9867 207.745 46.6C207.745 46.2133 207.845 45.9333 208.045 45.76C208.245 45.5867 208.492 45.5 208.785 45.5C209.065 45.5 209.305 45.5933 209.505 45.78C209.718 45.9533 209.825 46.2267 209.825 46.6C209.825 46.9867 209.718 47.2667 209.505 47.44C209.305 47.6133 209.065 47.7 208.785 47.7ZM207.065 50.4C206.758 50.4 206.498 50.3067 206.285 50.12C206.058 49.9333 205.945 49.6267 205.945 49.2C205.945 48.7733 206.058 48.4667 206.285 48.28C206.498 48.0933 206.758 48 207.065 48C207.425 48 207.705 48.1133 207.905 48.34C208.092 48.5533 208.185 48.84 208.185 49.2C208.185 49.56 208.092 49.8533 207.905 50.08C207.705 50.2933 207.425 50.4 207.065 50.4ZM210.525 50.4C210.178 50.4 209.905 50.3 209.705 50.1C209.505 49.8867 209.405 49.5867 209.405 49.2C209.405 48.8133 209.505 48.52 209.705 48.32C209.905 48.1067 210.178 48 210.525 48C210.885 48 211.158 48.1133 211.345 48.34C211.545 48.5533 211.645 48.84 211.645 49.2C211.645 49.56 211.545 49.8533 211.345 50.08C211.158 50.2933 210.885 50.4 210.525 50.4ZM212.292 61C211.692 61 211.138 60.9 210.632 60.7C210.125 60.5 209.605 60.1333 209.072 59.6C208.778 60.0133 208.385 60.3533 207.892 60.62C207.412 60.8733 206.832 61 206.152 61H199.252C199.185 61 199.152 60.9667 199.152 60.9V59.52C199.152 59.4667 199.185 59.44 199.252 59.44H202.112V52.86H203.812V59.44H205.972C206.612 59.44 207.112 59.2267 207.472 58.8C207.832 58.3733 208.012 57.8133 208.012 57.12V52.86H209.712V57.22C209.712 57.3267 209.712 57.44 209.712 57.56C209.712 57.6667 209.705 57.7733 209.692 57.88C210.025 58.4533 210.385 58.86 210.772 59.1C211.172 59.3267 211.678 59.44 212.292 59.44H213.512V51.3H215.212V61H212.292ZM229.027 65.8C228.2 65.8 227.487 65.5933 226.887 65.18C226.287 64.78 225.82 64.1933 225.487 63.42C225.167 62.66 225.007 61.7467 225.007 60.68C225.007 60.12 225.034 59.56 225.087 59C225.154 58.44 225.247 57.9 225.367 57.38C225.5 56.86 225.654 56.3867 225.827 55.96H227.487C227.26 56.5333 227.087 57.2133 226.967 58C226.86 58.7867 226.807 59.68 226.807 60.68C226.807 61.8133 227.034 62.6867 227.487 63.3C227.94 63.9267 228.58 64.24 229.407 64.24H230.387C231.547 64.24 232.394 63.9733 232.927 63.44C233.474 62.92 233.747 62.1267 233.747 61.06V45.8H235.447V60.92C235.447 62.5333 235.047 63.7467 234.247 64.56C233.447 65.3867 232.187 65.8 230.467 65.8H229.027ZM243.858 59.44C243.924 59.44 243.958 59.4667 243.958 59.52V60.9C243.958 60.9667 243.924 61 243.858 61H239.438V45.8H241.218V59.44H243.858ZM256.706 61C256.106 61 255.552 60.9 255.046 60.7C254.539 60.5 254.019 60.1333 253.486 59.6C253.192 60.0133 252.799 60.3533 252.306 60.62C251.826 60.8733 251.246 61 250.566 61H243.666C243.599 61 243.566 60.9667 243.566 60.9V59.52C243.566 59.4667 243.599 59.44 243.666 59.44H246.526V52.86H248.226V59.44H250.386C251.026 59.44 251.526 59.2267 251.886 58.8C252.246 58.3733 252.426 57.8133 252.426 57.12V52.86H254.126V57.22C254.126 57.3267 254.126 57.44 254.126 57.56C254.126 57.6667 254.119 57.7733 254.106 57.88C254.439 58.4533 254.799 58.86 255.186 59.1C255.586 59.3267 256.092 59.44 256.706 59.44H257.926V51.3H259.626V61H256.706ZM262.564 65.8C262.244 65.8 261.911 65.7533 261.564 65.66C261.231 65.5667 260.884 65.4267 260.524 65.24L261.044 63.9C261.364 64.0467 261.631 64.14 261.844 64.18C262.058 64.22 262.284 64.24 262.524 64.24C263.124 64.24 263.591 63.9933 263.924 63.5C264.271 63.02 264.444 62.38 264.444 61.58V51.3H266.124V61.48C266.124 62.3733 265.984 63.14 265.704 63.78C265.438 64.4333 265.038 64.9333 264.504 65.28C263.984 65.6267 263.338 65.8 262.564 65.8ZM269.828 45.8H271.608V61H269.828V45.8Z" fill="white"/>
</g>
<defs>
<clipPath id="clip0_720_2138">
<rect y="0.359375" width="348" height="107" rx="32" fill="white"/>
</clipPath>
</defs>
</svg>
