<svg width="24" height="24" viewBox="0 0 24 24" fill="none" xmlns="http://www.w3.org/2000/svg">
<path d="M3.06156 16.7822L2.32079 16.8995L2.32079 16.8995L3.06156 16.7822ZM7.21783 20.9384L7.33516 20.1977L7.21783 20.9384ZM7.21783 3.06156L7.1005 2.32079L7.10051 2.32079L7.21783 3.06156ZM3.06156 7.21783L2.32079 7.1005L2.32079 7.1005L3.06156 7.21783ZM13.4504 3.39996C13.7816 3.64873 13.8484 4.11888 13.5997 4.45007C13.3509 4.78126 12.8808 4.84808 12.5496 4.59931L13.4504 3.39996ZM12.5496 19.4007C12.8808 19.1519 13.3509 19.2187 13.5997 19.5499C13.8484 19.8811 13.7816 20.3513 13.4504 20.6L12.5496 19.4007ZM7 12.75C6.58579 12.75 6.25 12.4142 6.25 12C6.25 11.5858 6.58579 11.25 7 11.25L7 12.75ZM17.466 16.5877C17.1414 16.845 16.6697 16.7905 16.4123 16.466C16.155 16.1414 16.2095 15.6697 16.534 15.4123L17.466 16.5877ZM18.763 14.6022L19.2289 15.1898L18.763 14.6022ZM18.763 9.39785L19.2289 8.81016L18.763 9.39785ZM16.534 8.58768C16.2095 8.33033 16.155 7.8586 16.4123 7.53403C16.6697 7.20946 17.1414 7.15497 17.466 7.41232L16.534 8.58768ZM20.9801 12.2507L21.7208 12.3687L21.7208 12.3687L20.9801 12.2507ZM20.9801 11.7493L21.7208 11.6313L21.7208 11.6313L20.9801 11.7493ZM10 3L10 3.75L9 3.75L9 3L9 2.25L10 2.25L10 3ZM3 9L3.75 9L3.75 15L3 15L2.25 15L2.25 9L3 9ZM9 21L9 20.25L10 20.25L10 21L10 21.75L9 21.75L9 21ZM3 15L3.75 15C3.75 15.9577 3.75233 16.3492 3.80233 16.6648L3.06156 16.7822L2.32079 16.8995C2.24768 16.4378 2.25 15.9003 2.25 15L3 15ZM9 21L9 21.75C8.09966 21.75 7.56216 21.7523 7.1005 21.6792L7.21783 20.9384L7.33516 20.1977C7.65082 20.2477 8.04234 20.25 9 20.25L9 21ZM3.06156 16.7822L3.80233 16.6648C4.09036 18.4834 5.51661 19.9096 7.33516 20.1977L7.21783 20.9384L7.1005 21.6792C4.64012 21.2895 2.71048 19.3599 2.32079 16.8995L3.06156 16.7822ZM9 3L9 3.75C8.04234 3.75 7.65082 3.75233 7.33516 3.80232L7.21783 3.06156L7.10051 2.32079C7.56216 2.24767 8.09966 2.25 9 2.25L9 3ZM3 9L2.25 9C2.25 8.09965 2.24768 7.56216 2.32079 7.1005L3.06156 7.21783L3.80233 7.33515C3.75233 7.65082 3.75 8.04233 3.75 9L3 9ZM7.21783 3.06156L7.33516 3.80232C5.51661 4.09035 4.09036 5.51661 3.80233 7.33515L3.06156 7.21783L2.32079 7.1005C2.71048 4.64012 4.64012 2.71048 7.1005 2.32079L7.21783 3.06156ZM10 3L10 2.25C11.2936 2.25 12.4894 2.67806 13.4504 3.39996L13 3.99963L12.5496 4.59931C11.8393 4.06583 10.9576 3.75 10 3.75L10 3ZM10 21L10 20.25C10.9576 20.25 11.8393 19.9342 12.5496 19.4007L13 20.0004L13.4504 20.6C12.4894 21.3219 11.2936 21.75 10 21.75L10 21ZM7 12L7 11.25L20 11.25L20 12L20 12.75L7 12.75L7 12ZM17 16L16.534 15.4123L18.297 14.0145L18.763 14.6022L19.2289 15.1898L17.466 16.5877L17 16ZM18.763 9.39785L18.297 9.98553L16.534 8.58768L17 8L17.466 7.41232L19.2289 8.81016L18.763 9.39785ZM18.763 14.6022L18.297 14.0145C19.0143 13.4457 19.5012 13.0582 19.8289 12.7318C20.1532 12.4087 20.2225 12.2388 20.2395 12.1327L20.9801 12.2507L21.7208 12.3687C21.6294 12.9418 21.2932 13.3904 20.8875 13.7945C20.4852 14.1953 19.9176 14.6438 19.2289 15.1898L18.763 14.6022ZM18.763 9.39785L19.2289 8.81016C19.9175 9.35616 20.4852 9.80474 20.8875 10.2055C21.2932 10.6096 21.6294 11.0582 21.7208 11.6313L20.9801 11.7493L20.2395 11.8673C20.2225 11.7612 20.1532 11.5913 19.8289 11.2682C19.5012 10.9418 19.0143 10.5543 18.297 9.98553L18.763 9.39785ZM20.9801 12.2507L20.2395 12.1327C20.2465 12.0883 20.25 12.0441 20.25 12L21 12L21.75 12C21.75 12.1234 21.7402 12.2466 21.7208 12.3687L20.9801 12.2507ZM21 12L20.25 12C20.25 11.9559 20.2465 11.9117 20.2395 11.8673L20.9801 11.7493L21.7208 11.6313C21.7402 11.7534 21.75 11.8766 21.75 12L21 12ZM20 12L20 11.25L21 11.25L21 12L21 12.75L20 12.75L20 12Z" fill="#044C8C"/>
</svg>
