<svg width="136" height="136" viewBox="0 0 136 136" fill="none" xmlns="http://www.w3.org/2000/svg">
<g filter="url(#filter0_d_606_2118)">
<path d="M130 70.9062C130 75.2414 128.959 79.2617 126.876 82.943C124.793 86.6242 122.008 89.5062 118.496 91.5164C118.593 92.1703 118.641 93.1875 118.641 94.568C118.641 101.131 116.438 106.702 112.078 111.303C107.695 115.929 102.415 118.23 96.2391 118.23C93.4781 118.23 90.8383 117.721 88.3438 116.704C86.4062 120.676 83.6211 123.873 79.9641 126.319C76.3312 128.789 72.3352 130 68 130C63.568 130 59.5477 128.813 55.9633 126.391C52.3547 123.994 49.5938 120.773 47.6562 116.704C45.1617 117.721 42.5461 118.23 39.7609 118.23C33.5852 118.23 28.2812 115.929 23.8492 111.303C19.4172 106.702 17.2133 101.107 17.2133 94.568C17.2133 93.8414 17.3102 92.8242 17.4797 91.5164C13.968 89.482 11.1828 86.6242 9.1 82.943C7.04141 79.2617 6 75.2414 6 70.9062C6 66.3047 7.1625 62.0664 9.46328 58.2398C11.7641 54.4133 14.8641 51.5797 18.7391 49.7391C17.7219 46.9781 17.2133 44.193 17.2133 41.432C17.2133 34.893 19.4172 29.2984 23.8492 24.6969C28.2812 20.0953 33.5852 17.7703 39.7609 17.7703C42.5219 17.7703 45.1617 18.2789 47.6562 19.2961C49.5938 15.3242 52.3789 12.1273 56.0359 9.68125C59.6688 7.23516 63.6648 6 68 6C72.3352 6 76.3312 7.23516 79.9641 9.65703C83.5969 12.1031 86.4062 15.3 88.3438 19.2719C90.8383 18.2547 93.4539 17.7461 96.2391 17.7461C102.415 17.7461 107.695 20.0469 112.078 24.6727C116.462 29.2984 118.641 34.8687 118.641 41.4078C118.641 44.4594 118.181 47.2203 117.261 49.7148C121.136 51.5555 124.236 54.3891 126.537 58.2156C128.838 62.0664 130 66.3047 130 70.9062ZM65.3602 89.5789L90.9594 51.2406C91.6133 50.2234 91.807 49.1094 91.5891 47.9227C91.3469 46.7359 90.7414 45.7914 89.7242 45.1617C88.707 44.5078 87.593 44.2898 86.4062 44.4594C85.1953 44.6531 84.2266 45.2344 83.5 46.2516L60.9523 80.1578L50.5625 69.7922C49.6422 68.8719 48.5766 68.4359 47.3898 68.4844C46.1789 68.5328 45.1375 68.9688 44.2172 69.7922C43.3937 70.6156 42.982 71.657 42.982 72.9164C42.982 74.1516 43.3937 75.193 44.2172 76.0406L58.482 90.3055L59.1844 90.8625C60.0078 91.4195 60.8555 91.6859 61.6789 91.6859C63.3016 91.6617 64.5367 90.9836 65.3602 89.5789Z" fill="#044C8C"/>
</g>
<defs>
<filter id="filter0_d_606_2118" x="0.4" y="0.4" width="135.2" height="135.2" filterUnits="userSpaceOnUse" color-interpolation-filters="sRGB">
<feFlood flood-opacity="0" result="BackgroundImageFix"/>
<feColorMatrix in="SourceAlpha" type="matrix" values="0 0 0 0 0 0 0 0 0 0 0 0 0 0 0 0 0 0 127 0" result="hardAlpha"/>
<feOffset/>
<feGaussianBlur stdDeviation="2.8"/>
<feComposite in2="hardAlpha" operator="out"/>
<feColorMatrix type="matrix" values="0 0 0 0 0 0 0 0 0 0 0 0 0 0 0 0 0 0 0.25 0"/>
<feBlend mode="normal" in2="BackgroundImageFix" result="effect1_dropShadow_606_2118"/>
<feBlend mode="normal" in="SourceGraphic" in2="effect1_dropShadow_606_2118" result="shape"/>
</filter>
</defs>
</svg>
