<svg width="51" height="40" viewBox="0 0 51 40" fill="none" xmlns="http://www.w3.org/2000/svg">
<path fill-rule="evenodd" clip-rule="evenodd" d="M33.0249 6.46434C33.3208 6.75426 33.3256 7.22911 33.0357 7.52495L24.6641 16.0674C23.5858 17.1676 21.8142 17.1676 20.7359 16.0674L17.9643 13.2392C17.6744 12.9434 17.6792 12.4685 17.9751 12.1786C18.2709 11.8887 18.7457 11.8935 19.0357 12.1893L21.8072 15.0175C22.2973 15.5176 23.1026 15.5176 23.5928 15.0175L31.9643 6.47505C32.2543 6.17922 32.7291 6.17442 33.0249 6.46434Z" fill="#048C09"/>
<path d="M14.3873 34.376H17.0513C17.0247 34.1733 16.9873 33.9813 16.9393 33.8C16.8967 33.6187 16.846 33.4453 16.7873 33.28C16.638 32.8533 16.4327 32.472 16.1713 32.136C15.9153 31.8 15.59 31.5013 15.1953 31.24L15.4513 30.632C15.862 30.8453 16.2193 31.128 16.5233 31.48C16.8327 31.832 17.0887 32.2507 17.2913 32.736C17.4993 33.2213 17.6487 33.7733 17.7393 34.392V35H14.3873V34.376ZM20.0177 35V35.192C20.0177 35.5493 19.9617 35.856 19.8497 36.112C19.743 36.3733 19.583 36.5733 19.3697 36.712C19.1617 36.8507 18.903 36.92 18.5937 36.92C18.4657 36.92 18.3323 36.9013 18.1937 36.864C18.0603 36.8267 17.9217 36.7707 17.7777 36.696L17.9857 36.16C18.1137 36.2187 18.2203 36.256 18.3057 36.272C18.391 36.288 18.4817 36.296 18.5777 36.296C18.8177 36.296 19.0043 36.1973 19.1377 36C19.2763 35.808 19.3457 35.552 19.3457 35.232V31.12H20.0177V34.376H21.0097C21.0363 34.376 21.0497 34.3867 21.0497 34.408V34.96C21.0497 34.9867 21.0363 35 21.0097 35H20.0177ZM20.9327 35C20.906 35 20.8927 34.9867 20.8927 34.96V34.408C20.8927 34.3867 20.906 34.376 20.9327 34.376H21.9887V28.92H22.7007V35H20.9327ZM24.3039 28.92H25.0159V35H24.3039V28.92ZM30.2952 35C30.1085 35 29.9672 35.048 29.8712 35.144C29.7752 35.24 29.7272 35.3867 29.7272 35.584V37.56H29.0552V35.464C29.0552 35.24 29.0952 35.048 29.1752 34.888C29.2605 34.7227 29.3752 34.5973 29.5192 34.512C29.6685 34.4213 29.8392 34.376 30.0312 34.376H30.0872C29.9858 34.1253 29.9112 33.8853 29.8632 33.656C29.8152 33.4267 29.7912 33.2107 29.7912 33.008C29.7912 32.7733 29.8152 32.5493 29.8632 32.336C29.9112 32.1227 29.9832 31.9227 30.0792 31.736C30.2765 31.5707 30.5005 31.44 30.7512 31.344C31.0072 31.248 31.2712 31.2 31.5432 31.2C31.7085 31.2 31.8658 31.2187 32.0152 31.256C32.1645 31.288 32.3005 31.3413 32.4232 31.416C32.6738 31.5653 32.8658 31.776 32.9992 32.048C33.1378 32.32 33.2072 32.6267 33.2072 32.968C33.2072 33.1387 33.1938 33.304 33.1672 33.464C33.1405 33.6187 33.0978 33.768 33.0392 33.912C33.1565 34.088 33.2872 34.2107 33.4312 34.28C33.5752 34.344 33.7592 34.376 33.9832 34.376H34.0232C34.0498 34.376 34.0632 34.3867 34.0632 34.408V34.96C34.0632 34.9867 34.0498 35 34.0232 35H33.9832C33.7005 35 33.4578 34.9627 33.2552 34.888C33.0578 34.808 32.8658 34.672 32.6792 34.48C32.5085 34.656 32.3112 34.7867 32.0872 34.872C31.8632 34.9573 31.6285 35 31.3832 35H30.2952ZM30.5112 32.872C30.5112 33.1173 30.5325 33.36 30.5752 33.6C30.6178 33.84 30.6978 34.0987 30.8152 34.376H31.3832C31.6232 34.376 31.8232 34.3227 31.9832 34.216C32.1485 34.104 32.2738 33.944 32.3592 33.736C32.4445 33.5227 32.4872 33.264 32.4872 32.96C32.4872 32.624 32.3938 32.3493 32.2072 32.136C32.0258 31.9227 31.8045 31.816 31.5432 31.816C31.3778 31.816 31.2152 31.8453 31.0552 31.904C30.9005 31.9573 30.7512 32.0373 30.6072 32.144C30.5592 32.256 30.5298 32.3707 30.5192 32.488C30.5138 32.6053 30.5112 32.7333 30.5112 32.872ZM34.9249 30.36C34.8022 30.36 34.6982 30.3227 34.6129 30.248C34.5222 30.1733 34.4769 30.0507 34.4769 29.88C34.4769 29.7093 34.5222 29.5867 34.6129 29.512C34.6982 29.4373 34.8022 29.4 34.9249 29.4C35.0636 29.4 35.1729 29.4427 35.2529 29.528C35.3329 29.608 35.3729 29.7253 35.3729 29.88C35.3729 30.0347 35.3329 30.1547 35.2529 30.24C35.1729 30.32 35.0636 30.36 34.9249 30.36ZM36.3089 30.36C36.1702 30.36 36.0609 30.32 35.9809 30.24C35.9009 30.1547 35.8609 30.0347 35.8609 29.88C35.8609 29.7253 35.9009 29.608 35.9809 29.528C36.0609 29.4427 36.1702 29.4 36.3089 29.4C36.4529 29.4 36.5622 29.4453 36.6369 29.536C36.7169 29.6213 36.7569 29.736 36.7569 29.88C36.7569 30.024 36.7169 30.1413 36.6369 30.232C36.5622 30.3173 36.4529 30.36 36.3089 30.36ZM33.9405 35C33.9138 35 33.9005 34.9867 33.9005 34.96V34.408C33.9005 34.3867 33.9138 34.376 33.9405 34.376H35.4765V31.12H36.1885V35H33.9405Z" fill="#048C09"/>
</svg>
