
<svg width="12" height="12" viewBox="0 0 12 12" fill="none" xmlns="http://www.w3.org/2000/svg">
<path fill-rule="evenodd" clip-rule="evenodd" d="M4.5 1.125C3.18832 1.125 2.125 2.18832 2.125 3.5V8.5C2.125 9.81168 3.18832 10.875 4.5 10.875H7.5C8.81168 10.875 9.875 9.81168 9.875 8.5V4.32843C9.875 3.69854 9.62478 3.09445 9.17938 2.64905L8.35095 1.82062C7.90555 1.37522 7.30146 1.125 6.67157 1.125H4.5ZM3.625 4.5C3.625 4.29289 3.79289 4.125 4 4.125H6C6.20711 4.125 6.375 4.29289 6.375 4.5C6.375 4.70711 6.20711 4.875 6 4.875H4C3.79289 4.875 3.625 4.70711 3.625 4.5ZM3.625 6.5C3.625 6.29289 3.79289 6.125 4 6.125H8C8.20711 6.125 8.375 6.29289 8.375 6.5C8.375 6.70711 8.20711 6.875 8 6.875H4C3.79289 6.875 3.625 6.70711 3.625 6.5ZM3.625 8.5C3.625 8.29289 3.79289 8.125 4 8.125H8C8.20711 8.125 8.375 8.29289 8.375 8.5C8.375 8.70711 8.20711 8.875 8 8.875H4C3.79289 8.875 3.625 8.70711 3.625 8.5Z" fill="#7A7A7A"/>
</svg>
