<svg width="12" height="13" viewBox="0 0 12 15" fill="none" xmlns="http://www.w3.org/2000/svg">
<path fill-rule="evenodd" clip-rule="evenodd" d="M2.62899 0H4.75008C5.1643 0 5.50008 0.335786 5.50008 0.75C5.50008 1.16421 5.83587 1.5 6.25008 1.5H7.42327C8.54355 1.5 9.42672 2.45371 9.3408 3.57069L9.14213 6.15339C9.06198 7.19539 8.19309 8 7.14802 8H2.87899C1.82286 8 0.94876 7.17883 0.882881 6.12476L0.632881 2.12476C0.560919 0.973361 1.47534 0 2.62899 0ZM5.37506 3C5.37506 2.79289 5.20717 2.625 5.00006 2.625C4.79295 2.625 4.62506 2.79289 4.62506 3V5.09467L4.26523 4.73483C4.11878 4.58839 3.88134 4.58839 3.7349 4.73483C3.58845 4.88128 3.58845 5.11872 3.7349 5.26517L4.7349 6.26517C4.88134 6.41161 5.11878 6.41161 5.26523 6.26517L6.26523 5.26517C6.41167 5.11872 6.41167 4.88128 6.26523 4.73483C6.11878 4.58839 5.88134 4.58839 5.7349 4.73483L5.37506 5.09467V3Z" fill="#7A7A7A"/>
</svg>
