<svg width="12" height="13" viewBox="0 0 12 15" fill="none" xmlns="http://www.w3.org/2000/svg">
<path d="M8 4C8 5.38071 6.88071 6.5 5.5 6.5C4.11929 6.5 3 5.38071 3 4C3 2.61929 4.11929 1.5 5.5 1.5C6.88071 1.5 8 2.61929 8 4Z" fill="#7A7A7A"/>
<path d="M10.7652 5.23483C10.9116 5.38128 10.9116 5.61872 10.7652 5.76516L9.27707 7.25326C9.13422 7.39611 8.90389 7.40013 8.75615 7.26234L7.99424 6.5518C7.84278 6.41055 7.8345 6.17326 7.97575 6.02179C8.117 5.87033 8.3543 5.86205 8.50576 6.00331L9.00282 6.46685L10.2348 5.23483C10.3813 5.08839 10.6187 5.08839 10.7652 5.23483Z" fill="#7A7A7A"/>
<path d="M5.5 11.5C7.70914 11.5 9.5 10.4926 9.5 9.25C9.5 8.00736 7.70914 7 5.5 7C3.29086 7 1.5 8.00736 1.5 9.25C1.5 10.4926 3.29086 11.5 5.5 11.5Z" fill="#7A7A7A"/>
</svg>
