<svg width="182" height="179" viewBox="0 0 182 179" fill="none" xmlns="http://www.w3.org/2000/svg">
<path opacity="0.1" d="M5.52099 78.2553C5.52099 78.2553 2.61798 109.79 26.204 135.077C49.79 160.364 85.9088 167.919 115.064 174.815C144.218 181.71 168.854 168.852 175.376 144.285C181.897 119.718 160.382 108.584 151.769 77.9416C143.157 47.2992 145.421 38.0594 121.835 16.1581C98.2486 -5.74318 56.573 -1.67816 31.6642 24.9516C6.75538 51.5813 5.52099 78.2553 5.52099 78.2553Z" fill="#2F80ED"/>
<path opacity="0.1" d="M98.3194 3.46883C98.3194 3.46883 66.6871 1.95703 42.4632 26.6335C18.2394 51.3099 12.2819 87.7263 6.67648 117.156C1.07109 146.587 15.0018 170.632 39.8321 176.066C64.6625 181.5 74.8381 159.515 105.072 149.562C135.305 139.608 144.636 141.463 165.477 116.936C186.319 92.4083 180.423 50.9521 152.722 27.2399C125.022 3.52764 98.3194 3.46883 98.3194 3.46883Z" fill="#2F80ED"/>
</svg>
