<svg width="348" height="107" viewBox="0 0 348 107" fill="none" xmlns="http://www.w3.org/2000/svg">
<g clip-path="url(#clip0_720_2122)">
<rect y="0.359375" width="348" height="106" rx="32" fill="#EF8D32"/>
<circle cx="74" cy="57.3594" r="11" fill="#CC561E"/>
<circle cx="54.2048" cy="89.4781" r="4.15994" fill="#CC561E"/>
<circle cx="2.99204" cy="53.1327" r="2.77329" fill="#CC561E"/>
<path d="M69.8706 119.497C100.931 147.316 103.559 195.047 75.7401 226.108C47.9211 257.168 0.189922 259.796 -30.8706 231.977C-61.9311 204.158 -64.559 156.427 -36.7401 125.366C-23.3975 110.469 -5.47446 102.112 12.993 100.518C17.2912 100.147 20.8346 96.7063 20.8264 92.3921L20.8232 90.7006C20.8192 88.6327 19.4959 86.8473 17.936 85.4897C13.4553 81.5901 12.9843 74.7964 16.8839 70.3157C20.7836 65.835 27.5772 65.3639 32.0579 69.2636C36.5387 73.1633 37.0097 79.9569 33.11 84.4376C32.7779 84.8192 32.4248 85.1718 32.054 85.495C29.4051 87.8034 26.5739 90.6229 26.5806 94.1365C26.5875 97.7826 29.3736 100.79 32.9619 101.437C46.255 103.832 59.0706 109.824 69.8706 119.497Z" fill="#CC561E"/>
<path d="M106.32 64.8C105.493 64.8 104.773 64.6 104.16 64.2C103.56 63.8133 103.1 63.26 102.78 62.54C102.46 61.82 102.3 60.9667 102.3 59.98C102.3 59.2867 102.353 58.66 102.46 58.1C102.58 57.54 102.76 56.9667 103 56.38H104.66C104.447 56.94 104.3 57.4867 104.22 58.02C104.14 58.54 104.1 59.1533 104.1 59.86C104.1 60.58 104.2 61.1867 104.4 61.68C104.6 62.1867 104.893 62.5733 105.28 62.84C105.667 63.1067 106.14 63.24 106.7 63.24H110.62C111.313 63.24 111.907 63.1533 112.4 62.98C112.893 62.8067 113.273 62.5667 113.54 62.26C113.807 61.9533 113.94 61.6 113.94 61.2C113.94 60.8933 113.82 60.6 113.58 60.32C113.34 60.04 113.033 59.78 112.66 59.54C112.3 59.2867 111.927 59.0467 111.54 58.82C111.14 58.58 110.8 58.3667 110.52 58.18C110.24 57.98 110.02 57.8133 109.86 57.68C109.647 57.4933 109.467 57.3067 109.32 57.12C109.173 56.9333 109.06 56.7333 108.98 56.52C108.913 56.3067 108.88 56.0867 108.88 55.86C108.88 55.46 108.953 55.0533 109.1 54.64C109.247 54.2133 109.467 53.78 109.76 53.34C110.16 52.7533 110.62 52.2333 111.14 51.78C111.673 51.3133 112.227 50.9533 112.8 50.7C113.387 50.4333 113.953 50.3 114.5 50.3C114.807 50.3 115.127 50.3467 115.46 50.44C115.793 50.52 116.107 50.62 116.4 50.74C116.693 50.86 116.92 50.98 117.08 51.1L116.36 52.44C116.253 52.3867 116.093 52.3333 115.88 52.28C115.667 52.2267 115.453 52.1867 115.24 52.16C115.027 52.12 114.84 52.1 114.68 52.1C114.4 52.1 114.113 52.1533 113.82 52.26C113.527 52.3533 113.253 52.48 113 52.64C112.6 52.8933 112.24 53.1867 111.92 53.52C111.6 53.84 111.34 54.1733 111.14 54.52C110.953 54.8667 110.86 55.2 110.86 55.52C110.86 55.6667 110.913 55.8267 111.02 56C111.14 56.1733 111.307 56.3533 111.52 56.54C111.747 56.7133 112.027 56.9 112.36 57.1C112.853 57.3933 113.273 57.6667 113.62 57.92C113.967 58.1733 114.247 58.3933 114.46 58.58C114.887 58.9667 115.207 59.3867 115.42 59.84C115.647 60.2933 115.76 60.76 115.76 61.24C115.76 62.36 115.313 63.2333 114.42 63.86C113.527 64.4867 112.26 64.8 110.62 64.8H106.32ZM128.937 58.44C129.004 58.44 129.037 58.4667 129.037 58.52V59.9C129.037 59.9667 129.004 60 128.937 60H125.317C125.251 60 125.217 59.9667 125.217 59.9V58.52C125.217 58.4667 125.251 58.44 125.317 58.44H128.937ZM122.677 64.8C121.997 64.8 121.357 64.7133 120.757 64.54C120.157 64.3667 119.597 64.1133 119.077 63.78L119.877 62.44C120.304 62.6667 120.744 62.8533 121.197 63C121.664 63.16 122.171 63.24 122.717 63.24C123.624 63.24 124.331 62.9933 124.837 62.5C125.357 62.02 125.617 61.38 125.617 60.58V60H123.657C122.231 60 121.131 59.6133 120.357 58.84C119.584 58.0533 119.197 56.92 119.197 55.44C119.197 54.3867 119.417 53.48 119.857 52.72C120.311 51.9467 120.951 51.3533 121.777 50.94C122.604 50.5133 123.571 50.3 124.677 50.3H127.297V60.48C127.297 61.84 126.891 62.9 126.077 63.66C125.277 64.42 124.144 64.8 122.677 64.8ZM125.597 58.44V51.86H124.737C123.551 51.86 122.624 52.1733 121.957 52.8C121.304 53.4267 120.977 54.3 120.977 55.42C120.977 56.46 121.204 57.2267 121.657 57.72C122.111 58.2 122.797 58.44 123.717 58.44H125.597ZM128.732 60C128.665 60 128.632 59.9667 128.632 59.9V58.52C128.632 58.4667 128.665 58.44 128.732 58.44H137.152V54.76C137.152 53.76 136.852 53.0267 136.252 52.56C135.652 52.0933 134.725 51.86 133.472 51.86H130.072V50.22C130.285 49.7667 130.539 49.32 130.832 48.88C131.139 48.44 131.479 48 131.852 47.56C132.612 46.6933 133.459 45.92 134.392 45.24C135.325 44.56 136.232 44.0533 137.112 43.72L137.752 45.24C137.139 45.48 136.519 45.7933 135.892 46.18C135.279 46.5533 134.699 46.9733 134.152 47.44C133.605 47.8933 133.119 48.3667 132.692 48.86C132.279 49.3533 131.959 49.8333 131.732 50.3H133.472C135.219 50.3 136.552 50.66 137.472 51.38C138.392 52.1 138.852 53.1267 138.852 54.46V58.44H141.452C141.519 58.44 141.552 58.4667 141.552 58.52V59.9C141.552 59.9667 141.519 60 141.452 60H128.732ZM150.785 46.7C150.492 46.7 150.245 46.6133 150.045 46.44C149.845 46.2667 149.745 45.9867 149.745 45.6C149.745 45.2133 149.845 44.9333 150.045 44.76C150.245 44.5867 150.492 44.5 150.785 44.5C151.065 44.5 151.305 44.5933 151.505 44.78C151.718 44.9533 151.825 45.2267 151.825 45.6C151.825 45.9867 151.718 46.2667 151.505 46.44C151.305 46.6133 151.065 46.7 150.785 46.7ZM149.065 49.4C148.758 49.4 148.498 49.3067 148.285 49.12C148.058 48.9333 147.945 48.6267 147.945 48.2C147.945 47.7733 148.058 47.4667 148.285 47.28C148.498 47.0933 148.758 47 149.065 47C149.425 47 149.705 47.1133 149.905 47.34C150.092 47.5533 150.185 47.84 150.185 48.2C150.185 48.56 150.092 48.8533 149.905 49.08C149.705 49.2933 149.425 49.4 149.065 49.4ZM152.525 49.4C152.178 49.4 151.905 49.3 151.705 49.1C151.505 48.8867 151.405 48.5867 151.405 48.2C151.405 47.8133 151.505 47.52 151.705 47.32C151.905 47.1067 152.178 47 152.525 47C152.885 47 153.158 47.1133 153.345 47.34C153.545 47.5533 153.645 47.84 153.645 48.2C153.645 48.56 153.545 48.8533 153.345 49.08C153.158 49.2933 152.885 49.4 152.525 49.4ZM154.292 60C153.692 60 153.138 59.9 152.632 59.7C152.125 59.5 151.605 59.1333 151.072 58.6C150.778 59.0133 150.385 59.3533 149.892 59.62C149.412 59.8733 148.832 60 148.152 60H141.252C141.185 60 141.152 59.9667 141.152 59.9V58.52C141.152 58.4667 141.185 58.44 141.252 58.44H144.112V51.86H145.812V58.44H147.972C148.612 58.44 149.112 58.2267 149.472 57.8C149.832 57.3733 150.012 56.8133 150.012 56.12V51.86H151.712V56.22C151.712 56.3267 151.712 56.44 151.712 56.56C151.712 56.6667 151.705 56.7733 151.692 56.88C152.025 57.4533 152.385 57.86 152.772 58.1C153.172 58.3267 153.678 58.44 154.292 58.44H155.512V50.3H157.212V60H154.292ZM172.211 50.4C171.864 50.4 171.591 50.3 171.391 50.1C171.191 49.8867 171.091 49.5867 171.091 49.2C171.091 48.8133 171.191 48.52 171.391 48.32C171.591 48.1067 171.864 48 172.211 48C172.571 48 172.844 48.1133 173.031 48.34C173.231 48.5533 173.331 48.84 173.331 49.2C173.331 49.56 173.231 49.8533 173.031 50.08C172.844 50.2933 172.571 50.4 172.211 50.4ZM177.447 60C177.447 61.5867 177.04 62.78 176.227 63.58C175.414 64.3933 174.16 64.8 172.467 64.8H171.027C170.534 64.8 170.08 64.7267 169.667 64.58C169.267 64.4467 168.907 64.2533 168.587 64C168.08 63.5867 167.687 63.0333 167.407 62.34C167.14 61.66 167.007 60.8733 167.007 59.98C167.007 59.18 167.074 58.4133 167.207 57.68C167.354 56.9333 167.56 56.2267 167.827 55.56H169.487C169.26 56.1333 169.087 56.78 168.967 57.5C168.86 58.2067 168.807 58.9933 168.807 59.86C168.807 60.94 169.027 61.7733 169.467 62.36C169.92 62.9467 170.567 63.24 171.407 63.24H172.387C173.16 63.24 173.794 63.12 174.287 62.88C174.78 62.6533 175.147 62.3 175.387 61.82C175.627 61.3533 175.747 60.76 175.747 60.04V50.3H177.447V58.44H179.647C179.714 58.44 179.747 58.4667 179.747 58.52V59.9C179.747 59.9667 179.714 60 179.647 60H177.447ZM179.455 60C179.388 60 179.355 59.9667 179.355 59.9V58.52C179.355 58.4667 179.388 58.44 179.455 58.44H182.535C182.241 58.2 181.988 57.9 181.775 57.54C181.575 57.18 181.415 56.7733 181.295 56.32C181.175 55.8667 181.115 55.3867 181.115 54.88C181.115 53.8667 181.308 53.0067 181.695 52.3C182.095 51.5933 182.648 51.0533 183.355 50.68C184.075 50.2933 184.915 50.1 185.875 50.1C186.448 50.1 186.975 50.16 187.455 50.28C187.948 50.3867 188.348 50.52 188.655 50.68L188.115 52.18C187.701 52.0067 187.301 51.88 186.915 51.8C186.528 51.7067 186.148 51.66 185.775 51.66C185.148 51.66 184.621 51.7867 184.195 52.04C183.768 52.28 183.448 52.6467 183.235 53.14C183.035 53.62 182.935 54.2267 182.935 54.96C182.935 55.6533 183.035 56.26 183.235 56.78C183.448 57.3 183.741 57.7067 184.115 58C184.488 58.2933 184.915 58.44 185.395 58.44H188.955V60H179.455ZM197.885 64.8C197.565 64.8 197.231 64.7533 196.885 64.66C196.551 64.5667 196.205 64.4267 195.845 64.24L196.365 62.9C196.685 63.0467 196.951 63.14 197.165 63.18C197.378 63.22 197.605 63.24 197.845 63.24C198.445 63.24 198.911 62.9933 199.245 62.5C199.591 62.02 199.765 61.38 199.765 60.58V50.3H201.445V60.48C201.445 61.3733 201.305 62.14 201.025 62.78C200.758 63.4333 200.358 63.9333 199.825 64.28C199.305 64.6267 198.658 64.8 197.885 64.8ZM209.568 58.44C209.635 58.44 209.668 58.4667 209.668 58.52V59.9C209.668 59.9667 209.635 60 209.568 60H205.148V44.8H206.928V58.44H209.568ZM222.417 60C221.817 60 221.263 59.9 220.757 59.7C220.25 59.5 219.73 59.1333 219.197 58.6C218.903 59.0133 218.51 59.3533 218.017 59.62C217.537 59.8733 216.957 60 216.277 60H209.377C209.31 60 209.277 59.9667 209.277 59.9V58.52C209.277 58.4667 209.31 58.44 209.377 58.44H212.237V51.86H213.937V58.44H216.097C216.737 58.44 217.237 58.2267 217.597 57.8C217.957 57.3733 218.137 56.8133 218.137 56.12V51.86H219.837V56.22C219.837 56.3267 219.837 56.44 219.837 56.56C219.837 56.6667 219.83 56.7733 219.817 56.88C220.15 57.4533 220.51 57.86 220.897 58.1C221.297 58.3267 221.803 58.44 222.417 58.44H223.637V50.3H225.337V58.44H228.017C228.083 58.44 228.117 58.4667 228.117 58.52V59.9C228.117 59.9667 228.083 60 228.017 60H222.417ZM234.242 47.4C233.896 47.4 233.622 47.3 233.422 47.1C233.222 46.8867 233.122 46.5867 233.122 46.2C233.122 45.8133 233.222 45.52 233.422 45.32C233.622 45.1067 233.896 45 234.242 45C234.602 45 234.876 45.1133 235.062 45.34C235.262 45.5533 235.362 45.84 235.362 46.2C235.362 46.56 235.262 46.8533 235.062 47.08C234.876 47.2933 234.602 47.4 234.242 47.4ZM240.034 58.44C240.101 58.44 240.134 58.4733 240.134 58.54V59.92C240.134 59.9733 240.101 60 240.034 60H227.814C227.747 60 227.714 59.9667 227.714 59.9V58.52C227.714 58.4667 227.747 58.44 227.814 58.44H230.854C230.641 58.1733 230.454 57.8733 230.294 57.54C230.134 57.2067 230.014 56.86 229.934 56.5C229.854 56.1267 229.814 55.7667 229.814 55.42C229.814 54.3533 230.034 53.44 230.474 52.68C230.927 51.92 231.561 51.3333 232.374 50.92C233.201 50.5067 234.174 50.3 235.294 50.3H237.914V58.44H240.034ZM236.214 58.44V51.86H235.354C234.567 51.86 233.887 52 233.314 52.28C232.754 52.56 232.327 52.9667 232.034 53.5C231.741 54.0333 231.594 54.6733 231.594 55.42C231.594 56.0867 231.694 56.6467 231.894 57.1C232.107 57.5533 232.414 57.8933 232.814 58.12C233.227 58.3333 233.734 58.44 234.334 58.44H236.214ZM241.642 47.4C241.336 47.4 241.076 47.3067 240.862 47.12C240.636 46.9333 240.522 46.6267 240.522 46.2C240.522 45.7733 240.636 45.4667 240.862 45.28C241.076 45.0933 241.336 45 241.642 45C241.989 45 242.262 45.1067 242.462 45.32C242.662 45.52 242.762 45.8133 242.762 46.2C242.762 46.5867 242.662 46.8867 242.462 47.1C242.262 47.3 241.989 47.4 241.642 47.4ZM245.102 47.4C244.756 47.4 244.482 47.3 244.282 47.1C244.082 46.8867 243.982 46.5867 243.982 46.2C243.982 45.8133 244.082 45.52 244.282 45.32C244.482 45.1067 244.756 45 245.102 45C245.462 45 245.736 45.1133 245.922 45.34C246.122 45.5533 246.222 45.84 246.222 46.2C246.222 46.56 246.122 46.8533 245.922 47.08C245.736 47.2933 245.462 47.4 245.102 47.4ZM239.826 60C239.759 60 239.726 59.9667 239.726 59.9V58.52C239.726 58.4667 239.759 58.44 239.826 58.44H243.066V50.3H244.846V58.44H247.846C247.912 58.44 247.946 58.4667 247.946 58.52V59.9C247.946 59.9667 247.912 60 247.846 60H239.826ZM260.678 60C260.078 60 259.525 59.9 259.018 59.7C258.512 59.5 257.992 59.1333 257.458 58.6C257.165 59.0133 256.772 59.3533 256.278 59.62C255.798 59.8733 255.218 60 254.538 60H247.638C247.572 60 247.538 59.9667 247.538 59.9V58.52C247.538 58.4667 247.572 58.44 247.638 58.44H250.498V51.86H252.198V58.44H254.358C254.998 58.44 255.498 58.2267 255.858 57.8C256.218 57.3733 256.398 56.8133 256.398 56.12V51.86H258.098V56.22C258.098 56.3267 258.098 56.44 258.098 56.56C258.098 56.6667 258.092 56.7733 258.078 56.88C258.412 57.4533 258.772 57.86 259.158 58.1C259.558 58.3267 260.065 58.44 260.678 58.44H261.898V50.3H263.598V60H260.678ZM267.297 44.8H269.077V60H267.297V44.8Z" fill="white"/>
</g>
<path fill-rule="evenodd" clip-rule="evenodd" d="M313.816 72C326.363 72 336.534 62.1503 336.534 50C336.534 37.8497 326.363 28 313.816 28C301.269 28 291.098 37.8497 291.098 50C291.098 55.5005 293.182 60.5296 296.628 64.3867C297.353 65.1982 297.81 66.2275 297.81 67.3156V72.7145C297.81 75.6421 300.852 77.5779 303.504 76.3381L312.767 72.0077C312.773 72.0047 312.773 71.9956 312.767 71.9928C312.758 71.9892 312.761 71.9767 312.77 71.9771C313.117 71.9923 313.466 72 313.816 72Z" fill="#CC561E"/>
<path fill-rule="evenodd" clip-rule="evenodd" d="M309.87 53.5652C309.87 55.222 311.213 56.5652 312.87 56.5652H313.13C314.787 56.5652 316.13 55.222 316.13 53.5652L316.13 40.0869C316.13 38.4301 314.787 37.0869 313.13 37.0869H312.87C311.213 37.0869 309.87 38.4301 309.87 40.0869V53.5652ZM313 64.913C314.729 64.913 316.13 63.5115 316.13 61.7826C316.13 60.0537 314.729 58.6521 313 58.6521C311.271 58.6521 309.87 60.0537 309.87 61.7826C309.87 63.5115 311.271 64.913 313 64.913Z" fill="white"/>
<defs>
<clipPath id="clip0_720_2122">
<rect y="0.359375" width="348" height="106" rx="32" fill="white"/>
</clipPath>
</defs>
</svg>
