<svg width="20" height="24" viewBox="0 0 20 24" fill="none" xmlns="http://www.w3.org/2000/svg">
<path d="M19.8356 2.19178C19.8357 1.90393 19.7791 1.61888 19.6689 1.35293C19.5588 1.08697 19.3974 0.845323 19.1938 0.641781C18.9903 0.43824 18.7486 0.276797 18.4827 0.166678C18.2167 0.0565589 17.9317 -7.91088e-05 17.6438 8.29301e-08H2.19178C1.90393 -7.91088e-05 1.61888 0.0565589 1.35293 0.166678C1.08697 0.276797 0.845323 0.43824 0.641781 0.641781C0.43824 0.845323 0.276798 1.08697 0.166678 1.35293C0.0565591 1.61888 -7.91088e-05 1.90393 8.29297e-08 2.19178V21.8082C-7.91088e-05 22.0961 0.0565591 22.3811 0.166678 22.6471C0.276798 22.913 0.43824 23.1547 0.641781 23.3582C0.845323 23.5618 1.08697 23.7232 1.35293 23.8333C1.61888 23.9434 1.90393 24.0001 2.19178 24H17.6438C17.9317 24.0001 18.2167 23.9434 18.4827 23.8333C18.7486 23.7232 18.9903 23.5618 19.1938 23.3582C19.3974 23.1547 19.5588 22.913 19.6689 22.6471C19.7791 22.3811 19.8357 22.0961 19.8356 21.8082V2.19178ZM18.7397 21.8082C18.7389 22.0986 18.6231 22.3769 18.4178 22.5822C18.2125 22.7875 17.9342 22.9033 17.6438 22.9041H2.19178C1.90139 22.9033 1.62315 22.7875 1.41781 22.5822C1.21248 22.3769 1.09674 22.0986 1.09589 21.8082V2.19178C1.09674 1.90139 1.21248 1.62315 1.41781 1.41781C1.62315 1.21248 1.90139 1.09674 2.19178 1.09589H17.6438C17.9342 1.09674 18.2125 1.21248 18.4178 1.41781C18.6231 1.62315 18.7389 1.90139 18.7397 2.19178V21.8082Z" fill="url(#paint0_linear_1485_2707)"/>
<path d="M7.39723 3.39731C7.39681 3.25212 7.33895 3.11299 7.23628 3.01032C7.13361 2.90765 6.99448 2.84978 6.84929 2.84937H3.56162C3.41642 2.84978 3.27729 2.90765 3.17462 3.01032C3.07196 3.11299 3.01409 3.25212 3.01367 3.39731V6.68498C3.01409 6.83018 3.07196 6.96931 3.17462 7.07197C3.27729 7.17464 3.41642 7.23251 3.56162 7.23293H6.84929C6.99448 7.23251 7.13361 7.17464 7.23628 7.07197C7.33895 6.96931 7.39681 6.83018 7.39723 6.68498V3.39731ZM4.10956 3.94526H6.30134V6.13704H4.10956V3.94526Z" fill="url(#paint1_linear_1485_2707)"/>
<path d="M8.71225 4.4936H12.9862C13.1315 4.4936 13.2709 4.43587 13.3737 4.33311C13.4764 4.23035 13.5342 4.09097 13.5342 3.94565C13.5342 3.80033 13.4764 3.66095 13.3737 3.55819C13.2709 3.45543 13.1315 3.39771 12.9862 3.39771H8.71225C8.56693 3.39771 8.42756 3.45543 8.3248 3.55819C8.22204 3.66095 8.16431 3.80033 8.16431 3.94565C8.16431 4.09097 8.22204 4.23035 8.3248 4.33311C8.42756 4.43587 8.56693 4.4936 8.71225 4.4936Z" fill="url(#paint2_linear_1485_2707)"/>
<path d="M16.2739 5.5896H8.71225C8.56693 5.5896 8.42756 5.64733 8.3248 5.75009C8.22204 5.85285 8.16431 5.99222 8.16431 6.13754C8.16431 6.28287 8.22204 6.42224 8.3248 6.525C8.42756 6.62776 8.56693 6.68549 8.71225 6.68549H16.2739C16.4192 6.68549 16.5586 6.62776 16.6614 6.525C16.7641 6.42224 16.8218 6.28287 16.8218 6.13754C16.8218 5.99222 16.7641 5.85285 16.6614 5.75009C16.5586 5.64733 16.4192 5.5896 16.2739 5.5896Z" fill="url(#paint3_linear_1485_2707)"/>
<path d="M7.39723 9.4249C7.39681 9.2797 7.33895 9.14057 7.23628 9.03791C7.13361 8.93524 6.99448 8.87737 6.84929 8.87695H3.56162C3.41642 8.87737 3.27729 8.93524 3.17462 9.03791C3.07196 9.14057 3.01409 9.2797 3.01367 9.4249V12.7126C3.01409 12.8578 3.07196 12.9969 3.17462 13.0996C3.27729 13.2022 3.41642 13.2601 3.56162 13.2605H6.84929C6.99448 13.2601 7.13361 13.2022 7.23628 13.0996C7.33895 12.9969 7.39681 12.8578 7.39723 12.7126V9.4249ZM4.10956 9.97284H6.30134V12.1646H4.10956V9.97284Z" fill="url(#paint4_linear_1485_2707)"/>
<path d="M8.71225 10.5212H12.9862C13.1315 10.5212 13.2709 10.4635 13.3737 10.3607C13.4764 10.2579 13.5342 10.1186 13.5342 9.97324C13.5342 9.82791 13.4764 9.68854 13.3737 9.58578C13.2709 9.48302 13.1315 9.42529 12.9862 9.42529H8.71225C8.56693 9.42529 8.42756 9.48302 8.3248 9.58578C8.22204 9.68854 8.16431 9.82791 8.16431 9.97324C8.16431 10.1186 8.22204 10.2579 8.3248 10.3607C8.42756 10.4635 8.56693 10.5212 8.71225 10.5212Z" fill="url(#paint5_linear_1485_2707)"/>
<path d="M16.2739 11.616H8.71225C8.56693 11.616 8.42756 11.6737 8.3248 11.7765C8.22204 11.8792 8.16431 12.0186 8.16431 12.1639C8.16431 12.3092 8.22204 12.4486 8.3248 12.5514C8.42756 12.6541 8.56693 12.7119 8.71225 12.7119H16.2739C16.4192 12.7119 16.5586 12.6541 16.6614 12.5514C16.7641 12.4486 16.8218 12.3092 16.8218 12.1639C16.8218 12.0186 16.7641 11.8792 16.6614 11.7765C16.5586 11.6737 16.4192 11.616 16.2739 11.616Z" fill="url(#paint6_linear_1485_2707)"/>
<path d="M3.233 16.5473H9.69876C9.84408 16.5473 9.98345 16.4896 10.0862 16.3868C10.189 16.2841 10.2467 16.1447 10.2467 15.9994C10.2467 15.854 10.189 15.7147 10.0862 15.6119C9.98345 15.5091 9.84408 15.4514 9.69876 15.4514H3.233C3.08768 15.4514 2.94831 15.5091 2.84555 15.6119C2.74279 15.7147 2.68506 15.854 2.68506 15.9994C2.68506 16.1447 2.74279 16.2841 2.84555 16.3868C2.94831 16.4896 3.08768 16.5473 3.233 16.5473Z" fill="url(#paint7_linear_1485_2707)"/>
<path d="M16.2741 17.6445H3.233C3.08768 17.6445 2.94831 17.7023 2.84555 17.805C2.74279 17.9078 2.68506 18.0472 2.68506 18.1925C2.68506 18.3378 2.74279 18.4772 2.84555 18.5799C2.94831 18.6827 3.08768 18.7404 3.233 18.7404H16.2741C16.4194 18.7404 16.5588 18.6827 16.6616 18.5799C16.7643 18.4772 16.822 18.3378 16.822 18.1925C16.822 18.0472 16.7643 17.9078 16.6616 17.805C16.5588 17.7023 16.4194 17.6445 16.2741 17.6445ZM16.2741 19.8363H3.233C3.08768 19.8363 2.94831 19.894 2.84555 19.9968C2.74279 20.0996 2.68506 20.2389 2.68506 20.3843C2.68506 20.5296 2.74279 20.669 2.84555 20.7717C2.94831 20.8745 3.08768 20.9322 3.233 20.9322H16.2741C16.4194 20.9322 16.5588 20.8745 16.6616 20.7717C16.7643 20.669 16.822 20.5296 16.822 20.3843C16.822 20.2389 16.7643 20.0996 16.6616 19.9968C16.5588 19.894 16.4194 19.8363 16.2741 19.8363Z" fill="url(#paint8_linear_1485_2707)"/>
<defs>
<linearGradient id="paint0_linear_1485_2707" x1="9.91781" y1="-1.36986" x2="9.91781" y2="25.6211" gradientUnits="userSpaceOnUse">
<stop stop-color="#042A4F"/>
<stop offset="1" stop-color="#3B82F6"/>
</linearGradient>
<linearGradient id="paint1_linear_1485_2707" x1="5.20545" y1="26.137" x2="5.20545" y2="25.6211" gradientUnits="userSpaceOnUse">
<stop stop-color="#042A4F"/>
<stop offset="1" stop-color="#3B82F6"/>
</linearGradient>
<linearGradient id="paint2_linear_1485_2707" x1="10.8492" y1="26.1374" x2="10.8492" y2="25.6215" gradientUnits="userSpaceOnUse">
<stop stop-color="#042A4F"/>
<stop offset="1" stop-color="#3B82F6"/>
</linearGradient>
<linearGradient id="paint3_linear_1485_2707" x1="12.4931" y1="26.1375" x2="12.4931" y2="25.6217" gradientUnits="userSpaceOnUse">
<stop stop-color="#042A4F"/>
<stop offset="1" stop-color="#3B82F6"/>
</linearGradient>
<linearGradient id="paint4_linear_1485_2707" x1="5.20545" y1="25.6213" x2="5.20545" y2="26.1372" gradientUnits="userSpaceOnUse">
<stop stop-color="#3B82F6"/>
<stop offset="0.0929999" stop-color="#044C8C"/>
</linearGradient>
<linearGradient id="paint5_linear_1485_2707" x1="10.8492" y1="26.1376" x2="10.8492" y2="25.6217" gradientUnits="userSpaceOnUse">
<stop stop-color="#042A4F"/>
<stop offset="1" stop-color="#3B82F6"/>
</linearGradient>
<linearGradient id="paint6_linear_1485_2707" x1="12.4931" y1="25.6206" x2="12.4931" y2="26.1365" gradientUnits="userSpaceOnUse">
<stop stop-color="#3B82F6"/>
<stop offset="1" stop-color="#042A4F"/>
</linearGradient>
<linearGradient id="paint7_linear_1485_2707" x1="6.46588" y1="26.1363" x2="6.46588" y2="25.6205" gradientUnits="userSpaceOnUse">
<stop stop-color="#042A4F"/>
<stop offset="1" stop-color="#3B82F6"/>
</linearGradient>
<linearGradient id="paint8_linear_1485_2707" x1="9.75355" y1="26.1377" x2="9.75355" y2="25.6218" gradientUnits="userSpaceOnUse">
<stop stop-color="#042A4F"/>
<stop offset="1" stop-color="#3B82F6"/>
</linearGradient>
</defs>
</svg>
