<svg width="20" height="15" viewBox="0 0 20 15" fill="none" xmlns="http://www.w3.org/2000/svg">
<path d="M19.436 4.31047L10.3254 0.0838613C10.0868 -0.0279538 9.82646 -0.0279538 9.60954 0.0838613L0.498915 4.31047C0.21692 4.46701 0 4.75773 0 5.11554C0 5.45099 0.21692 5.76407 0.520607 5.92061L1.30152 6.30078V9.43161C1.30152 9.74469 1.54013 9.99068 1.84382 9.99068C2.14751 9.99068 2.38612 9.74469 2.38612 9.43161V6.88222L3.68764 7.59784V11.3996C3.68764 11.5561 3.73102 11.6903 3.81779 11.8244C3.90456 11.9586 5.87853 15 9.86985 15C13.9696 15 15.8568 11.9363 15.9436 11.8244C16.0087 11.7126 16.0738 11.5561 16.0738 11.4219V7.70965L19.5228 5.89825C19.8265 5.74171 20 5.42862 20 5.09318C19.9566 4.75773 19.7397 4.46701 19.436 4.31047ZM14.5336 11.1536C14.0998 11.6903 12.6247 13.4346 9.86985 13.4346C7.18004 13.4346 5.63991 11.7126 5.20607 11.1536V8.38054L9.58785 10.6839C9.71801 10.751 9.84816 10.7734 9.97831 10.7734C10.1085 10.7734 10.2603 10.751 10.3905 10.6839L14.5336 8.51472V11.1536ZM9.97831 8.89489L2.86334 5.18263L9.97831 1.8729L17.0933 5.18263L9.97831 8.89489ZM2.38612 10.751C2.53796 10.9076 2.64642 11.1536 2.64642 11.3772C2.64642 11.6008 2.55965 11.8468 2.38612 12.0034C2.23427 12.1599 1.99566 12.2717 1.77874 12.2717C1.56182 12.2717 1.32321 12.1823 1.17137 12.0034C1.01952 11.8468 0.911063 11.6008 0.911063 11.3772C0.911063 11.1536 0.997831 10.9076 1.17137 10.751C1.32321 10.5945 1.56182 10.4827 1.77874 10.4827C1.99566 10.4827 2.21258 10.5721 2.38612 10.751Z" fill="#383838"/>
</svg>
