<svg width="10" height="10" viewBox="0 0 10 10" fill="none" xmlns="http://www.w3.org/2000/svg">
<path fill-rule="evenodd" clip-rule="evenodd" d="M6.21614 0.901879C6.35609 1.05455 6.34578 1.29176 6.19311 1.43171L1.94044 5.32999C1.16167 6.04386 1.15954 7.27093 1.93582 7.9875C2.63741 8.63512 3.72194 8.6245 4.41072 7.96328L8.40396 4.12977C8.69597 3.84943 8.71832 3.38987 8.45488 3.08253C8.16556 2.74499 7.65012 2.72519 7.33576 3.03955L4.45487 5.92044C4.30843 6.06689 4.07099 6.06689 3.92454 5.92044C3.7781 5.77399 3.7781 5.53656 3.92454 5.39011L6.80543 2.50922C7.42871 1.88594 8.45068 1.92519 9.02432 2.59444C9.54665 3.20381 9.50234 4.11498 8.92336 4.67081L4.93012 8.50432C3.95521 9.44023 2.42015 9.45525 1.42711 8.5386C0.328345 7.52436 0.331362 5.78755 1.43364 4.77712L5.68631 0.878843C5.83898 0.738896 6.0762 0.749209 6.21614 0.901879Z" fill="#7A7A7A"/>
</svg>
