<svg width="20" height="20" viewBox="0 0 20 20" fill="none" xmlns="http://www.w3.org/2000/svg">
<path d="M1.06156 14.7822L0.320793 14.8995L0.320793 14.8995L1.06156 14.7822ZM5.21783 18.9384L5.33516 18.1977L5.21783 18.9384ZM5.21783 1.06156L5.1005 0.320791L5.10051 0.320791L5.21783 1.06156ZM1.06156 5.21783L0.320794 5.1005L0.320794 5.1005L1.06156 5.21783ZM11.4504 1.39996C11.7816 1.64873 11.8484 2.11888 11.5997 2.45007C11.3509 2.78126 10.8808 2.84808 10.5496 2.59931L11.4504 1.39996ZM10.5496 17.4007C10.8808 17.1519 11.3509 17.2187 11.5997 17.5499C11.8484 17.8811 11.7816 18.3513 11.4504 18.6L10.5496 17.4007ZM5 10.75C4.58579 10.75 4.25 10.4142 4.25 10C4.25 9.58578 4.58579 9.25 5 9.25L5 10.75ZM15.466 14.5877C15.1414 14.845 14.6697 14.7905 14.4123 14.466C14.155 14.1414 14.2095 13.6697 14.534 13.4123L15.466 14.5877ZM16.763 12.6022L17.2289 13.1898L16.763 12.6022ZM16.763 7.39785L17.2289 6.81016L16.763 7.39785ZM14.534 6.58768C14.2095 6.33033 14.155 5.8586 14.4123 5.53403C14.6697 5.20946 15.1414 5.15497 15.466 5.41232L14.534 6.58768ZM18.9801 10.2507L19.7208 10.3687L19.7208 10.3687L18.9801 10.2507ZM18.9801 9.74933L19.7208 9.63132L19.7208 9.63133L18.9801 9.74933ZM8 1.75L7 1.75L7 0.249999L8 0.25L8 1.75ZM1.75 7L1.75 13L0.250002 13L0.250002 7L1.75 7ZM7 18.25L8 18.25L8 19.75L7 19.75L7 18.25ZM1.75 13C1.75 13.9577 1.75233 14.3492 1.80233 14.6648L0.320793 14.8995C0.247675 14.4378 0.250002 13.9003 0.250002 13L1.75 13ZM7 19.75C6.09966 19.75 5.56216 19.7523 5.1005 19.6792L5.33516 18.1977C5.65082 18.2477 6.04234 18.25 7 18.25L7 19.75ZM1.80233 14.6648C2.09036 16.4834 3.51661 17.9096 5.33516 18.1977L5.1005 19.6792C2.64012 19.2895 0.71048 17.3599 0.320793 14.8995L1.80233 14.6648ZM7 1.75C6.04234 1.75 5.65082 1.75233 5.33516 1.80232L5.10051 0.320791C5.56216 0.247672 6.09966 0.249999 7 0.249999L7 1.75ZM0.250002 7C0.250002 6.09965 0.247676 5.56216 0.320794 5.1005L1.80233 5.33515C1.75233 5.65082 1.75 6.04233 1.75 7L0.250002 7ZM5.33516 1.80232C3.51661 2.09035 2.09036 3.51661 1.80233 5.33515L0.320794 5.1005C0.71048 2.64012 2.64012 0.710477 5.1005 0.320791L5.33516 1.80232ZM8 0.25C9.29359 0.25 10.4894 0.678062 11.4504 1.39996L10.5496 2.59931C9.83933 2.06583 8.95763 1.75 8 1.75L8 0.25ZM8 18.25C8.95763 18.25 9.83933 17.9342 10.5496 17.4007L11.4504 18.6C10.4894 19.3219 9.29359 19.75 8 19.75L8 18.25ZM5 9.25L18 9.25L18 10.75L5 10.75L5 9.25ZM14.534 13.4123L16.297 12.0145L17.2289 13.1898L15.466 14.5877L14.534 13.4123ZM16.297 7.98553L14.534 6.58768L15.466 5.41232L17.2289 6.81016L16.297 7.98553ZM16.297 12.0145C17.0143 11.4457 17.5012 11.0582 17.8289 10.7318C18.1532 10.4087 18.2225 10.2388 18.2395 10.1327L19.7208 10.3687C19.6294 10.9418 19.2932 11.3904 18.8875 11.7945C18.4852 12.1953 17.9176 12.6438 17.2289 13.1898L16.297 12.0145ZM17.2289 6.81016C17.9175 7.35616 18.4852 7.80474 18.8875 8.20551C19.2932 8.60962 19.6294 9.05815 19.7208 9.63132L18.2395 9.86734C18.2225 9.76116 18.1532 9.59132 17.8289 9.26822C17.5012 8.94177 17.0143 8.55429 16.297 7.98553L17.2289 6.81016ZM18.2395 10.1327C18.2465 10.0883 18.25 10.0441 18.25 10L19.75 10C19.75 10.1234 19.7402 10.2466 19.7208 10.3687L18.2395 10.1327ZM18.25 10C18.25 9.95594 18.2465 9.91168 18.2395 9.86734L19.7208 9.63133C19.7402 9.75344 19.75 9.87661 19.75 10L18.25 10ZM18 9.25L19 9.25L19 10.75L18 10.75L18 9.25Z" fill="#044C8C"/>
</svg>
