<svg width="17" height="16" viewBox="0 0 17 16" fill="none" xmlns="http://www.w3.org/2000/svg">
<path d="M8.55604 6.63597C8.54297 6.64863 8.52548 6.65569 8.50729 6.65566L8.45166 1.1H8.45229C8.45237 1.02113 8.46798 0.943038 8.49824 0.870199C8.5285 0.797359 8.57282 0.731192 8.62865 0.675477C8.68448 0.619762 8.75074 0.575589 8.82364 0.545481C8.89654 0.515373 8.97466 0.499918 9.05353 0.5H12.4492C12.5682 0.5 12.6824 0.547269 12.7666 0.631417C12.8508 0.715565 12.8981 0.829706 12.8982 0.94875V5.79063C12.8981 5.90967 12.8508 6.02381 12.7666 6.10796C12.6824 6.19211 12.5682 6.23938 12.4492 6.23938H8.99197C8.97388 6.2394 8.95651 6.24646 8.94354 6.25906L8.55604 6.63597Z" fill="#FAA926"/>
<path d="M8.45157 1.1L8.5072 6.65562C8.48919 6.65565 8.4719 6.64858 8.45907 6.63594L8.07157 6.25906C8.0586 6.24646 8.04123 6.2394 8.02314 6.23938H4.52157C4.40253 6.23938 4.28835 6.19211 4.20415 6.10796C4.11994 6.02381 4.07259 5.90967 4.07251 5.79063V0.948781C4.07258 0.829731 4.11993 0.715583 4.20414 0.631428C4.28834 0.547273 4.40252 0.5 4.52157 0.5H7.85064C8.00988 0.499901 8.16265 0.563053 8.27534 0.675569C8.38803 0.788086 8.45142 0.940754 8.45157 1.1Z" fill="#FAA926"/>
<path d="M5.97406 12.1206L6.0325 12.1731C5.85174 12.4456 5.75563 12.7655 5.75625 13.0925V14.7594H1.76563V13.3003C1.76551 12.92 1.91393 12.5547 2.17924 12.2823C2.44456 12.0099 2.80579 11.8518 3.18594 11.8419C3.2994 11.9955 3.44647 12.1213 3.61592 12.2094C3.78538 12.2976 3.97274 12.3458 4.1637 12.3505C4.35466 12.3553 4.54416 12.3163 4.71776 12.2365C4.89135 12.1568 5.04443 12.0385 5.16531 11.8906C5.17744 11.8738 5.19115 11.8582 5.20625 11.8441C5.48341 11.8608 5.74992 11.9568 5.97406 12.1206ZM5.46469 9.40502V10.0638C5.46471 10.2334 5.43131 10.4013 5.36641 10.5581C5.30151 10.7148 5.20638 10.8572 5.08644 10.9771C4.96651 11.097 4.82412 11.1922 4.66741 11.2571C4.5107 11.322 4.34274 11.3554 4.17312 11.3553H4.16625C3.99663 11.3554 3.82867 11.322 3.67197 11.2571C3.51526 11.1922 3.37287 11.097 3.25293 10.9771C3.13299 10.8572 3.03786 10.7148 2.97296 10.5581C2.90806 10.4013 2.87467 10.2334 2.87469 10.0638V9.40502C2.8747 9.23543 2.90812 9.0675 2.97303 8.91082C3.03795 8.75415 3.13309 8.61179 3.25302 8.49189C3.37296 8.37198 3.51534 8.27687 3.67203 8.212C3.82872 8.14712 3.99666 8.11374 4.16625 8.11377H4.17312C4.34272 8.11374 4.51065 8.14712 4.66735 8.212C4.82404 8.27687 4.96642 8.37198 5.08635 8.49189C5.20629 8.61179 5.30143 8.75415 5.36634 8.91082C5.43126 9.0675 5.46467 9.23543 5.46469 9.40502Z" fill="#FAA926"/>
<path d="M15.2343 13.3003V14.7594H11.2493V13.0925C11.2499 12.7622 11.152 12.4393 10.968 12.165C11.2171 11.9631 11.526 11.8495 11.8465 11.8419C11.9599 11.9955 12.107 12.1213 12.2764 12.2094C12.4459 12.2976 12.6333 12.3458 12.8242 12.3505C13.0152 12.3553 13.2047 12.3163 13.3783 12.2365C13.5519 12.1568 13.7049 12.0385 13.8258 11.8906C13.838 11.8738 13.8517 11.8582 13.8668 11.8441C14.2372 11.8672 14.5849 12.0307 14.839 12.3013C15.0931 12.5719 15.2345 12.9291 15.2343 13.3003ZM14.1252 9.40502V10.0638C14.1252 10.2334 14.0918 10.4013 14.0269 10.5581C13.962 10.7148 13.8669 10.8572 13.747 10.9771C13.627 11.097 13.4846 11.1922 13.3279 11.2571C13.1712 11.322 13.0033 11.3554 12.8336 11.3553H12.8268C12.6572 11.3554 12.4892 11.322 12.3325 11.2571C12.1758 11.1922 12.0334 11.097 11.9134 10.9771C11.7935 10.8572 11.6984 10.7148 11.6335 10.5581C11.5686 10.4013 11.5352 10.2334 11.5352 10.0638V9.40502C11.5352 9.23543 11.5686 9.0675 11.6336 8.91082C11.6985 8.75415 11.7936 8.61179 11.9135 8.49189C12.0335 8.37198 12.1759 8.27687 12.3325 8.212C12.4892 8.14712 12.6572 8.11374 12.8268 8.11377H12.8336C13.0032 8.11374 13.1712 8.14712 13.3279 8.212C13.4846 8.27687 13.6269 8.37198 13.7469 8.49189C13.8668 8.61179 13.9619 8.75415 14.0269 8.91082C14.0918 9.0675 14.1252 9.23543 14.1252 9.40502Z" fill="#FAA926"/>
<path d="M8.50688 7.16699H8.49906C7.6841 7.16699 7.02344 7.82765 7.02344 8.64262V9.3948C7.02344 10.2098 7.6841 10.8704 8.49906 10.8704H8.50688C9.32184 10.8704 9.9825 10.2098 9.9825 9.3948V8.64262C9.9825 7.82765 9.32184 7.16699 8.50688 7.16699Z" fill="#FAA926"/>
<path d="M10.9682 12.1651C11.1522 12.4393 11.2502 12.7623 11.2495 13.0926V15.5H5.75635V13.0925C5.75622 12.658 5.9258 12.2407 6.22894 11.9294C6.53209 11.6182 6.94482 11.4376 7.37916 11.4263C7.50877 11.6018 7.67679 11.7455 7.87038 11.8462C8.06397 11.9469 8.27802 12.002 8.49617 12.0074C8.71433 12.0128 8.93083 11.9682 9.12914 11.8771C9.32745 11.7861 9.50232 11.6509 9.64041 11.4819C9.65444 11.4628 9.67013 11.4451 9.68729 11.4288C9.94307 11.4446 10.1917 11.5193 10.4139 11.647C10.6361 11.7747 10.8258 11.952 10.9682 12.1651Z" fill="#FAA926"/>
<path d="M8.02319 6.23926C8.04129 6.23928 8.05867 6.24635 8.07163 6.25898L8.45913 6.63582C8.47194 6.64848 8.48924 6.65557 8.50726 6.65554L8.50319 6.23926H8.02319Z" fill="#D5D5D5" fill-opacity="0.25"/>
<path d="M5.01001 5.79063V0.948781C5.01008 0.829729 5.05742 0.715575 5.14163 0.631419C5.22584 0.547262 5.34002 0.499992 5.45907 0.5H4.52157C4.40253 0.499992 4.28835 0.547258 4.20414 0.631408C4.11993 0.715558 4.07258 0.829703 4.07251 0.94875V5.79063C4.07258 5.90967 4.11993 6.02382 4.20414 6.10797C4.28835 6.19212 4.40253 6.23938 4.52157 6.23938H5.45907C5.34003 6.23938 5.22585 6.19212 5.14164 6.10797C5.05743 6.02382 5.01008 5.90967 5.01001 5.79063Z" fill="#D5D5D5" fill-opacity="0.25"/>
<path d="M7.96104 9.39496V8.64246C7.96109 8.33243 8.05878 8.03028 8.24024 7.7789C8.4217 7.52751 8.67772 7.33966 8.97197 7.24199C8.82205 7.19224 8.6651 7.16691 8.50713 7.16699H8.49932C8.30554 7.16698 8.11365 7.20515 7.93462 7.2793C7.75558 7.35345 7.59291 7.46214 7.45589 7.59916C7.31886 7.73619 7.21017 7.89886 7.13601 8.07789C7.06185 8.25692 7.02369 8.4488 7.02369 8.64259V9.39509C7.02369 9.58885 7.06186 9.78072 7.13602 9.95974C7.21018 10.1388 7.31888 10.3014 7.45591 10.4384C7.59294 10.5754 7.75561 10.6841 7.93464 10.7582C8.11367 10.8323 8.30555 10.8704 8.49932 10.8704H8.50713C8.66509 10.8705 8.82204 10.8451 8.97197 10.7954C8.6777 10.6978 8.42164 10.51 8.24017 10.2586C8.0587 10.0072 7.96103 9.70501 7.96104 9.39496ZM7.37916 11.4262C6.94482 11.4376 6.53209 11.6181 6.22895 11.9294C5.92581 12.2406 5.75622 12.658 5.75635 13.0925V15.5H6.69385V13.0925C6.69322 12.7655 6.78934 12.4456 6.9701 12.1731C7.1202 11.9467 7.3231 11.7603 7.56132 11.6298C7.49431 11.5678 7.43332 11.4997 7.37916 11.4262Z" fill="#FAA926"/>
<path d="M4.52154 6.42691H7.97517L8.32801 6.77037C8.37584 6.81742 8.44024 6.84378 8.50732 6.84378C8.57441 6.84378 8.63881 6.81742 8.68664 6.77037L9.03976 6.42684H12.4491C12.6178 6.42662 12.7795 6.35952 12.8988 6.24026C13.0181 6.121 13.0852 5.9593 13.0854 5.79062V0.948812C13.0852 0.78008 13.0181 0.618323 12.8988 0.499032C12.7794 0.379741 12.6176 0.312657 12.4489 0.3125H9.0532C8.93873 0.312454 8.82564 0.337361 8.72178 0.385486C8.61793 0.433611 8.52581 0.503797 8.45185 0.591156C8.37789 0.503797 8.28578 0.433611 8.18192 0.385486C8.07807 0.337361 7.96497 0.312454 7.85051 0.3125H4.52154C4.35281 0.312665 4.19104 0.379751 4.07171 0.499041C3.95237 0.618331 3.88523 0.780083 3.88501 0.948812V5.79062C3.88524 5.95935 3.95239 6.12109 4.07172 6.24038C4.19105 6.35966 4.35282 6.42674 4.52154 6.42691ZM8.6397 1.1C8.63995 0.990504 8.68363 0.88558 8.76115 0.808248C8.83867 0.730917 8.9437 0.687491 9.0532 0.6875H12.4489C12.5182 0.68755 12.5847 0.71509 12.6337 0.764078C12.6827 0.813067 12.7103 0.879503 12.7104 0.948812V5.79062C12.7103 5.85993 12.6827 5.92637 12.6337 5.97536C12.5847 6.02435 12.5182 6.05189 12.4489 6.05194H8.99176C8.92478 6.05178 8.86041 6.07793 8.81251 6.12475L8.69063 6.2435L8.63901 1.1H8.6397ZM4.26001 0.948812C4.26012 0.879503 4.28771 0.813067 4.33674 0.764078C4.38577 0.71509 4.45223 0.68755 4.52154 0.6875H7.85051C7.90487 0.687549 7.95869 0.698307 8.00889 0.71916C8.0591 0.740012 8.1047 0.770551 8.1431 0.809031C8.1815 0.84751 8.21194 0.893178 8.23269 0.943425C8.25343 0.993672 8.26408 1.04751 8.26401 1.10187L8.31551 6.23475L8.20248 6.12478C8.15457 6.07792 8.09018 6.05175 8.02317 6.05191H4.52154C4.45223 6.05186 4.38577 6.02432 4.33674 5.97533C4.28771 5.92634 4.26012 5.8599 4.26001 5.79059V0.948812Z" fill="#7A7A7A"/>
<path d="M6.1205 1.6665H7.52231C7.57204 1.6665 7.61973 1.64675 7.65489 1.61159C7.69006 1.57642 7.70981 1.52873 7.70981 1.479C7.70981 1.42928 7.69006 1.38158 7.65489 1.34642C7.61973 1.31126 7.57204 1.2915 7.52231 1.2915H6.1205C6.07077 1.2915 6.02308 1.31126 5.98792 1.34642C5.95275 1.38158 5.933 1.42928 5.933 1.479C5.933 1.52873 5.95275 1.57642 5.98792 1.61159C6.02308 1.64675 6.07077 1.6665 6.1205 1.6665ZM4.90631 1.6665H5.44753C5.49726 1.6665 5.54495 1.64675 5.58011 1.61159C5.61528 1.57642 5.63503 1.52873 5.63503 1.479C5.63503 1.42928 5.61528 1.38158 5.58011 1.34642C5.54495 1.31126 5.49726 1.2915 5.44753 1.2915H4.90631C4.85658 1.2915 4.80889 1.31126 4.77373 1.34642C4.73857 1.38158 4.71881 1.42928 4.71881 1.479C4.71881 1.52873 4.73857 1.57642 4.77373 1.61159C4.80889 1.64675 4.85658 1.6665 4.90631 1.6665ZM7.52231 2.51075H7.19869C7.14896 2.51075 7.10127 2.53051 7.0661 2.56567C7.03094 2.60083 7.01119 2.64853 7.01119 2.69825C7.01119 2.74798 7.03094 2.79567 7.0661 2.83084C7.10127 2.866 7.14896 2.88575 7.19869 2.88575H7.52231C7.57204 2.88575 7.61973 2.866 7.65489 2.83084C7.69006 2.79567 7.70981 2.74798 7.70981 2.69825C7.70981 2.64853 7.69006 2.60083 7.65489 2.56567C7.61973 2.53051 7.57204 2.51075 7.52231 2.51075ZM4.90631 2.88575H6.52688C6.5766 2.88575 6.62429 2.866 6.65946 2.83084C6.69462 2.79567 6.71438 2.74798 6.71438 2.69825C6.71438 2.64853 6.69462 2.60083 6.65946 2.56567C6.62429 2.53051 6.5766 2.51075 6.52688 2.51075H4.90631C4.85658 2.51075 4.80889 2.53051 4.77373 2.56567C4.73857 2.60083 4.71881 2.64853 4.71881 2.69825C4.71881 2.74798 4.73857 2.79567 4.77373 2.83084C4.80889 2.866 4.85658 2.88575 4.90631 2.88575ZM7.52231 3.73004H5.58056C5.53083 3.73004 5.48314 3.74979 5.44798 3.78495C5.41282 3.82012 5.39306 3.86781 5.39306 3.91754C5.39306 3.96726 5.41282 4.01495 5.44798 4.05012C5.48314 4.08528 5.53083 4.10503 5.58056 4.10503H7.52231C7.57204 4.10503 7.61973 4.08528 7.65489 4.05012C7.69006 4.01495 7.70981 3.96726 7.70981 3.91754C7.70981 3.86781 7.69006 3.82012 7.65489 3.78495C7.61973 3.74979 7.57204 3.73004 7.52231 3.73004ZM4.90222 4.10503H4.90631C4.95604 4.10503 5.00373 4.08528 5.0389 4.05012C5.07406 4.01495 5.09381 3.96726 5.09381 3.91754C5.09381 3.86781 5.07406 3.82012 5.0389 3.78495C5.00373 3.74979 4.95604 3.73004 4.90631 3.73004H4.90234C4.85262 3.73004 4.80492 3.74979 4.76976 3.78495C4.7346 3.82012 4.71484 3.86781 4.71484 3.91754C4.71484 3.96726 4.7346 4.01495 4.76976 4.05012C4.80492 4.08528 4.85262 4.10503 4.90234 4.10503H4.90222ZM7.52231 4.94932H7.33703C7.2873 4.94932 7.23961 4.96907 7.20445 5.00423C7.16929 5.0394 7.14953 5.08709 7.14953 5.13682C7.14953 5.18654 7.16929 5.23424 7.20445 5.2694C7.23961 5.30456 7.2873 5.32432 7.33703 5.32432H7.52231C7.57204 5.32432 7.61973 5.30456 7.65489 5.2694C7.69006 5.23424 7.70981 5.18654 7.70981 5.13682C7.70981 5.08709 7.69006 5.0394 7.65489 5.00423C7.61973 4.96907 7.57204 4.94932 7.52231 4.94932ZM6.65538 4.94932H4.90631C4.85658 4.94932 4.80889 4.96907 4.77373 5.00423C4.73857 5.0394 4.71881 5.08709 4.71881 5.13682C4.71881 5.18654 4.73857 5.23424 4.77373 5.2694C4.80889 5.30456 4.85658 5.32432 4.90631 5.32432H6.65538C6.7051 5.32432 6.75279 5.30456 6.78796 5.2694C6.82312 5.23424 6.84288 5.18654 6.84288 5.13682C6.84288 5.08709 6.82312 5.0394 6.78796 5.00423C6.75279 4.96907 6.7051 4.94932 6.65538 4.94932ZM11.7253 1.6665H12.0128C12.0625 1.6665 12.1102 1.64675 12.1454 1.61159C12.1806 1.57642 12.2003 1.52873 12.2003 1.479C12.2003 1.42928 12.1806 1.38158 12.1454 1.34642C12.1102 1.31126 12.0625 1.2915 12.0128 1.2915H11.7253C11.6756 1.2915 11.6279 1.31126 11.5927 1.34642C11.5576 1.38158 11.5378 1.42928 11.5378 1.479C11.5378 1.52873 11.5576 1.57642 11.5927 1.61159C11.6279 1.64675 11.6756 1.6665 11.7253 1.6665ZM9.39663 1.6665H11.0313C11.081 1.6665 11.1287 1.64675 11.1639 1.61159C11.1991 1.57642 11.2188 1.52873 11.2188 1.479C11.2188 1.42928 11.1991 1.38158 11.1639 1.34642C11.1287 1.31126 11.081 1.2915 11.0313 1.2915H9.39663C9.3469 1.2915 9.29921 1.31126 9.26404 1.34642C9.22888 1.38158 9.20913 1.42928 9.20913 1.479C9.20913 1.52873 9.22888 1.57642 9.26404 1.61159C9.29921 1.64675 9.3469 1.6665 9.39663 1.6665ZM12.0128 2.51075H10.4815C10.4318 2.51075 10.3841 2.53051 10.3489 2.56567C10.3138 2.60083 10.294 2.64853 10.294 2.69825C10.294 2.74798 10.3138 2.79567 10.3489 2.83084C10.3841 2.866 10.4318 2.88575 10.4815 2.88575H12.0128C12.0625 2.88575 12.1102 2.866 12.1454 2.83084C12.1805 2.79567 12.2003 2.74798 12.2003 2.69825C12.2003 2.64853 12.1805 2.60083 12.1454 2.56567C12.1102 2.53051 12.0625 2.51075 12.0128 2.51075ZM9.39663 2.88575H9.79881C9.84854 2.88575 9.89623 2.866 9.9314 2.83084C9.96656 2.79567 9.98631 2.74798 9.98631 2.69825C9.98631 2.64853 9.96656 2.60083 9.9314 2.56567C9.89623 2.53051 9.84854 2.51075 9.79881 2.51075H9.39663C9.3469 2.51075 9.29921 2.53051 9.26404 2.56567C9.22888 2.60083 9.20913 2.64853 9.20913 2.69825C9.20913 2.74798 9.22888 2.79567 9.26404 2.83084C9.29921 2.866 9.3469 2.88575 9.39663 2.88575ZM12.0128 3.73004H11.5113C11.4616 3.73004 11.4139 3.74979 11.3787 3.78495C11.3436 3.82012 11.3238 3.86781 11.3238 3.91754C11.3238 3.96726 11.3436 4.01495 11.3787 4.05012C11.4139 4.08528 11.4616 4.10503 11.5113 4.10503H12.0128C12.0625 4.10503 12.1102 4.08528 12.1454 4.05012C12.1805 4.01495 12.2003 3.96726 12.2003 3.91754C12.2003 3.86781 12.1805 3.82012 12.1454 3.78495C12.1102 3.74979 12.0625 3.73004 12.0128 3.73004ZM9.39663 4.10503H10.8398C10.8896 4.10503 10.9373 4.08528 10.9724 4.05012C11.0076 4.01495 11.0273 3.96726 11.0273 3.91754C11.0273 3.86781 11.0076 3.82012 10.9724 3.78495C10.9373 3.74979 10.8896 3.73004 10.8398 3.73004H9.39663C9.3469 3.73004 9.29921 3.74979 9.26404 3.78495C9.22888 3.82012 9.20913 3.86781 9.20913 3.91754C9.20913 3.96726 9.22888 4.01495 9.26404 4.05012C9.29921 4.08528 9.3469 4.10503 9.39663 4.10503ZM12.0128 4.94932H10.3397C10.2899 4.94932 10.2422 4.96907 10.2071 5.00423C10.1719 5.0394 10.1522 5.08709 10.1522 5.13682C10.1522 5.18654 10.1719 5.23424 10.2071 5.2694C10.2422 5.30456 10.2899 5.32432 10.3397 5.32432H12.0128C12.0625 5.32432 12.1102 5.30456 12.1454 5.2694C12.1805 5.23424 12.2003 5.18654 12.2003 5.13682C12.2003 5.08709 12.1805 5.0394 12.1454 5.00423C12.1102 4.96907 12.0625 4.94932 12.0128 4.94932ZM9.39663 5.32432H9.66997C9.7197 5.32432 9.76739 5.30456 9.80255 5.2694C9.83771 5.23424 9.85747 5.18654 9.85747 5.13682C9.85747 5.08709 9.83771 5.0394 9.80255 5.00423C9.76739 4.96907 9.7197 4.94932 9.66997 4.94932H9.39663C9.3469 4.94932 9.29921 4.96907 9.26404 5.00423C9.22888 5.0394 9.20913 5.08709 9.20913 5.13682C9.20913 5.18654 9.22888 5.23424 9.26404 5.2694C9.29921 5.30456 9.3469 5.32432 9.39663 5.32432ZM8.499 6.97947C8.05812 6.97997 7.63544 7.15533 7.32368 7.46707C7.01193 7.77882 6.83657 8.2015 6.83606 8.64238V9.39503C6.83657 9.83592 7.01193 10.2586 7.32368 10.5704C7.63543 10.8821 8.05812 11.0575 8.499 11.058H8.50703C8.94791 11.0575 9.3706 10.8821 9.68235 10.5704C9.9941 10.2586 10.1695 9.83592 10.17 9.39503V8.64238C10.1695 8.2015 9.99409 7.77883 9.68234 7.46708C9.37059 7.15534 8.94791 6.97998 8.50703 6.97947H8.499ZM9.79497 8.64238V9.39503C9.79458 9.7365 9.65876 10.0639 9.41731 10.3053C9.17586 10.5468 8.84849 10.6826 8.50703 10.683H8.499C8.15754 10.6826 7.83017 10.5468 7.58872 10.3053C7.34727 10.0639 7.21145 9.7365 7.21106 9.39503V8.64238C7.21145 8.30092 7.34727 7.97356 7.58872 7.73211C7.83017 7.49066 8.15754 7.35485 8.499 7.35447H8.50703C8.84849 7.35485 9.17586 7.49066 9.41731 7.73211C9.65876 7.97356 9.79458 8.30092 9.79497 8.64238ZM12.8268 7.92613C12.4347 7.92658 12.0588 8.08254 11.7816 8.3598C11.5043 8.63707 11.3483 9.01299 11.3479 9.4051V10.0639C11.3484 10.456 11.5043 10.8319 11.7816 11.1092C12.0588 11.3864 12.4347 11.5424 12.8268 11.5428H12.8339C13.226 11.5424 13.6019 11.3864 13.8791 11.1092C14.1564 10.8319 14.3124 10.456 14.3128 10.0639V9.4051C14.3124 9.01299 14.1564 8.63708 13.8792 8.35981C13.6019 8.08255 13.226 7.92658 12.8339 7.92613H12.8268ZM13.9378 9.4051V10.0639C13.9375 10.3566 13.8211 10.6372 13.6141 10.8441C13.4072 11.0511 13.1266 11.1675 12.8339 11.1678H12.8268C12.5342 11.1675 12.2536 11.0511 12.0466 10.8441C11.8397 10.6372 11.7232 10.3566 11.7229 10.0639V9.4051C11.7232 9.11241 11.8396 8.83181 12.0466 8.62485C12.2536 8.41789 12.5342 8.30147 12.8268 8.30113H12.8339C13.1266 8.30147 13.4072 8.41789 13.6141 8.62485C13.8211 8.83181 13.9375 9.11241 13.9378 9.4051Z" fill="#7A7A7A"/>
<path d="M13.878 11.6568C13.7798 11.6508 13.7293 11.7122 13.6806 11.7716C13.5778 11.8974 13.4477 11.9981 13.3 12.066C13.1524 12.1338 12.9912 12.167 12.8288 12.163C12.6664 12.159 12.507 12.118 12.3629 12.043C12.2187 11.968 12.0936 11.8611 11.9972 11.7303C11.9793 11.706 11.9558 11.6864 11.9287 11.6732C11.9016 11.6599 11.8717 11.6534 11.8416 11.6542C11.5457 11.6608 11.2572 11.748 11.0072 11.9066C10.8462 11.7121 10.6469 11.5527 10.4218 11.4383C10.1968 11.3239 9.95058 11.2569 9.69856 11.2415C9.59972 11.2354 9.55119 11.2945 9.49512 11.3629C9.37515 11.5098 9.22317 11.6274 9.05081 11.7066C8.87844 11.7858 8.69025 11.8246 8.50062 11.8199C8.31098 11.8153 8.12492 11.7673 7.95664 11.6798C7.78836 11.5922 7.64233 11.4674 7.52969 11.3147C7.51189 11.2904 7.48842 11.2707 7.46132 11.2574C7.43422 11.2442 7.40429 11.2377 7.37413 11.2386C6.89136 11.2499 6.43234 11.4504 6.096 11.7969C6.06112 11.8328 6.0277 11.8702 5.99581 11.9088C5.76197 11.7603 5.49422 11.6735 5.21769 11.6568C5.11916 11.6508 5.06891 11.7122 5.02028 11.7716C4.91751 11.8974 4.78734 11.9981 4.6397 12.066C4.49207 12.1338 4.33088 12.167 4.16845 12.163C4.00602 12.159 3.84665 12.118 3.70252 12.043C3.55838 11.968 3.43329 11.8611 3.33681 11.7303C3.31896 11.706 3.29548 11.6864 3.26839 11.6731C3.2413 11.6599 3.2114 11.6534 3.18125 11.6542C2.75217 11.6654 2.34442 11.8437 2.04494 12.1512C1.74547 12.4587 1.57796 12.871 1.57813 13.3002V14.7593C1.57813 14.809 1.59788 14.8567 1.63304 14.8918C1.66821 14.927 1.7159 14.9468 1.76563 14.9468H5.56881V15.4999C5.56881 15.5496 5.58857 15.5973 5.62373 15.6325C5.65889 15.6676 5.70658 15.6874 5.75631 15.6874H11.2494C11.2991 15.6874 11.3468 15.6676 11.382 15.6325C11.4171 15.5973 11.4369 15.5496 11.4369 15.4999V14.9468H15.2343C15.284 14.9468 15.3317 14.927 15.3669 14.8918C15.402 14.8567 15.4218 14.809 15.4218 14.7593V13.3002C15.4216 12.8814 15.2619 12.4783 14.9751 12.173C14.6883 11.8677 14.2961 11.6831 13.878 11.6568ZM1.95303 14.5718V13.3002C1.95478 12.9851 2.07276 12.6817 2.28435 12.4481C2.49595 12.2146 2.78628 12.0673 3.09972 12.0346C3.23464 12.1922 3.40198 12.3187 3.59031 12.4056C3.77864 12.4926 3.98351 12.5378 4.19093 12.5383C4.39835 12.5388 4.60344 12.4945 4.79216 12.4084C4.98089 12.3224 5.14882 12.1966 5.28447 12.0397C5.46263 12.0634 5.63366 12.1249 5.78609 12.2201C5.64296 12.4885 5.56833 12.7882 5.56881 13.0924V14.5718H1.95303ZM11.0619 15.3124H5.94381V13.0924C5.94366 12.7227 6.08197 12.3664 6.33149 12.0936C6.58102 11.8208 6.92366 11.6514 7.29191 11.6186C7.44355 11.7988 7.63267 11.9438 7.84607 12.0434C8.05947 12.143 8.29203 12.1948 8.52753 12.1953C8.76303 12.1958 8.99581 12.145 9.20964 12.0463C9.42348 11.9477 9.61322 11.8036 9.76566 11.624C10.1235 11.6689 10.4526 11.8429 10.6913 12.1133C10.93 12.3836 11.0617 12.7318 11.0619 13.0925V15.3124ZM15.0468 14.5718H11.4369V13.0924C11.437 12.7873 11.3616 12.487 11.2173 12.2182C11.3816 12.1157 11.5675 12.0529 11.7602 12.0345C11.8951 12.1921 12.0625 12.3187 12.2508 12.4056C12.4391 12.4926 12.644 12.5379 12.8515 12.5384C13.0589 12.5389 13.264 12.4946 13.4527 12.4085C13.6415 12.3224 13.8094 12.1967 13.9451 12.0397C14.2501 12.081 14.5298 12.2315 14.7324 12.4633C14.935 12.6951 15.0467 12.9924 15.0468 13.3002V14.5718Z" fill="#7A7A7A"/>
<path d="M4.16619 11.5427H4.17322C4.56533 11.5423 4.94124 11.3863 5.2185 11.1091C5.49576 10.8318 5.65172 10.4559 5.65216 10.0638V9.40499C5.65172 9.01289 5.49577 8.63697 5.21851 8.3597C4.94125 8.08244 4.56533 7.92647 4.17322 7.92603H4.16619C3.77409 7.92648 3.39818 8.08245 3.12092 8.35971C2.84366 8.63697 2.6877 9.01289 2.68726 9.40499V10.0638C2.6877 10.4559 2.84366 10.8318 3.12092 11.1091C3.39818 11.3863 3.77409 11.5423 4.16619 11.5427ZM3.06226 9.40499C3.06259 9.11231 3.179 8.83171 3.38596 8.62475C3.59291 8.41779 3.87351 8.30136 4.16619 8.30102H4.17322C4.46591 8.30136 4.74651 8.41779 4.95346 8.62475C5.16042 8.83171 5.27683 9.11231 5.27716 9.40499V10.0638C5.27683 10.3565 5.16042 10.6371 4.95346 10.844C4.7465 11.051 4.46591 11.1674 4.17322 11.1677H4.16619C3.87351 11.1674 3.59291 11.051 3.38596 10.844C3.179 10.6371 3.06259 10.3565 3.06226 10.0638V9.40499Z" fill="#7A7A7A"/>
</svg>
