<svg width="19" height="19" viewBox="0 0 19 19" fill="none" xmlns="http://www.w3.org/2000/svg">
<g clip-path="url(#clip0_736_1601)">
<path d="M7.91669 0.953857C6.18809 1.27404 4.59723 2.11092 3.35413 3.35401C2.11104 4.59711 1.27416 6.18797 0.953979 7.91657H7.91669V0.953857Z" fill="#FAA926"/>
<path d="M9.49996 0.791748V9.50008H0.791626C0.791626 14.3087 4.69138 18.2084 9.49996 18.2084C13.767 18.2084 17.3121 15.1352 18.0579 11.0834V11.0826C18.1552 10.5607 18.2055 10.031 18.2083 9.50008C18.2083 4.6915 14.3085 0.791748 9.49996 0.791748ZM9.32263 16.6251C5.93825 16.6251 3.09696 14.2525 2.37496 11.0834H16.625C15.903 14.2525 12.707 16.6251 9.32263 16.6251ZM11.0833 9.50008V2.55241C14.2523 3.27441 16.625 6.11571 16.625 9.50008H11.0833Z" fill="#FAA926"/>
</g>
<defs>
<clipPath id="clip0_736_1601">
<rect width="19" height="19" fill="white"/>
</clipPath>
</defs>
</svg>
