<svg width="19" height="19" viewBox="0 0 19 19" fill="none" xmlns="http://www.w3.org/2000/svg">
<g clip-path="url(#clip0_1048_3045)">
<path d="M7.91681 0.953979C6.18821 1.27416 4.59735 2.11104 3.35426 3.35413C2.11116 4.59723 1.27428 6.18809 0.954102 7.91669H7.91681V0.953979Z" fill="#383838"/>
<path d="M9.49984 0.791626V9.49996H0.791504C0.791504 14.3085 4.69125 18.2083 9.49984 18.2083C13.7669 18.2083 17.312 15.135 18.0578 11.0833V11.0825C18.1551 10.5605 18.2054 10.0309 18.2082 9.49996C18.2082 4.69138 14.3084 0.791626 9.49984 0.791626ZM9.3225 16.625C5.93813 16.625 3.09684 14.2523 2.37484 11.0833H16.6248C15.9028 14.2523 12.7069 16.625 9.3225 16.625ZM11.0832 9.49996V2.55229C14.2522 3.27429 16.6248 6.11558 16.6248 9.49996H11.0832Z" fill="#383838"/>
</g>
<defs>
<clipPath id="clip0_1048_3045">
<rect width="19" height="19" fill="white"/>
</clipPath>
</defs>
</svg>
