<svg width="42" height="42" viewBox="0 0 42 42" fill="none" xmlns="http://www.w3.org/2000/svg">
<path d="M32.1563 11.8123C31.166 11.8123 30.1821 11.9718 29.2425 12.2848C28.6909 9.93636 27.3709 7.83938 25.4919 6.32654C23.6129 4.81369 21.2825 3.97163 18.8705 3.93394C16.4584 3.89625 14.1029 4.6651 12.1775 6.1185C10.2521 7.5719 8.86724 9.62662 8.24254 11.9567C5.98468 12.3617 3.96001 13.5967 2.56659 15.4189C1.17317 17.2411 0.511793 19.5186 0.7125 21.8037C0.913207 24.0888 1.96147 26.2161 3.65121 27.7675C5.34094 29.3189 7.5499 30.1821 9.84379 30.1873H15.75C16.0981 30.1873 16.432 30.049 16.6781 29.8029C16.9243 29.5567 17.0625 29.2229 17.0625 28.8748C17.0625 28.5267 16.9243 28.1929 16.6781 27.9467C16.432 27.7006 16.0981 27.5623 15.75 27.5623H9.84379C8.98199 27.5907 8.12303 27.4491 7.31594 27.1456C6.50886 26.8421 5.76947 26.3826 5.13997 25.7933C3.86865 24.6032 3.12216 22.9568 3.06473 21.2164C3.00729 19.4759 3.64361 17.7839 4.83371 16.5125C6.0238 15.2412 7.67018 14.4947 9.41066 14.4373C9.70509 14.4179 9.98438 14.2998 10.2035 14.1022C10.4226 13.9045 10.5686 13.6388 10.6182 13.3479C10.9457 11.3494 12.0009 9.5426 13.5807 8.27546C15.1606 7.00831 17.1533 6.37036 19.1753 6.48442C21.1973 6.59847 23.1056 7.45646 24.5329 8.89323C25.9602 10.33 26.8056 12.244 26.9063 14.2667C26.9197 14.4902 26.9901 14.7066 27.1108 14.8952C27.2315 15.0839 27.3985 15.2385 27.5958 15.3444C27.7931 15.4503 28.0142 15.504 28.2382 15.5003C28.4621 15.4965 28.6813 15.4356 28.875 15.3232C29.7467 14.8176 30.723 14.5195 31.7284 14.452C32.7338 14.3846 33.7413 14.5495 34.6726 14.9341C35.604 15.3187 36.4343 15.9126 37.0992 16.6698C37.7641 17.427 38.2456 18.3271 38.5066 19.3004C38.7675 20.2737 38.8008 21.294 38.6039 22.2823C38.4069 23.2705 37.9851 24.2001 37.371 24.999C36.7569 25.798 35.9671 26.4448 35.0628 26.8893C34.1585 27.3338 33.164 27.5641 32.1563 27.5623H26.25C25.9019 27.5623 25.5681 27.7006 25.322 27.9467C25.0758 28.1929 24.9375 28.5267 24.9375 28.8748C24.9375 29.2229 25.0758 29.5567 25.322 29.8029C25.5681 30.049 25.9019 30.1873 26.25 30.1873H32.1563C34.593 30.1873 36.9298 29.2193 38.6528 27.4963C40.3758 25.7733 41.3438 23.4365 41.3438 20.9998C41.3438 18.5631 40.3758 16.2262 38.6528 14.5032C36.9298 12.7803 34.593 11.8123 32.1563 11.8123Z" fill="#FAA926"/>
<path d="M24.0974 32.4581L22.3124 33.9478V24.2813C22.3124 23.9332 22.1741 23.5993 21.928 23.3532C21.6819 23.107 21.348 22.9688 20.9999 22.9688C20.6518 22.9688 20.318 23.107 20.0718 23.3532C19.8257 23.5993 19.6874 23.9332 19.6874 24.2813V33.9478L17.9024 32.4581C17.6337 32.2502 17.2948 32.1547 16.957 32.1915C16.6193 32.2284 16.3089 32.3948 16.0913 32.6557C15.8738 32.9167 15.7658 33.2518 15.7903 33.5907C15.8147 33.9296 15.9696 34.2458 16.2224 34.4728L20.1599 37.7541L20.219 37.7934L20.3043 37.8525L20.429 37.9181L20.5209 37.9575L20.6652 38.0034H20.7505C20.9129 38.0367 21.0803 38.0367 21.2427 38.0034H21.328L21.4724 37.9575L21.5643 37.9181L21.689 37.8525L21.7743 37.7934L21.8334 37.7541L25.7709 34.4728C25.9166 34.3675 26.0391 34.2334 26.1309 34.0787C26.2227 33.9241 26.2817 33.7523 26.3042 33.5739C26.3268 33.3955 26.3125 33.2144 26.2622 33.0417C26.2119 32.8691 26.1267 32.7087 26.0118 32.5704C25.8969 32.432 25.7548 32.3188 25.5943 32.2377C25.4339 32.1565 25.2585 32.1093 25.079 32.0987C24.8995 32.0882 24.7197 32.1147 24.5509 32.1765C24.382 32.2383 24.2277 32.3342 24.0974 32.4581Z" fill="#FAA926"/>
</svg>
