<svg width="16" height="16" viewBox="0 0 16 16" fill="none" xmlns="http://www.w3.org/2000/svg">
<path d="M14.0801 5.92796H13.4049C12.9855 4.83466 12.2444 3.89425 11.2794 3.23089C10.3145 2.56753 9.17105 2.2124 8.00007 2.2124C6.8291 2.2124 5.68565 2.56753 4.7207 3.23089C3.75574 3.89425 3.01466 4.83466 2.59527 5.92796H1.92007C1.55892 5.93007 1.21326 6.07491 0.958483 6.33089C0.703706 6.58686 0.56049 6.9332 0.560074 7.29436V8.70556C0.558371 9.0681 0.700651 9.41649 0.955656 9.6742C1.21066 9.9319 1.55753 10.0778 1.92007 10.08H2.58887C3.00826 11.1733 3.74934 12.1137 4.7143 12.777C5.67925 13.4404 6.8227 13.7955 7.99367 13.7955C9.16465 13.7955 10.3081 13.4404 11.2731 12.777C12.238 12.1137 12.9791 11.1733 13.3985 10.08H14.0801C14.4423 10.0795 14.7896 9.93544 15.0458 9.67928C15.302 9.42312 15.4461 9.07582 15.4465 8.71356V7.29436C15.4461 6.9321 15.302 6.58479 15.0458 6.32863C14.7896 6.07248 14.4423 5.92838 14.0801 5.92796ZM14.9601 8.70556C14.9618 8.9408 14.8701 9.1671 14.7051 9.33479C14.5401 9.50248 14.3153 9.59785 14.0801 9.59996H1.92007C1.68484 9.59785 1.46005 9.50248 1.29506 9.33479C1.13008 9.1671 1.03837 8.9408 1.04007 8.70556V7.29436C1.04049 7.0605 1.13313 6.83625 1.29789 6.67029C1.46265 6.50433 1.68623 6.41006 1.92007 6.40796H14.0801C14.315 6.40838 14.5402 6.50191 14.7064 6.66805C14.8725 6.83419 14.9661 7.0594 14.9665 7.29436L14.9601 8.70556ZM9.84007 11.2656H8.24007V10.08H10.1601C10.0824 10.4802 9.97601 10.8743 9.84167 11.2592L9.84007 11.2656ZM5.84007 10.08H7.76007V11.2672H6.16007C6.02482 10.8797 5.91787 10.4829 5.84007 10.08ZM7.76007 11.7472V13.28C7.21607 13.1488 6.72167 12.5808 6.34727 11.7392L7.76007 11.7472ZM8.24007 13.288V11.7392H9.65287C9.28008 12.5808 8.78407 13.1488 8.24007 13.28V13.288ZM6.16007 4.74876H7.76007V5.93596H5.84007C5.91697 5.53034 6.02339 5.13088 6.15847 4.74076L6.16007 4.74876ZM10.1601 5.93596H8.24007V4.74076H9.84007C9.97533 5.12823 10.0823 5.525 10.1601 5.92796V5.93596ZM8.24007 4.26876V2.71996C8.78407 2.85116 9.27847 3.41916 9.65287 4.26076L8.24007 4.26876ZM7.76007 2.71996V4.26076H6.34727C6.72007 3.41916 7.21607 2.85116 7.76007 2.71996ZM10.6529 5.91996C10.5807 5.51793 10.4813 5.12128 10.3553 4.73276H12.1873C12.471 5.09665 12.7066 5.49569 12.8881 5.91996H10.6529ZM11.7729 4.25276H10.1793C9.98053 3.73621 9.68938 3.26018 9.32007 2.84796C10.2476 3.08956 11.0924 3.57776 11.7649 4.26076L11.7729 4.25276ZM6.68007 2.85596C6.31077 3.26818 6.01962 3.74421 5.82087 4.26076H4.23527C4.90868 3.58068 5.75341 3.09529 6.68007 2.85596ZM3.81287 4.74076H5.64487C5.51884 5.12928 5.41941 5.52593 5.34727 5.92796H3.10727C3.29026 5.50344 3.52743 5.10439 3.81287 4.74076ZM5.34727 10.08C5.41941 10.482 5.51884 10.8786 5.64487 11.2672H3.81287C3.52911 10.9033 3.29356 10.5042 3.11207 10.08H5.34727ZM4.22727 11.7472H5.81287C6.01162 12.2637 6.30277 12.7397 6.67207 13.152C5.74741 12.909 4.90551 12.4209 4.23527 11.7392L4.22727 11.7472ZM9.31207 13.152C9.68138 12.7397 9.97253 12.2637 10.1713 11.7472H11.7569C11.0847 12.4231 10.243 12.9056 9.32007 13.144L9.31207 13.152ZM12.1873 11.2592H10.3553C10.481 10.8733 10.5804 10.4793 10.6529 10.08H12.8929C12.7093 10.5017 12.4721 10.898 12.1873 11.2592Z" fill="black"/>
<path d="M13.7776 8.34566L13.6768 8.24486C13.7406 8.1321 13.7779 8.00622 13.7856 7.87686C13.7856 7.85606 13.7856 7.83526 13.7856 7.81446C13.7856 7.79366 13.7856 7.74086 13.7856 7.70566C13.7648 7.54525 13.7007 7.39355 13.6 7.26694C13.4993 7.14034 13.366 7.04363 13.2144 6.98726C13.1169 6.95186 13.0141 6.93346 12.9104 6.93286C12.6863 6.93325 12.4707 7.01899 12.3075 7.17265C12.1443 7.32631 12.0458 7.53635 12.032 7.76006C12.032 7.77766 12.032 7.79686 12.032 7.81446C12.0317 7.96345 12.0697 8.11001 12.1424 8.24006C12.2185 8.37805 12.3301 8.49313 12.4657 8.57333C12.6014 8.65353 12.756 8.69591 12.9136 8.69606C13.0396 8.69631 13.1641 8.669 13.2784 8.61606L13.344 8.58406L13.7088 8.96006L13.7504 9.00166C13.7954 9.04661 13.8564 9.07185 13.92 9.07185C13.9836 9.07185 14.0446 9.04661 14.0896 9.00166C14.112 8.97949 14.1299 8.95308 14.142 8.92396C14.1542 8.89485 14.1604 8.86361 14.1604 8.83206C14.1604 8.80051 14.1542 8.76927 14.142 8.74016C14.1299 8.71104 14.112 8.68464 14.0896 8.66246L13.7776 8.34566ZM12.5104 7.76006C12.5104 7.65397 12.5525 7.55223 12.6275 7.47722C12.7026 7.4022 12.8043 7.36006 12.9104 7.36006C13.0165 7.36006 13.1182 7.4022 13.1932 7.47722C13.2682 7.55223 13.3104 7.65397 13.3104 7.76006C13.3104 7.77766 13.3104 7.79526 13.3104 7.81446C13.3112 7.82671 13.3112 7.83901 13.3104 7.85126C13.3104 7.85126 13.3104 7.86566 13.3104 7.87206C13.2986 7.95976 13.2576 8.04093 13.194 8.10247C13.1305 8.16401 13.048 8.20234 12.96 8.21126H12.9024C12.7959 8.21126 12.6937 8.16895 12.6184 8.09364C12.5431 8.01832 12.5008 7.91617 12.5008 7.80966C12.5056 7.79526 12.5088 7.77766 12.5104 7.76006Z" fill="black"/>
</svg>
