<svg width="124" height="124" viewBox="0 0 124 124" fill="none" xmlns="http://www.w3.org/2000/svg">
<path d="M7.79162 124H116.198C117.545 124.001 118.869 123.632 120.042 122.929C121.214 122.226 122.195 121.213 122.888 119.988C123.582 118.763 123.964 117.369 123.998 115.941C124.031 114.513 123.716 113.1 123.081 111.84L68.9951 4.37307C68.3316 3.05248 67.3421 1.94799 66.1323 1.17771C64.9226 0.407432 63.5382 0.000349527 62.1271 0H62.1193C59.2428 0 56.6078 1.67813 55.2514 4.3648L0.923671 111.831C0.288169 113.091 -0.0292926 114.504 0.00212472 115.932C0.033542 117.36 0.41277 118.756 1.10297 119.982C1.79689 121.206 2.77735 122.22 3.94927 122.924C5.12118 123.627 6.44476 123.998 7.79162 124ZM62.1193 90.9333C63.1433 90.9336 64.1572 91.1477 65.1032 91.5635C66.0491 91.9793 66.9086 92.5886 67.6325 93.3567C68.3564 94.1247 68.9305 95.0364 69.3222 96.0397C69.7138 97.043 69.9152 98.1183 69.915 99.2041C69.9147 100.29 69.7128 101.365 69.3207 102.368C68.9286 103.371 68.354 104.283 67.6297 105.05C66.9055 105.818 66.0457 106.427 65.0996 106.842C64.1535 107.257 63.1394 107.471 62.1154 107.471C60.0474 107.47 58.0643 106.599 56.6023 105.047C55.1403 103.496 54.3193 101.393 54.3198 99.2C54.3203 97.007 55.1424 94.904 56.6051 93.3537C58.0677 91.8034 60.0513 90.9328 62.1193 90.9333ZM54.3237 74.5323V41.4656C54.3237 39.2731 55.145 37.1705 56.607 35.6202C58.069 34.0699 60.0518 33.1989 62.1193 33.1989C64.1869 33.1989 66.1697 34.0699 67.6317 35.6202C69.0937 37.1705 69.915 39.2731 69.915 41.4656V74.5323C69.915 76.7247 69.0937 78.8274 67.6317 80.3777C66.1697 81.928 64.1869 82.7989 62.1193 82.7989C60.0518 82.7989 58.069 81.928 56.607 80.3777C55.145 78.8274 54.3237 76.7247 54.3237 74.5323Z" fill="#044C8C"/>
</svg>
