<svg width="12" height="12" viewBox="0 0 12 12" fill="none" xmlns="http://www.w3.org/2000/svg">
<path d="M8.05132 7.66164L8.04975 7.66358L8.05185 7.66119L8.05234 7.66051L8.05132 7.66164Z" fill="#7A7A7A"/>
<path fill-rule="evenodd" clip-rule="evenodd" d="M6 11C8.76142 11 11 8.76142 11 6C11 3.23858 8.76142 1 6 1C3.23858 1 1 3.23858 1 6C1 6.12619 1.00467 6.25128 1.01386 6.37513H1.5C2.29552 6.37513 2.94118 6.8822 3.30662 7.51993C3.67237 8.15818 3.79688 8.98899 3.49965 9.73577C3.46328 9.83181 3.38417 10.0087 3.26985 10.1895C4.05478 10.7021 4.9926 11 6 11ZM10.7933 4.57266C10.7432 4.57851 10.691 4.57429 10.6397 4.55849L8.55128 3.91596C8.33112 3.84823 8.13635 3.72415 7.9688 3.59487C7.80637 3.46954 7.64937 3.32302 7.50761 3.1907L7.49406 3.17806C7.343 3.0371 7.20817 2.9122 7.07439 2.81055C6.94048 2.7088 6.82873 2.64714 6.7319 2.61926C6.45876 2.54062 6.12188 2.48361 5.75452 2.42144C5.69764 2.41182 5.63999 2.40206 5.58177 2.39209C5.17291 2.32205 4.72821 2.24006 4.37791 2.10496L3.39224 1.80926C3.36637 1.8015 3.34195 1.79119 3.31919 1.7787C3.6242 1.5846 3.95166 1.42264 4.2968 1.29761L4.62269 1.39537L4.63721 1.40108C4.90622 1.50685 5.28128 1.57969 5.7084 1.65285C5.76308 1.66222 5.81865 1.6716 5.87477 1.68107C6.23686 1.74216 6.62189 1.80712 6.93942 1.89854C7.16229 1.96271 7.35912 2.08495 7.52815 2.21338C7.6973 2.34191 7.85974 2.49348 8.00574 2.62971L8.00631 2.63024C8.15784 2.77164 8.29269 2.89748 8.42696 3.00108C8.56147 3.10487 8.674 3.16902 8.77182 3.19912L10.4485 3.71495C10.5886 3.98727 10.7045 4.27413 10.7933 4.57266ZM4.26068 3.5C3.7367 3.5 3.30169 4.13555 3.08887 4.5741C3.03333 4.68856 3.01127 4.81546 3.00812 4.94264C3.00701 4.9873 3.00568 5.02946 3.00442 5.06938C2.98915 5.55386 2.98428 5.7083 3.51068 6C4.13837 6.34783 4.25 6.35664 4.5 6.35664C4.72844 6.35664 5.1801 6.68527 5.01068 7.25C4.76068 8.08333 5.26068 9.75 6.01068 9.25C6.75681 8.75258 6.95264 7.58682 7.0741 6.86373C7.13499 6.50124 7.1772 6.25 7.26068 6.25C7.41444 6.25 7.67659 5.91589 7.86531 5.63298C7.96446 5.48434 8.03093 5.28748 7.91292 5.15334C7.83817 5.06838 7.71268 5 7.51068 5C7.17658 5 6.81923 4.65119 6.61343 4.39058C6.543 4.30138 6.51068 4.18935 6.51068 4.07569C6.51068 3.75775 6.25293 3.5 5.93498 3.5H4.26068ZM8.4388 7.1478C8.60579 7.20885 8.70315 7.37619 8.68236 7.5454C8.71295 7.59575 8.76889 7.70431 8.75622 7.8469C8.74177 8.00947 8.64826 8.12591 8.5752 8.19897C8.50286 8.27131 8.45047 8.34673 8.41496 8.41034C8.39728 8.44201 8.38447 8.46953 8.37585 8.49062C8.36838 8.50887 8.36523 8.51934 8.36463 8.52138C8.31626 8.72276 8.11381 8.8468 7.91243 8.79844C7.71104 8.75008 7.587 8.54762 7.63536 8.34624C7.66659 8.21623 7.76413 7.98953 7.95228 7.7689C7.95036 7.76362 7.94849 7.75821 7.94668 7.75269C7.90695 7.63156 7.91009 7.50183 7.95784 7.37124C8.02895 7.17672 8.24429 7.07669 8.4388 7.1478Z" fill="#7A7A7A"/>
<path d="M2.67106 9.73078C2.73071 9.62812 2.77659 9.52794 2.7989 9.46844L2.80033 9.46463L2.80184 9.46085C3.00276 8.95857 2.92707 8.36604 2.65589 7.89282C2.38383 7.41805 1.95447 7.12513 1.5 7.12513H1.1271C1.3627 8.14968 1.91312 9.054 2.67106 9.73078Z" fill="#7A7A7A"/>
</svg>
