<svg width="19" height="19" viewBox="0 0 19 19" fill="none" xmlns="http://www.w3.org/2000/svg">
<path d="M17.9444 5.7159L11.6111 0.724868C11.0306 0.258069 10.279 0 9.50003 0C8.72111 0 7.96951 0.258069 7.38894 0.724868L1.05565 5.7159C0.720373 5.98544 0.452825 6.31611 0.270818 6.68587C0.0888123 7.05563 -0.00347545 7.456 0.00010006 7.86033V16.1534C0.00010006 16.9084 0.333728 17.6324 0.927589 18.1663C1.52145 18.7001 2.3269 19 3.16674 19H15.8333C16.6732 19 17.4786 18.7001 18.0725 18.1663C18.6663 17.6324 19 16.9084 19 16.1534V7.85084C19.002 7.44811 18.909 7.04956 18.7271 6.68154C18.5451 6.31351 18.2784 5.98438 17.9444 5.7159ZM11.6111 17.1023H7.38894V12.3579C7.38894 12.1063 7.50015 11.8649 7.6981 11.687C7.89605 11.5091 8.16454 11.4091 8.44448 11.4091H10.5556C10.8355 11.4091 11.104 11.5091 11.302 11.687C11.4999 11.8649 11.6111 12.1063 11.6111 12.3579V17.1023ZM16.8889 16.1534C16.8889 16.4051 16.7777 16.6464 16.5797 16.8244C16.3818 17.0023 16.1133 17.1023 15.8333 17.1023H13.7222V12.3579C13.7222 11.603 13.3886 10.8789 12.7947 10.3451C12.2009 9.81126 11.3954 9.51135 10.5556 9.51135H8.44448C7.60464 9.51135 6.79919 9.81126 6.20533 10.3451C5.61147 10.8789 5.27784 11.603 5.27784 12.3579V17.1023H3.16674C2.8868 17.1023 2.61831 17.0023 2.42036 16.8244C2.22241 16.6464 2.1112 16.4051 2.1112 16.1534V7.85084C2.11139 7.71612 2.14349 7.58297 2.20537 7.46027C2.26725 7.33756 2.35749 7.22811 2.47008 7.13919L8.80337 2.15765C8.996 2.00553 9.24363 1.92164 9.50003 1.92164C9.75643 1.92164 10.0041 2.00553 10.1967 2.15765L16.53 7.13919C16.6426 7.22811 16.7328 7.33756 16.7947 7.46027C16.8566 7.58297 16.8887 7.71612 16.8889 7.85084V16.1534Z" fill="#383838"/>
</svg>
