<svg width="17" height="16" viewBox="0 0 17 16" fill="none" xmlns="http://www.w3.org/2000/svg">
<g clip-path="url(#clip0_1485_2662)">
<path d="M2.25 5.5C2.25 5.74723 2.32331 5.9889 2.46066 6.19446C2.59801 6.40002 2.79324 6.56024 3.02165 6.65485C3.25005 6.74946 3.50139 6.77421 3.74386 6.72598C3.98634 6.67775 4.20907 6.5587 4.38388 6.38388C4.5587 6.20907 4.67775 5.98634 4.72598 5.74386C4.77421 5.50139 4.74946 5.25005 4.65485 5.02165C4.56024 4.79324 4.40002 4.59801 4.19446 4.46066C3.9889 4.32331 3.74723 4.25 3.5 4.25C3.16859 4.25036 2.85086 4.38218 2.61652 4.61652C2.38218 4.85086 2.25036 5.16859 2.25 5.5ZM4.25 5.5C4.25 5.64834 4.20601 5.79334 4.1236 5.91668C4.04119 6.04001 3.92406 6.13614 3.78701 6.19291C3.64997 6.24968 3.49917 6.26453 3.35368 6.23559C3.2082 6.20665 3.07456 6.13522 2.96967 6.03033C2.86478 5.92544 2.79335 5.7918 2.76441 5.64632C2.73547 5.50083 2.75032 5.35003 2.80709 5.21299C2.86386 5.07594 2.95999 4.95881 3.08332 4.8764C3.20666 4.79399 3.35166 4.75 3.5 4.75C3.69884 4.75023 3.88947 4.82932 4.03007 4.96993C4.17068 5.11053 4.24977 5.30116 4.25 5.5Z" fill="black"/>
<path d="M0.69874 6.59325C0.756136 6.60537 0.815966 6.59687 0.867721 6.56925C0.919476 6.54164 0.959846 6.49667 0.98174 6.44225C1.13985 6.07286 1.4094 5.76209 1.75274 5.55337C1.75211 5.5355 1.74999 5.518 1.74999 5.5C1.7503 5.30876 1.78214 5.11888 1.84424 4.938C1.58117 5.05694 1.33766 5.21507 1.12199 5.407C1.39799 4.20625 2.12686 3.1015 3.23536 2.2275C4.46199 1.26062 6.03311 0.671375 7.72324 0.5325C6.95549 1.20187 5.89799 2.66825 5.66599 5.72713C5.54086 5.56623 5.39678 5.42101 5.23686 5.29462C5.26395 5.50908 5.24901 5.72676 5.19286 5.9355C5.35887 6.1191 5.48317 6.33645 5.55724 6.57263C5.57282 6.62394 5.60449 6.66889 5.64757 6.70083C5.69065 6.73277 5.74286 6.75001 5.79649 6.75H5.92349C5.97964 6.74997 6.03415 6.73104 6.07824 6.69626C6.12232 6.66147 6.15341 6.61286 6.16649 6.55825C6.36211 5.742 7.21836 5.134 8.24999 5.04787V5.14625C8.41545 5.11788 8.58453 5.11788 8.74999 5.14625V5.0475C9.78311 5.1325 10.641 5.74125 10.8369 6.55825C10.85 6.61288 10.8811 6.66151 10.9252 6.6963C10.9693 6.73108 11.0238 6.75 11.08 6.75H11.1777C11.2339 6.75 11.2885 6.73108 11.3326 6.6963C11.3767 6.66151 11.4078 6.61288 11.4209 6.55825C11.516 6.19266 11.7264 5.86744 12.0209 5.63075C11.9876 5.42308 11.9941 5.211 12.04 5.00575C11.7662 5.17119 11.5247 5.385 11.3272 5.63675C11.0816 2.63888 10.037 1.1955 9.27674 0.5325C12.5514 0.79875 15.2017 2.73212 15.853 5.28162C15.7298 5.17497 15.5974 5.07935 15.4575 4.99587C15.5049 5.20084 15.5127 5.41297 15.4806 5.62087C15.7157 5.8113 15.9005 6.05657 16.0186 6.33512C16.041 6.38972 16.082 6.43465 16.1343 6.46195C16.1866 6.48925 16.2469 6.49716 16.3045 6.48429C16.3621 6.47142 16.4132 6.43859 16.4489 6.39162C16.4847 6.34465 16.5026 6.28656 16.4996 6.22762C16.3246 2.77825 12.8941 0.068875 8.65886 0.003125C8.63743 -0.000152071 8.61566 -0.000572401 8.59411 0.001875C8.56324 0.0015 8.53274 0 8.50161 0C8.46974 0 8.43786 0.0015 8.40599 0.001875C8.38461 -0.000544204 8.36301 -0.000123889 8.34174 0.003125C6.30649 0.0355 4.38836 0.681875 2.92574 1.83487C1.41224 3.02812 0.55074 4.62838 0.500115 6.34113C0.498339 6.39977 0.517254 6.45716 0.553546 6.50326C0.589838 6.54936 0.641193 6.58121 0.698615 6.59325H0.69874ZM8.49999 0.59075C9.04036 0.90875 10.4812 2.069 10.8122 5.49388C10.2826 4.908 9.43474 4.53625 8.50174 4.53625C7.56549 4.53625 6.71636 4.911 6.18711 5.5C6.51674 2.07037 7.95924 0.909 8.49999 0.59075Z" fill="black"/>
<path d="M15.0846 6.50425C14.899 6.72332 14.6625 6.89354 14.3959 7H15C15.2651 7.00033 15.5193 7.10579 15.7068 7.29326C15.8942 7.48072 15.9997 7.73488 16 8V11.5C15.9999 11.5663 15.9736 11.6298 15.9267 11.6767C15.8798 11.7236 15.8163 11.7499 15.75 11.75H15.25V9C15.25 8.9337 15.2237 8.87011 15.1768 8.82322C15.1299 8.77634 15.0663 8.75 15 8.75C14.9337 8.75 14.8701 8.77634 14.8232 8.82322C14.7764 8.87011 14.75 8.9337 14.75 9V15.3995C14.7521 15.4233 14.7451 15.4469 14.7302 15.4656C14.7154 15.4843 14.694 15.4966 14.6704 15.5H14V11.75C14 11.6837 13.9737 11.6201 13.9268 11.5732C13.8799 11.5263 13.8163 11.5 13.75 11.5C13.6837 11.5 13.6201 11.5263 13.5732 11.5732C13.5264 11.6201 13.5 11.6837 13.5 11.75V15.5H12.8296C12.806 15.4966 12.7846 15.4843 12.7698 15.4656C12.755 15.4469 12.7479 15.4233 12.75 15.3995V9C12.75 8.9337 12.7237 8.87011 12.6768 8.82322C12.6299 8.77634 12.5663 8.75 12.5 8.75C12.4337 8.75 12.3701 8.77634 12.3232 8.82322C12.2764 8.87011 12.25 8.9337 12.25 9V11.75H11.75C11.6837 11.7499 11.6202 11.7236 11.5733 11.6767C11.5264 11.6298 11.5001 11.5663 11.5 11.5V12C11.4996 12.067 11.4937 12.1338 11.4825 12.1999C11.5678 12.2329 11.6585 12.2499 11.75 12.25H12.25V15.3995C12.2475 15.5559 12.3071 15.707 12.4157 15.8196C12.5244 15.9321 12.6732 15.997 12.8296 16H14.6704C14.8268 15.997 14.9757 15.9321 15.0843 15.8196C15.193 15.707 15.2526 15.5559 15.25 15.3995V12.25H15.75C15.9489 12.2498 16.1395 12.1707 16.2801 12.0301C16.4207 11.8895 16.4998 11.6988 16.5 11.5V8C16.4994 7.61719 16.3525 7.24909 16.0894 6.97104C15.8263 6.69298 15.4668 6.526 15.0846 6.50425ZM12.5 5.375C12.5 5.62223 12.5733 5.8639 12.7107 6.06946C12.848 6.27502 13.0432 6.43524 13.2717 6.52985C13.5001 6.62446 13.7514 6.64921 13.9939 6.60098C14.2364 6.55275 14.4591 6.4337 14.6339 6.25888C14.8087 6.08407 14.9278 5.86134 14.976 5.61886C15.0242 5.37639 14.9995 5.12505 14.9049 4.89665C14.8103 4.66824 14.65 4.47301 14.4445 4.33566C14.2389 4.19831 13.9972 4.125 13.75 4.125C13.4186 4.12536 13.1009 4.25718 12.8665 4.49152C12.6322 4.72586 12.5004 5.04359 12.5 5.375ZM14.5 5.375C14.5 5.52334 14.456 5.66834 14.3736 5.79168C14.2912 5.91501 14.1741 6.01114 14.037 6.06791C13.9 6.12468 13.7492 6.13953 13.6037 6.11059C13.4582 6.08165 13.3246 6.01022 13.2197 5.90533C13.1148 5.80044 13.0434 5.6668 13.0144 5.52132C12.9855 5.37583 13.0003 5.22503 13.0571 5.08799C13.1139 4.95094 13.21 4.83381 13.3333 4.7514C13.4567 4.66899 13.6017 4.625 13.75 4.625C13.9489 4.62523 14.1395 4.70432 14.2801 4.84493C14.4207 4.98553 14.4998 5.17616 14.5 5.375ZM11.5 8C11.5003 7.73488 11.6058 7.48072 11.7933 7.29326C11.9807 7.10579 12.2349 7.00033 12.5 7H13.1043C12.8376 6.89355 12.601 6.72333 12.4154 6.50425C12.0446 6.52555 11.6949 6.68366 11.434 6.94797C11.1732 7.21228 11.0196 7.56399 11.0031 7.935C11.3233 8.29827 11.4999 8.76581 11.5 9.25V8ZM4.92214 6.516C4.78192 6.71153 4.60311 6.87625 4.39676 7H4.74189C4.91368 7.00316 5.07721 7.0743 5.19664 7.19783C5.31607 7.32136 5.38165 7.4872 5.37901 7.659L5.56214 8.76425C5.63165 8.48616 5.76032 8.22633 5.93939 8.0025L5.87889 7.63725C5.8754 7.36806 5.77782 7.10857 5.60307 6.90378C5.42833 6.69899 5.18743 6.5618 4.92214 6.516ZM5.50001 11.5V10.8041L5.06826 8.69975C5.05419 8.63555 5.0154 8.57947 4.96029 8.54366C4.90518 8.50784 4.83819 8.49517 4.7738 8.50838C4.70942 8.52159 4.65283 8.55962 4.61628 8.61425C4.57973 8.66887 4.56616 8.7357 4.57851 8.80025L5.23501 12H1.76501L2.42151 8.80025C2.43386 8.7357 2.42029 8.66887 2.38374 8.61425C2.34719 8.55962 2.2906 8.52159 2.22622 8.50838C2.16184 8.49517 2.09484 8.50784 2.03973 8.54366C1.98462 8.57947 1.94583 8.63555 1.93176 8.69975L1.35726 11.5H1.10476C1.07845 11.499 1.05339 11.4885 1.0343 11.4703C1.0152 11.4522 1.00336 11.4277 1.00101 11.4015L1.61751 7.70025L1.62101 7.659C1.61837 7.48722 1.68393 7.3214 1.80333 7.19787C1.92274 7.07434 2.08624 7.00319 2.25801 7H2.60326C2.39691 6.87625 2.21811 6.71153 2.07789 6.516C1.8126 6.5618 1.5717 6.69899 1.39695 6.90378C1.2222 7.10857 1.12463 7.36806 1.12114 7.63725L0.503387 11.3453L0.500012 11.3862C0.499013 11.5478 0.562137 11.7031 0.675535 11.8182C0.788933 11.9333 0.943343 11.9986 1.10489 12H1.25489L1.25476 12.0013C1.24543 12.0637 1.24966 12.1274 1.26718 12.188C1.28469 12.2486 1.31508 12.3048 1.35626 12.3526C1.39592 12.3988 1.44505 12.4358 1.50032 12.4612C1.55558 12.4867 1.61568 12.4999 1.67651 12.5H2.00001V15.377C1.99467 15.5364 2.05265 15.6914 2.16126 15.8081C2.26988 15.9249 2.4203 15.9938 2.57964 16H4.42039C4.57972 15.9938 4.73014 15.9249 4.83876 15.8081C4.94738 15.6914 5.00535 15.5364 5.00001 15.377V12.5H5.32351C5.4134 12.4998 5.50088 12.4708 5.57314 12.4174C5.52503 12.2835 5.50029 12.1423 5.50001 12V11.5ZM3.25001 15.5H2.57964C2.54214 15.5 2.50001 15.4475 2.50001 15.377V12.5H3.25001V15.5ZM4.50001 15.377C4.50001 15.4474 4.45789 15.5 4.42039 15.5H3.75001V12.5H4.50001V15.377ZM9.76326 7.76988C9.59327 7.98043 9.37359 8.14541 9.12401 8.25H9.50001C9.98164 8.25 10.5 8.52375 10.5 9.125V12C10.4999 12.0663 10.4736 12.1298 10.4267 12.1767C10.3798 12.2236 10.3163 12.2499 10.25 12.25H9.75001V10.5C9.75001 10.4337 9.72367 10.3701 9.67679 10.3232C9.6299 10.2763 9.56632 10.25 9.50001 10.25C9.43371 10.25 9.37012 10.2763 9.32323 10.3232C9.27635 10.3701 9.25001 10.4337 9.25001 10.5V15.4514C9.24983 15.4685 9.24508 15.4853 9.23626 15.5L8.75001 15.5004V12.25C8.75001 12.1837 8.72367 12.1201 8.67679 12.0732C8.6299 12.0263 8.56632 12 8.50001 12C8.43371 12 8.37012 12.0263 8.32323 12.0732C8.27635 12.1201 8.25001 12.1837 8.25001 12.25V15.5007L7.76914 15.5011C7.76238 15.4948 7.75715 15.4871 7.75384 15.4785C7.75053 15.4698 7.74922 15.4606 7.75001 15.4514V10.5C7.75001 10.4337 7.72367 10.3701 7.67679 10.3232C7.6299 10.2763 7.56632 10.25 7.50001 10.25C7.43371 10.25 7.37012 10.2763 7.32323 10.3232C7.27635 10.3701 7.25001 10.4337 7.25001 10.5V12.25H6.75001C6.68373 12.2499 6.62018 12.2236 6.57331 12.1767C6.52644 12.1298 6.50008 12.0663 6.50001 12V9.125C6.50001 8.52375 7.01839 8.25 7.50001 8.25H7.87601C7.62644 8.14545 7.40677 7.9805 7.23676 7.77C6.50676 7.87437 6.00001 8.41138 6.00001 9.125V12C6.00024 12.1988 6.07934 12.3895 6.21994 12.5301C6.36054 12.6707 6.55117 12.7498 6.75001 12.75H7.25001V15.4514C7.24569 15.5922 7.29733 15.7289 7.39361 15.8318C7.48989 15.9346 7.62299 15.9951 7.76376 16H9.23626C9.37704 15.9951 9.51013 15.9346 9.60641 15.8318C9.7027 15.7289 9.75433 15.5922 9.75001 15.4514V12.75H10.25C10.4489 12.7498 10.6395 12.6707 10.7801 12.5301C10.9207 12.3895 10.9998 12.1988 11 12V9.125C11 8.41138 10.4933 7.87438 9.76326 7.76988Z" fill="black"/>
<path d="M7.375 6.75C7.375 6.9725 7.44098 7.19001 7.5646 7.37502C7.68821 7.56002 7.86391 7.70422 8.06948 7.78936C8.27505 7.87451 8.50125 7.89679 8.71948 7.85338C8.93771 7.80998 9.13816 7.70283 9.2955 7.5455C9.45283 7.38816 9.55997 7.18771 9.60338 6.96948C9.64679 6.75125 9.62451 6.52505 9.53936 6.31948C9.45422 6.11391 9.31002 5.93821 9.12502 5.8146C8.94001 5.69098 8.7225 5.625 8.5 5.625C8.20173 5.62533 7.91578 5.74396 7.70487 5.95487C7.49396 6.16578 7.37533 6.45173 7.375 6.75ZM9.125 6.75C9.125 6.87361 9.08834 6.99445 9.01967 7.09723C8.95099 7.20001 8.85338 7.28012 8.73918 7.32742C8.62497 7.37473 8.49931 7.38711 8.37807 7.36299C8.25683 7.33888 8.14547 7.27935 8.05806 7.19194C7.97065 7.10453 7.91112 6.99317 7.88701 6.87193C7.86289 6.75069 7.87527 6.62503 7.92258 6.51082C7.96988 6.39662 8.04999 6.29901 8.15277 6.23033C8.25555 6.16166 8.37639 6.125 8.5 6.125C8.6657 6.1252 8.82456 6.19111 8.94172 6.30828C9.05889 6.42544 9.1248 6.5843 9.125 6.75Z" fill="black"/>
</g>
<defs>
<clipPath id="clip0_1485_2662">
<rect width="16" height="16" fill="white" transform="translate(0.5)"/>
</clipPath>
</defs>
</svg>
