<svg width="10" height="11" viewBox="0 0 10 11" fill="none" xmlns="http://www.w3.org/2000/svg">
<path fill-rule="evenodd" clip-rule="evenodd" d="M3.375 3.00049C3.375 2.10303 4.10254 1.37549 5 1.37549C5.89746 1.37549 6.625 2.10303 6.625 3.00049C6.625 3.2076 6.79289 3.37549 7 3.37549C7.20711 3.37549 7.375 3.2076 7.375 3.00049C7.375 1.68881 6.31168 0.625488 5 0.625488C3.68832 0.625488 2.625 1.68881 2.625 3.00049V4.00049H2.5C1.39543 4.00049 0.5 4.89592 0.5 6.00049V9.00049C0.5 10.1051 1.39543 11.0005 2.5 11.0005H7.5C8.60457 11.0005 9.5 10.1051 9.5 9.00049V6.00049C9.5 4.89592 8.60457 4.00049 7.5 4.00049H3.375V3.00049ZM5.5 7.00049C5.5 7.12729 5.4528 7.24307 5.375 7.33122V9.00049C5.375 9.20759 5.20711 9.37549 5 9.37549C4.79289 9.37549 4.625 9.20759 4.625 9.00049V7.33122C4.5472 7.24307 4.5 7.12729 4.5 7.00049C4.5 6.72435 4.72386 6.50049 5 6.50049C5.27614 6.50049 5.5 6.72435 5.5 7.00049Z" fill="#7A7A7A"/>
</svg>
