<svg width="12" height="12" viewBox="0 0 12 17" fill="none" xmlns="http://www.w3.org/2000/svg">
<path fill-rule="evenodd" clip-rule="evenodd" d="M2 2H8C9.10457 2 10 2.89543 10 4V8C10 9.10457 9.10457 10 8 10H2C0.89543 10 0 9.10457 0 8V4C0 2.89543 0.89543 2 2 2ZM2.3 3.275C2.17574 3.10931 1.94069 3.07574 1.775 3.2C1.60931 3.32426 1.57574 3.55931 1.7 3.725L3.1 5.59167C4.05 6.85833 5.95 6.85833 6.9 5.59167L8.3 3.725C8.42426 3.55931 8.39069 3.32426 8.225 3.2C8.05931 3.07574 7.82426 3.10931 7.7 3.275L6.3 5.14167C5.65 6.00833 4.35 6.00833 3.7 5.14167L2.3 3.275Z" fill="#7A7A7A"/>
</svg>
