<svg width="44" height="39" viewBox="0 0 44 39" fill="none" xmlns="http://www.w3.org/2000/svg">
<path d="M39 0.589844H5C2.6625 0.589844 0.75 2.50234 0.75 4.83984V34.5898C0.75 36.9273 2.6625 38.8398 5 38.8398H39C41.3375 38.8398 43.25 36.9273 43.25 34.5898V4.83984C43.25 2.50234 41.3375 0.589844 39 0.589844ZM39 34.5898H5V4.83984H39V34.5898Z" fill="url(#paint0_linear_352_1591)"/>
<path d="M37.7463 16.3573L34.7287 13.3398L27.9925 20.0761L24.9962 17.0586L22 20.0548L27.9925 26.0898L37.7463 16.3573Z" fill="url(#paint1_linear_352_1591)"/>
<path d="M17.75 9.08984H7.125V13.3398H17.75V9.08984Z" fill="url(#paint2_linear_352_1591)"/>
<path d="M17.75 17.5898H7.125V21.8398H17.75V17.5898Z" fill="url(#paint3_linear_352_1591)"/>
<path d="M17.75 26.0898H7.125V30.3398H17.75V26.0898Z" fill="url(#paint4_linear_352_1591)"/>
<defs>
<linearGradient id="paint0_linear_352_1591" x1="22" y1="0.589844" x2="22" y2="38.8398" gradientUnits="userSpaceOnUse">
<stop stop-color="#042A4F"/>
<stop offset="1" stop-color="#3B82F6"/>
</linearGradient>
<linearGradient id="paint1_linear_352_1591" x1="29.8731" y1="13.3398" x2="29.8731" y2="26.0898" gradientUnits="userSpaceOnUse">
<stop stop-color="#042A4F"/>
<stop offset="1" stop-color="#3B82F6"/>
</linearGradient>
<linearGradient id="paint2_linear_352_1591" x1="12.4375" y1="9.08984" x2="12.4375" y2="13.3398" gradientUnits="userSpaceOnUse">
<stop stop-color="#042A4F"/>
<stop offset="1" stop-color="#3B82F6"/>
</linearGradient>
<linearGradient id="paint3_linear_352_1591" x1="12.4375" y1="17.5898" x2="12.4375" y2="21.8398" gradientUnits="userSpaceOnUse">
<stop stop-color="#042A4F"/>
<stop offset="1" stop-color="#3B82F6"/>
</linearGradient>
<linearGradient id="paint4_linear_352_1591" x1="12.4375" y1="26.0898" x2="12.4375" y2="30.3398" gradientUnits="userSpaceOnUse">
<stop stop-color="#042A4F"/>
<stop offset="1" stop-color="#3B82F6"/>
</linearGradient>
</defs>
</svg>
