<svg width="25" height="28" viewBox="0 0 25 28" fill="none" xmlns="http://www.w3.org/2000/svg">
<g clip-path="url(#clip0_1048_3031)">
<path d="M10.0586 21.875C10.0156 21.875 9.97266 21.875 9.92969 21.8313L8.68359 21H4.04297C3.44141 21 2.96875 20.5187 2.96875 19.9062V16.4062C2.96875 15.7937 3.44141 15.3125 4.04297 15.3125H9.19922C9.80078 15.3125 10.2734 15.7937 10.2734 16.4062V21.6562C10.2734 21.7437 10.2305 21.8313 10.1445 21.8313C10.1445 21.875 10.1016 21.875 10.0586 21.875ZM4.04297 15.75C3.69922 15.75 3.39844 16.0562 3.39844 16.4062V19.9062C3.39844 20.2563 3.69922 20.5625 4.04297 20.5625H8.76953C8.8125 20.5625 8.85547 20.5625 8.89844 20.6062L9.84375 21.2625V16.4062C9.84375 16.0562 9.54297 15.75 9.19922 15.75H4.04297ZM15.6445 10.0625C15.6016 10.0625 15.5586 10.0625 15.5586 10.0187C15.4727 9.975 15.4297 9.8875 15.4297 9.84375V4.59375C15.4297 3.98125 15.9023 3.5 16.5039 3.5H22.5195C23.1211 3.5 23.5938 3.98125 23.5938 4.59375V8.09375C23.5938 8.70625 23.1211 9.1875 22.5195 9.1875H17.0195L15.7734 10.0187C15.7305 10.0625 15.6875 10.0625 15.6445 10.0625ZM16.5039 3.9375C16.1602 3.9375 15.8594 4.24375 15.8594 4.59375V9.45L16.8047 8.79375C16.8477 8.75 16.8906 8.75 16.9336 8.75H22.5195C22.8633 8.75 23.1641 8.44375 23.1641 8.09375V4.59375C23.1641 4.24375 22.8633 3.9375 22.5195 3.9375H16.5039Z" fill="white"/>
<path d="M14.3555 16.1875C14.3125 16.1875 14.2695 16.1875 14.2266 16.1438L12.1641 14.4375H4.90234C3.82812 14.4375 2.96875 13.5625 2.96875 12.4688V7.65625C2.96875 6.5625 3.82812 5.6875 4.90234 5.6875H12.6367C13.7109 5.6875 14.5703 6.5625 14.5703 7.65625V15.9688C14.5703 16.0562 14.5273 16.1438 14.4414 16.1875H14.3555ZM4.90234 6.125C4.08594 6.125 3.39844 6.825 3.39844 7.65625V12.4688C3.39844 13.3 4.08594 14 4.90234 14H12.25C12.293 14 12.3359 14 12.3789 14.0437L14.1406 15.4875V7.65625C14.1406 6.825 13.4531 6.125 12.6367 6.125H4.90234Z" fill="white"/>
<path d="M12.207 12.25H5.33203C5.20312 12.25 5.11719 12.1625 5.11719 12.0312C5.11719 11.9 5.20312 11.8125 5.33203 11.8125H12.207C12.3359 11.8125 12.4219 11.9 12.4219 12.0312C12.4219 12.1625 12.3359 12.25 12.207 12.25ZM12.207 10.9375H5.33203C5.20312 10.9375 5.11719 10.85 5.11719 10.7188C5.11719 10.5875 5.20312 10.5 5.33203 10.5H12.207C12.3359 10.5 12.4219 10.5875 12.4219 10.7188C12.4219 10.85 12.3359 10.9375 12.207 10.9375ZM12.207 9.625H5.33203C5.20312 9.625 5.11719 9.5375 5.11719 9.40625C5.11719 9.275 5.20312 9.1875 5.33203 9.1875H12.207C12.3359 9.1875 12.4219 9.275 12.4219 9.40625C12.4219 9.5375 12.3359 9.625 12.207 9.625ZM12.207 8.3125H5.33203C5.20312 8.3125 5.11719 8.225 5.11719 8.09375C5.11719 7.9625 5.20312 7.875 5.33203 7.875H12.207C12.3359 7.875 12.4219 7.9625 12.4219 8.09375C12.4219 8.225 12.3359 8.3125 12.207 8.3125ZM24.668 15.3125H18.6523C18.5234 15.3125 18.4375 15.225 18.4375 15.0938C18.4375 14.9625 18.5234 14.875 18.6523 14.875H24.668C24.7969 14.875 24.8828 14.9625 24.8828 15.0938C24.8828 15.225 24.7969 15.3125 24.668 15.3125ZM24.668 14H18.6523C18.5234 14 18.4375 13.9125 18.4375 13.7812C18.4375 13.65 18.5234 13.5625 18.6523 13.5625H24.668C24.7969 13.5625 24.8828 13.65 24.8828 13.7812C24.8828 13.9125 24.7969 14 24.668 14ZM24.668 12.6875H18.6523C18.5234 12.6875 18.4375 12.6 18.4375 12.4688C18.4375 12.3375 18.5234 12.25 18.6523 12.25H24.668C24.7969 12.25 24.8828 12.3375 24.8828 12.4688C24.8828 12.6 24.7969 12.6875 24.668 12.6875ZM22.0898 6.5625H16.9336C16.8047 6.5625 16.7188 6.475 16.7188 6.34375C16.7188 6.2125 16.8047 6.125 16.9336 6.125H22.0898C22.2188 6.125 22.3047 6.2125 22.3047 6.34375C22.3047 6.475 22.2188 6.5625 22.0898 6.5625ZM22.0898 7.875H16.9336C16.8047 7.875 16.7188 7.7875 16.7188 7.65625C16.7188 7.525 16.8047 7.4375 16.9336 7.4375H22.0898C22.2188 7.4375 22.3047 7.525 22.3047 7.65625C22.3047 7.7875 22.2188 7.875 22.0898 7.875ZM22.0898 5.25H16.9336C16.8047 5.25 16.7188 5.1625 16.7188 5.03125C16.7188 4.9 16.8047 4.8125 16.9336 4.8125H22.0898C22.2188 4.8125 22.3047 4.9 22.3047 5.03125C22.3047 5.1625 22.2188 5.25 22.0898 5.25ZM8.76953 19.6875H4.47266C4.34375 19.6875 4.25781 19.6 4.25781 19.4688C4.25781 19.3375 4.34375 19.25 4.47266 19.25H8.76953C8.89844 19.25 8.98438 19.3375 8.98438 19.4688C8.98438 19.6 8.89844 19.6875 8.76953 19.6875ZM8.76953 18.375H4.47266C4.34375 18.375 4.25781 18.2875 4.25781 18.1562C4.25781 18.025 4.34375 17.9375 4.47266 17.9375H8.76953C8.89844 17.9375 8.98438 18.025 8.98438 18.1562C8.98438 18.2875 8.89844 18.375 8.76953 18.375ZM8.76953 17.0625H4.47266C4.34375 17.0625 4.25781 16.975 4.25781 16.8438C4.25781 16.7125 4.34375 16.625 4.47266 16.625H8.76953C8.89844 16.625 8.98438 16.7125 8.98438 16.8438C8.98438 16.975 8.89844 17.0625 8.76953 17.0625ZM22.0898 21.875H19.5117C19.3828 21.875 19.2969 21.7875 19.2969 21.6562C19.2969 21.525 19.3828 21.4375 19.5117 21.4375H22.0898C22.2188 21.4375 22.3047 21.525 22.3047 21.6562C22.3047 21.7875 22.2188 21.875 22.0898 21.875ZM22.0898 20.5625H19.5117C19.3828 20.5625 19.2969 20.475 19.2969 20.3438C19.2969 20.2125 19.3828 20.125 19.5117 20.125H22.0898C22.2188 20.125 22.3047 20.2125 22.3047 20.3438C22.3047 20.475 22.2188 20.5625 22.0898 20.5625ZM12.6367 19.6875H12.5508C12.5078 19.6875 12.5078 19.6438 12.4648 19.6438C12.4648 19.6438 12.4219 19.6 12.4219 19.5563V19.4688V19.3812C12.4219 19.3375 12.4648 19.3375 12.4648 19.2937C12.4648 19.2937 12.5078 19.25 12.5508 19.25C12.5938 19.2063 12.6797 19.25 12.7227 19.25C12.7656 19.25 12.7656 19.2937 12.8086 19.2937C12.8086 19.2937 12.8516 19.3375 12.8516 19.3812V19.5563C12.8516 19.6 12.8086 19.6 12.8086 19.6438C12.8086 19.6438 12.7656 19.6875 12.7227 19.6875H12.6367ZM12.6367 21H12.5508C12.5078 21 12.5078 20.9563 12.4648 20.9563C12.4648 20.9563 12.4219 20.9125 12.4219 20.8687V20.7812V20.6937C12.4219 20.65 12.4648 20.65 12.4648 20.6062C12.4648 20.6062 12.5078 20.5625 12.5508 20.5625C12.5938 20.5625 12.6797 20.5188 12.7227 20.5625C12.7656 20.5625 12.7656 20.6062 12.8086 20.6062C12.8516 20.65 12.8945 20.6938 12.8945 20.7812V20.8687C12.8945 20.9125 12.8516 20.9125 12.8516 20.9563C12.7656 21 12.6797 21 12.6367 21Z" fill="white"/>
<path d="M16.5039 19.25H16.418C16.332 19.2063 16.2891 19.1187 16.2891 19.0312V12.0312C16.2891 10.9375 17.1484 10.0625 18.2227 10.0625H25.0977C26.1719 10.0625 27.0312 10.9375 27.0312 12.0312V15.5312C27.0312 16.625 26.1719 17.5 25.0977 17.5H18.6953L16.6758 19.2063C16.5898 19.25 16.5469 19.25 16.5039 19.25ZM18.2227 10.5C17.4062 10.5 16.7188 11.2 16.7188 12.0312V18.55L18.4805 17.1062C18.5234 17.0625 18.5664 17.0625 18.6094 17.0625H25.0977C25.9141 17.0625 26.6016 16.3625 26.6016 15.5312V12.0312C26.6016 11.2 25.9141 10.5 25.0977 10.5H18.2227Z" fill="white"/>
<path d="M18.2227 24.0625C18.1797 24.0625 18.1367 24.0625 18.1367 24.0188C18.0508 23.975 18.0078 23.8875 18.0078 23.8438V19.9062C18.0078 19.2938 18.4805 18.8125 19.082 18.8125H22.5195C23.1211 18.8125 23.5938 19.2938 23.5938 19.9062V22.0938C23.5938 22.7063 23.1211 23.1875 22.5195 23.1875H19.5977L18.3516 24.0188C18.3086 24.0625 18.2656 24.0625 18.2227 24.0625ZM19.082 19.25C18.7383 19.25 18.4375 19.5562 18.4375 19.9062V23.45L19.3828 22.7937C19.4258 22.75 19.4688 22.75 19.5117 22.75H22.5195C22.8633 22.75 23.1641 22.4437 23.1641 22.0938V19.9062C23.1641 19.5562 22.8633 19.25 22.5195 19.25H19.082ZM15.2148 23.1875C15.1719 23.1875 15.1289 23.1875 15.0859 23.1438L14.0547 22.3125H12.207C11.6055 22.3125 11.1328 21.8312 11.1328 21.2188V19.0312C11.1328 18.4188 11.6055 17.9375 12.207 17.9375H14.3555C14.957 17.9375 15.4297 18.4188 15.4297 19.0312V22.9688C15.4297 23.0563 15.3867 23.1438 15.3008 23.1875H15.2148ZM12.207 18.375C11.8633 18.375 11.5625 18.6812 11.5625 19.0312V21.2188C11.5625 21.5687 11.8633 21.875 12.207 21.875H14.1406C14.1836 21.875 14.2266 21.875 14.2695 21.9187L15 22.4875V18.9875C15 18.6375 14.6992 18.3313 14.3555 18.3313H12.207V18.375Z" fill="white"/>
<path d="M13.7109 21H13.4961C13.3672 21 13.2812 20.9125 13.2812 20.7812C13.2812 20.65 13.3672 20.5625 13.4961 20.5625H13.7109C13.9688 20.5625 14.1406 20.3875 14.1406 20.125C14.1406 19.8625 13.9688 19.6875 13.7109 19.6875H13.4961C13.3672 19.6875 13.2812 19.6 13.2812 19.4688C13.2812 19.3375 13.3672 19.25 13.4961 19.25H13.7109C14.1836 19.25 14.5703 19.6437 14.5703 20.125C14.5703 20.6063 14.1836 21 13.7109 21Z" fill="white"/>
</g>
<defs>
<clipPath id="clip0_1048_3031">
<path d="M0 14C0 6.26801 6.26801 0 14 0H25V28H14C6.26801 28 0 21.732 0 14Z" fill="white"/>
</clipPath>
</defs>
</svg>
