<svg width="17" height="18" viewBox="0 0 17 18" fill="none" xmlns="http://www.w3.org/2000/svg">
<path fill-rule="evenodd" clip-rule="evenodd" d="M8.49995 0.095459C4.90795 0.095459 1.97498 3.03378 1.97498 6.62518V9.00125C1.97498 10.8275 1.25955 12.3712 0.970404 12.9495C0.389747 14.1132 1.26726 15.5262 2.56632 15.5262H5.5931C5.86859 16.8787 7.07146 17.9047 8.50233 17.9047C9.93319 17.9047 11.1361 16.8787 11.4115 15.5262H14.4383C15.7374 15.5262 16.609 14.1108 16.0295 12.9495C15.7421 12.3736 15.0309 10.8281 15.0309 9.00125V6.62518C15.0309 3.03318 12.092 0.095459 8.49995 0.095459ZM8.49995 1.27815C11.4448 1.27815 13.847 3.67974 13.847 6.62518V9.00125C13.847 11.1327 14.6556 12.8557 14.9691 13.4838C15.1769 13.9006 14.9032 14.3435 14.4383 14.3435H2.56632C2.09788 14.3435 1.82298 13.9024 2.03197 13.4844C2.34486 12.8569 3.15767 11.1333 3.15767 9.00125V6.62518C3.15767 3.67915 5.55451 1.27815 8.49995 1.27815ZM8.49995 2.46559C6.20819 2.46559 4.3451 4.33283 4.3451 6.62518C4.3451 6.78265 4.40766 6.93366 4.519 7.045C4.63034 7.15635 4.78136 7.2189 4.93882 7.2189C5.09629 7.2189 5.2473 7.15635 5.35865 7.045C5.46999 6.93366 5.53254 6.78265 5.53254 6.62518C5.52978 6.23456 5.60463 5.84728 5.75273 5.48581C5.90084 5.12434 6.11926 4.79589 6.39531 4.5195C6.67136 4.24312 6.99955 4.02431 7.36084 3.87577C7.72213 3.72723 8.10932 3.65192 8.49995 3.65421C8.65757 3.65421 8.80874 3.5916 8.92019 3.48014C9.03165 3.36869 9.09426 3.21752 9.09426 3.0599C9.09426 2.90228 9.03165 2.75111 8.92019 2.63966C8.80874 2.5282 8.65757 2.46559 8.49995 2.46559ZM4.94001 8.40515C4.78255 8.40515 4.63153 8.4677 4.52019 8.57905C4.40884 8.69039 4.34629 8.84141 4.34629 8.99887C4.34629 9.15633 4.40884 9.30735 4.52019 9.41869C4.63153 9.53004 4.78255 9.59259 4.94001 9.59259C5.09747 9.59259 5.24849 9.53004 5.35983 9.41869C5.47118 9.30735 5.53373 9.15633 5.53373 8.99887C5.53373 8.84141 5.47118 8.69039 5.35983 8.57905C5.24849 8.4677 5.09747 8.40515 4.94001 8.40515ZM6.82804 15.5262H10.1766C10.0567 15.8746 9.83078 16.1768 9.53054 16.3903C9.2303 16.6039 8.87078 16.7182 8.50233 16.7172C8.13387 16.7182 7.77435 16.6039 7.47411 16.3903C7.17387 16.1768 6.94796 15.8746 6.82804 15.5262Z" fill="#383838"/>
</svg>
