<svg width="26" height="28" viewBox="0 0 26 28" fill="none" xmlns="http://www.w3.org/2000/svg">
<path d="M7.11086 8.34742C7.08044 8.30868 7.04285 8.2762 7.00022 8.25182C6.95759 8.22745 6.91077 8.21165 6.86243 8.20535C6.81409 8.19904 6.76518 8.20234 6.71849 8.21507C6.6718 8.22779 6.62825 8.24969 6.59032 8.27951L5.89527 7.3949C5.52659 6.92567 4.99041 6.61914 4.40469 6.54273C3.81897 6.46631 3.23168 6.62628 2.77201 6.98745C2.31235 7.34861 2.01797 7.88138 1.95364 8.46855C1.8893 9.05572 2.06028 9.6492 2.42896 10.1184L3.12401 11.003C3.0474 11.0632 2.99833 11.152 2.98761 11.2499C2.97689 11.3477 3.00538 11.4467 3.06683 11.5249C3.12828 11.6031 3.21764 11.6542 3.31526 11.6669C3.41288 11.6796 3.51076 11.653 3.58737 11.5928L4.5141 12.7723C4.43749 12.8324 4.38843 12.9212 4.37771 13.0191C4.36699 13.117 4.39548 13.2159 4.45693 13.2941C4.51837 13.3723 4.60774 13.4234 4.70536 13.4361C4.80298 13.4488 4.90086 13.4222 4.97747 13.362L13.0864 23.6824C13.1217 23.7223 13.1628 23.7566 13.2083 23.7841L17.2011 25.8929C17.2645 25.9264 17.3358 25.941 17.4065 25.935C17.4772 25.929 17.5443 25.9027 17.5997 25.8591C17.6552 25.8155 17.6966 25.7566 17.7192 25.6893C17.7417 25.6221 17.7444 25.5493 17.7269 25.4797L16.6227 21.1014C16.6065 21.0508 16.5829 21.0027 16.5527 20.9589L8.44378 10.6385C8.52039 10.5783 8.56946 10.4895 8.58018 10.3916C8.5909 10.2937 8.5624 10.1948 8.50096 10.1166C8.43951 10.0384 8.35015 9.98734 8.25253 9.9746C8.15491 9.96187 8.05703 9.98853 7.98042 10.0487L7.05368 8.86925C7.09163 8.83945 7.12321 8.80231 7.14662 8.75996C7.17003 8.7176 7.18481 8.67086 7.19012 8.6224C7.19543 8.57394 7.19116 8.52471 7.17756 8.47753C7.16396 8.43035 7.1413 8.38613 7.11086 8.34742ZM16.8081 24.8515L15.9898 24.4193C15.9812 24.3435 15.9919 24.2672 16.0208 24.1974C16.0496 24.1276 16.0958 24.0666 16.1549 24.0202C16.214 23.9737 16.2841 23.9433 16.3588 23.9318C16.4334 23.9203 16.5101 23.928 16.5818 23.9542L16.8081 24.8515ZM16.3872 23.1826C16.1334 23.1879 15.8896 23.2748 15.6915 23.4304C15.4934 23.5861 15.3513 23.8024 15.2861 24.0477L14.0556 23.3978L16.0468 21.8332L16.3872 23.1826ZM15.7433 21.1179L13.4324 22.9336L5.55519 12.9081L7.86606 11.0924L15.7433 21.1179ZM7.4027 10.5026L5.09182 12.3183L4.16509 11.1389L6.47596 9.32317L7.4027 10.5026ZM6.0126 8.73343L3.70172 10.5491L3.00668 9.66451C2.76089 9.35169 2.64691 8.95604 2.6898 8.56459C2.73269 8.17314 2.92894 7.81796 3.23538 7.57719C3.54182 7.33641 3.93335 7.22976 4.32383 7.2807C4.71431 7.33165 5.07176 7.536 5.31755 7.84882L6.0126 8.73343Z" fill="url(#paint0_linear_1485_2725)"/>
<path d="M21.6723 13.8617L20.9994 13.5372L13.1769 3.58133C12.9309 3.26887 12.5735 3.06479 12.1831 3.01386C11.7928 2.96294 11.4013 3.06933 11.0947 3.30969L10.517 3.76362L10.2853 3.46875C9.9781 3.07772 9.53128 2.82228 9.04318 2.7586C8.55508 2.69492 8.06567 2.82823 7.68262 3.1292C7.29957 3.43017 7.05425 3.87415 7.00064 4.36346C6.94703 4.85277 7.08951 5.34733 7.39674 5.73835L7.62842 6.03322C7.59048 6.06302 7.5589 6.10016 7.53549 6.14251C7.51208 6.18487 7.49729 6.23161 7.49198 6.28007C7.48667 6.32853 7.49094 6.37776 7.50454 6.42494C7.51814 6.47212 7.54081 6.51633 7.57124 6.55505L17.997 19.8242C17.9985 19.8261 18.0007 19.8268 18.0022 19.8287C18.0289 19.8604 18.0605 19.8876 18.0958 19.9091C18.1054 19.915 18.1144 19.9209 18.1243 19.9259C18.1318 19.9298 18.138 19.9354 18.1458 19.9387L21.5863 21.4195L21.9898 21.9329C22.0512 22.0111 22.1406 22.0622 22.2382 22.075C22.3358 22.0877 22.4337 22.061 22.5103 22.0008C22.5869 21.9407 22.636 21.8519 22.6467 21.754C22.6575 21.6561 22.629 21.5572 22.5675 21.479L22.1641 20.9655L21.5393 17.2724C21.5379 17.264 21.534 17.2566 21.532 17.2484C21.5295 17.2376 21.5259 17.2275 21.5224 17.2168C21.5099 17.1774 21.491 17.1402 21.4664 17.1068C21.465 17.1049 21.4648 17.1025 21.4633 17.1006L11.2692 4.12639L11.5581 3.89943C11.7114 3.77927 11.9071 3.72608 12.1023 3.75154C12.2975 3.777 12.4762 3.87903 12.5992 4.03525L20.4764 14.0608C20.5124 14.1066 20.5583 14.1436 20.6105 14.1688L21.3627 14.5315C21.4519 14.5743 21.5536 14.5801 21.6456 14.5476C21.7375 14.5152 21.8122 14.4472 21.8531 14.3585C21.8941 14.2698 21.8981 14.1677 21.8642 14.0746C21.8303 13.9814 21.7613 13.9049 21.6723 13.8617ZM7.97446 5.28443C7.79012 5.04982 7.70463 4.75308 7.7368 4.45949C7.76896 4.16591 7.91615 3.89952 8.14598 3.71894C8.37581 3.53836 8.66946 3.45837 8.96232 3.49658C9.25518 3.53479 9.52327 3.68805 9.70761 3.92267L9.93929 4.21754L8.20614 5.5793L7.97446 5.28443ZM21.3381 20.5089L19.0085 19.5063L20.9151 18.0082L21.3381 20.5089ZM20.6539 17.2597L18.343 19.0754L17.4163 17.8959L19.7272 16.0802L20.6539 17.2597ZM19.2638 15.4905L16.9529 17.3062L14.1727 13.7677L16.4836 11.952L19.2638 15.4905ZM16.0202 11.3623L13.7094 13.178L8.38065 6.396L10.6915 4.58031L16.0202 11.3623Z" fill="url(#paint1_linear_1485_2725)"/>
<path d="M12.0847 8.73155C12.1226 8.70175 12.1542 8.66462 12.1776 8.62226C12.201 8.57991 12.2158 8.53317 12.2211 8.48471C12.2264 8.43625 12.2222 8.38702 12.2086 8.33984C12.195 8.29265 12.1723 8.24844 12.1419 8.20972L10.5201 6.14564C10.4586 6.06743 10.3693 6.01634 10.2717 6.00361C10.174 5.99087 10.0762 6.01753 9.99955 6.07773C9.92294 6.13792 9.87388 6.22672 9.86316 6.32458C9.85243 6.42244 9.88093 6.52135 9.94238 6.59956L11.5642 8.66364C11.5946 8.70238 11.6322 8.73486 11.6748 8.75924C11.7174 8.78361 11.7642 8.79941 11.8126 8.80571C11.8609 8.81202 11.9098 8.80871 11.9565 8.79599C12.0032 8.78327 12.0468 8.76137 12.0847 8.73155Z" fill="url(#paint2_linear_1485_2725)"/>
<path d="M13.2429 10.206C13.4025 10.0807 13.4281 9.84706 13.3001 9.68421C13.1722 9.52136 12.9391 9.49095 12.7796 9.6163C12.62 9.74165 12.5945 9.97528 12.7224 10.1381C12.8504 10.301 13.0834 10.3314 13.2429 10.206Z" fill="url(#paint3_linear_1485_2725)"/>
<defs>
<linearGradient id="paint0_linear_1485_2725" x1="2.77201" y1="6.98745" x2="17.5997" y2="25.8591" gradientUnits="userSpaceOnUse">
<stop stop-color="#042A4F"/>
<stop offset="1" stop-color="#3B82F6"/>
</linearGradient>
<linearGradient id="paint1_linear_1485_2725" x1="8.54906" y1="2.44843" x2="23.3768" y2="21.3201" gradientUnits="userSpaceOnUse">
<stop stop-color="#042A4F"/>
<stop offset="1" stop-color="#3B82F6"/>
</linearGradient>
<linearGradient id="paint2_linear_1485_2725" x1="9.99955" y1="6.07773" x2="12.0847" y2="8.73155" gradientUnits="userSpaceOnUse">
<stop stop-color="#042A4F"/>
<stop offset="1" stop-color="#3B82F6"/>
</linearGradient>
<linearGradient id="paint3_linear_1485_2725" x1="12.7796" y1="9.6163" x2="13.2429" y2="10.206" gradientUnits="userSpaceOnUse">
<stop stop-color="#042A4F"/>
<stop offset="1" stop-color="#3B82F6"/>
</linearGradient>
</defs>
</svg>
