<svg width="42" height="42" viewBox="0 0 42 42" fill="none" xmlns="http://www.w3.org/2000/svg">
<path d="M4.6 8.41484H0.5V37.1148C0.5 39.3698 2.345 41.2148 4.6 41.2148H33.3V37.1148H4.6V8.41484ZM37.4 0.214844H12.8C10.545 0.214844 8.7 2.05984 8.7 4.31484V28.9148C8.7 31.1698 10.545 33.0148 12.8 33.0148H37.4C39.655 33.0148 41.5 31.1698 41.5 28.9148V4.31484C41.5 2.05984 39.655 0.214844 37.4 0.214844ZM37.4 28.9148H12.8V4.31484H37.4V28.9148ZM24.0955 16.9428C24.936 15.4463 26.5145 14.5648 27.437 13.2528C28.421 11.8588 27.8675 9.27584 25.1 9.27584C23.296 9.27584 22.394 10.6493 22.025 11.7973L19.2165 10.6288C19.9955 8.33284 22.066 6.36484 25.0795 6.36484C27.601 6.36484 29.3435 7.51284 30.225 8.94784C30.9835 10.1778 31.414 12.4943 30.2455 14.2163C28.954 16.1228 27.724 16.6968 27.0475 17.9268C26.781 18.4188 26.6785 18.7468 26.6785 20.3458H23.5625C23.583 19.5053 23.4395 18.1318 24.0955 16.9428ZM22.9475 24.7123C22.9475 23.5028 23.911 22.5803 25.1 22.5803C26.3095 22.5803 27.232 23.5028 27.232 24.7123C27.232 25.9013 26.33 26.8648 25.1 26.8648C23.911 26.8648 22.9475 25.9013 22.9475 24.7123Z" fill="url(#paint0_linear_352_1584)"/>
<defs>
<linearGradient id="paint0_linear_352_1584" x1="21" y1="0.214844" x2="21" y2="41.2148" gradientUnits="userSpaceOnUse">
<stop stop-color="#042A4F"/>
<stop offset="1" stop-color="#3B82F6"/>
</linearGradient>
</defs>
</svg>
