<svg width="37" height="37" viewBox="0 0 37 37" fill="none" xmlns="http://www.w3.org/2000/svg">
<path d="M33.7984 8.30039H26.1484V3.20039C26.1484 1.79789 25.0009 0.650391 23.5984 0.650391H13.3984C11.9959 0.650391 10.8484 1.79789 10.8484 3.20039V8.30039H3.19844C1.79594 8.30039 0.648438 9.44789 0.648438 10.8504V33.8004C0.648438 35.2029 1.79594 36.3504 3.19844 36.3504H33.7984C35.2009 36.3504 36.3484 35.2029 36.3484 33.8004V10.8504C36.3484 9.44789 35.2009 8.30039 33.7984 8.30039ZM13.3984 3.20039H23.5984V8.30039H13.3984V3.20039ZM33.7984 33.8004H3.19844V10.8504H33.7984V33.8004Z" fill="url(#paint0_linear_352_1617)"/>
<path d="M19.775 15.9512H17.225V21.0512H12.125V23.6012H17.225V28.7012H19.775V23.6012H24.875V21.0512H19.775V15.9512Z" fill="url(#paint1_linear_352_1617)"/>
<defs>
<linearGradient id="paint0_linear_352_1617" x1="18.4984" y1="0.650391" x2="18.4984" y2="36.3504" gradientUnits="userSpaceOnUse">
<stop stop-color="#042A4F"/>
<stop offset="1" stop-color="#3B82F6"/>
</linearGradient>
<linearGradient id="paint1_linear_352_1617" x1="18.5" y1="15.9512" x2="18.5" y2="28.7012" gradientUnits="userSpaceOnUse">
<stop stop-color="#042A4F"/>
<stop offset="1" stop-color="#3B82F6"/>
</linearGradient>
</defs>
</svg>
