<svg width="52" height="46" viewBox="0 0 52 46" fill="none" xmlns="http://www.w3.org/2000/svg">
<path d="M26 45.2148C24.1455 43.7533 22.1364 42.6187 19.9727 41.811C17.8091 41.0033 15.5682 40.5995 13.25 40.5995C11.6273 40.5995 10.0335 40.811 8.46875 41.2341C6.90398 41.6572 5.40682 42.2533 3.97727 43.0225C3.16591 43.4456 2.38352 43.4264 1.63011 42.9648C0.876705 42.5033 0.5 41.8302 0.5 40.9456V13.1379C0.5 12.7148 0.60625 12.311 0.81875 11.9264C1.03125 11.5418 1.35 11.2533 1.775 11.061C3.55227 10.1379 5.40682 9.44561 7.33864 8.98407C9.27045 8.52254 11.2409 8.29177 13.25 8.29177C15.4909 8.29177 17.6835 8.58023 19.8278 9.15715C21.9722 9.73407 24.0295 10.5995 26 11.7533V39.6764C27.9705 38.4456 30.0375 37.5225 32.2011 36.9072C34.3648 36.2918 36.5477 35.9841 38.75 35.9841C40.1409 35.9841 41.5028 36.0995 42.8358 36.3302C44.1688 36.561 45.5114 36.9072 46.8636 37.3687V9.67638C47.4432 9.86869 48.0131 10.0706 48.5733 10.2822C49.1335 10.4937 49.6841 10.7533 50.225 11.061C50.65 11.2533 50.9687 11.5418 51.1812 11.9264C51.3937 12.311 51.5 12.7148 51.5 13.1379V40.9456C51.5 41.8302 51.1233 42.5033 50.3699 42.9648C49.6165 43.4264 48.8341 43.4456 48.0227 43.0225C46.5932 42.2533 45.096 41.6572 43.5312 41.2341C41.9665 40.811 40.3727 40.5995 38.75 40.5995C36.4318 40.5995 34.1909 41.0033 32.0273 41.811C29.8636 42.6187 27.8545 43.7533 26 45.2148ZM30.6364 33.6764V11.7533L42.2273 0.214844V23.2918L30.6364 33.6764ZM21.3636 37.4264V14.5802C20.0886 14.0418 18.7653 13.6283 17.3937 13.3398C16.0222 13.0514 14.6409 12.9072 13.25 12.9072C11.8205 12.9072 10.4295 13.0418 9.07727 13.311C7.725 13.5802 6.41136 13.9841 5.13636 14.5225V37.4264C6.48864 36.9264 7.83125 36.561 9.1642 36.3302C10.4972 36.0995 11.8591 35.9841 13.25 35.9841C14.6409 35.9841 16.0028 36.0995 17.3358 36.3302C18.6687 36.561 20.0114 36.9264 21.3636 37.4264Z" fill="url(#paint0_linear_352_1580)"/>
<defs>
<linearGradient id="paint0_linear_352_1580" x1="26" y1="0.214844" x2="26" y2="45.2148" gradientUnits="userSpaceOnUse">
<stop stop-color="#042A4F"/>
<stop offset="1" stop-color="#3B82F6"/>
</linearGradient>
</defs>
</svg>
