<svg width="20" height="19" viewBox="0 0 20 19" fill="none" xmlns="http://www.w3.org/2000/svg">
<g clip-path="url(#clip0_736_1609)">
<path d="M5.28799 1.29199L1.39728 2.37532L1.28906 2.34234V10.2187C1.28906 10.2187 1.55174 11.2204 3.123 10.9835L7.82605 8.74453V0.868164L5.28799 1.29199Z" fill="black"/>
<path d="M2.6672 11.2208C1.35623 11.2208 1.10171 10.3079 1.09156 10.269C1.08718 10.2526 1.08497 10.2357 1.08496 10.2187V2.34236C1.08494 2.31086 1.09244 2.2798 1.10684 2.25169C1.12124 2.22357 1.14215 2.19918 1.16787 2.18049C1.22011 2.1424 1.28708 2.1318 1.34946 2.15024L1.39987 2.16558L5.23258 1.09837L7.79199 0.669805C7.82127 0.664928 7.85127 0.666406 7.87991 0.674138C7.90855 0.68187 7.93513 0.695668 7.95779 0.71457C7.98047 0.733438 7.99869 0.756959 8.01119 0.783489C8.02368 0.810018 8.03015 0.838916 8.03013 0.868163V8.74454C8.03013 8.82154 7.9853 8.89225 7.91474 8.92562L3.21169 11.1646C3.19341 11.1732 3.17393 11.1792 3.15389 11.1823C2.98409 11.2078 2.82047 11.2208 2.6672 11.2208ZM1.49314 10.1881C1.5332 10.2981 1.76938 10.8185 2.6672 10.8185C2.79096 10.8185 2.92371 10.8087 3.06223 10.7891L7.62197 8.61849V1.10623L5.32207 1.49038L1.49314 2.55759V10.1881Z" fill="#383838"/>
<path d="M7.82605 0.868009L3.123 3.10656C1.35463 3.41687 1.28906 2.3422 1.28906 2.3422L5.92255 0.201416C5.92255 0.201416 6.26116 0.909241 7.82605 0.868009Z" fill="white"/>
<path d="M2.53163 3.36391C1.16246 3.3643 1.08593 2.36423 1.08533 2.35442C1.08287 2.3142 1.09269 2.27417 1.11355 2.23951C1.1344 2.20485 1.16533 2.17714 1.20232 2.15998L5.83579 0.0192357C5.86002 0.0079405 5.88628 0.00147993 5.91306 0.000225867C5.93984 -0.00102819 5.9666 0.00294902 5.99181 0.0119286C6.01702 0.0209081 6.04018 0.0347127 6.05996 0.0525476C6.07973 0.0703826 6.09573 0.0918957 6.10704 0.115849C6.10844 0.11782 6.41357 0.668539 7.69605 0.668539L7.8206 0.666959C7.92066 0.667739 8.00159 0.728232 8.0243 0.820532C8.03536 0.865249 8.0305 0.912349 8.01055 0.953961C7.99059 0.995573 7.95675 1.02918 7.91468 1.04916L3.21165 3.28769C3.19492 3.29555 3.17718 3.30144 3.15884 3.30459C2.93442 3.34385 2.72337 3.36389 2.53165 3.36389L2.53163 3.36391ZM1.523 2.45614C1.59195 2.64273 1.81456 2.96167 2.53165 2.96167C2.69187 2.96167 2.86925 2.94557 3.05979 2.91337L7.03759 1.02008C6.36236 0.907759 6.01658 0.63357 5.85674 0.454063L1.523 2.45614Z" fill="black"/>
<path d="M3.12302 11.058C3.09622 11.058 3.06968 11.0529 3.04491 11.0428C3.02014 11.0326 2.99764 11.0178 2.97868 10.9992C2.95973 10.9805 2.9447 10.9583 2.93445 10.9339C2.9242 10.9095 2.91893 10.8833 2.91895 10.8569V3.10663C2.91893 3.08021 2.9242 3.05405 2.93445 3.02965C2.9447 3.00524 2.95973 2.98306 2.97868 2.96439C2.99764 2.94571 3.02014 2.9309 3.04491 2.92079C3.06968 2.91069 3.09622 2.9055 3.12302 2.90552C3.14983 2.9055 3.17638 2.91069 3.20115 2.92079C3.22592 2.93089 3.24842 2.9457 3.26738 2.96438C3.28633 2.98306 3.30137 3.00524 3.31162 3.02964C3.32187 3.05405 3.32714 3.08021 3.32712 3.10663V10.8569C3.32714 10.8833 3.32187 10.9095 3.31162 10.9339C3.30137 10.9583 3.28633 10.9805 3.26738 10.9992C3.24842 11.0178 3.22592 11.0327 3.20115 11.0428C3.17638 11.0529 3.14983 11.058 3.12302 11.058Z" fill="black"/>
<path d="M7.94248 2.46095L4.05179 3.54387L3.94397 3.5105V11.3877C3.94397 11.3877 4.20664 12.3893 5.77771 12.152L10.4804 9.91348V2.03711L7.94248 2.46095Z" fill="white"/>
<path d="M5.32131 12.3896C4.01092 12.3896 3.7566 11.4767 3.74646 11.4378C3.74209 11.4214 3.73987 11.4045 3.73987 11.3876V3.51043C3.73987 3.44639 3.77076 3.38628 3.82318 3.34819C3.84909 3.32967 3.87904 3.31736 3.91063 3.31225C3.94222 3.30713 3.97459 3.30935 4.00516 3.31873L4.05496 3.33405L7.88708 2.26722L10.4463 1.83868C10.4756 1.83362 10.5056 1.835 10.5343 1.84274C10.563 1.85048 10.5895 1.86438 10.6121 1.88345C10.6348 1.90231 10.653 1.92583 10.6655 1.95236C10.678 1.97888 10.6844 2.00778 10.6844 2.03702V9.91341C10.6844 9.99041 10.6396 10.0611 10.569 10.0945L5.8664 12.333C5.84811 12.3417 5.82863 12.3476 5.80858 12.3507C5.6386 12.3763 5.47478 12.3896 5.32131 12.3896ZM4.14805 11.3569C4.18789 11.4669 4.42409 11.9874 5.32131 11.9874C5.44527 11.9874 5.5782 11.9772 5.71692 11.9575L10.2763 9.78733V2.27507L7.97656 2.65922L4.14805 3.72606V11.3569Z" fill="black"/>
<path d="M10.4804 2.03695L5.77773 4.27548C4.00936 4.58581 3.94397 3.51035 3.94397 3.51035L8.57708 1.37036C8.57708 1.37036 8.91569 2.07899 10.4804 2.03695Z" fill="white"/>
<path d="M5.18676 4.53278C3.81737 4.53278 3.74085 3.53233 3.74024 3.52253C3.73777 3.48231 3.7476 3.44228 3.76846 3.40762C3.78931 3.37296 3.82024 3.34526 3.85723 3.3281L8.49034 1.18811C8.53932 1.16556 8.59538 1.16306 8.64623 1.18118C8.69708 1.19929 8.73856 1.23654 8.76159 1.28474C8.76297 1.28671 9.06771 1.83782 10.3482 1.83782L10.4748 1.83585C10.5782 1.84093 10.6561 1.89752 10.6787 1.98943C10.6897 2.03414 10.6848 2.08124 10.6649 2.12285C10.6449 2.16446 10.6111 2.19806 10.569 2.21803L5.86638 4.4566C5.84963 4.46456 5.83186 4.47023 5.81357 4.47348C5.58915 4.51276 5.37828 4.5328 5.18676 4.5328V4.53278ZM4.1779 3.62424C4.24666 3.81122 4.46929 4.13056 5.18676 4.13056C5.34679 4.13056 5.52418 4.11446 5.71448 4.08225L9.69151 2.18898C9.01668 2.07664 8.67111 1.80245 8.51105 1.62296L4.1779 3.62422V3.62424Z" fill="black"/>
<path d="M5.77769 12.2278C5.75088 12.2278 5.72434 12.2226 5.69957 12.2125C5.6748 12.2024 5.65229 12.1876 5.63334 12.1689C5.61439 12.1502 5.59935 12.128 5.58911 12.1036C5.57886 12.0792 5.57359 12.053 5.57361 12.0266V4.27555C5.5736 4.24914 5.57887 4.22298 5.58912 4.19858C5.59937 4.17418 5.6144 4.152 5.63335 4.13333C5.65231 4.11465 5.67481 4.09984 5.69958 4.08974C5.72434 4.07964 5.75088 4.07445 5.77769 4.07446C5.80449 4.07444 5.83104 4.07963 5.85581 4.08973C5.88057 4.09983 5.90308 4.11464 5.92203 4.13332C5.94099 4.15199 5.95602 4.17417 5.96628 4.19857C5.97653 4.22298 5.9818 4.24914 5.98179 4.27555V12.0266C5.9818 12.0531 5.97653 12.0792 5.96628 12.1036C5.95603 12.128 5.941 12.1502 5.92204 12.1689C5.90309 12.1876 5.88058 12.2024 5.85581 12.2125C5.83104 12.2226 5.80449 12.2278 5.77769 12.2278Z" fill="black"/>
<path d="M10.8837 8.69897L9.03979 13.0763L13.314 14.6463L17.6726 13.0763L15.7446 8.69897H10.8837Z" fill="black"/>
<path d="M13.3139 14.8474C13.2898 14.8474 13.2657 14.8431 13.2426 14.8348L8.96842 13.2648C8.94272 13.2553 8.91923 13.2408 8.89934 13.2222C8.87944 13.2035 8.86355 13.1812 8.85261 13.1564C8.84169 13.1316 8.83594 13.1049 8.8357 13.0779C8.83546 13.0509 8.84074 13.0242 8.85123 12.9992L10.6951 8.62191C10.7106 8.58519 10.7368 8.55382 10.7703 8.53173C10.8039 8.50965 10.8433 8.49784 10.8837 8.4978H15.7446C15.8259 8.4978 15.8994 8.54532 15.9317 8.61879L17.8597 12.9961C17.8708 13.0213 17.8766 13.0484 17.8767 13.0758C17.8767 13.1032 17.8711 13.1304 17.8601 13.1556C17.838 13.2066 17.7954 13.2459 17.7428 13.2652L13.3841 14.8352C13.3616 14.8433 13.3379 14.8474 13.3139 14.8474L13.3139 14.8474ZM9.30941 12.9608L13.3145 14.4318L17.3991 12.9608L15.6106 8.90004H11.02L9.30941 12.9608Z" fill="black"/>
<path d="M13.314 14.8474C13.2872 14.8474 13.2606 14.8422 13.2358 14.8321C13.2111 14.822 13.1886 14.8072 13.1696 14.7885C13.1507 14.7698 13.1356 14.7477 13.1254 14.7233C13.1151 14.6989 13.1099 14.6727 13.1099 14.6463V8.86468C13.1098 8.83827 13.1151 8.81211 13.1254 8.7877C13.1356 8.76329 13.1507 8.74111 13.1696 8.72244C13.1886 8.70376 13.2111 8.68895 13.2358 8.67885C13.2606 8.66875 13.2872 8.66356 13.314 8.66357C13.3408 8.66356 13.3673 8.66875 13.3921 8.67886C13.4168 8.68896 13.4393 8.70377 13.4583 8.72245C13.4772 8.74113 13.4923 8.7633 13.5025 8.78771C13.5128 8.81211 13.518 8.83827 13.518 8.86468V14.6463C13.518 14.6727 13.5128 14.6988 13.5025 14.7233C13.4923 14.7477 13.4772 14.7698 13.4583 14.7885C13.4393 14.8072 13.4168 14.822 13.3921 14.8321C13.3673 14.8422 13.3408 14.8474 13.314 14.8474Z" fill="black"/>
<path d="M7.29553 8.23103L13.2725 6.00269L19.2491 8.23103L13.2725 10.4586L7.29553 8.23103Z" fill="black"/>
<path d="M13.2725 10.6596C13.2478 10.6596 13.2234 10.6552 13.2003 10.6467L7.22335 8.41913C7.14403 8.38966 7.09143 8.31465 7.09143 8.23097C7.09143 8.1473 7.14385 8.07229 7.22335 8.04282L13.2003 5.81448C13.2468 5.79719 13.2981 5.79719 13.3446 5.81448L19.3212 8.04282C19.4005 8.07229 19.4531 8.1473 19.4531 8.23097C19.4531 8.31465 19.4005 8.38966 19.3212 8.41913L13.3446 10.6466C13.3216 10.6552 13.2971 10.6596 13.2725 10.6596V10.6596ZM7.87228 8.23095L13.2725 10.2437L18.6723 8.23095L13.2725 6.21748L7.87228 8.23095Z" fill="black"/>
<path d="M19.1255 10.9375C19.0987 10.9375 19.0722 10.9323 19.0474 10.9222C19.0227 10.9121 19.0002 10.8973 18.9812 10.8786C18.9622 10.8599 18.9472 10.8378 18.937 10.8134C18.9267 10.789 18.9214 10.7628 18.9215 10.7364V8.43225H13.2582C13.2314 8.43227 13.2048 8.42708 13.1801 8.41698C13.1553 8.40688 13.1328 8.39206 13.1138 8.37339C13.0949 8.35471 13.0798 8.33253 13.0696 8.30812C13.0593 8.28372 13.0541 8.25756 13.0541 8.23114C13.0541 8.20472 13.0593 8.17856 13.0696 8.15415C13.0798 8.12975 13.0949 8.10757 13.1138 8.08889C13.1328 8.07021 13.1553 8.0554 13.1801 8.0453C13.2048 8.0352 13.2314 8.03001 13.2582 8.03003H19.1256C19.1524 8.03002 19.1789 8.03521 19.2037 8.04531C19.2284 8.05541 19.2509 8.07023 19.2699 8.08891C19.2888 8.10758 19.3039 8.12976 19.3141 8.15416C19.3244 8.17857 19.3296 8.20473 19.3296 8.23114V10.7364C19.3296 10.7628 19.3244 10.789 19.3141 10.8134C19.3039 10.8378 19.2888 10.8599 19.2699 10.8786C19.2509 10.8973 19.2284 10.9121 19.2037 10.9222C19.1789 10.9323 19.1524 10.9375 19.1256 10.9375H19.1255Z" fill="black"/>
<path d="M19.1255 10.6809L18.5667 11.8927L19.2375 13.0487L19.7959 11.8377L19.1255 10.6809Z" fill="white"/>
<path d="M19.2375 13.2499C19.2016 13.2499 19.1662 13.2406 19.1351 13.2228C19.104 13.205 19.0782 13.1794 19.0604 13.1486L18.3895 11.9926C18.3735 11.9649 18.3644 11.9339 18.3629 11.9021C18.3614 11.8703 18.3676 11.8386 18.3809 11.8096L18.9398 10.5978C18.9553 10.564 18.98 10.5352 19.0111 10.5145C19.0423 10.4938 19.0786 10.4819 19.1162 10.4803C19.1945 10.4705 19.2646 10.5157 19.3027 10.5813L19.9733 11.7381C19.9893 11.7658 19.9983 11.7968 19.9998 11.8286C20.0013 11.8604 19.9951 11.8921 19.9817 11.9211L19.4233 13.1321C19.4078 13.1659 19.3832 13.1947 19.3521 13.2154C19.321 13.2362 19.2846 13.248 19.2471 13.2496C19.2439 13.2499 19.2407 13.2499 19.2375 13.2499ZM18.7957 11.8822L19.2168 12.6077L19.5672 11.8484L19.1463 11.1221L18.7957 11.8822Z" fill="black"/>
<path d="M0.204102 14.6372V15.6466C0.204102 15.6466 2.02588 15.6093 3.45408 17.0713C3.45408 17.0713 5.58876 16.8545 7.49844 18.7989L11.5187 16.9676V15.8073L1.52824 14.4392L0.204102 14.6372Z" fill="#CCCCCC"/>
<path d="M7.49842 18.9999C7.47105 18.9999 7.44396 18.9945 7.41876 18.984C7.39356 18.9735 7.37077 18.958 7.35174 18.9386C5.86838 17.4283 4.27077 17.2653 3.65273 17.2653C3.54313 17.2653 3.47996 17.2708 3.47457 17.2712C3.41121 17.2787 3.35042 17.2551 3.30697 17.2107C2.01271 15.8858 0.396812 15.8477 0.216634 15.8477C0.10404 15.8477 0 15.7578 0 15.6466V14.6371C0 14.5377 0.0737426 14.4533 0.173386 14.4384L1.49754 14.2404C1.51704 14.2377 1.53681 14.2376 1.55634 14.24L11.5468 15.6081C11.5956 15.6147 11.6403 15.6386 11.6727 15.6752C11.705 15.7118 11.7228 15.7587 11.7228 15.8073V16.9676C11.7228 17.0462 11.6765 17.1173 11.6044 17.1502L7.58412 18.9815C7.55725 18.9937 7.528 19 7.49842 18.9999ZM3.65275 16.8631C4.30846 16.8631 5.97956 17.0304 7.54285 18.5569L11.3146 16.8391V15.9824L1.52943 14.6422L0.408158 14.8099V15.4537C0.951446 15.4922 2.35731 15.7051 3.53457 16.8651C3.56685 16.8639 3.60651 16.8631 3.65275 16.8631Z" fill="black"/>
<path d="M0.204102 14.6373C0.204102 14.6373 2.32285 14.609 3.45408 15.9681C3.45408 15.9681 5.45743 15.6739 7.48929 17.52L11.5131 15.7772C11.5131 15.7772 10.0742 14.1089 7.61881 14.1368C7.61881 14.1368 6.35866 12.8728 4.33678 12.8167L0.204102 14.6373Z" fill="white"/>
<path d="M7.48929 17.7211C7.43907 17.7211 7.38945 17.7026 7.351 17.6677C5.84507 16.2996 4.35014 16.1518 3.77735 16.1518C3.5968 16.1518 3.49135 16.166 3.48359 16.1672C3.41444 16.1762 3.34149 16.1499 3.29626 16.0957C2.26169 14.8524 0.297194 14.8383 0.214085 14.8383C0.117848 14.8383 0.0295307 14.772 0.00941186 14.6792C-0.0105089 14.5862 0.0329366 14.4923 0.120818 14.4538L4.25349 12.6332C4.28159 12.6206 4.3131 12.6155 4.34256 12.6155C6.18969 12.6669 7.41197 13.6729 7.70056 13.9353C10.1716 13.9447 11.6086 15.5772 11.6686 15.6467C11.6892 15.6706 11.7038 15.699 11.7114 15.7294C11.7189 15.7599 11.7192 15.7917 11.712 15.8223C11.7049 15.8528 11.6906 15.8812 11.6703 15.9054C11.65 15.9295 11.6243 15.9487 11.5953 15.9613L7.57141 17.7042C7.54552 17.7153 7.51756 17.7211 7.48929 17.7211ZM3.77735 15.7496C4.38541 15.7496 5.94991 15.9013 7.52816 17.2835L11.16 15.7103C10.7022 15.2889 9.47094 14.3375 7.67963 14.3375L7.62123 14.3379C7.55626 14.3226 7.51242 14.3171 7.47355 14.2778C7.46139 14.266 6.26102 13.09 4.37706 13.0193L1.00133 14.5064C1.73515 14.6231 2.80399 14.9338 3.5404 15.7574C3.599 15.7535 3.6789 15.7496 3.77735 15.7496Z" fill="black"/>
<path d="M3.4541 17.1875C3.42729 17.1875 3.40075 17.1823 3.37598 17.1722C3.35121 17.1621 3.3287 17.1473 3.30975 17.1287C3.29079 17.11 3.27576 17.0878 3.2655 17.0634C3.25525 17.039 3.24998 17.0128 3.25 16.9864V15.9679C3.25 15.8885 3.29745 15.8166 3.37099 15.7841L7.53574 13.9528C7.63877 13.9081 7.75915 13.9532 7.80519 14.0546C7.85123 14.1563 7.80499 14.2749 7.70194 14.3205L3.65818 16.0983V16.9864C3.65819 17.0128 3.65293 17.039 3.64268 17.0634C3.63243 17.0878 3.61739 17.11 3.59844 17.1286C3.57949 17.1473 3.55698 17.1621 3.53222 17.1722C3.50745 17.1823 3.4809 17.1875 3.4541 17.1875Z" fill="black"/>
<path d="M7.48924 18.8861C7.46243 18.8861 7.43589 18.8809 7.41112 18.8708C7.38635 18.8607 7.36385 18.8459 7.34489 18.8273C7.32594 18.8086 7.31091 18.7864 7.30066 18.762C7.29041 18.7376 7.28514 18.7114 7.28516 18.685V17.52C7.28514 17.4935 7.29041 17.4674 7.30066 17.443C7.31091 17.4186 7.32594 17.3964 7.34489 17.3777C7.36385 17.359 7.38635 17.3442 7.41112 17.3341C7.43589 17.324 7.46243 17.3188 7.48924 17.3188C7.51604 17.3188 7.54259 17.324 7.56736 17.3341C7.59213 17.3442 7.61463 17.359 7.63359 17.3777C7.65254 17.3964 7.66758 17.4186 7.67783 17.443C7.68808 17.4674 7.69335 17.4935 7.69333 17.52V18.685C7.69335 18.7114 7.68808 18.7376 7.67783 18.762C7.66758 18.7864 7.65254 18.8086 7.63359 18.8273C7.61463 18.8459 7.59213 18.8607 7.56736 18.8708C7.54259 18.8809 7.51604 18.8861 7.48924 18.8861Z" fill="black"/>
<path d="M11.8104 13.9511C11.8104 13.9511 11.5055 12.7908 11.3042 12.7908C11.1037 12.7908 10.8147 13.9503 10.8147 13.9503L11.303 14.5167L11.8104 13.9511Z" fill="white"/>
<rect width="2.106" height="2.35286" transform="matrix(0.934393 0.356244 -0.354522 0.935048 11.3605 11.6111)" fill="black"/>
</g>
<defs>
<clipPath id="clip0_736_1609">
<rect width="20" height="19" fill="white"/>
</clipPath>
</defs>
</svg>
