<svg width="10" height="10" viewBox="0 0 10 10" fill="none" xmlns="http://www.w3.org/2000/svg">
<path fill-rule="evenodd" clip-rule="evenodd" d="M7 2C7.375 2 7.375 1.99975 7.375 1.99949L7.375 1.99895L7.375 1.99776L7.37497 1.99494L7.37486 1.98763C7.37473 1.98202 7.37452 1.97495 7.37414 1.9665C7.37339 1.94963 7.372 1.92719 7.36941 1.89999C7.36424 1.84572 7.35424 1.77166 7.33482 1.68428C7.2962 1.51048 7.21875 1.27708 7.06202 1.04199C6.73397 0.54991 6.10924 0.125 5 0.125C3.89076 0.125 3.26604 0.54991 2.93798 1.04199C2.78126 1.27708 2.7038 1.51048 2.66518 1.68428C2.64576 1.77166 2.63577 1.84572 2.6306 1.89999C2.62801 1.92719 2.62661 1.94963 2.62586 1.9665C2.62549 1.97495 2.62527 1.98202 2.62515 1.98763L2.62503 1.99494L2.62501 1.99776L2.625 1.99895L2.625 1.99949C2.625 1.99975 2.625 2 3 2H1.91922C1.10025 2 0.401322 2.59208 0.266684 3.39991C0.118029 4.29184 0.70399 5.1408 1.59066 5.31813L4.60777 5.92155C4.86669 5.97334 5.13331 5.97334 5.39223 5.92155L8.40934 5.31813C9.29601 5.1408 9.88198 4.29184 9.73332 3.39991C9.59868 2.59208 8.89975 2 8.08078 2H7ZM6.62489 2H3.37511C3.37534 1.9949 3.3759 1.98491 3.37722 1.9711C3.37986 1.94334 3.38549 1.90022 3.39732 1.84697C3.4212 1.73952 3.46875 1.59792 3.56202 1.45801C3.73397 1.20009 4.10924 0.875 5 0.875C5.89076 0.875 6.26603 1.20009 6.43798 1.45801C6.53125 1.59792 6.5788 1.73952 6.60268 1.84697C6.61451 1.90022 6.62014 1.94334 6.62279 1.9711C6.6241 1.98491 6.62466 1.9949 6.62489 2Z" fill="#7A7A7A"/>
<path d="M0.733931 6.78916C0.64605 6.17399 1.20949 5.66583 1.81236 5.81654L4.34095 6.44869C4.50789 6.49043 4.625 6.64042 4.625 6.8125V7.5C4.625 7.7071 4.79289 7.875 5 7.875C5.20711 7.875 5.375 7.7071 5.375 7.5V6.8125C5.375 6.64042 5.49211 6.49043 5.65905 6.44869L8.18764 5.81654C8.79051 5.66583 9.35395 6.17399 9.26607 6.78916L9.11654 7.83587C8.94939 9.00591 7.94733 9.875 6.76541 9.875H3.23459C2.05267 9.875 1.05061 9.00591 0.883462 7.83587L0.733931 6.78916Z" fill="#7A7A7A"/>
</svg>
