<svg width="39" height="42" viewBox="0 0 39 42" fill="none" xmlns="http://www.w3.org/2000/svg">
<path fill-rule="evenodd" clip-rule="evenodd" d="M14.625 9.04167C12.8301 9.04167 11.375 10.5714 11.375 12.4583C11.375 14.3453 12.8301 15.875 14.625 15.875C16.4199 15.875 17.875 14.3453 17.875 12.4583C17.875 10.5714 16.4199 9.04167 14.625 9.04167ZM8.125 12.4583C8.125 8.68439 11.0352 5.625 14.625 5.625C18.2148 5.625 21.125 8.68439 21.125 12.4583C21.125 16.2323 18.2148 19.2917 14.625 19.2917C11.0352 19.2917 8.125 16.2323 8.125 12.4583ZM22.75 7.33333C22.75 6.38985 23.4775 5.625 24.375 5.625C27.9648 5.625 30.875 8.68439 30.875 12.4583C30.875 16.2323 27.9648 19.2917 24.375 19.2917C23.4775 19.2917 22.75 18.5268 22.75 17.5833C22.75 16.6398 23.4775 15.875 24.375 15.875C26.1699 15.875 27.625 14.3453 27.625 12.4583C27.625 10.5714 26.1699 9.04167 24.375 9.04167C23.4775 9.04167 22.75 8.27682 22.75 7.33333ZM29.2943 24.0206C29.5024 23.1028 30.3787 22.5361 31.2518 22.7549C33.1968 23.2422 34.7533 24.2047 35.8214 25.5868C36.8906 26.9704 37.375 28.6521 37.375 30.396V32.1044C37.375 34.4184 35.5953 36.3752 33.3423 36.3752H32.5C31.6025 36.3752 30.875 35.6103 30.875 34.6669C30.875 33.7234 31.6025 32.9585 32.5 32.9585H33.3423C33.7487 32.9585 34.125 32.5862 34.125 32.1044V30.396C34.125 29.3267 33.8354 28.4355 33.2989 27.7411C32.7611 27.0453 31.8801 26.4247 30.4982 26.0784C29.6252 25.8597 29.0862 24.9384 29.2943 24.0206ZM6.82191 24.2138C9.37882 23.162 12.4289 22.7083 14.625 22.7083C16.8211 22.7083 19.8712 23.162 22.4281 24.2138C23.7067 24.7398 24.9629 25.4561 25.923 26.4312C26.9068 27.4304 27.625 28.757 27.625 30.3958V32.1042C27.625 34.4182 25.8453 36.375 23.5923 36.375H5.65774C3.40469 36.375 1.625 34.4182 1.625 32.1042V30.3958C1.625 28.757 2.34323 27.4304 3.32699 26.4312C4.28707 25.4561 5.54334 24.7398 6.82191 24.2138ZM5.58512 28.8884C5.07083 29.4108 4.875 29.8992 4.875 30.3958V32.1042C4.875 32.586 5.25127 32.9583 5.65774 32.9583H23.5923C23.9987 32.9583 24.375 32.586 24.375 32.1042V30.3958C24.375 29.8992 24.1792 29.4108 23.6649 28.8884C23.1269 28.3421 22.3012 27.8305 21.2438 27.3956C19.1288 26.5255 16.4914 26.125 14.625 26.125C12.7586 26.125 10.1212 26.5255 8.00621 27.3956C6.94884 27.8305 6.12308 28.3421 5.58512 28.8884Z" fill="url(#paint0_linear_352_1622)"/>
<defs>
<linearGradient id="paint0_linear_352_1622" x1="19.5" y1="5.625" x2="19.5" y2="36.3752" gradientUnits="userSpaceOnUse">
<stop stop-color="#042A4F"/>
<stop offset="1" stop-color="#3B82F6"/>
</linearGradient>
</defs>
</svg>
