<svg width="12" height="13" viewBox="0 0 12 15" fill="none" xmlns="http://www.w3.org/2000/svg">
<path d="M8.5 4C8.5 5.38071 7.38071 6.5 6 6.5C4.61929 6.5 3.5 5.38071 3.5 4C3.5 2.61929 4.61929 1.5 6 1.5C7.38071 1.5 8.5 2.61929 8.5 4Z" fill="#7A7A7A"/>
<path d="M10 9.25C10 10.4926 8.20914 11.5 6 11.5C3.79086 11.5 2 10.4926 2 9.25C2 8.00736 3.79086 7 6 7C8.20914 7 10 8.00736 10 9.25Z" fill="#7A7A7A"/>
<path d="M8.70277 4.88358L9.64027 4.52055C9.71102 4.49315 9.78898 4.49315 9.85973 4.52055L10.7972 4.88358C10.9192 4.93081 11 5.05119 11 5.18571V6.09154C11 6.72717 10.224 7.26263 9.89486 7.46119C9.80529 7.51522 9.69626 7.51254 9.60876 7.45499C9.28169 7.23988 8.5 6.66571 8.5 6.09154L8.5 5.18571C8.5 5.05119 8.5808 4.93081 8.70277 4.88358Z" fill="#7A7A7A"/>
</svg>
