<svg width="12" height="13" viewBox="0 0 12 15" fill="none" xmlns="http://www.w3.org/2000/svg">
<path d="M6 6.5C7.38071 6.5 8.5 5.38071 8.5 4C8.5 2.61929 7.38071 1.5 6 1.5C4.61929 1.5 3.5 2.61929 3.5 4C3.5 5.38071 4.61929 6.5 6 6.5Z" fill="#7A7A7A"/>
<path fill-rule="evenodd" clip-rule="evenodd" d="M7.76543 6.40007C7.64117 6.18484 7.71491 5.90963 7.93014 5.78536L8.31986 5.56036C8.53509 5.4361 8.8103 5.50984 8.93457 5.72508C9.07476 5.9679 9.42524 5.9679 9.56543 5.72508C9.6897 5.50985 9.96491 5.4361 10.1801 5.56037L10.5699 5.78537C10.7851 5.90963 10.8588 6.18484 10.7346 6.40008C10.5944 6.6429 10.7696 6.94642 11.05 6.94642C11.2985 6.94642 11.5 7.1479 11.5 7.39642V7.84642C11.5 8.09495 11.2985 8.29642 11.05 8.29642C10.7696 8.29642 10.5944 8.59995 10.7346 8.84277C10.8588 9.058 10.7851 9.33321 10.5699 9.45748L10.1801 9.68248C9.96491 9.80674 9.6897 9.733 9.56543 9.51777C9.42524 9.27495 9.07476 9.27495 8.93457 9.51777C8.8103 9.733 8.53509 9.80674 8.31986 9.68248L7.93015 9.45748C7.71491 9.33322 7.64117 9.058 7.76543 8.84277C7.90563 8.59995 7.73038 8.29642 7.45 8.29642C7.20147 8.29642 7 8.09495 7 7.84642V7.39642C7 7.1479 7.20147 6.94642 7.45 6.94642C7.73038 6.94642 7.90562 6.6429 7.76543 6.40007ZM9.24991 8.48724C9.72784 8.48724 10.1153 8.09979 10.1153 7.62185C10.1153 7.14392 9.72784 6.75647 9.24991 6.75647C8.77197 6.75647 8.38452 7.14392 8.38452 7.62185C8.38452 8.09979 8.77197 8.48724 9.24991 8.48724Z" fill="#7A7A7A"/>
<path d="M6.625 7.39642C6.625 7.26685 6.65487 7.14425 6.7081 7.03515C6.47827 7.01205 6.24164 7 6 7C3.79086 7 2 8.00736 2 9.25C2 10.4926 3.79086 11.5 6 11.5C7.68618 11.5 9.12868 10.9131 9.71714 10.0827C9.5285 10.0259 9.35971 9.90183 9.25 9.72103C9.01798 10.1034 8.52165 10.232 8.13236 10.0072L7.74265 9.78224C7.35335 9.55748 7.21654 9.06336 7.43169 8.67122C6.98451 8.66149 6.625 8.29594 6.625 7.84642V7.39642Z" fill="#7A7A7A"/>
</svg>
