<svg width="12" height="13" viewBox="0 0 12 15" fill="none" xmlns="http://www.w3.org/2000/svg">
<path d="M8 4C8 5.38071 6.88071 6.5 5.5 6.5C4.11929 6.5 3 5.38071 3 4C3 2.61929 4.11929 1.5 5.5 1.5C6.88071 1.5 8 2.61929 8 4Z" fill="#7A7A7A"/>
<path d="M8.44194 4.94191C8.58839 4.79547 8.82583 4.79547 8.97227 4.94191L9.41421 5.38385L9.85616 4.94191C10.0026 4.79547 10.24 4.79547 10.3865 4.94191C10.5329 5.08836 10.5329 5.3258 10.3865 5.47224L9.94454 5.91418L10.3865 6.35613C10.5329 6.50257 10.5329 6.74001 10.3865 6.88646C10.24 7.0329 10.0026 7.0329 9.85616 6.88646L9.41421 6.44451L8.97227 6.88646C8.82583 7.0329 8.58839 7.0329 8.44194 6.88646C8.2955 6.74001 8.2955 6.50257 8.44194 6.35613L8.88388 5.91418L8.44194 5.47224C8.2955 5.3258 8.2955 5.08836 8.44194 4.94191Z" fill="#7A7A7A"/>
<path d="M5.5 11.5C7.70914 11.5 9.5 10.4926 9.5 9.25C9.5 8.00736 7.70914 7 5.5 7C3.29086 7 1.5 8.00736 1.5 9.25C1.5 10.4926 3.29086 11.5 5.5 11.5Z" fill="#7A7A7A"/>
</svg>
