<svg width="12" height="13" viewBox="0 0 12 15" fill="none" xmlns="http://www.w3.org/2000/svg">
<path d="M8.5 4C8.5 5.38071 7.38071 6.5 6 6.5C4.61929 6.5 3.5 5.38071 3.5 4C3.5 2.61929 4.61929 1.5 6 1.5C7.38071 1.5 8.5 2.61929 8.5 4Z" fill="#7A7A7A"/>
<path d="M10 9.25C10 10.4926 8.20914 11.5 6 11.5C3.79086 11.5 2 10.4926 2 9.25C2 8.00736 3.79086 7 6 7C8.20914 7 10 8.00736 10 9.25Z" fill="#7A7A7A"/>
<path d="M9.66245 7.71439C9.99697 7.52432 10.8535 6.98551 11 6.37764C11.1322 5.82876 10.7966 5.25845 10.2284 5.25026C10.2167 5.25009 10.2048 5.25 10.1927 5.25C10.016 5.25 9.85395 5.31684 9.73417 5.38543C9.67124 5.42147 9.61471 5.44482 9.54219 5.44482C9.46968 5.44482 9.38613 5.42147 9.32321 5.38543C9.20342 5.31684 9.04136 5.25 8.86466 5.25C8.85258 5.25 8.84068 5.25009 8.82895 5.25026C8.26075 5.25845 7.9252 5.82876 8.05742 6.37764C8.20383 6.98551 9.0604 7.52432 9.39492 7.71439C9.47848 7.76187 9.5789 7.76187 9.66245 7.71439Z" fill="#7A7A7A"/>
</svg>
