<svg width="24" height="24" viewBox="0 0 24 24" fill="none" xmlns="http://www.w3.org/2000/svg">
<path d="M23.9088 9.01652C23.7056 8.40866 23.1947 7.97121 22.5729 7.87665L16.2903 6.87903L13.5045 0.968021C13.2248 0.371208 12.6482 0 11.9999 0C11.3516 0 10.775 0.371048 10.4953 0.967221L7.65643 6.92911L1.42552 7.87681C0.805226 7.97137 0.29437 8.40882 0.0911794 9.01668C-0.116651 9.64085 0.0364619 10.3183 0.492761 10.7847L5.03319 15.5051L3.96924 22.0029C3.8598 22.6655 4.12859 23.3146 4.66921 23.6967C5.1879 24.0631 5.85667 24.0999 6.40976 23.7943L12.0204 20.727L17.5904 23.7943C17.8403 23.9317 18.1123 23.9997 18.3841 23.9997C18.7153 23.9997 19.0466 23.8973 19.3309 23.6965C19.8715 23.3144 20.1403 22.6653 20.0309 22.0027L18.9997 15.3861L23.5074 10.7836C23.9637 10.318 24.1166 9.64069 23.9088 9.01652ZM22.3634 9.66405L17.8558 14.2666C17.4729 14.6571 17.2995 15.2167 17.3886 15.7627L18.362 22.3926L12.7904 19.3246C12.5436 19.1886 12.2717 19.1207 11.9999 19.1207C11.7281 19.1207 11.4562 19.1895 11.2078 19.3254L5.54708 22.2606L6.61104 15.7629C6.70015 15.2168 6.52672 14.6574 6.14386 14.2661L1.63623 9.66437L1.66743 9.45813L7.8953 8.51123C8.44535 8.4277 8.91717 8.07298 9.1562 7.56192L11.9997 1.60003C12.0169 1.60003 12.0372 1.60628 12.0575 1.64932L14.8433 7.56033C15.0823 8.07282 15.5541 8.42754 16.1026 8.51043L22.3321 9.45813L22.3634 9.66405ZM15.3653 9.56805C15.6778 9.88054 15.6778 10.3868 15.3653 10.6993L11.6327 14.4322C11.4764 14.5885 11.2718 14.6666 11.0671 14.6666C10.8625 14.6666 10.6577 14.5885 10.5016 14.4322L8.63446 12.5657C8.32199 12.2532 8.32199 11.747 8.63446 11.4345C8.94693 11.122 9.45314 11.122 9.76561 11.4345L11.0671 12.7353L14.2342 9.56805C14.5467 9.25556 15.0529 9.25556 15.3653 9.56805Z" fill="url(#paint0_linear_1485_2743)"/>
<defs>
<linearGradient id="paint0_linear_1485_2743" x1="12.0001" y1="0.000463468" x2="12.0001" y2="23.9995" gradientUnits="userSpaceOnUse">
<stop stop-color="#042A4F"/>
<stop offset="0.307" stop-color="#042A4F"/>
<stop offset="0.954" stop-color="#3B82F6"/>
<stop offset="1" stop-color="#3B82F6"/>
</linearGradient>
</defs>
</svg>
