<svg width="51" height="34" viewBox="0 0 51 34" fill="none" xmlns="http://www.w3.org/2000/svg">
<path d="M27.6439 2.98235C27.913 2.82702 28.0051 2.483 27.8498 2.21396C27.6945 1.94492 27.3505 1.85274 27.0814 2.00807L25.2443 3.06873C24.9753 3.22406 24.8831 3.56808 25.0384 3.83712L26.0991 5.67424C26.2544 5.94328 26.5984 6.03546 26.8675 5.88013C27.1365 5.7248 27.2287 5.38078 27.0733 5.11174L26.6877 4.44378C27.3386 4.58949 27.9606 4.8545 28.5209 5.22887C29.4151 5.82635 30.112 6.67558 30.5236 7.66915C30.9351 8.66272 31.0428 9.75602 30.833 10.8108C30.6232 11.8656 30.1053 12.8344 29.3449 13.5949C28.5844 14.3553 27.6156 14.8732 26.5608 15.083C25.506 15.2928 24.4127 15.1851 23.4192 14.7736C22.4256 14.362 21.5764 13.6651 20.9789 12.7709C20.3814 11.8767 20.0625 10.8254 20.0625 9.74998C20.0625 9.43932 19.8107 9.18748 19.5 9.18748C19.1893 9.18748 18.9375 9.43932 18.9375 9.74998C18.9375 11.0479 19.3224 12.3167 20.0435 13.3959C20.7646 14.4751 21.7895 15.3162 22.9886 15.8129C24.1878 16.3096 25.5073 16.4396 26.7803 16.1864C28.0533 15.9332 29.2226 15.3082 30.1404 14.3904C31.0582 13.4726 31.6832 12.3033 31.9364 11.0303C32.1896 9.75727 32.0597 8.43777 31.563 7.23863C31.0663 6.03949 30.2251 5.01457 29.1459 4.29347C28.4863 3.85273 27.7559 3.53759 26.9912 3.35917L27.6439 2.98235Z" fill="#D45252"/>
<path d="M24.75 6.93749C25.0607 6.93749 25.3125 7.18933 25.3125 7.49999V10.6875H27.75C28.0607 10.6875 28.3125 10.9393 28.3125 11.25C28.3125 11.5606 28.0607 11.8125 27.75 11.8125H24.75C24.4393 11.8125 24.1875 11.5606 24.1875 11.25V7.49999C24.1875 7.18933 24.4393 6.93749 24.75 6.93749Z" fill="#D45252"/>
<path d="M5.9335 30.92C5.8055 30.92 5.67217 30.9013 5.5335 30.864C5.40017 30.8267 5.2615 30.7707 5.1175 30.696L5.3255 30.16C5.4535 30.2187 5.56017 30.256 5.6455 30.272C5.73083 30.288 5.8215 30.296 5.9175 30.296C6.1575 30.296 6.34417 30.1973 6.4775 30C6.61617 29.808 6.6855 29.552 6.6855 29.232V25.12H7.3575V29.192C7.3575 29.5493 7.3015 29.856 7.1895 30.112C7.08283 30.3733 6.92283 30.5733 6.7095 30.712C6.5015 30.8507 6.24283 30.92 5.9335 30.92ZM10.6071 28.376C10.6337 28.376 10.6471 28.3867 10.6471 28.408V28.96C10.6471 28.9867 10.6337 29 10.6071 29H8.83906V22.92H9.55106V28.376H10.6071ZM14.2109 23.36C14.0723 23.36 13.9629 23.32 13.8829 23.24C13.8029 23.1547 13.7629 23.0347 13.7629 22.88C13.7629 22.7253 13.8029 22.608 13.8829 22.528C13.9629 22.4427 14.0723 22.4 14.2109 22.4C14.3549 22.4 14.4643 22.4453 14.5389 22.536C14.6189 22.6213 14.6589 22.736 14.6589 22.88C14.6589 23.024 14.6189 23.1413 14.5389 23.232C14.4643 23.3173 14.3549 23.36 14.2109 23.36ZM10.5303 29C10.5036 29 10.4903 28.9867 10.4903 28.96V28.408C10.4903 28.3867 10.5036 28.376 10.5303 28.376H11.5063V22.92H12.1863V26.84C12.357 26.44 12.5543 26.1067 12.7783 25.84C13.0023 25.5733 13.2503 25.3733 13.5223 25.24C13.7996 25.1067 14.093 25.04 14.4023 25.04C15.005 25.04 15.461 25.2053 15.7703 25.536C16.0796 25.8613 16.2343 26.3733 16.2343 27.072V28.376H17.2903C17.317 28.376 17.3303 28.3867 17.3303 28.408V28.96C17.3303 28.9867 17.317 29 17.2903 29H10.5303ZM15.5543 28.376V27.104C15.5543 26.6133 15.445 26.2533 15.2263 26.024C15.013 25.7893 14.6903 25.672 14.2583 25.672C13.9863 25.672 13.7276 25.7493 13.4823 25.904C13.237 26.0533 13.005 26.28 12.7863 26.584C12.573 26.8827 12.373 27.2613 12.1863 27.72V28.376H15.5543ZM17.9366 23.36C17.814 23.36 17.71 23.3227 17.6246 23.248C17.534 23.1733 17.4886 23.0507 17.4886 22.88C17.4886 22.7093 17.534 22.5867 17.6246 22.512C17.71 22.4373 17.814 22.4 17.9366 22.4C18.0753 22.4 18.1846 22.4427 18.2646 22.528C18.3446 22.608 18.3846 22.7253 18.3846 22.88C18.3846 23.0347 18.3446 23.1547 18.2646 23.24C18.1846 23.32 18.0753 23.36 17.9366 23.36ZM19.3206 23.36C19.182 23.36 19.0726 23.32 18.9926 23.24C18.9126 23.1547 18.8726 23.0347 18.8726 22.88C18.8726 22.7253 18.9126 22.608 18.9926 22.528C19.0726 22.4427 19.182 22.4 19.3206 22.4C19.4646 22.4 19.574 22.4453 19.6486 22.536C19.7286 22.6213 19.7686 22.736 19.7686 22.88C19.7686 23.024 19.7286 23.1413 19.6486 23.232C19.574 23.3173 19.4646 23.36 19.3206 23.36ZM17.21 29C17.1833 29 17.17 28.9867 17.17 28.96V28.408C17.17 28.3867 17.1833 28.376 17.21 28.376H18.506V25.12H19.218V28.376H20.418C20.4447 28.376 20.458 28.3867 20.458 28.408V28.96C20.458 28.9867 20.4447 29 20.418 29H17.21ZM21.5859 24.36C21.4473 24.36 21.3379 24.32 21.2579 24.24C21.1779 24.1547 21.1379 24.0347 21.1379 23.88C21.1379 23.7253 21.1779 23.608 21.2579 23.528C21.3379 23.4427 21.4473 23.4 21.5859 23.4C21.7299 23.4 21.8393 23.4453 21.9139 23.536C21.9939 23.6213 22.0339 23.736 22.0339 23.88C22.0339 24.024 21.9939 24.1413 21.9139 24.232C21.8393 24.3173 21.7299 24.36 21.5859 24.36ZM20.335 29C20.3083 29 20.295 28.9867 20.295 28.96V28.408C20.295 28.3867 20.3083 28.376 20.335 28.376H21.391V25.12H22.103V29H20.335ZM24.9653 28.504L23.9013 24H24.6453L25.7093 28.504H24.9653ZM25.8957 28.376C26.1784 28.376 26.389 28.2987 26.5277 28.144C26.6717 27.9893 26.7437 27.7573 26.7437 27.448V22.92H27.4557V27.544C27.4557 27.9867 27.3197 28.3413 27.0477 28.608C26.781 28.8693 26.4237 29 25.9757 29H23.1437V28.376H25.8957ZM28.9719 22.92H29.6839V29H28.9719V22.92ZM33.5631 28.376H36.2271C36.1898 28.1253 36.1418 27.888 36.0831 27.664C36.0245 27.44 35.9525 27.2293 35.8671 27.032C35.7125 26.664 35.5125 26.3333 35.2671 26.04C35.0218 25.7467 34.7231 25.48 34.3711 25.24L34.6271 24.632C35.0378 24.8453 35.3978 25.1307 35.7071 25.488C36.0165 25.84 36.2725 26.2587 36.4751 26.744C36.6778 27.224 36.8218 27.768 36.9071 28.376H37.7951C37.8218 28.376 37.8351 28.3867 37.8351 28.408V28.96C37.8351 28.9867 37.8218 29 37.7951 29H33.5631V28.376ZM38.6085 30.6C38.4858 30.6 38.3818 30.5627 38.2965 30.488C38.2058 30.4133 38.1605 30.2907 38.1605 30.12C38.1605 29.9493 38.2058 29.8267 38.2965 29.752C38.3818 29.6773 38.4858 29.64 38.6085 29.64C38.7472 29.64 38.8565 29.68 38.9365 29.76C39.0165 29.8453 39.0565 29.9653 39.0565 30.12C39.0565 30.2747 39.0165 30.392 38.9365 30.472C38.8565 30.5573 38.7472 30.6 38.6085 30.6ZM39.9925 30.6C39.8538 30.6 39.7445 30.5573 39.6645 30.472C39.5845 30.392 39.5445 30.2747 39.5445 30.12C39.5445 29.9653 39.5845 29.8453 39.6645 29.76C39.7445 29.68 39.8538 29.64 39.9925 29.64C40.1365 29.64 40.2458 29.6827 40.3205 29.768C40.4005 29.8587 40.4405 29.976 40.4405 30.12C40.4405 30.264 40.4005 30.3787 40.3205 30.464C40.2458 30.5547 40.1365 30.6 39.9925 30.6ZM37.7178 29C37.6911 29 37.6778 28.9867 37.6778 28.96V28.408C37.6778 28.3867 37.6911 28.376 37.7178 28.376H39.0138V25.12H39.7258V28.376H40.9258C40.9525 28.376 40.9658 28.3867 40.9658 28.408V28.96C40.9658 28.9867 40.9525 29 40.9258 29H37.7178ZM42.6632 23.36C42.5405 23.36 42.4365 23.3227 42.3512 23.248C42.2605 23.1733 42.2152 23.0507 42.2152 22.88C42.2152 22.7093 42.2605 22.5867 42.3512 22.512C42.4365 22.4373 42.5405 22.4 42.6632 22.4C42.8019 22.4 42.9112 22.4427 42.9912 22.528C43.0712 22.608 43.1112 22.7253 43.1112 22.88C43.1112 23.0347 43.0712 23.1547 42.9912 23.24C42.9112 23.32 42.8019 23.36 42.6632 23.36ZM44.0472 23.36C43.9085 23.36 43.7992 23.32 43.7192 23.24C43.6392 23.1547 43.5992 23.0347 43.5992 22.88C43.5992 22.7253 43.6392 22.608 43.7192 22.528C43.7992 22.4427 43.9085 22.4 44.0472 22.4C44.1912 22.4 44.3005 22.4453 44.3752 22.536C44.4552 22.6213 44.4952 22.736 44.4952 22.88C44.4952 23.024 44.4552 23.1413 44.3752 23.232C44.3005 23.3173 44.1912 23.36 44.0472 23.36ZM40.8428 29C40.8161 29 40.8028 28.9867 40.8028 28.96V28.408C40.8028 28.3867 40.8161 28.376 40.8428 28.376H42.0588C41.9735 28.2693 41.8988 28.1493 41.8348 28.016C41.7708 27.8827 41.7228 27.744 41.6908 27.6C41.6588 27.4507 41.6428 27.3067 41.6428 27.168C41.6428 26.752 41.7308 26.392 41.9068 26.088C42.0881 25.7787 42.3415 25.5413 42.6668 25.376C42.9975 25.2053 43.3868 25.12 43.8348 25.12H44.8828V29H40.8428ZM43.4508 28.376H44.2028V25.744H43.8588C43.5441 25.744 43.2721 25.8 43.0428 25.912C42.8188 26.024 42.6481 26.1867 42.5308 26.4C42.4135 26.608 42.3548 26.8613 42.3548 27.16C42.3548 27.4267 42.3948 27.6507 42.4748 27.832C42.5601 28.0133 42.6828 28.1493 42.8428 28.24C43.0081 28.3307 43.2108 28.376 43.4508 28.376Z" fill="#D45252"/>
</svg>
