<svg width="25" height="24" viewBox="0 0 25 24" fill="none" xmlns="http://www.w3.org/2000/svg">
<path d="M22.2656 17.6H21.0938V11.0801C21.0938 10.974 21.0526 10.8723 20.9793 10.7972C20.9061 10.7222 20.8067 10.6801 20.7031 10.6801C20.5995 10.6801 20.5002 10.7222 20.4269 10.7972C20.3537 10.8723 20.3125 10.974 20.3125 11.0801V17.6H10.5469C10.2362 17.6003 9.93831 17.7269 9.71861 17.9519C9.49891 18.1768 9.37534 18.4818 9.375 18.8V21.2C9.375 21.7304 9.16923 22.2391 8.80294 22.6142C8.43666 22.9893 7.93988 23.2 7.42188 23.2C6.90387 23.2 6.40709 22.9893 6.04081 22.6142C5.67453 22.2391 5.46875 21.7304 5.46875 21.2V2.8C5.4688 2.42714 5.39586 2.05805 5.25426 1.71454C5.11266 1.37102 4.90527 1.06005 4.64432 0.8H18.3594C18.7624 0.800139 19.1554 0.927983 19.4846 1.16599C19.8138 1.40399 20.063 1.74049 20.198 2.1293C20.2249 2.20733 20.2748 2.27491 20.3408 2.3227C20.4067 2.37048 20.4856 2.39613 20.5664 2.3961C20.6106 2.39602 20.6546 2.38836 20.6964 2.37344C20.7941 2.33807 20.8741 2.26442 20.9188 2.16868C20.9635 2.07294 20.9692 1.96295 20.9347 1.8629C20.7457 1.31814 20.3967 0.846624 19.9356 0.513076C19.4745 0.179529 18.9239 0.00030199 18.3594 0H2.73438C2.00943 0.000865961 1.31443 0.296143 0.801814 0.821057C0.289202 1.34597 0.000845665 2.05766 0 2.8V6C0.000339139 6.31815 0.123913 6.62318 0.343609 6.84814C0.563305 7.07311 0.861179 7.19965 1.17188 7.2H4.6875V21.2C4.68835 21.9423 4.9767 22.654 5.48932 23.1789C6.00193 23.7039 6.69693 23.9991 7.42188 24H20.7031C21.4281 23.9991 22.1231 23.7039 22.6357 23.1789C23.1483 22.654 23.4367 21.9423 23.4375 21.2V18.8C23.4372 18.4818 23.3136 18.1768 23.0939 17.9519C22.8742 17.7269 22.5763 17.6003 22.2656 17.6ZM0.78125 6V2.8C0.78125 2.26957 0.987025 1.76086 1.35331 1.38579C1.71959 1.01071 2.21637 0.8 2.73438 0.8C3.25238 0.8 3.74916 1.01071 4.11544 1.38579C4.48173 1.76086 4.6875 2.26957 4.6875 2.8V6.4H1.17188C1.06831 6.39989 0.96901 6.35772 0.895776 6.28273C0.822542 6.20773 0.781354 6.10605 0.78125 6ZM22.6563 21.2C22.6556 21.7302 22.4497 22.2386 22.0835 22.6135C21.7174 22.9885 21.2209 23.1994 20.7031 23.2H9.3338C9.59431 22.9397 9.80129 22.6287 9.94255 22.2852C10.0838 21.9417 10.1565 21.5727 10.1563 21.2V18.8C10.1564 18.6939 10.1975 18.5923 10.2708 18.5173C10.344 18.4423 10.4433 18.4001 10.5469 18.4H22.2656C22.3692 18.4001 22.4685 18.4423 22.5417 18.5173C22.615 18.5923 22.6562 18.6939 22.6563 18.8V21.2Z" fill="url(#paint0_linear_1485_2734)"/>
<path d="M23.4554 1.6001C23.1016 1.60043 22.7586 1.72477 22.4834 1.95244C19.9252 4.07298 18.1702 5.5277 15.8496 7.45127C15.0435 8.1244 14.4511 9.02785 14.1478 10.0467L12.0451 10.4056C11.9647 10.4193 11.8906 10.4584 11.8331 10.5173C11.7755 10.5763 11.7374 10.6522 11.724 10.7345L10.9428 15.5345C10.9335 15.5918 10.9365 15.6504 10.9516 15.7064C10.9666 15.7624 10.9934 15.8144 11.0301 15.8587C11.0668 15.903 11.1124 15.9386 11.1639 15.963C11.2153 15.9874 11.2714 16.0001 11.3281 16.0001C11.3496 16 11.3711 15.9982 11.3924 15.9946L16.0799 15.1946C16.1602 15.1809 16.2343 15.1418 16.2918 15.0829C16.3494 15.0239 16.3875 14.948 16.4009 14.8657L16.7513 12.7126C17.7464 12.4022 18.6287 11.7954 19.2857 10.9696C22.6416 6.7247 22.5577 6.83083 24.6557 4.17705C24.8393 3.94491 24.9549 3.66427 24.9892 3.36761C25.0235 3.07096 24.9751 2.77042 24.8495 2.50079C24.7239 2.23116 24.5263 2.00347 24.2796 1.84407C24.0329 1.68467 23.7471 1.60008 23.4554 1.6001ZM20.0125 8.77893L17.9893 6.70713L21.0524 4.16809L22.5087 5.62141L20.0125 8.77893ZM12.4663 15.0002L13.948 13.4829C14.0202 13.4077 14.0604 13.3063 14.0599 13.2008C14.0594 13.0954 14.0183 12.9944 13.9455 12.9198C13.8727 12.8453 13.7741 12.8032 13.6711 12.8027C13.5681 12.8022 13.4691 12.8434 13.3957 12.9173L11.9137 14.4348L12.4489 11.1478L14.319 10.8286L15.1535 11.6829L15.9879 12.5374L15.6761 14.4524L12.4663 15.0002ZM18.6784 10.4665C18.1195 11.1702 17.3686 11.6875 16.5214 11.9524L14.8902 10.2821C15.149 9.41456 15.6541 8.64555 16.3414 8.07314L17.3788 7.21321L19.5183 9.4041L18.6784 10.4665ZM24.0486 3.67353L23.0021 4.99719L21.6636 3.66143L22.9751 2.57432C23.1217 2.45278 23.307 2.39113 23.4954 2.40124C23.6837 2.41135 23.8617 2.49251 23.9951 2.62907C24.1284 2.76564 24.2077 2.94792 24.2176 3.14079C24.2275 3.33365 24.1673 3.52344 24.0486 3.67353Z" fill="url(#paint1_linear_1485_2734)"/>
<path d="M9.375 15.2H7.42188C7.31827 15.2 7.21892 15.2421 7.14566 15.3171C7.0724 15.3921 7.03125 15.4939 7.03125 15.6C7.03125 15.706 7.0724 15.8078 7.14566 15.8828C7.21892 15.9578 7.31827 16 7.42188 16H9.375C9.4786 16 9.57796 15.9578 9.65121 15.8828C9.72447 15.8078 9.76562 15.706 9.76562 15.6C9.76562 15.4939 9.72447 15.3921 9.65121 15.3171C9.57796 15.2421 9.4786 15.2 9.375 15.2Z" fill="url(#paint2_linear_1485_2734)"/>
<path d="M9.375 12.8H7.42188C7.31827 12.8 7.21892 12.8422 7.14566 12.9172C7.0724 12.9922 7.03125 13.094 7.03125 13.2C7.03125 13.3061 7.0724 13.4079 7.14566 13.4829C7.21892 13.5579 7.31827 13.6 7.42188 13.6H9.375C9.4786 13.6 9.57796 13.5579 9.65121 13.4829C9.72447 13.4079 9.76562 13.3061 9.76562 13.2C9.76562 13.094 9.72447 12.9922 9.65121 12.9172C9.57796 12.8422 9.4786 12.8 9.375 12.8Z" fill="url(#paint3_linear_1485_2734)"/>
<path d="M9.375 10.3999H7.42188C7.31827 10.3999 7.21892 10.442 7.14566 10.5171C7.0724 10.5921 7.03125 10.6938 7.03125 10.7999C7.03125 10.906 7.0724 11.0077 7.14566 11.0827C7.21892 11.1578 7.31827 11.1999 7.42188 11.1999H9.375C9.4786 11.1999 9.57796 11.1578 9.65121 11.0827C9.72447 11.0077 9.76562 10.906 9.76562 10.7999C9.76562 10.6938 9.72447 10.5921 9.65121 10.5171C9.57796 10.442 9.4786 10.3999 9.375 10.3999Z" fill="url(#paint4_linear_1485_2734)"/>
<path d="M13.2813 8.4C13.2813 8.34747 13.2712 8.29545 13.2515 8.24691C13.2319 8.19837 13.2031 8.15427 13.1669 8.11713C13.1306 8.07998 13.0875 8.05052 13.0401 8.03042C12.9927 8.01032 12.9419 7.99999 12.8906 8H7.42188C7.31827 8 7.21892 8.04214 7.14566 8.11716C7.0724 8.19217 7.03125 8.29391 7.03125 8.4C7.03125 8.50609 7.0724 8.60783 7.14566 8.68284C7.21892 8.75786 7.31827 8.8 7.42188 8.8H12.8906C12.9419 8.80001 12.9927 8.78968 13.0401 8.76958C13.0875 8.74948 13.1306 8.72002 13.1669 8.68287C13.2031 8.64573 13.2319 8.60163 13.2515 8.55309C13.2712 8.50455 13.2813 8.45253 13.2813 8.4Z" fill="url(#paint5_linear_1485_2734)"/>
<path d="M16.4063 5.9999V2.7999C16.4063 2.74737 16.3962 2.69535 16.3765 2.64681C16.3569 2.59828 16.3281 2.55418 16.2919 2.51703C16.2556 2.47988 16.2125 2.45042 16.1651 2.43032C16.1177 2.41023 16.0669 2.39989 16.0156 2.3999H7.42188C7.37057 2.39989 7.31977 2.41023 7.27237 2.43032C7.22497 2.45042 7.18191 2.47988 7.14563 2.51703C7.10936 2.55418 7.08058 2.59828 7.06096 2.64681C7.04133 2.69535 7.03124 2.74737 7.03125 2.7999V5.9999C7.03124 6.05243 7.04133 6.10446 7.06096 6.15299C7.08058 6.20153 7.10936 6.24563 7.14563 6.28278C7.18191 6.31992 7.22497 6.34938 7.27237 6.36948C7.31977 6.38958 7.37057 6.39992 7.42188 6.3999H16.0156C16.0669 6.39992 16.1177 6.38958 16.1651 6.36948C16.2125 6.34938 16.2556 6.31992 16.2919 6.28278C16.3281 6.24563 16.3569 6.20153 16.3765 6.15299C16.3962 6.10446 16.4063 6.05243 16.4063 5.9999ZM15.625 5.5999H7.8125V3.1999H15.625V5.5999Z" fill="url(#paint6_linear_1485_2734)"/>
<defs>
<linearGradient id="paint0_linear_1485_2734" x1="11.7188" y1="0" x2="11.7188" y2="24" gradientUnits="userSpaceOnUse">
<stop stop-color="#042A4F"/>
<stop offset="1" stop-color="#3B82F6"/>
</linearGradient>
<linearGradient id="paint1_linear_1485_2734" x1="17.9687" y1="1.6001" x2="17.9687" y2="16.0001" gradientUnits="userSpaceOnUse">
<stop stop-color="#042A4F"/>
<stop offset="1" stop-color="#3B82F6"/>
</linearGradient>
<linearGradient id="paint2_linear_1485_2734" x1="8.39844" y1="15.2" x2="8.39844" y2="16" gradientUnits="userSpaceOnUse">
<stop stop-color="#042A4F"/>
<stop offset="1" stop-color="#3B82F6"/>
</linearGradient>
<linearGradient id="paint3_linear_1485_2734" x1="8.39844" y1="12.8" x2="8.39844" y2="13.6" gradientUnits="userSpaceOnUse">
<stop stop-color="#042A4F"/>
<stop offset="1" stop-color="#3B82F6"/>
</linearGradient>
<linearGradient id="paint4_linear_1485_2734" x1="8.39844" y1="10.3999" x2="8.39844" y2="11.1999" gradientUnits="userSpaceOnUse">
<stop stop-color="#042A4F"/>
<stop offset="1" stop-color="#3B82F6"/>
</linearGradient>
<linearGradient id="paint5_linear_1485_2734" x1="10.1563" y1="8" x2="10.1563" y2="8.8" gradientUnits="userSpaceOnUse">
<stop stop-color="#042A4F"/>
<stop offset="1" stop-color="#3B82F6"/>
</linearGradient>
<linearGradient id="paint6_linear_1485_2734" x1="11.7188" y1="2.3999" x2="11.7188" y2="6.3999" gradientUnits="userSpaceOnUse">
<stop stop-color="#042A4F"/>
<stop offset="1" stop-color="#3B82F6"/>
</linearGradient>
</defs>
</svg>
